<svg width="24" height="24" viewBox="0 0 24 24" fill="none" xmlns="http://www.w3.org/2000/svg">
<path d="M18.375 12V14.25C18.3744 14.0513 18.2952 13.8608 18.1547 13.7203C18.0142 13.5798 17.8237 13.5006 17.625 13.5H6.375C6.17627 13.5006 5.98585 13.5798 5.84533 13.7203C5.7048 13.8608 5.62559 14.0513 5.625 14.25V12C5.62446 11.4687 5.43591 10.9547 5.09273 10.549C4.74955 10.1434 4.2739 9.8723 3.75 9.78375V8.25C3.75 6.85761 4.30312 5.52226 5.28769 4.53769C6.27226 3.55312 7.60761 3 9 3H15C16.3924 3 17.7277 3.55312 18.7123 4.53769C19.6969 5.52226 20.25 6.85761 20.25 8.25V9.78375C19.7261 9.8723 19.2504 10.1434 18.9073 10.549C18.5641 10.9547 18.3755 11.4687 18.375 12Z" fill="#B2C2E1"/>
<path d="M3.09326 9.76874C3.40977 9.72953 3.73099 9.75793 4.03571 9.85206C4.34043 9.94619 4.6217 10.1039 4.86094 10.3148C5.10019 10.5257 5.29196 10.785 5.42359 11.0755C5.55521 11.3659 5.6237 11.6811 5.62451 12V16.5H18.3745V12C18.3741 11.5709 18.4963 11.1507 18.7269 10.7888C18.9574 10.4269 19.2866 10.1385 19.6757 9.95756C20.0647 9.77662 20.4974 9.71069 20.9227 9.76756C21.348 9.82443 21.7482 10.0017 22.076 10.2785C22.4039 10.5553 22.6457 10.9201 22.7731 11.3298C22.9005 11.7395 22.908 12.1772 22.7949 12.591C22.6817 13.0049 22.4526 13.3778 22.1345 13.6658C21.8164 13.9537 21.4226 14.1447 20.9995 14.2162V19.5C20.9989 19.6987 20.9197 19.8891 20.7792 20.0297C20.6387 20.1702 20.4482 20.2494 20.2495 20.25H3.74951C3.55078 20.2494 3.36036 20.1702 3.21984 20.0297C3.07931 19.8891 3.00011 19.6987 2.99951 19.5V14.2162C2.4674 14.1266 1.9853 13.8485 1.64124 13.4328C1.29718 13.0171 1.11413 12.4915 1.1255 11.952C1.13687 11.4125 1.34191 10.8951 1.70318 10.4943C2.06445 10.0934 2.55785 9.83592 3.09326 9.76874Z" fill="#B2C2E1"/>
<path d="M23.2197 11.5988C23.1284 11.0363 22.8585 10.5183 22.4499 10.1212C22.0413 9.72405 21.5158 9.469 20.951 9.39375C20.8426 9.38314 20.7337 9.37813 20.6248 9.37875V8.25C20.623 6.75871 20.0298 5.329 18.9753 4.2745C17.9207 3.21999 16.491 2.62679 14.9998 2.625H8.99975C7.50846 2.62679 6.07876 3.21999 5.02425 4.2745C3.96975 5.329 3.37654 6.75871 3.37475 8.25V9.37875C3.26582 9.37813 3.15692 9.38314 3.0485 9.39375C2.48372 9.469 1.95816 9.72405 1.54957 10.1212C1.14098 10.5183 0.871066 11.0363 0.779753 11.5988C0.679511 12.2258 0.811663 12.8679 1.15139 13.4044C1.49112 13.941 2.01504 14.335 2.62475 14.5125V19.5C2.62564 19.7981 2.74446 20.0837 2.95524 20.2945C3.16603 20.5053 3.45166 20.6241 3.74975 20.625V22.875C3.74975 22.9745 3.78926 23.0698 3.85959 23.1402C3.92991 23.2105 4.0253 23.25 4.12475 23.25H5.24975C5.33138 23.2498 5.41069 23.2229 5.47567 23.1735C5.54064 23.1241 5.58772 23.0548 5.60975 22.9762L6.281 20.625H17.7185L18.3898 22.9762C18.4118 23.0548 18.4589 23.1241 18.5238 23.1735C18.5888 23.2229 18.6681 23.2498 18.7498 23.25H19.8748C19.9742 23.25 20.0696 23.2105 20.1399 23.1402C20.2102 23.0698 20.2498 22.9745 20.2498 22.875V20.625C20.5478 20.6241 20.8335 20.5053 21.0443 20.2945C21.255 20.0837 21.3739 19.7981 21.3748 19.5V14.5125C21.9845 14.335 22.5084 13.941 22.8481 13.4044C23.1878 12.8679 23.32 12.2258 23.2197 11.5988ZM4.12475 8.25C4.12594 6.95744 4.63994 5.71815 5.55392 4.80417C6.46791 3.89019 7.70719 3.37619 8.99975 3.375H14.9998C16.2923 3.37619 17.5316 3.89019 18.4456 4.80417C19.3596 5.71815 19.8736 6.95744 19.8748 8.25V9.4875C19.3328 9.64758 18.8572 9.97886 18.5192 10.4318C18.1812 10.8847 17.999 11.4349 17.9998 12V13.1925C17.8795 13.1488 17.7527 13.126 17.6248 13.125H6.37475C6.24682 13.126 6.12001 13.1488 5.99975 13.1925V12C6.00054 11.4349 5.8183 10.8847 5.4803 10.4318C5.14231 9.97886 4.66674 9.64758 4.12475 9.4875V8.25ZM17.9998 14.25V16.125H5.99975V14.25C5.99975 14.1505 6.03926 14.0552 6.10959 13.9848C6.17991 13.9145 6.2753 13.875 6.37475 13.875H17.6248C17.7242 13.875 17.8196 13.9145 17.8899 13.9848C17.9602 14.0552 17.9998 14.1505 17.9998 14.25ZM4.9685 22.5H4.49975V20.625H5.501L4.9685 22.5ZM19.4998 22.5H19.031L18.4985 20.625H19.4998V22.5ZM20.936 13.845C20.8489 13.8606 20.77 13.9064 20.7131 13.9742C20.6562 14.0421 20.6249 14.1277 20.6248 14.2162V19.5C20.6248 19.5995 20.5852 19.6948 20.5149 19.7652C20.4446 19.8355 20.3492 19.875 20.2498 19.875H3.74975C3.6503 19.875 3.55491 19.8355 3.48459 19.7652C3.41426 19.6948 3.37475 19.5995 3.37475 19.5V14.2162C3.37456 14.1277 3.3433 14.0421 3.28642 13.9742C3.22954 13.9064 3.15065 13.8606 3.0635 13.845C2.62014 13.7707 2.21831 13.5394 1.93137 13.1933C1.64444 12.8473 1.49157 12.4096 1.50067 11.9601C1.50976 11.5107 1.68023 11.0795 1.98093 10.7453C2.28163 10.4111 2.6925 10.1963 3.1385 10.14C3.2168 10.1294 3.29575 10.1244 3.37475 10.125H3.3785C3.83522 10.1242 4.27606 10.2925 4.616 10.5975C4.81472 10.7732 4.97394 10.9891 5.08318 11.2308C5.19242 11.4726 5.24919 11.7347 5.24975 12V16.5C5.24975 16.5995 5.28926 16.6948 5.35959 16.7652C5.42991 16.8355 5.5253 16.875 5.62475 16.875H18.3748C18.4742 16.875 18.5696 16.8355 18.6399 16.7652C18.7102 16.6948 18.7498 16.5995 18.7498 16.5V12C18.7503 11.7347 18.8071 11.4726 18.9163 11.2308C19.0256 10.9891 19.1848 10.7732 19.3835 10.5975C19.5822 10.4191 19.8171 10.2859 20.0721 10.2069C20.3272 10.1279 20.5963 10.1051 20.861 10.14C21.2634 10.1921 21.6382 10.3729 21.9294 10.6554C22.2207 10.9378 22.4128 11.3069 22.4773 11.7075V11.7113C22.5547 12.1984 22.436 12.6965 22.1472 13.0964C21.8583 13.4962 21.4228 13.7654 20.936 13.845Z" fill="#425A8B"/>
</svg>
