<svg width="24" height="24" viewBox="0 0 24 24" fill="none" xmlns="http://www.w3.org/2000/svg">
<g clip-path="url(#clip0_776_56174)">
<path d="M21.75 14.25V19.875C21.7494 20.0737 21.6702 20.2642 21.5297 20.4047C21.3892 20.5452 21.1987 20.6244 21 20.625H3C2.80127 20.6244 2.61085 20.5452 2.47033 20.4047C2.3298 20.2642 2.25059 20.0737 2.25 19.875V14.25H21.75Z" fill="#B2C2E1"/>
<path d="M12.375 3.375H17.625V4.875H12.375V3.375Z" fill="#B2C2E1"/>
<path d="M22.125 12.375H21.375V1.875C21.3741 1.57691 21.2553 1.29127 21.0445 1.08049C20.8337 0.869703 20.5481 0.75089 20.25 0.75H15.75C15.4519 0.75089 15.1663 0.869703 14.9555 1.08049C14.7447 1.29127 14.6259 1.57691 14.625 1.875V3H12.375C12.2755 3 12.1802 3.03951 12.1098 3.10984C12.0395 3.18016 12 3.27554 12 3.375V4.875C12 4.97446 12.0395 5.06984 12.1098 5.14016C12.1802 5.21049 12.2755 5.25 12.375 5.25H17.625C17.7245 5.25 17.8198 5.21049 17.8902 5.14016C17.9605 5.06984 18 4.97446 18 4.875V3.375C18 3.27554 17.9605 3.18016 17.8902 3.10984C17.8198 3.03951 17.7245 3 17.625 3H15.375V1.875C15.375 1.77554 15.4145 1.68016 15.4848 1.60984C15.5552 1.53951 15.6505 1.5 15.75 1.5H20.25C20.3495 1.5 20.4448 1.53951 20.5152 1.60984C20.5855 1.68016 20.625 1.77554 20.625 1.875V12.375H1.875C1.57663 12.375 1.29048 12.4935 1.0795 12.7045C0.868526 12.9155 0.75 13.2016 0.75 13.5C0.75 13.7984 0.868526 14.0845 1.0795 14.2955C1.29048 14.5065 1.57663 14.625 1.875 14.625V19.875C1.87589 20.1731 1.9947 20.4587 2.20549 20.6695C2.41627 20.8803 2.70191 20.9991 3 21V22.875C3 22.9745 3.03951 23.0698 3.10984 23.1402C3.18016 23.2105 3.27554 23.25 3.375 23.25H4.875C4.96424 23.2503 5.05065 23.2187 5.1187 23.1609C5.18675 23.1032 5.23197 23.0231 5.24625 22.935L5.56875 21H18.4313L18.7537 22.935C18.768 23.0231 18.8133 23.1032 18.8813 23.1609C18.9494 23.2187 19.0358 23.2503 19.125 23.25H20.625C20.7245 23.25 20.8198 23.2105 20.8902 23.1402C20.9605 23.0698 21 22.9745 21 22.875V21C21.2981 20.9991 21.5837 20.8803 21.7945 20.6695C22.0053 20.4587 22.1241 20.1731 22.125 19.875V14.625C22.4234 14.625 22.7095 14.5065 22.9205 14.2955C23.1315 14.0845 23.25 13.7984 23.25 13.5C23.25 13.2016 23.1315 12.9155 22.9205 12.7045C22.7095 12.4935 22.4234 12.375 22.125 12.375ZM17.25 3.75V4.5H12.75V3.75H17.25ZM4.55625 22.5H3.75V21H4.8075L4.55625 22.5ZM20.25 22.5H19.4437L19.1925 21H20.25V22.5ZM21.375 19.875C21.375 19.9745 21.3355 20.0698 21.2652 20.1402C21.1948 20.2105 21.0995 20.25 21 20.25H3C2.90054 20.25 2.80516 20.2105 2.73484 20.1402C2.66451 20.0698 2.625 19.9745 2.625 19.875V14.625H21.375V19.875ZM22.125 13.875H1.875C1.77554 13.875 1.68016 13.8355 1.60984 13.7652C1.53951 13.6948 1.5 13.5995 1.5 13.5C1.5 13.4005 1.53951 13.3052 1.60984 13.2348C1.68016 13.1645 1.77554 13.125 1.875 13.125H22.125C22.2245 13.125 22.3198 13.1645 22.3902 13.2348C22.4605 13.3052 22.5 13.4005 22.5 13.5C22.5 13.5995 22.4605 13.6948 22.3902 13.7652C22.3198 13.8355 22.2245 13.875 22.125 13.875Z" fill="#425A8B"/>
<path d="M12.375 6H13.125V6.75H12.375V6Z" fill="#425A8B"/>
<path d="M12.375 7.5H13.125V8.25H12.375V7.5Z" fill="#425A8B"/>
<path d="M13.875 6H14.625V6.75H13.875V6Z" fill="#425A8B"/>
<path d="M13.875 7.5H14.625V8.25H13.875V7.5Z" fill="#425A8B"/>
<path d="M15.375 6H16.125V6.75H15.375V6Z" fill="#425A8B"/>
<path d="M15.375 7.5H16.125V8.25H15.375V7.5Z" fill="#425A8B"/>
<path d="M16.875 6H17.625V6.75H16.875V6Z" fill="#425A8B"/>
<path d="M16.875 7.5H17.625V8.25H16.875V7.5Z" fill="#425A8B"/>
</g>
<defs>
<clipPath id="clip0_776_56174">
<rect width="24" height="24" fill="white"/>
</clipPath>
</defs>
</svg>
