<svg width="24" height="24" viewBox="0 0 24 24" fill="none" xmlns="http://www.w3.org/2000/svg">
<path d="M22.125 20.625V22.875H20.625L20.25 20.625H22.125Z" fill="#B2C2E1"/>
<path d="M3.75 20.625L3.375 22.875H1.875V20.625H3.75Z" fill="#B2C2E1"/>
<path d="M20.625 13.875H21.375C21.7725 13.876 22.1535 14.0343 22.4346 14.3154C22.7157 14.5965 22.874 14.9775 22.875 15.375V19.125H1.125V15.375C1.12599 14.9775 1.28434 14.5965 1.56543 14.3154C1.84652 14.0343 2.22748 13.876 2.625 13.875H20.625Z" fill="#B2C2E1"/>
<path d="M12.75 13.125C12.7506 13.3237 12.8298 13.5142 12.9703 13.6547C13.1108 13.7952 13.3013 13.8744 13.5 13.875H10.5C10.6987 13.8744 10.8892 13.7952 11.0297 13.6547C11.1702 13.5142 11.2494 13.3237 11.25 13.125V11.25C11.2494 11.0513 11.1702 10.8608 11.0297 10.7203C10.8892 10.5798 10.6987 10.5006 10.5 10.5H5.625C5.42627 10.5006 5.23585 10.5798 5.09533 10.7203C4.9548 10.8608 4.87559 11.0513 4.875 11.25V13.125C4.87559 13.3237 4.9548 13.5142 5.09533 13.6547C5.23585 13.7952 5.42627 13.8744 5.625 13.875H3.375V9.75C3.375 8.75544 3.77009 7.80161 4.47335 7.09835C5.17661 6.39509 6.13044 6 7.125 6H16.875C17.8696 6 18.8234 6.39509 19.5266 7.09835C20.2299 7.80161 20.625 8.75544 20.625 9.75V13.875H18.375C18.5737 13.8744 18.7642 13.7952 18.9047 13.6547C19.0452 13.5142 19.1244 13.3237 19.125 13.125V11.25C19.1244 11.0513 19.0452 10.8608 18.9047 10.7203C18.7642 10.5798 18.5737 10.5006 18.375 10.5H13.5C13.3013 10.5006 13.1108 10.5798 12.9703 10.7203C12.8298 10.8608 12.7506 11.0513 12.75 11.25V13.125Z" fill="#B2C2E1"/>
<path d="M21.3751 2.25C21.705 2.24924 22.0259 2.35752 22.288 2.55801C22.55 2.75849 22.7384 3.03994 22.824 3.35858C22.9095 3.67723 22.8874 4.01521 22.761 4.31997C22.6346 4.62472 22.411 4.87917 22.1251 5.04375V14.0775C21.8973 13.9451 21.6385 13.8753 21.3751 13.875H20.6251V5.04375C20.3391 4.87917 20.1156 4.62472 19.9892 4.31997C19.8628 4.01521 19.8406 3.67723 19.9262 3.35858C20.0117 3.03994 20.2002 2.75849 20.4622 2.55801C20.7242 2.35752 21.0451 2.24924 21.3751 2.25Z" fill="#B2C2E1"/>
<path d="M2.62457 2.25C2.95539 2.24902 3.27719 2.35778 3.53958 2.55925C3.80196 2.76072 3.99013 3.04353 4.07459 3.36338C4.15905 3.68323 4.13505 4.02206 4.00635 4.32681C3.87764 4.63157 3.65149 4.88502 3.36332 5.0475H3.37457V13.875H2.62457C2.3611 13.8753 2.10238 13.9451 1.87457 14.0775V5.0475H1.88582C1.59765 4.88502 1.37151 4.63157 1.2428 4.32681C1.11409 4.02206 1.09009 3.68323 1.17456 3.36338C1.25902 3.04353 1.44718 2.76072 1.70957 2.55925C1.97196 2.35778 2.29376 2.24902 2.62457 2.25Z" fill="#B2C2E1"/>
<path d="M22.5 13.8862V5.2425C22.7333 5.07002 22.9228 4.84504 23.0531 4.58576C23.1834 4.32648 23.2509 4.04018 23.25 3.75C23.25 3.25272 23.0525 2.77581 22.7008 2.42418C22.3492 2.07254 21.8723 1.875 21.375 1.875C20.8777 1.875 20.4008 2.07254 20.0492 2.42418C19.6975 2.77581 19.5 3.25272 19.5 3.75C19.4991 4.04018 19.5666 4.32648 19.6969 4.58576C19.8272 4.84504 20.0166 5.07002 20.25 5.2425V7.3875C19.871 6.84365 19.3662 6.3994 18.7785 6.09254C18.1909 5.78568 17.5379 5.62528 16.875 5.625H7.125C6.46209 5.62528 5.80906 5.78568 5.22145 6.09254C4.63384 6.3994 4.12905 6.84365 3.75 7.3875V5.2425C4.06482 5.00638 4.29737 4.67719 4.41471 4.30156C4.53205 3.92594 4.52823 3.52291 4.40378 3.14957C4.27934 2.77624 4.04058 2.45152 3.72133 2.22142C3.40208 1.99132 3.01853 1.8675 2.625 1.8675C2.23147 1.8675 1.84792 1.99132 1.52867 2.22142C1.20942 2.45152 0.970664 2.77624 0.846219 3.14957C0.721774 3.52291 0.717949 3.92594 0.835287 4.30156C0.952625 4.67719 1.18518 5.00638 1.5 5.2425V13.8862C1.26762 14.0588 1.07878 14.2833 0.948561 14.5417C0.818343 14.8002 0.750347 15.0856 0.75 15.375V20.625C0.75 20.7245 0.789509 20.8198 0.859835 20.8902C0.930161 20.9605 1.02554 21 1.125 21H1.5V22.875C1.5 22.9745 1.53951 23.0698 1.60983 23.1402C1.68016 23.2105 1.77554 23.25 1.875 23.25H3.375C3.46424 23.2503 3.55065 23.2187 3.6187 23.1609C3.68674 23.1032 3.73197 23.0231 3.74625 22.935L4.06875 21H19.9312L20.2537 22.935C20.268 23.0231 20.3133 23.1032 20.3813 23.1609C20.4493 23.2187 20.5358 23.2503 20.625 23.25H22.125C22.2245 23.25 22.3198 23.2105 22.3902 23.1402C22.4605 23.0698 22.5 22.9745 22.5 22.875V21H22.875C22.9745 21 23.0698 20.9605 23.1402 20.8902C23.2105 20.8198 23.25 20.7245 23.25 20.625V15.375C23.2497 15.0856 23.1817 14.8002 23.0514 14.5417C22.9212 14.2833 22.7324 14.0588 22.5 13.8862ZM21.375 2.625C21.6228 2.62419 21.8639 2.70546 22.0606 2.85611C22.2573 3.00676 22.3986 3.21831 22.4624 3.45774C22.5263 3.69716 22.509 3.95098 22.4133 4.17956C22.3177 4.40814 22.1491 4.59862 21.9337 4.72125C21.8781 4.75477 21.8319 4.80203 21.7998 4.8585C21.7676 4.91497 21.7504 4.97876 21.75 5.04375V13.5375C21.6264 13.5135 21.5009 13.501 21.375 13.5H21V5.04375C20.9995 4.97876 20.9824 4.91497 20.9502 4.8585C20.9181 4.80203 20.8719 4.75477 20.8162 4.72125C20.6009 4.59862 20.4323 4.40814 20.3367 4.17956C20.241 3.95098 20.2237 3.69716 20.2876 3.45774C20.3514 3.21831 20.4927 3.00676 20.6894 2.85611C20.8861 2.70546 21.1272 2.62419 21.375 2.625ZM7.125 6.375H16.875C17.7697 6.37639 18.6273 6.73241 19.26 7.36505C19.8926 7.99768 20.2486 8.85532 20.25 9.75V13.5H19.4325C19.4762 13.3797 19.499 13.2529 19.5 13.125V11.25C19.4991 10.9519 19.3803 10.6663 19.1695 10.4555C18.9587 10.2447 18.6731 10.1259 18.375 10.125H13.5C13.2019 10.1259 12.9163 10.2447 12.7055 10.4555C12.4947 10.6663 12.3759 10.9519 12.375 11.25V13.125C12.376 13.2529 12.3988 13.3797 12.4425 13.5H11.5575C11.6012 13.3797 11.624 13.2529 11.625 13.125V11.25C11.6241 10.9519 11.5053 10.6663 11.2945 10.4555C11.0837 10.2447 10.7981 10.1259 10.5 10.125H5.625C5.3269 10.1259 5.04127 10.2447 4.83049 10.4555C4.6197 10.6663 4.50089 10.9519 4.5 11.25V13.125C4.50101 13.2529 4.52384 13.3797 4.5675 13.5H3.75V9.75C3.75139 8.85532 4.10741 7.99768 4.74005 7.36505C5.37268 6.73241 6.23032 6.37639 7.125 6.375ZM18.75 11.25V13.125C18.75 13.2245 18.7105 13.3198 18.6402 13.3902C18.5698 13.4605 18.4745 13.5 18.375 13.5H13.5C13.4005 13.5 13.3052 13.4605 13.2348 13.3902C13.1645 13.3198 13.125 13.2245 13.125 13.125V11.25C13.125 11.1505 13.1645 11.0552 13.2348 10.9848C13.3052 10.9145 13.4005 10.875 13.5 10.875H18.375C18.4745 10.875 18.5698 10.9145 18.6402 10.9848C18.7105 11.0552 18.75 11.1505 18.75 11.25ZM10.875 11.25V13.125C10.875 13.2245 10.8355 13.3198 10.7652 13.3902C10.6948 13.4605 10.5995 13.5 10.5 13.5H5.625C5.52554 13.5 5.43016 13.4605 5.35983 13.3902C5.28951 13.3198 5.25 13.2245 5.25 13.125V11.25C5.25 11.1505 5.28951 11.0552 5.35983 10.9848C5.43016 10.9145 5.52554 10.875 5.625 10.875H10.5C10.5995 10.875 10.6948 10.9145 10.7652 10.9848C10.8355 11.0552 10.875 11.1505 10.875 11.25ZM2.625 2.625C2.92309 2.62589 3.20873 2.7447 3.41951 2.95549C3.6303 3.16627 3.74911 3.45191 3.75 3.75C3.75045 3.94851 3.6974 4.14346 3.59643 4.31438C3.49547 4.48529 3.35032 4.62584 3.17625 4.72125C3.1106 4.76052 3.05853 4.81893 3.02703 4.88864C2.99552 4.95835 2.98609 5.03603 3 5.11125V13.5H2.625C2.49911 13.501 2.37358 13.5135 2.25 13.5375V5.1375C2.26989 5.05839 2.26345 4.97495 2.23164 4.89983C2.19984 4.82472 2.1444 4.76202 2.07375 4.72125C1.89968 4.62584 1.75453 4.48529 1.65357 4.31438C1.5526 4.14346 1.49955 3.94851 1.5 3.75C1.50089 3.45191 1.6197 3.16627 1.83049 2.95549C2.04127 2.7447 2.32691 2.62589 2.625 2.625ZM3.05625 22.5H2.25V21H3.3075L3.05625 22.5ZM21.75 22.5H20.9437L20.6925 21H21.75V22.5ZM22.5 20.25H1.5V19.5H22.5V20.25ZM22.5 18.75H1.5V15.375C1.50089 15.0769 1.6197 14.7913 1.83049 14.5805C2.04127 14.3697 2.32691 14.2509 2.625 14.25H21.375C21.6731 14.2509 21.9587 14.3697 22.1695 14.5805C22.3803 14.7913 22.4991 15.0769 22.5 15.375V18.75Z" fill="#425A8B"/>
</svg>
