<svg width="24" height="24" viewBox="0 0 24 24" fill="none" xmlns="http://www.w3.org/2000/svg">
<path d="M18.75 15L19.5 22.875H18L17.3588 19.5L17.07 18L16.5 15H18.75Z" fill="#B2C2E1"/>
<path d="M7.87504 15L7.29379 18L7.00504 19.5L6.35254 22.875H4.85254L5.60254 15H7.87504Z" fill="#B2C2E1"/>
<path d="M19.125 12V15H18.75H16.5H7.875H5.6025H4.875V12H7.5H8.625H15.375H16.5H19.125Z" fill="#B2C2E1"/>
<path d="M16.5 4.125H6.75C6.55127 4.12441 6.36085 4.0452 6.22033 3.90467C6.0798 3.76415 6.00059 3.57373 6 3.375V1.875C6.00059 1.67627 6.0798 1.48585 6.22033 1.34533C6.36085 1.2048 6.55127 1.12559 6.75 1.125H17.25C17.4487 1.12559 17.6392 1.2048 17.7797 1.34533C17.9202 1.48585 17.9994 1.67627 18 1.875V3.375C17.9994 3.57373 17.9202 3.76415 17.7797 3.90467C17.6392 4.0452 17.4487 4.12441 17.25 4.125H16.5Z" fill="#B2C2E1"/>
<path d="M19.1627 15.3675C19.2546 15.3592 19.3401 15.3169 19.4025 15.249C19.4649 15.181 19.4998 15.0923 19.5002 15V12C19.5002 11.9005 19.4607 11.8052 19.3904 11.7348C19.3201 11.6645 19.2247 11.625 19.1252 11.625H16.8752V4.5H17.2502C17.5483 4.49911 17.8339 4.3803 18.0447 4.16951C18.2555 3.95873 18.3743 3.67309 18.3752 3.375V1.875C18.3743 1.57691 18.2555 1.29127 18.0447 1.08049C17.8339 0.869703 17.5483 0.75089 17.2502 0.75H6.75022C6.45212 0.75089 6.16649 0.869703 5.95571 1.08049C5.74492 1.29127 5.62611 1.57691 5.62522 1.875V3.375C5.62611 3.67309 5.74492 3.95873 5.95571 4.16951C6.16649 4.3803 6.45212 4.49911 6.75022 4.5H7.12522V11.625H4.87522C4.77576 11.625 4.68038 11.6645 4.61005 11.7348C4.53973 11.8052 4.50022 11.9005 4.50022 12V15C4.50022 15.0995 4.53973 15.1948 4.61005 15.2652C4.68038 15.3355 4.77576 15.375 4.87522 15.375H5.19022L4.47772 22.8412C4.47368 22.8929 4.48025 22.9448 4.49701 22.9938C4.51378 23.0428 4.54039 23.0879 4.57522 23.1262C4.61028 23.1651 4.65308 23.1962 4.70087 23.2175C4.74867 23.2388 4.80039 23.2499 4.85272 23.25H6.35272C6.4397 23.2498 6.52391 23.2195 6.59096 23.164C6.658 23.1086 6.70369 23.0316 6.72022 22.9462L7.31272 19.875H17.0477L17.6327 22.9462C17.6492 23.0316 17.6949 23.1086 17.762 23.164C17.829 23.2195 17.9132 23.2498 18.0002 23.25H19.5002C19.5525 23.2499 19.6043 23.2388 19.6521 23.2175C19.6999 23.1962 19.7427 23.1651 19.7777 23.1262C19.8125 23.0879 19.8392 23.0428 19.8559 22.9938C19.8727 22.9448 19.8793 22.8929 19.8752 22.8412L19.1627 15.3675ZM6.75022 3.75C6.65076 3.75 6.55538 3.71049 6.48505 3.64016C6.41473 3.56984 6.37522 3.47446 6.37522 3.375V1.875C6.37522 1.77554 6.41473 1.68016 6.48505 1.60984C6.55538 1.53951 6.65076 1.5 6.75022 1.5H17.2502C17.3497 1.5 17.4451 1.53951 17.5154 1.60984C17.5857 1.68016 17.6252 1.77554 17.6252 1.875V3.375C17.6252 3.47446 17.5857 3.56984 17.5154 3.64016C17.4451 3.71049 17.3497 3.75 17.2502 3.75H6.75022ZM16.1252 4.5V11.625H15.7502V4.5H16.1252ZM15.0002 4.5V11.625H9.00022V4.5H15.0002ZM8.25022 4.5V11.625H7.87522V4.5H8.25022ZM5.25022 12.375H18.7502V14.625H5.25022V12.375ZM16.6202 17.625H7.74772L8.18272 15.375H16.189L16.6202 17.625ZM6.04147 22.5H5.26522L5.94397 15.375H7.42147L6.04147 22.5ZM7.45897 19.125L7.60522 18.375H16.7627L16.9052 19.125H7.45897ZM18.3115 22.5L16.954 15.375H18.409L19.0877 22.5H18.3115Z" fill="#425A8B"/>
</svg>
