<svg width="24" height="24" viewBox="0 0 24 24" fill="none" xmlns="http://www.w3.org/2000/svg">
<g clip-path="url(#clip0_776_56178)">
<path d="M1.875 12.375H12V15.375H1.875V12.375Z" fill="#B2C2E1"/>
<path d="M12 12.375H22.125V15.375H12V12.375Z" fill="#B2C2E1"/>
<path d="M12 15.375V20.625H22.125V15.375H12ZM13.875 18.375C13.8008 18.375 13.7283 18.353 13.6667 18.3118C13.605 18.2706 13.5569 18.212 13.5285 18.1435C13.5002 18.075 13.4927 17.9996 13.5072 17.9268C13.5217 17.8541 13.5574 17.7873 13.6098 17.7348C13.6623 17.6824 13.7291 17.6467 13.8018 17.6322C13.8746 17.6177 13.95 17.6252 14.0185 17.6535C14.087 17.6819 14.1456 17.73 14.1868 17.7917C14.228 17.8533 14.25 17.9258 14.25 18C14.25 18.0995 14.2105 18.1948 14.1402 18.2652C14.0698 18.3355 13.9745 18.375 13.875 18.375Z" fill="#B2C2E1"/>
<path d="M1.875 15.375V20.625H12V15.375H1.875ZM10.125 18.375C10.0508 18.375 9.97833 18.353 9.91666 18.3118C9.85499 18.2706 9.80693 18.212 9.77855 18.1435C9.75016 18.075 9.74274 17.9996 9.75721 17.9268C9.77168 17.8541 9.80739 17.7873 9.85983 17.7348C9.91228 17.6824 9.9791 17.6467 10.0518 17.6322C10.1246 17.6177 10.2 17.6252 10.2685 17.6535C10.337 17.6819 10.3956 17.73 10.4368 17.7917C10.478 17.8533 10.5 17.9258 10.5 18C10.5 18.0995 10.4605 18.1948 10.3902 18.2652C10.3198 18.3355 10.2245 18.375 10.125 18.375Z" fill="#B2C2E1"/>
<path d="M4.5 1.125H19.5V9.375H4.5V1.125Z" fill="#B2C2E1"/>
<path d="M22.875 10.5H19.3125L18.75 9.75H19.5C19.5995 9.75 19.6948 9.71049 19.7652 9.64017C19.8355 9.56984 19.875 9.47446 19.875 9.375V1.125C19.875 1.02554 19.8355 0.930161 19.7652 0.859835C19.6948 0.789509 19.5995 0.75 19.5 0.75H4.5C4.40054 0.75 4.30516 0.789509 4.23484 0.859835C4.16451 0.930161 4.125 1.02554 4.125 1.125V9.375C4.125 9.47446 4.16451 9.56984 4.23484 9.64017C4.30516 9.71049 4.40054 9.75 4.5 9.75H5.25L4.6875 10.5H1.125C1.02554 10.5 0.930161 10.5395 0.859835 10.6098C0.789509 10.6802 0.75 10.7755 0.75 10.875V12.375C0.75 12.4745 0.789509 12.5698 0.859835 12.6402C0.930161 12.7105 1.02554 12.75 1.125 12.75H1.5V20.625C1.5 20.7245 1.53951 20.8198 1.60984 20.8902C1.68016 20.9605 1.77554 21 1.875 21H2.25V22.875C2.25 22.9745 2.28951 23.0698 2.35984 23.1402C2.43016 23.2105 2.52554 23.25 2.625 23.25H4.125C4.20343 23.2494 4.27976 23.2246 4.34354 23.179C4.40732 23.1333 4.45542 23.0691 4.48125 22.995L5.145 21H18.855L19.5187 22.995C19.5446 23.0691 19.5927 23.1333 19.6565 23.179C19.7202 23.2246 19.7966 23.2494 19.875 23.25H21.375C21.4745 23.25 21.5698 23.2105 21.6402 23.1402C21.7105 23.0698 21.75 22.9745 21.75 22.875V21H22.125C22.2245 21 22.3198 20.9605 22.3902 20.8902C22.4605 20.8198 22.5 20.7245 22.5 20.625V12.75H22.875C22.9745 12.75 23.0698 12.7105 23.1402 12.6402C23.2105 12.5698 23.25 12.4745 23.25 12.375V10.875C23.25 10.7755 23.2105 10.6802 23.1402 10.6098C23.0698 10.5395 22.9745 10.5 22.875 10.5ZM4.875 9V1.5H19.125V9H4.875ZM18.375 10.5H17.625L18 10.0013L18.375 10.5ZM17.25 9.75L16.6875 10.5H7.3125L6.75 9.75H17.25ZM6.375 10.5H5.625L6 10.0013L6.375 10.5ZM3.855 22.5H3V21H4.35375L3.855 22.5ZM11.625 20.25H2.25V15.75H11.625V20.25ZM11.625 15H2.25V12.75H11.625V15ZM21 22.5H20.145L19.6462 21H21V22.5ZM21.75 20.25H12.375V15.75H21.75V20.25ZM21.75 15H12.375V12.75H21.75V15ZM22.5 12H1.5V11.25H22.5V12Z" fill="#425A8B"/>
<path d="M6.375 13.125H7.875V13.875H6.375V13.125Z" fill="#425A8B"/>
<path d="M16.125 13.125H17.625V13.875H16.125V13.125Z" fill="#425A8B"/>
<path d="M10.125 18.75C10.5392 18.75 10.875 18.4142 10.875 18C10.875 17.5858 10.5392 17.25 10.125 17.25C9.71079 17.25 9.375 17.5858 9.375 18C9.375 18.4142 9.71079 18.75 10.125 18.75Z" fill="#425A8B"/>
<path d="M13.875 18.75C14.2892 18.75 14.625 18.4142 14.625 18C14.625 17.5858 14.2892 17.25 13.875 17.25C13.4608 17.25 13.125 17.5858 13.125 18C13.125 18.4142 13.4608 18.75 13.875 18.75Z" fill="#425A8B"/>
</g>
<defs>
<clipPath id="clip0_776_56178">
<rect width="24" height="24" fill="white"/>
</clipPath>
</defs>
</svg>
