<svg width="24" height="24" viewBox="0 0 24 24" fill="none" xmlns="http://www.w3.org/2000/svg">
<path d="M19.5 11.625V22.875H18L17.625 21.75H6.375L6 22.875H4.5V11.625H19.5ZM18 20.25V13.125H6V20.25H18Z" fill="#B2C2E1"/>
<path d="M6.375 6.375C6.375 4.88316 6.96763 3.45242 8.02252 2.39752C9.07742 1.34263 10.5082 0.75 12 0.75C13.4918 0.75 14.9226 1.34263 15.9775 2.39752C17.0324 3.45242 17.625 4.88316 17.625 6.375V11.625H16.5V6.375C16.5 5.18153 16.0259 4.03693 15.182 3.19302C14.3381 2.34911 13.1935 1.875 12 1.875C10.8065 1.875 9.66193 2.34911 8.81802 3.19302C7.97411 4.03693 7.5 5.18153 7.5 6.375V11.625H6.375V6.375Z" fill="#B2C2E1"/>
<path d="M19.5 11.25H18V6.375C18 4.7837 17.3679 3.25758 16.2426 2.13236C15.1174 1.00714 13.5913 0.375 12 0.375C10.4087 0.375 8.88258 1.00714 7.75736 2.13236C6.63214 3.25758 6 4.7837 6 6.375V11.25H4.5C4.40054 11.25 4.30516 11.2895 4.23484 11.3598C4.16451 11.4302 4.125 11.5255 4.125 11.625V22.875C4.125 22.9745 4.16451 23.0698 4.23484 23.1402C4.30516 23.2105 4.40054 23.25 4.5 23.25H6C6.07843 23.2494 6.15476 23.2246 6.21854 23.179C6.28232 23.1333 6.33042 23.0691 6.35625 22.995L6.645 22.125H17.355L17.6437 22.995C17.6696 23.0691 17.7177 23.1333 17.7815 23.179C17.8452 23.2246 17.9216 23.2494 18 23.25H19.5C19.5995 23.25 19.6948 23.2105 19.7652 23.1402C19.8355 23.0698 19.875 22.9745 19.875 22.875V11.625C19.875 11.5255 19.8355 11.4302 19.7652 11.3598C19.6948 11.2895 19.5995 11.25 19.5 11.25ZM6.75 6.375C6.75 4.98261 7.30312 3.64726 8.28769 2.66269C9.27226 1.67812 10.6076 1.125 12 1.125C13.3924 1.125 14.7277 1.67812 15.7123 2.66269C16.6969 3.64726 17.25 4.98261 17.25 6.375V11.25H16.875V6.375C16.875 5.08207 16.3614 3.84209 15.4471 2.92785C14.5329 2.01361 13.2929 1.5 12 1.5C10.7071 1.5 9.46709 2.01361 8.55285 2.92785C7.63861 3.84209 7.125 5.08207 7.125 6.375V11.25H6.75V6.375ZM16.125 6.375V11.25H7.875V6.375C7.875 5.28098 8.3096 4.23177 9.08318 3.45818C9.85677 2.6846 10.906 2.25 12 2.25C13.094 2.25 14.1432 2.6846 14.9168 3.45818C15.6904 4.23177 16.125 5.28098 16.125 6.375ZM19.125 22.5H18.27L17.9813 21.63C17.9554 21.5559 17.9073 21.4917 17.8435 21.446C17.7798 21.4004 17.7034 21.3756 17.625 21.375H6.375C6.29657 21.3756 6.22024 21.4004 6.15646 21.446C6.09268 21.4917 6.04458 21.5559 6.01875 21.63L5.73 22.5H4.875V12H19.125V22.5Z" fill="#425A8B"/>
<path d="M6 12.75C5.90054 12.75 5.80516 12.7895 5.73484 12.8598C5.66451 12.9302 5.625 13.0255 5.625 13.125V20.25C5.625 20.3495 5.66451 20.4448 5.73484 20.5152C5.80516 20.5855 5.90054 20.625 6 20.625H18C18.0995 20.625 18.1948 20.5855 18.2652 20.5152C18.3355 20.4448 18.375 20.3495 18.375 20.25V13.125C18.375 13.0255 18.3355 12.9302 18.2652 12.8598C18.1948 12.7895 18.0995 12.75 18 12.75H6ZM6.375 13.5H11.625V19.875H6.375V13.5ZM17.625 19.875H12.375V13.5H17.625V19.875Z" fill="#425A8B"/>
<path d="M10.125 14.625H10.875V15.75H10.125V14.625Z" fill="#425A8B"/>
<path d="M13.125 14.625H13.875V15.75H13.125V14.625Z" fill="#425A8B"/>
</svg>
