<svg width="24" height="24" viewBox="0 0 24 24" fill="none" xmlns="http://www.w3.org/2000/svg">
<g clip-path="url(#clip0_776_56183)">
<path d="M22.875 12.75V15.375H21.75H2.25H1.125V12.75H9H15H22.875Z" fill="#B2C2E1"/>
<path d="M15 11.625V12.75H9V11.625H10.875H13.125H15Z" fill="#B2C2E1"/>
<path d="M6 8.625H18V2.25H6V8.625ZM19.125 1.5V9.375C19.125 9.47446 19.0855 9.56984 19.0152 9.64017C18.9448 9.71049 18.8495 9.75 18.75 9.75H5.25C5.15054 9.75 5.05516 9.71049 4.98484 9.64017C4.91451 9.56984 4.875 9.47446 4.875 9.375V1.5C4.875 1.40054 4.91451 1.30516 4.98484 1.23483C5.05516 1.16451 5.15054 1.125 5.25 1.125H18.75C18.8495 1.125 18.9448 1.16451 19.0152 1.23483C19.0855 1.30516 19.125 1.40054 19.125 1.5Z" fill="#B2C2E1"/>
<path d="M22.875 12.375H15.375V11.625C15.375 11.5255 15.3355 11.4302 15.2652 11.3598C15.1948 11.2895 15.0995 11.25 15 11.25H13.5V10.125H18.75C18.9487 10.1244 19.1392 10.0452 19.2797 9.90467C19.4202 9.76415 19.4994 9.57373 19.5 9.375V1.5C19.4994 1.30127 19.4202 1.11085 19.2797 0.970326C19.1392 0.829802 18.9487 0.750594 18.75 0.75H5.25C5.05127 0.750594 4.86085 0.829802 4.72033 0.970326C4.5798 1.11085 4.50059 1.30127 4.5 1.5V9.375C4.50059 9.57373 4.5798 9.76415 4.72033 9.90467C4.86085 10.0452 5.05127 10.1244 5.25 10.125H10.5V11.25H9C8.90054 11.25 8.80516 11.2895 8.73483 11.3598C8.66451 11.4302 8.625 11.5255 8.625 11.625V12.375H1.125C1.02554 12.375 0.930161 12.4145 0.859835 12.4848C0.789509 12.5552 0.75 12.6505 0.75 12.75V22.875C0.75 22.9745 0.789509 23.0698 0.859835 23.1402C0.930161 23.2105 1.02554 23.25 1.125 23.25H2.25C2.34946 23.25 2.44484 23.2105 2.51516 23.1402C2.58549 23.0698 2.625 22.9745 2.625 22.875V15.75H21.375V22.875C21.375 22.9745 21.4145 23.0698 21.4848 23.1402C21.5552 23.2105 21.6505 23.25 21.75 23.25H22.875C22.9745 23.25 23.0698 23.2105 23.1402 23.1402C23.2105 23.0698 23.25 22.9745 23.25 22.875V12.75C23.25 12.6505 23.2105 12.5552 23.1402 12.4848C23.0698 12.4145 22.9745 12.375 22.875 12.375ZM5.25 9.375V1.5H18.75V9.375H5.25ZM12.75 10.125V11.25H11.25V10.125H12.75ZM9.375 12H14.625V12.375H9.375V12ZM1.875 22.5H1.5V15.75H1.875V22.5ZM22.5 22.5H22.125V15.75H22.5V22.5ZM22.5 15H1.5V13.125H22.5V15Z" fill="#425A8B"/>
<path d="M18.375 8.625V2.25C18.375 2.15054 18.3355 2.05516 18.2652 1.98484C18.1948 1.91451 18.0995 1.875 18 1.875H6C5.90054 1.875 5.80516 1.91451 5.73484 1.98484C5.66451 2.05516 5.625 2.15054 5.625 2.25V8.625C5.625 8.72446 5.66451 8.81984 5.73484 8.89017C5.80516 8.96049 5.90054 9 6 9H18C18.0995 9 18.1948 8.96049 18.2652 8.89017C18.3355 8.81984 18.375 8.72446 18.375 8.625ZM17.625 8.25H6.375V2.625H17.625V8.25Z" fill="#425A8B"/>
</g>
<defs>
<clipPath id="clip0_776_56183">
<rect width="24" height="24" fill="white"/>
</clipPath>
</defs>
</svg>
