<svg width="24" height="24" viewBox="0 0 24 24" fill="none" xmlns="http://www.w3.org/2000/svg">
<path d="M7.125 21.375H16.875V22.875H7.125V21.375Z" fill="#B2C2E1"/>
<path d="M15.375 19.875V21.375H8.625V19.875C8.62559 19.6763 8.7048 19.4858 8.84533 19.3453C8.98585 19.2048 9.17627 19.1256 9.375 19.125H14.625C14.8237 19.1256 15.0142 19.2048 15.1547 19.3453C15.2952 19.4858 15.3744 19.6763 15.375 19.875Z" fill="#B2C2E1"/>
<path d="M18.3003 13.0613C18.3091 13.1152 18.3062 13.1704 18.2916 13.223C18.277 13.2757 18.2512 13.3246 18.2159 13.3663C18.1806 13.408 18.1367 13.4416 18.0872 13.4647C18.0376 13.4877 17.9837 13.4998 17.929 13.5H6.07154C6.0169 13.4998 5.96295 13.4877 5.91342 13.4647C5.86389 13.4416 5.81996 13.408 5.78466 13.3663C5.74937 13.3246 5.72354 13.2757 5.70898 13.223C5.69441 13.1704 5.69145 13.1152 5.70029 13.0613L5.88404 12H18.1165L18.3003 13.0613Z" fill="#B2C2E1"/>
<path d="M17.9216 10.875H6.0791L7.4516 2.9475C7.46491 2.75783 7.54977 2.58029 7.689 2.4508C7.82824 2.32131 8.01146 2.24954 8.2016 2.25H15.7991C15.9892 2.24954 16.1725 2.32131 16.3117 2.4508C16.4509 2.58029 16.5358 2.75783 16.5491 2.9475L17.9216 10.875Z" fill="#B2C2E1"/>
<path d="M18.6716 13.0012V12.9975L16.9203 2.9025C16.8959 2.62199 16.7672 2.36082 16.5596 2.17059C16.352 1.98035 16.0807 1.87488 15.7991 1.875H13.8753V1.5C13.8747 1.30127 13.7955 1.11085 13.655 0.970326C13.5145 0.829802 13.3241 0.750594 13.1253 0.75H10.8753C10.6766 0.750594 10.4862 0.829802 10.3457 0.970326C10.2051 1.11085 10.1259 1.30127 10.1253 1.5V1.875H8.20158C7.92001 1.87488 7.64863 1.98035 7.44103 2.17059C7.23344 2.36082 7.10473 2.62199 7.08033 2.9025L5.32908 13.0012C5.3116 13.1089 5.31769 13.219 5.34695 13.3241C5.37621 13.4291 5.42793 13.5265 5.49853 13.6096C5.56914 13.6927 5.65695 13.7595 5.75589 13.8053C5.85483 13.8511 5.96254 13.8749 6.07158 13.875H10.8753V18.75H9.37533C9.07724 18.7509 8.7916 18.8697 8.58082 19.0805C8.37003 19.2913 8.25122 19.5769 8.25033 19.875V21H7.12533C7.02587 21 6.93049 21.0395 6.86017 21.1098C6.78984 21.1802 6.75033 21.2755 6.75033 21.375V22.5H6.37533V23.25H17.6253V22.5H17.2503V21.375C17.2503 21.2755 17.2108 21.1802 17.1405 21.1098C17.0702 21.0395 16.9748 21 16.8753 21H15.7503V19.875C15.7494 19.5769 15.6306 19.2913 15.4198 19.0805C15.2091 18.8697 14.9234 18.7509 14.6253 18.75H13.1253V13.875H17.9291C18.0381 13.8749 18.1458 13.8511 18.2448 13.8053C18.3437 13.7595 18.4315 13.6927 18.5021 13.6096C18.5727 13.5265 18.6245 13.4291 18.6537 13.3241C18.683 13.219 18.6891 13.1089 18.6716 13.0012ZM10.8753 1.5H13.1253V1.875H10.8753V1.5ZM7.82283 3.01125C7.82283 3 7.82658 2.985 7.82658 2.97375C7.83324 2.87891 7.87566 2.79014 7.94528 2.7254C8.0149 2.66065 8.10651 2.62477 8.20158 2.625H15.7991C15.8942 2.62477 15.9858 2.66065 16.0554 2.7254C16.125 2.79014 16.1674 2.87891 16.1741 2.97375C16.1741 2.985 16.1778 3 16.1778 3.01125L17.4753 10.5H6.52533L7.82283 3.01125ZM6.39408 11.25H17.6066L17.6703 11.625H6.33033L6.39408 11.25ZM16.5003 21.75V22.5H7.50033V21.75H16.5003ZM14.6253 19.5C14.7248 19.5 14.8202 19.5395 14.8905 19.6098C14.9608 19.6802 15.0003 19.7755 15.0003 19.875V21H9.00033V19.875C9.00033 19.7755 9.03984 19.6802 9.11017 19.6098C9.18049 19.5395 9.27587 19.5 9.37533 19.5H14.6253ZM11.6253 18.75V13.875H12.3753V18.75H11.6253ZM6.07158 13.125L6.19908 12.375H17.8016L17.9291 13.125H6.07158Z" fill="#425A8B"/>
</svg>
