<svg width="24" height="24" viewBox="0 0 24 24" fill="none" xmlns="http://www.w3.org/2000/svg">
<path d="M7.125 20.625L6.75 22.875H5.25V20.625H7.125Z" fill="#B2C2E1"/>
<path d="M18.75 20.625V22.875H17.25L16.875 20.625H18.75Z" fill="#B2C2E1"/>
<path d="M12 13.875H19.5V20.625H12V13.875Z" fill="#B2C2E1"/>
<path d="M4.5 13.875H12V20.625H4.5V13.875Z" fill="#B2C2E1"/>
<path d="M11.2616 8.5575L13.0579 13.4888L12.0004 13.875L10.2041 8.94L11.2616 8.5575Z" fill="#B2C2E1"/>
<path d="M9 8.625H10.125V13.875H9V8.625Z" fill="#B2C2E1"/>
<path d="M7.875 8.625H9V13.875H7.875V8.625Z" fill="#B2C2E1"/>
<path d="M6.75 8.625H7.875V13.875H6.75V8.625Z" fill="#B2C2E1"/>
<path d="M18 2.25H19.5V7.5H18V2.25Z" fill="#B2C2E1"/>
<path d="M16.5 2.25H18V7.5H16.5V2.25Z" fill="#B2C2E1"/>
<path d="M15 2.25H16.5V7.5H15V2.25Z" fill="#B2C2E1"/>
<path d="M13.5 2.25H15V7.5H13.5V2.25Z" fill="#B2C2E1"/>
<path d="M7.125 6H12.375V7.5H7.125V6Z" fill="#B2C2E1"/>
<path d="M6 4.5H11.25V6H6V4.5Z" fill="#B2C2E1"/>
<path d="M19.5 0.75H4.5C4.40054 0.75 4.30516 0.789509 4.23484 0.859835C4.16451 0.930161 4.125 1.02554 4.125 1.125V20.625C4.125 20.7245 4.16451 20.8198 4.23484 20.8902C4.30516 20.9605 4.40054 21 4.5 21H4.875V22.875C4.875 22.9745 4.91451 23.0698 4.98484 23.1402C5.05516 23.2105 5.15054 23.25 5.25 23.25H6.75C6.83924 23.2503 6.92565 23.2187 6.9937 23.1609C7.06175 23.1032 7.10697 23.0231 7.12125 22.935L7.44375 21H16.5563L16.8787 22.935C16.893 23.0231 16.9383 23.1032 17.0063 23.1609C17.0744 23.2187 17.1608 23.2503 17.25 23.25H18.75C18.8495 23.25 18.9448 23.2105 19.0152 23.1402C19.0855 23.0698 19.125 22.9745 19.125 22.875V21H19.5C19.5995 21 19.6948 20.9605 19.7652 20.8902C19.8355 20.8198 19.875 20.7245 19.875 20.625V1.125C19.875 1.02554 19.8355 0.930161 19.7652 0.859835C19.6948 0.789509 19.5995 0.75 19.5 0.75ZM6.43125 22.5H5.625V21H6.6825L6.43125 22.5ZM11.625 20.25H4.875V14.25H11.625V20.25ZM7.125 13.5V9H7.5V13.5H7.125ZM8.25 13.5V9H8.625V13.5H8.25ZM9.375 13.5V9H9.75V13.5H9.375ZM10.5 13.5V10.8488L11.4637 13.5H10.5ZM10.6838 9.165L11.0363 9.0375L12.5775 13.2675L12.225 13.395L10.6838 9.165ZM18.375 22.5H17.5687L17.3175 21H18.375V22.5ZM19.125 20.25H12.375V14.25H19.125V20.25ZM19.125 13.5H13.4288C13.4318 13.453 13.4254 13.4058 13.41 13.3612L11.6137 8.43C11.5973 8.38351 11.5717 8.34076 11.5386 8.30422C11.5055 8.26768 11.4654 8.23808 11.4208 8.21715C11.3761 8.19622 11.3278 8.18436 11.2785 8.18228C11.2292 8.18019 11.18 8.18792 11.1337 8.205L10.4513 8.4525C10.421 8.39179 10.3745 8.34068 10.3169 8.30492C10.2593 8.26915 10.1928 8.25014 10.125 8.25H6.75C6.65054 8.25 6.55516 8.28951 6.48483 8.35983C6.41451 8.43016 6.375 8.52554 6.375 8.625V13.5H4.875V7.875H19.125V13.5ZM7.5 6.375H12V7.125H7.5V6.375ZM6.375 5.625V4.875H10.875V5.625H6.375ZM13.875 7.125V2.625H14.625V7.125H13.875ZM15.375 7.125V2.625H16.125V7.125H15.375ZM16.875 7.125V2.625H17.625V7.125H16.875ZM19.125 7.125H18.375V2.625H19.125V7.125ZM19.125 1.875H13.5C13.4005 1.875 13.3052 1.91451 13.2348 1.98484C13.1645 2.05516 13.125 2.15054 13.125 2.25V7.125H12.75V6C12.75 5.90054 12.7105 5.80516 12.6402 5.73484C12.5698 5.66451 12.4745 5.625 12.375 5.625H11.625V4.5C11.625 4.40054 11.5855 4.30516 11.5152 4.23484C11.4448 4.16451 11.3495 4.125 11.25 4.125H6C5.90054 4.125 5.80516 4.16451 5.73484 4.23484C5.66451 4.30516 5.625 4.40054 5.625 4.5V6C5.625 6.09946 5.66451 6.19484 5.73484 6.26517C5.80516 6.33549 5.90054 6.375 6 6.375H6.75V7.125H4.875V1.5H19.125V1.875Z" fill="#425A8B"/>
<path d="M10.125 16.5C10.5392 16.5 10.875 16.1642 10.875 15.75C10.875 15.3358 10.5392 15 10.125 15C9.71079 15 9.375 15.3358 9.375 15.75C9.375 16.1642 9.71079 16.5 10.125 16.5Z" fill="#425A8B"/>
<path d="M13.875 16.5C14.2892 16.5 14.625 16.1642 14.625 15.75C14.625 15.3358 14.2892 15 13.875 15C13.4608 15 13.125 15.3358 13.125 15.75C13.125 16.1642 13.4608 16.5 13.875 16.5Z" fill="#425A8B"/>
</svg>
