<svg width="24" height="24" viewBox="0 0 24 24" fill="none" xmlns="http://www.w3.org/2000/svg">
<path d="M22.875 10.875L22.125 22.125H19.875V20.25H4.125V22.125H1.875L1.125 10.875H2.625H4.125L4.875 15.75H12H19.125L19.875 10.875H21.375H22.875Z" fill="#B2C2E1"/>
<path d="M23.1487 10.62C23.1142 10.5818 23.0719 10.5513 23.0247 10.5306C22.9775 10.5099 22.9265 10.4995 22.875 10.5H21.75V5.78625C21.7492 5.09031 21.4723 4.42309 20.9802 3.93098C20.4881 3.43887 19.8209 3.16205 19.125 3.16125H4.87495C4.179 3.16205 3.51179 3.43887 3.01968 3.93098C2.52757 4.42309 2.25075 5.09031 2.24995 5.78625V10.5H1.12495C1.07343 10.4995 1.02238 10.5099 0.975185 10.5306C0.927991 10.5513 0.885731 10.5818 0.851205 10.62C0.815662 10.6572 0.788294 10.7015 0.770858 10.7499C0.753422 10.7984 0.746302 10.8499 0.749955 10.9013L1.49995 22.1513C1.50661 22.2461 1.54904 22.3349 1.61865 22.3996C1.68827 22.4644 1.77988 22.5002 1.87495 22.5H4.12495C4.22441 22.5 4.31979 22.4605 4.39012 22.3902C4.46045 22.3198 4.49995 22.2245 4.49995 22.125V20.625H19.5V22.125C19.5 22.2245 19.5395 22.3198 19.6098 22.3902C19.6801 22.4605 19.7755 22.5 19.875 22.5H22.125C22.22 22.5002 22.3116 22.4644 22.3813 22.3996C22.4509 22.3349 22.4933 22.2461 22.5 22.1513L23.25 10.9013C23.2536 10.8499 23.2465 10.7984 23.229 10.7499C23.2116 10.7015 23.1842 10.6572 23.1487 10.62ZM12.375 3.91125H19.125C19.6222 3.91125 20.0991 4.1088 20.4508 4.46043C20.8024 4.81206 21 5.28897 21 5.78625V10.5H19.875C19.7853 10.5005 19.6988 10.5328 19.6308 10.5912C19.5628 10.6496 19.5177 10.7302 19.5037 10.8188L18.8025 15.375H12.375V3.91125ZM2.99995 5.78625C2.99995 5.28897 3.1975 4.81206 3.54913 4.46043C3.90076 4.1088 4.37767 3.91125 4.87495 3.91125H11.625V15.375H5.19745L4.4962 10.8188C4.48216 10.7302 4.43711 10.6496 4.36911 10.5912C4.30111 10.5328 4.21458 10.5005 4.12495 10.5H2.99995V5.78625ZM21.7725 21.75H20.25V20.25C20.25 20.1505 20.2104 20.0552 20.1401 19.9848C20.0698 19.9145 19.9744 19.875 19.875 19.875H4.12495C4.0255 19.875 3.93012 19.9145 3.85979 19.9848C3.78946 20.0552 3.74995 20.1505 3.74995 20.25V21.75H2.22745L1.5262 11.25H3.80245L4.5037 15.8063C4.51775 15.8948 4.56279 15.9754 4.6308 16.0338C4.6988 16.0922 4.78533 16.1245 4.87495 16.125H19.125C19.2146 16.1245 19.3011 16.0922 19.3691 16.0338C19.4371 15.9754 19.4822 15.8948 19.4962 15.8063L20.1975 11.25H22.4737L21.7725 21.75Z" fill="#425A8B"/>
</svg>
