<svg width="24" height="24" viewBox="0 0 24 24" fill="none" xmlns="http://www.w3.org/2000/svg">
<path d="M22.875 4.125V6.375H21.75H2.25H1.125V4.125H22.875Z" fill="#B2C2E1"/>
<path d="M13.875 9.375C14.0737 9.37559 14.2642 9.4548 14.4047 9.59533C14.5452 9.73585 14.6244 9.92627 14.625 10.125C14.6235 10.3235 14.544 10.5134 14.4037 10.6537C14.2634 10.794 14.0735 10.8735 13.875 10.875H10.125C9.92627 10.8744 9.73585 10.7952 9.59533 10.6547C9.4548 10.5142 9.37559 10.3237 9.375 10.125C9.37647 9.92654 9.45596 9.73663 9.5963 9.5963C9.73663 9.45596 9.92654 9.37647 10.125 9.375H13.875Z" fill="#B2C2E1"/>
<path d="M21.75 6.375V20.625H2.25V6.375H21.75ZM19.5 18.375V7.875H4.5V18.375H19.5Z" fill="#B2C2E1"/>
<path d="M4.5 18.75H19.5C19.5995 18.75 19.6948 18.7105 19.7652 18.6402C19.8355 18.5698 19.875 18.4745 19.875 18.375V7.875C19.875 7.77554 19.8355 7.68016 19.7652 7.60983C19.6948 7.53951 19.5995 7.5 19.5 7.5H4.5C4.40054 7.5 4.30516 7.53951 4.23484 7.60983C4.16451 7.68016 4.125 7.77554 4.125 7.875V18.375C4.125 18.4745 4.16451 18.5698 4.23484 18.6402C4.30516 18.7105 4.40054 18.75 4.5 18.75ZM4.875 8.25H19.125V18H4.875V8.25Z" fill="#425A8B"/>
<path d="M13.875 9H10.125C9.82663 9 9.54048 9.11853 9.3295 9.3295C9.11853 9.54048 9 9.82663 9 10.125C9 10.4234 9.11853 10.7095 9.3295 10.9205C9.54048 11.1315 9.82663 11.25 10.125 11.25H13.875C14.1734 11.25 14.4595 11.1315 14.6705 10.9205C14.8815 10.7095 15 10.4234 15 10.125C15 9.82663 14.8815 9.54048 14.6705 9.3295C14.4595 9.11853 14.1734 9 13.875 9ZM13.875 10.5H10.125C10.0255 10.5 9.93016 10.4605 9.85983 10.3902C9.78951 10.3198 9.75 10.2245 9.75 10.125C9.75 10.0255 9.78951 9.93016 9.85983 9.85983C9.93016 9.78951 10.0255 9.75 10.125 9.75H13.875C13.9745 9.75 14.0698 9.78951 14.1402 9.85983C14.2105 9.93016 14.25 10.0255 14.25 10.125C14.25 10.2245 14.2105 10.3198 14.1402 10.3902C14.0698 10.4605 13.9745 10.5 13.875 10.5Z" fill="#425A8B"/>
<path d="M22.875 3.75H1.125C1.02554 3.75 0.930161 3.78951 0.859835 3.85984C0.789509 3.93016 0.75 4.02554 0.75 4.125V6.375C0.75 6.47446 0.789509 6.56984 0.859835 6.64017C0.930161 6.71049 1.02554 6.75 1.125 6.75H1.875V20.625C1.875 20.7245 1.91451 20.8198 1.98484 20.8902C2.05516 20.9605 2.15054 21 2.25 21H3V22.875C3 22.9745 3.03951 23.0698 3.10984 23.1402C3.18016 23.2105 3.27554 23.25 3.375 23.25H4.875C4.96424 23.2503 5.05065 23.2187 5.1187 23.1609C5.18675 23.1032 5.23197 23.0231 5.24625 22.935L5.56875 21H18.4313L18.7537 22.935C18.768 23.0231 18.8133 23.1032 18.8813 23.1609C18.9494 23.2187 19.0358 23.2503 19.125 23.25H20.625C20.7245 23.25 20.8198 23.2105 20.8902 23.1402C20.9605 23.0698 21 22.9745 21 22.875V21H21.75C21.8495 21 21.9448 20.9605 22.0152 20.8902C22.0855 20.8198 22.125 20.7245 22.125 20.625V6.75H22.875C22.9745 6.75 23.0698 6.71049 23.1402 6.64017C23.2105 6.56984 23.25 6.47446 23.25 6.375V4.125C23.25 4.02554 23.2105 3.93016 23.1402 3.85984C23.0698 3.78951 22.9745 3.75 22.875 3.75ZM4.55625 22.5H3.75V21H4.8075L4.55625 22.5ZM20.25 22.5H19.4437L19.1925 21H20.25V22.5ZM21.375 20.25H2.625V6.75H21.375V20.25ZM22.5 6H1.5V4.5H22.5V6Z" fill="#425A8B"/>
</svg>
