<svg width="24" height="24" viewBox="0 0 24 24" fill="none" xmlns="http://www.w3.org/2000/svg">
<path d="M14.625 9.9375V12.5625C14.625 12.7117 14.5657 12.8548 14.4602 12.9602C14.3548 13.0657 14.2117 13.125 14.0625 13.125C13.9133 13.125 13.7702 13.0657 13.6648 12.9602C13.5593 12.8548 13.5 12.7117 13.5 12.5625V9.9375C13.5 9.78832 13.5593 9.64524 13.6648 9.53975C13.7702 9.43426 13.9133 9.375 14.0625 9.375C14.2117 9.375 14.3548 9.43426 14.4602 9.53975C14.5657 9.64524 14.625 9.78832 14.625 9.9375Z" fill="#B2C2E1"/>
<path d="M10.5 9.9375V12.5625C10.5 12.7117 10.4407 12.8548 10.3352 12.9602C10.2298 13.0657 10.0867 13.125 9.9375 13.125C9.78832 13.125 9.64524 13.0657 9.53975 12.9602C9.43426 12.8548 9.375 12.7117 9.375 12.5625V9.9375C9.375 9.78832 9.43426 9.64524 9.53975 9.53975C9.64524 9.43426 9.78832 9.375 9.9375 9.375C10.0867 9.375 10.2298 9.43426 10.3352 9.53975C10.4407 9.64524 10.5 9.78832 10.5 9.9375Z" fill="#B2C2E1"/>
<path d="M20.25 20.625C20.2494 20.8237 20.1702 21.0142 20.0297 21.1547C19.8892 21.2952 19.6987 21.3744 19.5 21.375H4.5C4.30127 21.3744 4.11085 21.2952 3.97033 21.1547C3.8298 21.0142 3.75059 20.8237 3.75 20.625V1.875C3.75059 1.67627 3.8298 1.48585 3.97033 1.34533C4.11085 1.2048 4.30127 1.12559 4.5 1.125H19.5C19.6987 1.12559 19.8892 1.2048 20.0297 1.34533C20.1702 1.48585 20.2494 1.67627 20.25 1.875V20.625ZM18.75 19.875V2.625H5.25V19.875H18.75Z" fill="#B2C2E1"/>
<path d="M19.5 0.75H4.5C4.20191 0.75089 3.91627 0.869703 3.70549 1.08049C3.4947 1.29127 3.37589 1.57691 3.375 1.875V20.625C3.37589 20.9231 3.4947 21.2087 3.70549 21.4195C3.91627 21.6303 4.20191 21.7491 4.5 21.75V22.875C4.5 22.9745 4.53951 23.0698 4.60984 23.1402C4.68016 23.2105 4.77554 23.25 4.875 23.25H6.375C6.45875 23.2499 6.54007 23.2218 6.60599 23.1702C6.67191 23.1185 6.71865 23.0463 6.73875 22.965L7.0425 21.75H16.9575L17.2612 22.965C17.2813 23.0463 17.3281 23.1185 17.394 23.1702C17.4599 23.2218 17.5413 23.2499 17.625 23.25H19.125C19.2245 23.25 19.3198 23.2105 19.3902 23.1402C19.4605 23.0698 19.5 22.9745 19.5 22.875V21.75C19.7981 21.7491 20.0837 21.6303 20.2945 21.4195C20.5053 21.2087 20.6241 20.9231 20.625 20.625V1.875C20.6241 1.57691 20.5053 1.29127 20.2945 1.08049C20.0837 0.869703 19.7981 0.75089 19.5 0.75ZM6.0825 22.5H5.25V21.75H6.27L6.0825 22.5ZM18.75 22.5H17.9175L17.73 21.75H18.75V22.5ZM19.875 20.625C19.875 20.7245 19.8355 20.8198 19.7652 20.8902C19.6948 20.9605 19.5995 21 19.5 21H4.5C4.40054 21 4.30516 20.9605 4.23484 20.8902C4.16451 20.8198 4.125 20.7245 4.125 20.625V1.875C4.125 1.77554 4.16451 1.68016 4.23484 1.60984C4.30516 1.53951 4.40054 1.5 4.5 1.5H19.5C19.5995 1.5 19.6948 1.53951 19.7652 1.60984C19.8355 1.68016 19.875 1.77554 19.875 1.875V20.625Z" fill="#425A8B"/>
<path d="M9.9375 9C9.68886 9 9.4504 9.09877 9.27459 9.27459C9.09877 9.4504 9 9.68886 9 9.9375V12.5625C9 12.8111 9.09877 13.0496 9.27459 13.2254C9.4504 13.4012 9.68886 13.5 9.9375 13.5C10.1861 13.5 10.4246 13.4012 10.6004 13.2254C10.7762 13.0496 10.875 12.8111 10.875 12.5625V9.9375C10.875 9.68886 10.7762 9.4504 10.6004 9.27459C10.4246 9.09877 10.1861 9 9.9375 9ZM10.125 12.5625C10.125 12.6122 10.1052 12.6599 10.0701 12.6951C10.0349 12.7302 9.98723 12.75 9.9375 12.75C9.88777 12.75 9.84008 12.7302 9.80492 12.6951C9.76975 12.6599 9.75 12.6122 9.75 12.5625V9.9375C9.75 9.88777 9.76975 9.84008 9.80492 9.80492C9.84008 9.76975 9.88777 9.75 9.9375 9.75C9.98723 9.75 10.0349 9.76975 10.0701 9.80492C10.1052 9.84008 10.125 9.88777 10.125 9.9375V12.5625Z" fill="#425A8B"/>
<path d="M18.75 2.25H5.25C5.15054 2.25 5.05516 2.28951 4.98484 2.35984C4.91451 2.43016 4.875 2.52554 4.875 2.625V19.875C4.875 19.9745 4.91451 20.0698 4.98484 20.1402C5.05516 20.2105 5.15054 20.25 5.25 20.25H18.75C18.8495 20.25 18.9448 20.2105 19.0152 20.1402C19.0855 20.0698 19.125 19.9745 19.125 19.875V2.625C19.125 2.52554 19.0855 2.43016 19.0152 2.35984C18.9448 2.28951 18.8495 2.25 18.75 2.25ZM11.625 19.5H5.625V3H11.625V19.5ZM18.375 19.5H12.375V3H18.375V19.5Z" fill="#425A8B"/>
<path d="M14.0625 13.5C14.3111 13.5 14.5496 13.4012 14.7254 13.2254C14.9012 13.0496 15 12.8111 15 12.5625V9.9375C15 9.68886 14.9012 9.4504 14.7254 9.27459C14.5496 9.09877 14.3111 9 14.0625 9C13.8139 9 13.5754 9.09877 13.3996 9.27459C13.2238 9.4504 13.125 9.68886 13.125 9.9375V12.5625C13.125 12.8111 13.2238 13.0496 13.3996 13.2254C13.5754 13.4012 13.8139 13.5 14.0625 13.5ZM13.875 9.9375C13.875 9.88777 13.8948 9.84008 13.9299 9.80492C13.9651 9.76975 14.0128 9.75 14.0625 9.75C14.1122 9.75 14.1599 9.76975 14.1951 9.80492C14.2302 9.84008 14.25 9.88777 14.25 9.9375V12.5625C14.25 12.6122 14.2302 12.6599 14.1951 12.6951C14.1599 12.7302 14.1122 12.75 14.0625 12.75C14.0128 12.75 13.9651 12.7302 13.9299 12.6951C13.8948 12.6599 13.875 12.6122 13.875 12.5625V9.9375Z" fill="#425A8B"/>
</svg>
