<svg width="129" height="35" viewBox="0 0 129 35" fill="none" xmlns="http://www.w3.org/2000/svg">
<g opacity="0.3" clip-path="url(#clip0_633_51665)">
<path fill-rule="evenodd" clip-rule="evenodd" d="M102.075 1.69229H112.582L111.339 7.72466C114.553 2.78588 118.232 1.33246 122.767 1.02908C124.502 1.01678 126.235 1.15371 127.946 1.43829L125.925 9.36151C124.304 8.93424 122.637 8.69742 120.96 8.65597C114.746 8.55014 110.132 12.6917 108.532 18.6253L104.903 32.2281H93.9961C96.6889 22.0542 100.26 10.956 102.075 1.69934V1.69229Z" fill="#425A8B"/>
<path fill-rule="evenodd" clip-rule="evenodd" d="M72.1813 15.2532C73.9956 14.3854 80.3099 14.4771 84.4027 13.9691C89.1098 13.4047 95.6884 10.8436 95.5312 6.95607C95.2741 2.81455 91.5455 1.87618 88.0741 2.33478C79.9027 3.51304 74.567 8.80459 72.1813 15.2532ZM71.1671 17.892C70.902 19.5883 70.8087 21.3066 70.8885 23.0212C71.5599 28.08 76.0528 30.4506 80.8884 30.6058C84.9027 30.6975 89.7884 28.3269 92.4455 25.3777C92.5284 25.2633 92.639 25.1713 92.7672 25.1102C92.8954 25.049 93.0371 25.0206 93.1793 25.0277C93.3215 25.0347 93.4597 25.0769 93.5811 25.1504C93.7025 25.2239 93.8032 25.3263 93.8741 25.4483C93.9859 25.6576 94.0377 25.8931 94.0239 26.1294C94.0101 26.3656 93.9311 26.5937 93.7955 26.7888C89.5955 30.9162 85.3027 33.1951 79.3242 33.2445C72.5456 33.2939 64.0528 30.7398 63.0171 23.7832C62.8678 22.8874 62.8486 21.9751 62.9599 21.0739C64.3242 8.19077 76.2242 1.22708 87.9313 0.613264C93.5241 0.309882 101.595 1.74213 101.131 7.72511C100.667 14.0185 91.0384 16.1916 84.767 16.368C79.4884 16.5232 72.9885 16.502 71.1956 17.892H71.1671Z" fill="#425A8B"/>
<path fill-rule="evenodd" clip-rule="evenodd" d="M65.3331 25.1655L63.6117 31.8187C60.216 32.56 56.7464 32.9197 53.2689 32.8911C42.8118 32.6865 35.1475 27.9523 35.6118 18.1101C36.1832 6.8214 47.526 1.02891 58.4689 0.873695C62.0373 0.854379 65.5947 1.26666 69.0617 2.10134L65.8045 8.49353C62.9523 7.64718 59.9685 7.31732 56.9974 7.51989C51.9974 7.87971 47.3689 10.5396 46.0189 15.7535C44.2618 22.301 48.0903 26.9081 54.876 26.9081C58.4297 26.8405 61.9537 26.2533 65.3331 25.1655Z" fill="#425A8B"/>
<path fill-rule="evenodd" clip-rule="evenodd" d="M21.111 0.972892C29.8681 0.972892 36.4538 2.96252 37.0824 10.1449C37.3252 12.9036 36.3109 15.3659 35.5324 18.2798L31.8824 32.2777C24.8967 32.2777 19.1967 32.4329 12.8825 32.9409C7.0325 32.9409 0.0253906 31.7133 0.0253906 24.3475C0.161104 12.3109 19.0396 13.4045 27.0681 13.4045C28.7753 8.59273 24.7896 6.65249 19.211 6.65249C14.1396 6.65249 9.96106 8.06358 5.86822 9.41116L7.29679 2.92018C11.7778 1.59584 16.4338 0.939512 21.111 0.972892ZM25.8753 18.2163C21.4681 18.2163 9.01106 17.1862 9.01106 23.8606C9.01106 27.1837 12.5325 27.6776 15.4825 27.6776C23.2396 27.6776 24.4467 25.0036 25.8753 18.2304V18.2163Z" fill="#425A8B"/>
<path fill-rule="evenodd" clip-rule="evenodd" d="M124.26 26.0352C123.701 26.0328 123.148 26.14 122.632 26.3508C122.115 26.5615 121.647 26.8716 121.253 27.2628C120.443 28.0867 119.981 29.1839 119.96 30.3319C119.974 31.4427 120.419 32.5058 121.203 33.3023C121.602 33.7033 122.077 34.0219 122.602 34.2393C123.127 34.4568 123.691 34.5687 124.26 34.5687C124.829 34.5687 125.393 34.4568 125.918 34.2393C126.442 34.0219 126.918 33.7033 127.317 33.3023C127.715 32.9151 128.03 32.4523 128.242 31.9418C128.455 31.4314 128.56 30.8838 128.553 30.3319C128.569 29.7726 128.468 29.2161 128.255 28.6975C128.042 28.179 127.723 27.7096 127.317 27.3193C126.918 26.9172 126.443 26.5969 125.918 26.3766C125.393 26.1562 124.83 26.0402 124.26 26.0352ZM128.146 30.3319C128.146 30.8284 128.045 31.3197 127.848 31.7767C127.652 32.2337 127.364 32.647 127.003 32.9918C126.272 33.7064 125.288 34.1114 124.26 34.1207C123.239 34.1171 122.26 33.7184 121.534 33.01C120.807 32.3016 120.391 31.3401 120.374 30.3319C120.386 29.3022 120.794 28.3155 121.517 27.5733C121.876 27.2153 122.303 26.9312 122.774 26.7375C123.245 26.5437 123.75 26.4441 124.26 26.4444C124.775 26.4419 125.285 26.5453 125.757 26.7482C126.229 26.951 126.654 27.2489 127.003 27.6227C127.368 27.9748 127.658 28.3963 127.855 28.8619C128.051 29.3275 128.15 29.8276 128.146 30.3319ZM124.36 27.7779H122.603V32.7167H123.274V30.4872H124.517L125.603 32.6884H126.381L125.246 30.4378C125.576 30.4197 125.887 30.2772 126.114 30.0397C126.341 29.8021 126.468 29.4876 126.467 29.1607C126.467 28.1871 125.796 27.7497 124.396 27.7497L124.36 27.7779ZM124.26 28.2365C125.246 28.2365 125.76 28.4905 125.76 29.1043C125.76 29.8733 125.296 30.0779 124.26 30.0779H123.274V28.2365H124.26Z" fill="#425A8B"/>
</g>
<defs>
<clipPath id="clip0_633_51665">
<rect width="128.514" height="34" fill="white" transform="translate(0.0380859 0.578125)"/>
</clipPath>
</defs>
</svg>
