<svg width="177" height="35" viewBox="0 0 177 35" fill="none" xmlns="http://www.w3.org/2000/svg">
<g opacity="0.3" clip-path="url(#clip0_633_51667)">
<path fill-rule="evenodd" clip-rule="evenodd" d="M172.67 0.894531C173.382 0.899572 174.081 1.08179 174.703 1.42433C175.354 1.76842 175.89 2.29142 176.246 2.93007C176.607 3.54926 176.797 4.25117 176.797 4.96561C176.797 5.68004 176.607 6.38196 176.246 7.00115C175.894 7.64193 175.361 8.16815 174.712 8.51618C174.088 8.87011 173.381 9.05601 172.661 9.05527C171.938 9.05504 171.228 8.86927 170.6 8.51618C169.953 8.16933 169.423 7.64257 169.076 7.00115C168.715 6.38528 168.523 5.68664 168.521 4.9749C168.524 4.25743 168.715 3.55305 169.076 2.93007C169.441 2.29171 169.983 1.76939 170.638 1.42433C171.259 1.08066 171.958 0.898364 172.67 0.894531ZM170.854 7.23351V2.84642H172.379C172.762 2.83064 173.145 2.86818 173.517 2.95795C173.744 3.03722 173.939 3.18728 174.072 3.38551C174.207 3.57313 174.279 3.79711 174.279 4.02684C174.283 4.34179 174.162 4.64561 173.941 4.87266C173.688 5.11681 173.353 5.2593 173 5.27233C173.142 5.32422 173.273 5.40315 173.385 5.5047C173.636 5.76992 173.853 6.06315 174.035 6.3784L174.58 7.23351H173.705L173.31 6.53641C173.127 6.15419 172.872 5.81024 172.557 5.52329C172.388 5.41059 172.187 5.35514 171.983 5.36528H171.56V7.22422L170.854 7.23351Z" fill="#425A8B"/>
<path fill-rule="evenodd" clip-rule="evenodd" d="M92.9696 0.624598H93.1107V10.0122H83.5597V0.624598H92.9696ZM51.2274 20.4688L73.4253 21.8258C73.8687 21.8307 74.2923 22.0081 74.6042 22.3196C74.916 22.6311 75.0909 23.0515 75.0908 23.4895C75.0908 23.7068 75.0475 23.922 74.9633 24.1227C74.8791 24.3234 74.7558 24.5058 74.6002 24.6594C74.4447 24.8131 74.2601 24.9349 74.0568 25.0181C73.8536 25.1012 73.6358 25.144 73.4159 25.144H41.7893V12.9308C42.7303 16.7044 46.1085 19.7903 51.1992 20.4688H51.2274ZM41.8176 34.5781H74.1498C76.4046 34.5727 78.5878 33.7954 80.3276 32.3786C82.0674 30.9618 83.2561 28.9931 83.6914 26.8078C84.0742 28.9701 85.212 30.9316 86.9071 32.3512C88.6022 33.7708 90.7473 34.5588 92.9696 34.5781H113.671C115.884 34.5697 118.024 33.7991 119.722 32.3993C121.421 30.9996 122.572 29.0582 122.978 26.91V34.5781H156.11C158.685 34.5708 161.154 33.5568 162.975 31.7578C164.796 29.9588 165.823 27.5209 165.83 24.9767V23.6104C165.823 21.0662 164.796 18.6283 162.975 16.8293C161.154 15.0303 158.685 14.0163 156.11 14.009L154.294 13.9253C143.943 13.4792 133.705 12.9958 123.41 12.4475C124.21 16.4349 127.617 19.7531 132.961 20.4688L155.404 21.8258C155.849 21.8283 156.275 22.0046 156.589 22.3164C156.903 22.6281 157.079 23.0499 157.079 23.4895C157.079 23.9283 156.902 24.3492 156.588 24.6594C156.274 24.9697 155.848 25.144 155.404 25.144H123.081V12.4289L113.483 11.9455V22.811C113.483 23.5506 113.186 24.2598 112.656 24.7827C112.127 25.3057 111.409 25.5994 110.66 25.5994H95.9337C95.185 25.5994 94.4669 25.3057 93.9375 24.7827C93.4081 24.2598 93.1107 23.5506 93.1107 22.811V10.9045L83.5597 10.4119V21.1938C82.9935 19.1632 81.764 17.3743 80.0623 16.1052C78.3606 14.8362 76.282 14.158 74.1498 14.1763L31.8619 11.4436V34.5781H41.7893H41.8176ZM82.0165 10.0122V0.578125H51.2274C49.062 0.591932 46.9627 1.31613 45.2593 2.63687C43.556 3.95761 42.3453 5.80001 41.8176 7.87446V0.624598H23.4119L17.1449 10.0122H82.0165ZM27.8063 11.2113L12.6282 34.5781H0.75293L16.7497 10.5792L27.7875 11.2113H27.8063ZM165.821 10.0122V0.578125H132.952C130.404 0.584839 127.96 1.57544 126.142 3.33827C124.324 5.1011 123.276 7.49635 123.222 10.0122H165.821ZM113.521 10.0122V0.624598H123.081V10.0122H113.521Z" fill="#425A8B"/>
</g>
<defs>
<clipPath id="clip0_633_51667">
<rect width="176.049" height="34" fill="white" transform="translate(0.75293 0.578125)"/>
</clipPath>
</defs>
</svg>
