<svg width="193" height="35" viewBox="0 0 193 35" fill="none" xmlns="http://www.w3.org/2000/svg">
<g opacity="0.3" clip-path="url(#clip0_633_51668)">
<path fill-rule="evenodd" clip-rule="evenodd" d="M130.37 33.8588C130.37 33.9592 130.41 34.0557 130.481 34.1276C130.552 34.1996 130.648 34.2414 130.75 34.244H140.222C140.273 34.244 140.323 34.234 140.37 34.2145C140.417 34.195 140.459 34.1665 140.495 34.1306C140.53 34.0947 140.558 34.0521 140.576 34.0054C140.595 33.9588 140.603 33.9089 140.602 33.8588V1.39963C140.603 1.35 140.595 1.3006 140.576 1.25446C140.557 1.20832 140.53 1.16641 140.494 1.1313C140.458 1.09619 140.416 1.06861 140.369 1.05026C140.323 1.03191 140.273 1.02316 140.222 1.02456H130.75C130.649 1.02456 130.553 1.06408 130.481 1.13442C130.41 1.20476 130.37 1.30016 130.37 1.39963V33.8385V33.8588Z" fill="#425A8B"/>
<path fill-rule="evenodd" clip-rule="evenodd" d="M86.1564 33.4639L72.2093 1.59271C72.1598 1.49331 72.0841 1.40887 71.9902 1.34824C71.8963 1.28761 71.7877 1.253 71.6756 1.24805H57.6465C57.5341 1.25192 57.425 1.28608 57.331 1.34684C57.2369 1.40759 57.1614 1.49262 57.1128 1.59271L43.1657 33.4639C43.1409 33.5002 43.1274 33.5428 43.127 33.5866C43.1265 33.6304 43.1391 33.6733 43.1632 33.71C43.1872 33.7468 43.2217 33.7757 43.2623 33.7932C43.3029 33.8108 43.3479 33.8161 43.3915 33.8086H53.2643C53.3756 33.8009 53.4828 33.7639 53.5749 33.7016C53.6669 33.6392 53.7404 33.5536 53.7877 33.4538L55.8402 28.5271C55.888 28.4285 55.9619 28.3444 56.054 28.2838C56.1461 28.2231 56.2531 28.1881 56.3636 28.1825H73.0201C73.1297 28.1866 73.236 28.2211 73.3267 28.282C73.4174 28.343 73.489 28.4279 73.5332 28.5271L75.4318 33.4538C75.4755 33.5542 75.5467 33.6406 75.6373 33.7032C75.728 33.7659 75.8345 33.8024 75.9449 33.8086H85.9203C85.9636 33.814 86.0076 33.8075 86.0474 33.7897C86.0872 33.7719 86.1212 33.7436 86.1456 33.7079C86.1701 33.6722 86.184 33.6305 86.1859 33.5874C86.1878 33.5443 86.1776 33.5016 86.1564 33.4639ZM58.5701 21.2993L63.1781 9.43886C63.722 8.25282 64.2044 8.09062 64.738 8.09062C65.2717 8.09062 65.8669 8.57721 66.1953 9.49969L70.7315 21.2993H58.5701Z" fill="#425A8B"/>
<path fill-rule="evenodd" clip-rule="evenodd" d="M172.088 0.822266H161.281C148.206 1.01487 146.205 5.13056 146.205 17.1532C146.205 19.1806 146.205 21.2081 146.297 23.2355C146.657 31.254 151.09 33.7376 158.5 34.285C160.819 34.437 166.228 34.5384 166.453 34.5283C166.453 34.5283 172.539 34.437 174.859 34.285C182.268 33.7376 186.702 31.2439 187.061 23.2355C187.164 21.2081 187.164 19.1806 187.164 17.1532C187.164 5.13056 185.111 1.01487 172.088 0.822266ZM176.819 18.5521C176.819 24.0262 176.47 26.1753 170.374 26.3172C168.783 26.4084 164.586 26.4084 162.995 26.3172C156.889 26.1753 156.54 24.0262 156.54 18.5521V17.2039C156.514 15.9079 156.566 14.6115 156.694 13.3214C157.299 8.73938 160.799 8.99281 164.206 8.89144C165.458 8.89144 167.901 8.89144 169.163 8.89144C172.591 8.99281 176.07 8.73938 176.675 13.3214C176.795 14.612 176.843 15.9081 176.819 17.2039V18.5521Z" fill="#425A8B"/>
<path fill-rule="evenodd" clip-rule="evenodd" d="M31.3437 21.4108C31.0563 24.7966 29.8659 26.2057 24.9705 26.3172C23.3798 26.4084 19.1823 26.4084 17.5916 26.3172C11.4955 26.1753 11.1363 24.0262 11.1363 18.5521V17.2039C11.111 15.9079 11.1624 14.6115 11.2903 13.3214C11.8958 8.73938 15.3954 8.99281 18.8026 8.89144C20.0649 8.89144 22.5075 8.89144 23.7595 8.89144C27.0333 8.98267 30.3482 8.76979 31.1692 12.7233H41.627C41.0215 4.09656 38.0042 0.98446 26.6844 0.822266H15.8777C2.85431 1.01487 0.801758 5.13056 0.801758 17.1532C0.801758 19.1806 0.801758 21.2081 0.904385 23.2355C1.25332 31.3047 5.69709 33.7883 13.1171 34.3357C15.4364 34.4877 20.8346 34.5891 21.0604 34.579C21.0604 34.579 27.1462 34.4877 29.4656 34.3357C36.8753 33.7883 41.3191 31.2945 41.668 23.2862C41.668 22.6577 41.668 22.0393 41.7399 21.4108H31.3437Z" fill="#425A8B"/>
<path fill-rule="evenodd" clip-rule="evenodd" d="M99.5713 21.2478C101.839 21.2478 104.056 21.3289 106.334 21.3491L109.126 21.4607C111.445 21.5823 114.955 20.7511 114.955 24.5018C114.955 26.9347 112.584 26.9854 110.768 27.0766C108.141 27.1577 108.531 27.1983 105.914 27.178C104.302 27.178 104.169 27.178 102.506 27.107C100.238 26.9854 98.7297 26.4279 98.5963 23.9341L88.5594 23.8936C88.5594 25.992 88.4259 27.624 89.5241 29.5805C91.905 33.534 96.708 34.2639 100.813 34.345L105.678 34.4768C109.557 34.4768 115.089 34.4768 118.67 33.5745C123.956 32.2364 124.982 28.8506 124.982 23.8936C125.116 21.6945 124.502 19.5143 123.237 17.6998C121.739 15.7636 119.358 14.8005 116.423 14.6586C110.83 14.3646 109.567 14.2633 103.974 14.2227H102.147C99.9305 14.2227 97.4059 13.5131 97.4264 10.8166C97.4469 8.12017 99.715 7.84646 101.993 7.7755C103.112 7.7755 104.446 7.7755 106.714 7.7755C108.325 7.7755 107.853 7.86674 109.465 7.84646C112.205 7.84646 114.76 7.99852 114.74 11.0397L124.818 11.1106V9.61033C124.879 2.10883 119.85 1.16608 114.298 0.780868C112.03 0.578125 109.711 0.578125 107.443 0.578125C103.061 0.578125 103.102 0.638948 98.7195 0.861965C90.9506 1.39923 87.3073 2.88939 87.2457 10.9991C87.1842 19.6157 91.7613 21.1363 99.561 21.1971L99.5713 21.2478Z" fill="#425A8B"/>
<path fill-rule="evenodd" clip-rule="evenodd" d="M192.46 30.3619C192.239 29.9736 191.916 29.6514 191.526 29.4293C191.135 29.209 190.693 29.0937 190.243 29.0947C189.796 29.094 189.358 29.2094 188.97 29.4293C188.574 29.6479 188.248 29.9707 188.026 30.3619C187.802 30.7474 187.686 31.1846 187.688 31.629C187.687 32.0759 187.806 32.5151 188.033 32.9016C188.26 33.288 188.587 33.608 188.981 33.8288C189.366 34.0419 189.801 34.1537 190.243 34.1537C190.685 34.1537 191.12 34.0419 191.505 33.8288C191.898 33.6061 192.225 33.286 192.453 32.9002C192.682 32.5143 192.804 32.0761 192.809 31.629C192.812 31.183 192.691 30.7447 192.46 30.3619ZM192.121 32.7137C191.923 33.0282 191.646 33.2868 191.317 33.4644C190.988 33.642 190.618 33.7326 190.243 33.7274C189.866 33.7282 189.495 33.6339 189.165 33.4537C188.832 33.266 188.555 32.9947 188.362 32.6671C188.169 32.3395 188.068 31.9674 188.067 31.5885C188.069 31.212 188.168 30.8421 188.355 30.5139C188.545 30.1853 188.82 29.9122 189.152 29.7223C189.483 29.5323 189.86 29.4323 190.243 29.4323C190.626 29.4323 191.003 29.5323 191.334 29.7223C191.666 29.9122 191.941 30.1853 192.131 30.5139C192.318 30.8421 192.417 31.212 192.419 31.5885C192.419 31.9697 192.316 32.3441 192.121 32.6731V32.7137Z" fill="#425A8B"/>
<path fill-rule="evenodd" clip-rule="evenodd" d="M190.959 32.2376C190.876 32.0663 190.757 31.9143 190.611 31.7916C190.801 31.7186 190.963 31.5872 191.072 31.4165C191.174 31.2666 191.227 31.09 191.226 30.9097C191.229 30.7615 191.194 30.615 191.124 30.4839C191.052 30.3594 190.95 30.2548 190.826 30.1798C190.649 30.1014 190.455 30.0666 190.262 30.0784H189.235V33.2006H189.738V31.8828H190.108C190.159 31.8828 190.241 31.9842 190.364 32.1869L190.467 32.3795L190.898 33.2006H191.462L190.939 32.2376H190.959ZM190.108 31.5077H189.759V30.494H190.138C190.263 30.4805 190.388 30.5053 190.498 30.565C190.565 30.6094 190.621 30.6683 190.662 30.7373C190.696 30.8141 190.713 30.8969 190.713 30.9806C190.715 31.1234 190.668 31.2626 190.58 31.376C190.519 31.4382 190.446 31.486 190.364 31.5159C190.282 31.5457 190.194 31.5568 190.108 31.5483V31.5077Z" fill="#425A8B"/>
</g>
<defs>
<clipPath id="clip0_633_51668">
<rect width="192.006" height="34" fill="white" transform="translate(0.801758 0.578125)"/>
</clipPath>
</defs>
</svg>
