<svg width="20" height="20" viewBox="0 0 20 20" fill="none" xmlns="http://www.w3.org/2000/svg">
<rect width="20" height="20" rx="4" fill="#425A8B"/>
<path d="M15.7251 6.23151C15.6457 6.15815 15.5513 6.09993 15.4472 6.06019C15.3432 6.02046 15.2316 6 15.1189 6C15.0062 6 14.8946 6.02046 14.7905 6.06019C14.6865 6.09993 14.592 6.15815 14.5126 6.23151L8.15139 12.0701L5.47882 9.61259C5.3964 9.53961 5.29911 9.48223 5.1925 9.44372C5.08589 9.40521 4.97205 9.38633 4.85748 9.38814C4.74291 9.38996 4.62985 9.41244 4.52476 9.45431C4.41967 9.49618 4.3246 9.55661 4.24499 9.63215C4.16538 9.7077 4.10278 9.79687 4.06077 9.89459C4.01875 9.99231 3.99815 10.0967 4.00013 10.2017C4.00211 10.3067 4.02664 10.4103 4.07232 10.5066C4.11799 10.603 4.18392 10.6901 4.26634 10.7631L7.54515 13.7685C7.62453 13.8418 7.71897 13.9001 7.82302 13.9398C7.92707 13.9795 8.03867 14 8.15139 14C8.26411 14 8.37572 13.9795 8.47977 13.9398C8.58382 13.9001 8.67826 13.8418 8.75763 13.7685L15.7251 7.38201C15.8118 7.30872 15.881 7.21977 15.9283 7.12077C15.9756 7.02176 16 6.91485 16 6.80676C16 6.69867 15.9756 6.59176 15.9283 6.49275C15.881 6.39375 15.8118 6.3048 15.7251 6.23151Z" fill="white"/>
</svg>
