<svg width="108" height="34" viewBox="0 0 108 34" fill="none" xmlns="http://www.w3.org/2000/svg">
<g opacity="0.3" clip-path="url(#clip0_633_51669)">
<path fill-rule="evenodd" clip-rule="evenodd" d="M0 1.81706H13.0239L14.4494 1.8753L15.8176 1.9976L17.1286 2.32956L18.3766 2.63241L19.5215 3.11579L20.592 3.59918L21.6053 4.18157L22.5556 4.84549L23.3857 5.57348L24.2216 6.35971L24.9372 7.20418L25.5898 8.11271L26.1222 9.07948L26.6603 10.0462L27.0611 11.0654L27.416 12.0963L45.907 0L52.6279 4.59507L38.2358 14.0356L40.5601 15.6081L55.0667 6.23159L61.3124 10.483L47.0005 20.1041L49.4392 21.6125L64.0088 12.1778V1.81706H74.7141V22.4454H84.2287V32.1247H63.9859V22.224L45.97 34L27.5935 21.3563L27.2385 22.4454L26.9065 23.4762L26.334 24.5012L25.7959 25.532L25.1547 26.4406L24.4391 27.3724L23.6663 28.2227L22.7789 28.9448L21.8858 29.6437L20.8153 30.2261L19.7448 30.7677L18.554 31.2569L17.306 31.618L15.995 31.8568L14.6268 32.0432L13.1441 32.1014H0V1.81706ZM10.2302 11.3159H13.0239L14.2719 11.4323L15.2852 11.7992L16.1782 12.3409L16.9511 13.0689L17.4835 13.9133L17.9014 14.8219L18.1361 15.8527L18.1991 16.8893L18.1361 17.9202L17.9014 18.9452L17.4835 19.8537L16.911 20.704L16.2011 21.4262L15.3081 21.9736L14.2375 22.3347L13.0468 22.457H10.2302V11.3159ZM86.885 1.81706H97.6476V22.4454H107.105V32.1247H86.885V1.84036V1.81706Z" fill="#425A8B"/>
</g>
<defs>
<clipPath id="clip0_633_51669">
<rect width="107.105" height="34" fill="white"/>
</clipPath>
</defs>
</svg>
