<svg width="214" height="35" viewBox="0 0 214 35" fill="none" xmlns="http://www.w3.org/2000/svg">
<g opacity="0.3" clip-path="url(#clip0_633_51663)">
<path fill-rule="evenodd" clip-rule="evenodd" d="M0.139648 33.654L7.57552 0.578125H20.8556L21.4631 19.0603L30.4056 0.578125H43.71L36.2376 33.654H26.6026L30.5878 15.8679L21.621 33.654H14.6955L14.3431 15.8679L9.87189 33.654H0.139648Z" fill="#425A8B"/>
<path fill-rule="evenodd" clip-rule="evenodd" d="M44.8652 5.96676H53.832L55.047 0.578125H46.0438L44.8652 5.96676Z" fill="#425A8B"/>
<path fill-rule="evenodd" clip-rule="evenodd" d="M47.61 33.6901L38.5703 33.6541L44.0986 9.15918H53.1261L47.61 33.6901Z" fill="#425A8B"/>
<path fill-rule="evenodd" clip-rule="evenodd" d="M81.8255 9.15947H89.9053L89.2006 12.1838C90.2802 10.8769 91.7254 9.91272 93.3559 9.4115C94.7142 8.95944 96.1388 8.73235 97.572 8.73942L95.4944 16.7204C94.9841 16.7204 88.7268 15.5202 86.7827 24.9533L84.7658 33.6904H76.2607L81.8255 9.15947Z" fill="#425A8B"/>
<path fill-rule="evenodd" clip-rule="evenodd" d="M77.0993 24.58C77.0993 24.7721 74.2684 34.6132 61.7781 34.3612C45.0959 34.0372 49.3971 7.55004 68.3877 8.48615C79.177 9.02622 78.6424 17.8833 78.5452 18.2673H69.2261C69.3476 17.9193 69.6635 14.2588 66.6988 14.3308C61.1705 14.4869 57.2461 28.0125 63.3211 28.1805C66.1278 28.2765 67.44 25.0601 67.6952 24.6521L77.0993 24.58Z" fill="#425A8B"/>
<path fill-rule="evenodd" clip-rule="evenodd" d="M157.192 34.4688C139.028 33.7127 144.495 7.29756 163.134 8.17366C180.654 9.02576 175.685 35.2008 157.192 34.4688ZM162.526 13.9463C156.451 12.7462 151.992 27.0639 157.739 28.228C164.13 29.5602 168.407 15.1105 162.526 13.9463V13.9463Z" fill="#425A8B"/>
<path fill-rule="evenodd" clip-rule="evenodd" d="M191.225 5.53573C188.734 5.53573 188.26 6.47184 187.847 8.33206L187.677 9.16016H192.95L194.263 3.23146H202.5L201.213 9.16016H205.477L204.262 14.8008H200.022L197.689 25.6021C197.498 26.1834 197.464 26.8042 197.592 27.4023C197.944 28.3744 201.492 27.9664 201.492 27.9664L200.119 33.583C200.119 33.583 192.902 34.3991 190.472 32.7309C189.39 31.9988 188.212 30.4867 188.941 27.2343L191.723 14.8848H186.778L182.599 33.739H173.717L177.872 14.8848H173.304L174.579 9.24417H179.014C179.816 6.0878 180.521 3.93955 182.501 2.30735C185.211 0.123096 192.221 0.975197 192.221 0.975197L191.225 5.61974V5.53573Z" fill="#425A8B"/>
<path fill-rule="evenodd" clip-rule="evenodd" d="M111.545 25.2642H128.409C128.409 25.2642 126.963 28.9486 132.261 28.9846C135.906 28.9846 137.376 24.8441 132.431 23.992C130.159 23.584 121.386 22.1318 122.37 15.447C123.197 9.96239 128.98 8.04216 135.298 8.13817C148.226 8.29419 145.796 15.7951 145.966 16.2991H137.339C137.339 16.2991 138.263 13.1548 134.375 13.1548C130.827 13.1548 129.964 16.2991 134.059 17.1512C139.028 18.2314 144.751 18.4834 145.067 24.8201C145.164 26.5843 144.107 34.8413 131.082 34.5893C119.151 34.3373 118.312 28.7926 118.64 26.1883C117.241 28.8376 115.093 31.0289 112.457 32.4966C109.822 33.9644 106.812 34.6454 103.793 34.4573C85.5677 33.8812 91.1446 7.31008 109.759 8.22218C118.264 8.63023 121.447 14.967 120.426 21.2077C120.268 22.3118 120.171 22.4679 119.843 22.5639L111.545 25.2762V25.2642ZM109.115 13.9109C103.125 12.7467 98.6533 26.9804 104.364 28.1805C110.682 29.4647 114.934 15.063 109.09 13.8868L109.115 13.9109Z" fill="#425A8B"/>
<path fill-rule="evenodd" clip-rule="evenodd" d="M210.446 9.12305C211.297 9.12305 212.113 9.45686 212.714 10.051C213.316 10.6452 213.654 11.4511 213.654 12.2914C213.654 13.1317 213.316 13.9376 212.714 14.5318C212.113 15.126 211.297 15.4598 210.446 15.4598C209.595 15.4598 208.779 15.126 208.178 14.5318C207.576 13.9376 207.238 13.1317 207.238 12.2914C207.238 11.4511 207.576 10.6452 208.178 10.051C208.779 9.45686 209.595 9.12305 210.446 9.12305V9.12305ZM210.446 9.68711C210.087 9.66295 209.727 9.71191 209.388 9.83095C209.049 9.94998 208.739 10.1366 208.476 10.3791C208.213 10.6216 208.004 10.9149 207.86 11.2408C207.717 11.5667 207.643 11.9181 207.643 12.2734C207.643 12.6287 207.717 12.9802 207.86 13.3061C208.004 13.6319 208.213 13.9252 208.476 14.1678C208.739 14.4103 209.049 14.5969 209.388 14.7159C209.727 14.8349 210.087 14.8839 210.446 14.8597C210.805 14.8839 211.165 14.8349 211.504 14.7159C211.843 14.5969 212.153 14.4103 212.416 14.1678C212.679 13.9252 212.888 13.6319 213.032 13.3061C213.175 12.9802 213.249 12.6287 213.249 12.2734C213.249 11.9181 213.175 11.5667 213.032 11.2408C212.888 10.9149 212.679 10.6216 212.416 10.3791C212.153 10.1366 211.843 9.94998 211.504 9.83095C211.165 9.71191 210.805 9.66295 210.446 9.68711V9.68711ZM211.017 12.6515L211.661 13.8516H210.895L210.385 12.6515H209.936L209.741 14.0076H209.122L209.656 10.6352H211.224C211.457 10.6946 211.663 10.8301 211.808 11.0196C211.954 11.2091 212.03 11.4415 212.025 11.6793C212.029 11.8059 212.006 11.9317 211.959 12.0496C211.913 12.1674 211.842 12.2747 211.753 12.3653C211.664 12.4559 211.557 12.5279 211.439 12.5771C211.321 12.6262 211.194 12.6515 211.066 12.6515H211.017ZM210.859 11.0793H210.215L210.057 12.1834H210.701C210.784 12.1989 210.869 12.1968 210.951 12.1773C211.033 12.1578 211.11 12.1213 211.177 12.0702C211.243 12.0191 211.298 11.9547 211.338 11.8811C211.377 11.8075 211.4 11.7265 211.406 11.6433C211.409 11.5704 211.397 11.4976 211.371 11.4293C211.345 11.361 211.306 11.2986 211.254 11.2458C211.203 11.1931 211.142 11.1512 211.074 11.1226C211.006 11.0939 210.933 11.0792 210.859 11.0793V11.0793Z" fill="#425A8B"/>
</g>
<defs>
<clipPath id="clip0_633_51663">
<rect width="213.538" height="34" fill="white" transform="translate(0.139648 0.578125)"/>
</clipPath>
</defs>
</svg>
