<svg width="211" height="35" viewBox="0 0 211 35" fill="none" xmlns="http://www.w3.org/2000/svg">
<g opacity="0.3" clip-path="url(#clip0_633_51666)">
<path fill-rule="evenodd" clip-rule="evenodd" d="M38.2572 25.9544L38.303 1.05344L48.1213 1.01953L48.1671 34.1944H31.0709L10.5532 9.15783L10.5074 34.104L0.643304 34.1944L0.551758 1.05344L0.689077 1.01953H17.7853L38.2572 25.9544Z" fill="#425A8B"/>
<path fill-rule="evenodd" clip-rule="evenodd" d="M158.401 1.054L158.469 34.195H147.987V1.09921L148.079 1.00879C151.512 1.00879 154.945 1.00879 158.378 1.00879L158.401 1.054Z" fill="#425A8B"/>
<path fill-rule="evenodd" clip-rule="evenodd" d="M111.438 17.0354L111.484 17.0807L112.754 16.0408L129.553 1.05273H143.491L124.289 17.1259L124.335 17.2954L145.951 34.1033L130.732 34.1937L111.53 17.205L111.438 17.3406V34.1937H100.968V1.05273H111.438V17.0354Z" fill="#425A8B"/>
<path fill-rule="evenodd" clip-rule="evenodd" d="M84.6031 0.668551C88.9515 0.838098 93.6432 1.14328 95.9662 5.38198C96.4985 6.59613 96.7412 7.91485 96.6757 9.23637V27.2537C96.549 28.4555 96.1219 29.6074 95.4328 30.6057C94.7436 31.604 93.8141 32.4176 92.7278 32.9731C88.1505 34.9285 82.6463 34.4425 77.3366 34.5781C71.0657 34.4877 64.6232 34.8833 58.7871 33.8434C57.4181 33.617 56.1351 33.0334 55.0708 32.1531C54.0066 31.2728 53.1997 30.1276 52.7336 28.8361L52.3789 26.7563L52.4704 7.65392C52.5506 5.22374 54.7591 3.13265 56.7617 2.00233C60.1374 0.578125 64.2227 0.747673 68.1248 0.578125L84.6031 0.668551ZM64.0052 8.85206C63.1356 9.02161 62.037 9.37201 61.8997 10.3667C61.8997 15.3062 61.7738 20.3248 61.9912 25.2191C62.3002 26.0442 63.2157 25.9651 63.8794 26.1685H82.8179C84.4429 26.0442 86.3653 26.4285 87.2465 24.8348V10.8414L87.1091 9.7111C86.8459 9.06682 86.1937 8.9764 85.6215 8.80685H63.9595L64.0052 8.85206Z" fill="#425A8B"/>
<path fill-rule="evenodd" clip-rule="evenodd" d="M210.752 34.0581V34.1937H199.172C198.13 32.2835 197.077 30.4636 196.105 28.5421L195.887 28.463H175.29L172.131 34.1146L160.425 34.205L178.917 1.05273H192.466L210.775 34.0581H210.752ZM185.577 9.37188L179.18 21.195H192.077C189.925 17.2502 187.774 13.2828 185.623 9.37188H185.577Z" fill="#425A8B"/>
</g>
<defs>
<clipPath id="clip0_633_51666">
<rect width="210.201" height="34" fill="white" transform="translate(0.551758 0.578125)"/>
</clipPath>
</defs>
</svg>
