<svg width="227" height="34" viewBox="0 0 227 34" fill="none" xmlns="http://www.w3.org/2000/svg">
<g opacity="0.3" clip-path="url(#clip0_633_51670)">
<path fill-rule="evenodd" clip-rule="evenodd" d="M54.3428 9.74192H62.7206L63.0944 12.5479C63.7389 10.3057 67.9665 8.70605 70.5443 8.70605C76.5377 8.70605 78.9222 12.4562 78.9222 19.0123V33.1604H69.6292V20.5202C69.6292 17.9895 69.1652 16.1145 66.6776 16.1145C64.19 16.1145 63.1847 18.6451 63.1847 20.4153V33.1604H54.3428V9.74192Z" fill="#425A8B"/>
<path fill-rule="evenodd" clip-rule="evenodd" d="M0.105469 33.2526V0.0917969H15.6625C24.9684 0.0917969 29.2089 4.68108 29.2089 11.329C29.2089 18.4489 25.3422 23.3267 15.6625 23.3267H10.4167V33.2526H0.105469ZM14.567 15.2758C17.0546 15.2758 19.7226 14.7119 19.7226 11.801C19.7226 8.8901 16.8612 8.15582 14.567 8.15582H10.4167V15.2758H14.567Z" fill="#425A8B"/>
<path fill-rule="evenodd" clip-rule="evenodd" d="M156.733 9.74192H165.214L165.485 12.5479C166.22 10.3057 170.46 8.70605 173.038 8.70605C178.928 8.70605 181.416 12.4562 181.416 19.0123V33.2521H172.11V20.5202C172.11 17.9895 171.569 16.1145 169.081 16.1145C166.864 16.1145 165.666 18.6451 165.666 20.4153V33.2521H156.733V9.74192Z" fill="#425A8B"/>
<path fill-rule="evenodd" clip-rule="evenodd" d="M114.006 24.821C114.014 25.8522 114.374 26.8485 115.024 27.6401C115.737 28.2073 116.607 28.5329 117.512 28.5711C119.161 28.5711 120.463 28.099 120.463 26.5124C120.553 22.5788 106.466 26.0404 106.466 16.6783C106.466 10.1222 111.428 8.61426 116.584 8.61426C121.739 8.61426 128.841 9.65012 128.558 16.7701H120.734C120.703 16.1506 120.477 15.5577 120.089 15.0786C119.788 14.7399 119.417 14.4728 119.003 14.2961C118.588 14.1194 118.141 14.0373 117.692 14.0558C116.133 13.9509 114.65 14.2394 114.65 15.4588C114.753 19.104 129.202 16.6783 129.202 25.293C129.202 31.2853 125.065 33.9995 117.048 33.9995C111.982 33.9077 105.628 31.2853 105.628 24.821H114.006Z" fill="#425A8B"/>
<path fill-rule="evenodd" clip-rule="evenodd" d="M209.32 18.8287C209.371 18.0126 209.108 17.2084 208.586 16.5865C208.31 16.1606 207.943 15.8038 207.512 15.5426C207.081 15.2815 206.598 15.1229 206.098 15.0786C202.592 15.0786 201.677 18.5533 201.677 21.3594C201.677 24.6374 203.147 27.3516 205.905 27.3516C206.915 27.2808 207.857 26.8099 208.529 26.0401C209.202 25.2703 209.551 24.2629 209.501 23.2344H217.608C217.789 28.099 214.476 33.9078 205.544 33.9078C203.891 33.9861 202.241 33.7129 200.698 33.1055C199.155 32.4982 197.753 31.5701 196.583 30.3805C195.412 29.191 194.498 27.7661 193.9 26.197C193.301 24.6279 193.031 22.949 193.106 21.2676C193.106 12.1808 199.744 8.70605 205.454 8.70605C213.187 8.70605 217.608 13.492 217.518 18.8287H209.32Z" fill="#425A8B"/>
<path fill-rule="evenodd" clip-rule="evenodd" d="M44.4943 33.2537L43.5663 31.2869C41.7705 32.9031 39.4268 33.7449 37.0316 33.6339C34.1702 33.5422 28.5635 33.1619 28.5635 26.8811C28.5635 16.5881 43.6565 21.2691 43.6565 16.2078C43.6565 14.5163 41.8134 14.6081 40.8081 14.6081C38.9649 14.6081 37.7663 14.9884 37.4956 17.7944H29.7493C29.7493 12.9297 31.2315 8.8125 41.3494 8.8125C51.1966 8.8125 52.2149 14.0574 52.2149 19.2105V29.8838C52.1409 30.4434 52.1929 31.0128 52.3671 31.5489C52.5413 32.085 52.833 32.5738 53.2202 32.9783V33.1619L44.4814 33.2537H44.4943ZM43.7468 22.4886C40.6147 23.9833 36.6578 23.8916 36.5676 26.2255C36.5676 27.7334 37.3925 28.4808 39.2356 28.4808C42.2774 28.4808 43.9401 25.2946 43.7468 22.4886ZM96.4243 33.2537L95.4834 31.2869C93.6814 32.8924 91.3421 33.7326 88.9486 33.6339C86.0099 33.5422 80.3903 33.1619 80.3903 26.8811C80.3903 16.5881 95.4834 21.2691 95.5865 16.2078C95.5865 14.5163 93.6531 14.6081 92.7251 14.6081C90.7918 14.6081 89.6833 14.9884 89.4126 17.7944H81.6792C81.6792 12.9297 83.0583 8.8125 93.2794 8.8125C103.036 8.8125 104.055 14.0574 104.055 19.2105V29.8838C103.981 30.4434 104.033 31.0128 104.207 31.5489C104.381 32.085 104.673 32.5738 105.06 32.9783V33.1619L96.4114 33.2537H96.4243ZM95.6896 22.4886C92.5576 23.9833 88.4975 23.8916 88.4975 26.2255C88.4975 27.7334 89.2451 28.4808 91.1784 28.4808C94.1171 28.4808 95.8701 25.2946 95.6896 22.4886Z" fill="#425A8B"/>
<path fill-rule="evenodd" clip-rule="evenodd" d="M191.638 33.2526V9.74238H183.131V33.2526H191.638ZM183.131 6.73968H191.689V0H183.131V6.73968Z" fill="#425A8B"/>
<path fill-rule="evenodd" clip-rule="evenodd" d="M142.93 8.90332C150.573 8.90332 155.265 14.3318 155.265 21.4517C155.265 28.5717 150.573 34.0001 142.93 34.0001C135.287 34.0001 130.492 28.6634 130.492 21.4517C130.492 14.24 135.287 8.90332 142.93 8.90332ZM138.87 21.4517C138.87 24.3626 139.798 27.916 142.93 28.0078C146.062 28.0996 146.887 24.3626 146.887 21.4517C146.887 18.5408 146.062 14.9874 142.93 14.9874C139.798 14.9874 138.96 18.6457 138.87 21.4517Z" fill="#425A8B"/>
<path fill-rule="evenodd" clip-rule="evenodd" d="M223.087 28.6638C223.641 28.6638 224.466 28.7556 224.466 28.0082C224.466 27.2608 223.912 27.2608 223.46 27.2608H222.352V28.6638H223.087ZM224.93 30.9191H224.376L223.267 29.0441H222.352V30.9191H221.798V26.8806H223.46C224.195 26.8806 224.852 27.1166 224.852 28.0082C224.852 28.8999 224.376 29.0441 223.641 29.0441L224.84 30.9191H224.93ZM226.219 28.9916C226.229 28.3649 226.055 27.7493 225.719 27.2239C225.383 26.6984 224.9 26.2869 224.333 26.0423C223.766 25.7976 223.14 25.7309 222.535 25.8506C221.93 25.9704 221.374 26.2712 220.938 26.7144C220.503 27.1576 220.207 27.7232 220.089 28.3384C219.972 28.9537 220.037 29.5908 220.278 30.1679C220.518 30.745 220.923 31.2359 221.439 31.5777C221.956 31.9194 222.561 32.0965 223.177 32.0861C223.98 32.0726 224.746 31.7423 225.313 31.1648C225.881 30.5874 226.205 29.8081 226.219 28.9916ZM219.632 28.9916C219.622 28.2819 219.82 27.5852 220.202 26.9907C220.583 26.3962 221.13 25.931 221.773 25.6546C222.415 25.3782 223.124 25.3031 223.809 25.4391C224.494 25.575 225.123 25.9157 225.617 26.4177C226.11 26.9196 226.445 27.5599 226.579 28.2566C226.712 28.9532 226.639 29.6746 226.367 30.3284C226.095 30.9822 225.638 31.5387 225.054 31.9265C224.469 32.3144 223.784 32.5161 223.087 32.5057C222.16 32.5057 221.272 32.1313 220.617 31.4649C219.962 30.7986 219.594 29.8947 219.594 28.9523L219.632 28.9916Z" fill="#425A8B"/>
</g>
<defs>
<clipPath id="clip0_633_51670">
<rect width="226.525" height="34" fill="white" transform="translate(0.105469)"/>
</clipPath>
</defs>
</svg>
