<svg width="225" height="34" viewBox="0 0 225 34" fill="none" xmlns="http://www.w3.org/2000/svg">
<g opacity="0.3" clip-path="url(#clip0_633_51672)">
<path fill-rule="evenodd" clip-rule="evenodd" d="M221.211 27.6925C220.652 27.6874 220.104 27.8515 219.636 28.1641C219.169 28.4766 218.804 28.9235 218.587 29.4478C218.37 29.9722 218.311 30.5503 218.418 31.1087C218.525 31.667 218.793 32.1805 219.187 32.5836C219.582 32.9868 220.085 33.2615 220.634 33.3728C221.182 33.4841 221.751 33.427 222.267 33.2087C222.783 32.9905 223.224 32.6209 223.534 32.147C223.843 31.6731 224.007 31.1163 224.004 30.5475C224.004 29.7925 223.711 29.0683 223.187 28.5333C222.663 27.9982 221.953 27.6959 221.211 27.6925ZM221.211 33.065C220.721 33.0676 220.241 32.9221 219.832 32.6471C219.424 32.372 219.105 31.9797 218.915 31.5199C218.726 31.0601 218.675 30.5535 218.769 30.0643C218.863 29.5751 219.098 29.1253 219.444 28.7719C219.789 28.4185 220.23 28.1775 220.711 28.0793C221.191 27.9811 221.689 28.0302 222.142 28.2203C222.595 28.4105 222.982 28.7332 223.255 29.1474C223.527 29.5617 223.673 30.049 223.673 30.5475C223.674 30.8775 223.612 31.2045 223.489 31.5099C223.366 31.8153 223.185 32.0929 222.956 32.3269C222.727 32.5608 222.455 32.7465 222.156 32.8731C221.856 32.9998 221.535 33.065 221.211 33.065Z" fill="#425A8B"/>
<path fill-rule="evenodd" clip-rule="evenodd" d="M222.652 29.8481C222.658 29.7114 222.628 29.5756 222.565 29.4546C222.502 29.3336 222.409 29.232 222.294 29.1603C222.058 29.0371 221.793 28.9832 221.529 29.0046H220.164V32.1969H220.547V30.6656H221.248L222.154 32.145H222.601L221.657 30.6656C222.218 30.6656 222.652 30.4191 222.652 29.7962V29.8481ZM221.121 30.3672H220.534V29.2382H221.427C221.822 29.2382 222.243 29.2382 222.243 29.7832C222.243 30.3282 221.567 30.3672 221.121 30.3672Z" fill="#425A8B"/>
<path fill-rule="evenodd" clip-rule="evenodd" d="M202.573 0.271992C196.346 0.341207 190.128 0.774492 183.949 1.5697V32.7407H193.733V21.4506C197.285 22.0987 200.88 22.4718 204.487 22.5666C206.961 22.5666 224.629 21.801 224.629 11.1468C224.629 -0.286024 205.813 0.271992 202.573 0.271992ZM203.122 17.1422C199.944 17.2277 196.773 16.7894 193.733 15.8445V6.26741C197.024 5.98191 202.229 5.77428 203.734 5.77428C205.239 5.77428 213.059 6.12466 213.123 11.2895C213.186 16.6491 206.273 17.1292 203.122 17.1292V17.1422Z" fill="#425A8B"/>
<path fill-rule="evenodd" clip-rule="evenodd" d="M34.3445 14.0672C31.6912 13.4702 21.7414 11.8481 19.1391 11.4718C15.7077 11.0565 13.7305 10.4206 13.7305 8.47405C13.7305 5.87863 18.8329 6.28092 22.9022 6.44962C28.0047 6.65725 37.4953 9.8626 40.2251 11.0565L43.4524 3.89313C38.1714 1.29771 28.0429 0 21.601 0C16.945 0.0648855 1.38244 1.18092 1.19109 9.61603C1.05077 15.5725 6.21704 17.7786 12.761 19.4656C18.3865 20.6466 24.6115 21.2046 28.8593 22.0611C34.3062 23.216 34.268 27.1481 29.9564 27.5634C22.5067 28.1214 9.89083 24.358 4.13778 21.4382L0.438477 29.1206C8.44938 33.0916 20.8484 34.0519 25.0962 34C30.5687 33.9351 45.0852 33.3771 45.0852 24.5267C45.0852 18.7 40.1486 15.4427 34.3317 14.0672H34.3445Z" fill="#425A8B"/>
<path fill-rule="evenodd" clip-rule="evenodd" d="M77.7783 13.6528H57.5087V1.53223H47.0996V32.7421H57.5087V19.9338H77.7783V32.7421H88.2001V1.53223H77.7783V13.6528Z" fill="#425A8B"/>
<path fill-rule="evenodd" clip-rule="evenodd" d="M120.27 1.53223H107.514L89.4512 32.7421H97.5386L101.71 25.6437H122.031L126.227 32.7421H138.767L120.27 1.59711V1.53223ZM105.269 19.3757L111.647 8.15055L118.267 19.3757H105.269Z" fill="#425A8B"/>
<path fill-rule="evenodd" clip-rule="evenodd" d="M180.914 10.6543C180.837 -0.765549 161.779 0.272619 158.514 0.272619C152.286 0.342605 146.068 0.775886 139.89 1.57033V32.7413H149.827V6.26804C153.386 5.98254 158.45 5.77491 159.955 5.77491C161.46 5.77491 169.203 5.50239 169.267 11.1474C169.331 16.507 162.085 16.5848 158.935 16.5848C157.126 16.5293 155.33 16.2459 153.59 15.7413L151.74 18.9467L167.048 32.7413H181.768L168.438 20.7635C174.115 19.5955 180.952 16.8703 180.914 10.6154V10.6543Z" fill="#425A8B"/>
</g>
<defs>
<clipPath id="clip0_633_51672">
<rect width="224.191" height="34" fill="white" transform="translate(0.438477)"/>
</clipPath>
</defs>
</svg>
