<svg width="199" height="35" viewBox="0 0 199 35" fill="none" xmlns="http://www.w3.org/2000/svg">
<g opacity="0.3" clip-path="url(#clip0_633_51664)">
<path fill-rule="evenodd" clip-rule="evenodd" d="M195.032 28.0342C194.437 28.0342 193.855 28.2086 193.36 28.5354C192.866 28.8622 192.48 29.3266 192.253 29.8698C192.026 30.4131 191.967 31.0107 192.084 31.587C192.201 32.1634 192.488 32.6925 192.91 33.1074C193.331 33.5223 193.868 33.8043 194.452 33.9177C195.036 34.0311 195.641 33.9708 196.19 33.7444C196.739 33.5181 197.208 33.1358 197.537 32.6461C197.866 32.1564 198.04 31.5812 198.038 30.9934C198.035 30.2076 197.718 29.455 197.154 28.9003C196.59 28.3456 195.827 28.0342 195.032 28.0342V28.0342ZM195.032 33.6192C194.508 33.6213 193.996 33.4699 193.559 33.1842C193.122 32.8986 192.781 32.4914 192.579 32.0143C192.377 31.5372 192.322 31.0116 192.422 30.5038C192.522 29.9961 192.773 29.5291 193.142 29.1619C193.51 28.7947 193.981 28.5437 194.494 28.4408C195.008 28.3378 195.54 28.3875 196.025 28.5836C196.509 28.7796 196.924 29.1132 197.217 29.5422C197.51 29.9711 197.667 30.4762 197.669 30.9934C197.67 31.3369 197.603 31.6772 197.472 31.9951C197.34 32.3129 197.146 32.602 196.901 32.8458C196.656 33.0897 196.365 33.2835 196.044 33.4162C195.724 33.5489 195.38 33.6179 195.032 33.6192V33.6192Z" fill="#425A8B"/>
<path fill-rule="evenodd" clip-rule="evenodd" d="M196.583 30.2231C196.589 30.0809 196.557 29.9397 196.49 29.8135C196.424 29.6873 196.325 29.5806 196.203 29.5041C195.949 29.3764 195.665 29.3188 195.38 29.3374H193.914V32.6614H194.325V31.1296H195.085L196.045 32.6614H196.53L195.475 31.1296C196.077 31.1296 196.53 30.8691 196.53 30.2231H196.583ZM194.958 30.8066H194.325V29.6396H195.285C195.707 29.6396 196.161 29.7021 196.161 30.2127C196.161 30.89 195.433 30.8066 194.958 30.8066V30.8066Z" fill="#425A8B"/>
<path fill-rule="evenodd" clip-rule="evenodd" d="M177.405 14.1232L183.555 7.63166C183.831 7.34334 184.015 6.9808 184.083 6.58968C184.083 6.11036 183.671 5.92281 182.374 5.92281H180.813V1.81738H197.617V5.91239H195.402C192.859 5.91239 192.385 6.29792 188.83 10.7264L179.093 21.1462V27.4711C179.093 29.0966 179.926 29.6697 182.258 29.6697H185.929V33.6188H162.405V29.628H166.076C168.449 29.628 169.24 29.0549 169.24 27.4294V21.1045L157.858 8.57987C155.97 6.3917 156.233 5.91239 150.959 5.91239V1.81738H172.236V5.91239H170.717C169.177 5.91239 168.523 6.20414 168.523 6.76682C168.523 7.32949 168.998 7.63166 169.293 8.00678L175.095 14.2587C175.231 14.4391 175.409 14.5841 175.614 14.6814C175.819 14.7786 176.045 14.8252 176.272 14.817C176.5 14.8088 176.722 14.7461 176.919 14.6343C177.116 14.5225 177.283 14.365 177.405 14.1753V14.1232Z" fill="#425A8B"/>
<path fill-rule="evenodd" clip-rule="evenodd" d="M34.6559 1.81867H39.7933V13.2805H35.0463C34.6243 10.9881 33.1791 10.1025 31.8816 8.90417C29.4975 6.74726 24.3496 4.94462 20.014 4.94462C14.3914 4.91336 9.66545 6.63264 9.66545 9.15425C9.66545 16.146 41.6816 10.5818 41.6816 23.815C41.6816 30.7234 34.8247 34.5787 22.5035 34.5787C17.4856 34.4837 12.5424 33.3588 7.98817 31.2756C6.79613 30.5879 6.28978 31.9112 6.06825 33.5784H0.793773V21.7727H5.5619C6.60625 24.7632 8.06201 25.3884 9.39118 26.6283C11.6909 28.7123 17.1869 30.244 22.2293 30.2024C29.8245 30.1294 32.4407 28.4831 32.4407 26.1074C32.4407 23.7316 29.8562 23.1585 21.533 21.8665L14.4652 20.7307C6.47966 19.4803 0.677734 17.7194 0.677734 11.4362C0.677734 4.91336 8.06201 0.818359 19.6659 0.818359C24.5289 0.818359 28.6325 1.46439 32.5567 3.70466C33.6116 4.40279 34.6665 4.48615 34.6665 1.86035L34.6559 1.81867Z" fill="#425A8B"/>
<path fill-rule="evenodd" clip-rule="evenodd" d="M134.806 20.9488L134.912 8.24701C134.912 6.57984 134.036 6.00674 131.526 6.00674H128.583V2.05762H147.307V6.00674H144.881C142.37 6.00674 141.494 6.57984 141.494 8.24701V33.8173L134.11 33.7548L110.386 11.5397V27.6696C110.386 29.2951 111.261 29.9099 113.772 29.9099H117.031V33.8173H97.5791V29.9099H100.807C103.307 29.9099 104.193 29.2951 104.193 27.6696V8.24701C104.193 6.57984 103.307 6.00674 100.807 6.00674H97.5791V2.05762H114.457L134.849 20.9488H134.806Z" fill="#425A8B"/>
<path fill-rule="evenodd" clip-rule="evenodd" d="M72.0204 0.578125C57.0831 0.578125 47.7578 7.10096 47.7578 17.5729C47.7578 27.8573 56.9882 34.3385 71.5985 34.3385C87.116 34.3385 96.1459 27.9511 96.1459 17.0519C96.1143 7.24684 86.3776 0.578125 72.0204 0.578125ZM71.6829 30.1914C63.4125 30.1914 58.6971 25.4816 58.6971 17.3333C58.6971 9.38291 63.6234 4.67313 72.0943 4.67313C80.2275 4.67313 84.9851 9.4871 84.9851 17.6667C84.9851 25.6691 80.1537 30.1705 71.6829 30.1705V30.1914Z" fill="#425A8B"/>
</g>
<defs>
<clipPath id="clip0_633_51664">
<rect width="197.361" height="34" fill="white" transform="translate(0.677734 0.578125)"/>
</clipPath>
</defs>
</svg>
