<svg width="145" height="34" viewBox="0 0 145 34" fill="none" xmlns="http://www.w3.org/2000/svg">
<g opacity="0.3" clip-path="url(#clip0_633_51671)">
<path fill-rule="evenodd" clip-rule="evenodd" d="M111.14 17.0156C111.14 20.3655 112.116 23.6402 113.946 26.4255C115.775 29.2109 118.375 31.3818 121.417 32.6637C124.46 33.9457 127.807 34.2811 131.037 33.6276C134.267 32.974 137.233 31.3609 139.562 28.9921C141.89 26.6234 143.476 23.6054 144.118 20.3199C144.76 17.0344 144.431 13.6288 143.171 10.5339C141.91 7.43898 139.777 4.79371 137.039 2.9326C134.301 1.07149 131.082 0.078125 127.789 0.078125C123.374 0.0822659 119.142 1.86807 116.021 5.04356C112.899 8.21905 111.144 12.5247 111.14 17.0156ZM117.335 17.0156C117.335 14.9122 117.948 12.8561 119.097 11.1072C120.245 9.35832 121.878 7.99524 123.788 7.19032C125.698 6.3854 127.8 6.17479 129.828 6.58514C131.856 6.99548 133.719 8.00835 135.181 9.49565C136.643 10.9829 137.638 12.8779 138.042 14.9408C138.445 17.0038 138.238 19.1421 137.447 21.0853C136.656 23.0286 135.316 24.6895 133.597 25.8581C131.877 27.0266 129.856 27.6503 127.789 27.6503C125.017 27.6483 122.359 26.5272 120.399 24.5332C118.439 22.5392 117.337 19.8354 117.335 17.0156Z" fill="#425A8B"/>
<path fill-rule="evenodd" clip-rule="evenodd" d="M95.4292 8.28887V34H101.578V7.9448C101.578 7.71803 101.617 6.02116 102.747 5.26265L99.3801 0C96.0211 2.24425 95.3216 6.25575 95.4292 8.28887Z" fill="#425A8B"/>
<path fill-rule="evenodd" clip-rule="evenodd" d="M41.046 15.3266C37.4948 21.5823 34.128 27.5565 29.3085 27.5565C24.4891 27.5565 21.13 21.6136 17.5404 15.3266C13.528 8.1559 8.93909 0.0390625 0.629883 0.0390625V6.29481C5.34945 6.29481 8.67774 12.1909 12.2059 18.4231C16.2798 25.6407 20.9071 33.8201 29.3085 33.8201C37.71 33.8201 42.3373 25.6798 46.4189 18.4622C49.9393 12.2065 53.2676 6.33391 57.9949 6.33391C62.7221 6.33391 66.0427 12.23 69.5709 18.4622C73.6525 25.6798 78.2644 33.8592 86.6736 33.8592V27.5565C81.8464 27.5565 78.495 21.6136 74.9361 15.3266C70.8853 8.1559 66.2964 0.0390625 57.9949 0.0390625C49.6934 0.0390625 45.0968 8.1559 41.0844 15.3266H41.046Z" fill="#425A8B"/>
<path fill-rule="evenodd" clip-rule="evenodd" d="M62.5686 22.9125C62.5686 23.8405 62.2981 24.7476 61.7914 25.5191C61.2846 26.2907 60.5643 26.8921 59.7216 27.2472C58.8789 27.6023 57.9516 27.6952 57.0569 27.5142C56.1623 27.3331 55.3405 26.8863 54.6955 26.2301C54.0505 25.574 53.6113 24.738 53.4333 23.8278C53.2554 22.9177 53.3467 21.9744 53.6958 21.117C54.0449 20.2597 54.636 19.527 55.3944 19.0114C56.1529 18.4959 57.0445 18.2207 57.9567 18.2207C59.1798 18.2207 60.3529 18.715 61.2178 19.5949C62.0827 20.4748 62.5686 21.6682 62.5686 22.9125Z" fill="#425A8B"/>
</g>
<defs>
<clipPath id="clip0_633_51671">
<rect width="143.808" height="34" fill="white" transform="translate(0.629883)"/>
</clipPath>
</defs>
</svg>
