<svg width="50" height="50" viewBox="0 0 50 50" fill="none" xmlns="http://www.w3.org/2000/svg">
<path d="M14.1414 4.72322L17.1057 3.83037C18.4551 3.42327 19.9065 3.52114 21.189 4.10571C22.4715 4.69028 23.4975 5.7216 24.0754 7.00715L25.92 11.1107C26.4171 12.2162 26.5555 13.4495 26.316 14.6377C26.0764 15.8259 25.4709 16.9092 24.5843 17.7357L21.3611 20.7411C21.3212 20.7783 21.2886 20.8225 21.2646 20.8714C20.9271 21.5607 21.4396 23.4018 23.045 26.1839C24.8557 29.3197 26.2539 30.5589 26.9021 30.3679L31.1325 29.0732C32.291 28.7194 33.5312 28.737 34.6793 29.1236C35.8273 29.5101 36.8256 30.2461 37.5343 31.2286L40.1557 34.8589C40.9787 35.9988 41.36 37.3987 41.2286 38.7985C41.0972 40.1983 40.4622 41.5028 39.4414 42.4697L37.1861 44.6036C36.4018 45.3465 35.4494 45.8886 34.4102 46.1837C33.371 46.4788 32.2759 46.5181 31.2182 46.2982C24.9379 44.9911 19.3111 39.9339 14.2896 31.2375C9.26643 22.5357 7.70036 15.125 9.71822 9.03037C10.056 8.01002 10.6344 7.08596 11.4046 6.33629C12.1748 5.58661 13.1141 5.03334 14.1432 4.72322H14.1414ZM14.9164 7.28751C14.2989 7.47349 13.7353 7.80538 13.2731 8.25513C12.811 8.70487 12.4638 9.25925 12.2611 9.87144C10.5218 15.1232 11.9307 21.7947 16.6093 29.8982C21.2843 37.9964 26.3521 42.55 31.7629 43.675C32.3978 43.807 33.0552 43.7834 33.679 43.6061C34.3028 43.4289 34.8744 43.1033 35.345 42.6572L37.5986 40.525C38.1484 40.0045 38.4906 39.3022 38.5615 38.5484C38.6325 37.7946 38.4273 37.0407 37.9843 36.4268L35.3629 32.7947C34.9813 32.2658 34.4439 31.8695 33.8259 31.6613C33.2078 31.4532 32.5402 31.4436 31.9164 31.6339L27.6754 32.9321C25.3289 33.6304 23.1218 31.675 20.7254 27.5214C18.695 24.0072 17.9914 21.4679 18.8593 19.6947C19.0271 19.3518 19.2557 19.0429 19.5343 18.7822L22.7575 15.7768C23.2351 15.3318 23.5613 14.7483 23.6904 14.1084C23.8194 13.4685 23.7449 12.8043 23.4771 12.2089L21.6325 8.10715C21.3214 7.41476 20.7688 6.85929 20.0781 6.54448C19.3873 6.22968 18.6056 6.17705 17.8789 6.39644L14.9146 7.28929L14.9164 7.28751Z" fill="#425A8B"/>
</svg>
