<svg width="50" height="50" viewBox="0 0 50 50" fill="none" xmlns="http://www.w3.org/2000/svg">
<path d="M40.7751 6.41959C41.4725 6.41959 42.1412 6.6966 42.6343 7.1897C43.1274 7.68279 43.4044 8.35156 43.4044 9.0489V30.0833C43.4044 30.7807 43.1274 31.4495 42.6343 31.9425C42.1412 32.4356 41.4725 32.7127 40.7751 32.7127H15.5706C14.176 32.7129 12.8387 33.2672 11.8528 34.2534L6.59415 39.512V9.0489C6.59415 8.35156 6.87117 7.68279 7.36426 7.1897C7.85735 6.6966 8.52612 6.41959 9.22346 6.41959H40.7751ZM9.22346 3.79028C7.82879 3.79028 6.49124 4.34431 5.50506 5.3305C4.51887 6.31668 3.96484 7.65423 3.96484 9.0489L3.96484 42.6856C3.9649 42.9457 4.04213 43.2 4.18675 43.4162C4.33137 43.6325 4.53689 43.8009 4.7773 43.9003C5.0177 43.9997 5.28218 44.0255 5.53726 43.9745C5.79235 43.9235 6.02656 43.7979 6.21027 43.6138L13.7117 36.1123C14.2047 35.6192 14.8733 35.3421 15.5706 35.342H40.7751C42.1698 35.342 43.5074 34.7879 44.4935 33.8017C45.4797 32.8156 46.0337 31.478 46.0337 30.0833V9.0489C46.0337 7.65423 45.4797 6.31668 44.4935 5.3305C43.5074 4.34431 42.1698 3.79028 40.7751 3.79028H9.22346Z" fill="#425A8B"/>
<path d="M11.8516 12.9929C11.8516 12.6442 11.9901 12.3098 12.2366 12.0633C12.4832 11.8167 12.8175 11.6782 13.1662 11.6782H36.83C37.1786 11.6782 37.513 11.8167 37.7596 12.0633C38.0061 12.3098 38.1446 12.6442 38.1446 12.9929C38.1446 13.3415 38.0061 13.6759 37.7596 13.9225C37.513 14.169 37.1786 14.3075 36.83 14.3075H13.1662C12.8175 14.3075 12.4832 14.169 12.2366 13.9225C11.9901 13.6759 11.8516 13.3415 11.8516 12.9929ZM11.8516 19.5661C11.8516 19.2175 11.9901 18.8831 12.2366 18.6365C12.4832 18.39 12.8175 18.2515 13.1662 18.2515H36.83C37.1786 18.2515 37.513 18.39 37.7596 18.6365C38.0061 18.8831 38.1446 19.2175 38.1446 19.5661C38.1446 19.9148 38.0061 20.2492 37.7596 20.4957C37.513 20.7423 37.1786 20.8808 36.83 20.8808H13.1662C12.8175 20.8808 12.4832 20.7423 12.2366 20.4957C11.9901 20.2492 11.8516 19.9148 11.8516 19.5661ZM11.8516 26.1394C11.8516 25.7907 11.9901 25.4564 12.2366 25.2098C12.4832 24.9633 12.8175 24.8248 13.1662 24.8248H26.3127C26.6614 24.8248 26.9958 24.9633 27.2423 25.2098C27.4889 25.4564 27.6274 25.7907 27.6274 26.1394C27.6274 26.4881 27.4889 26.8225 27.2423 27.069C26.9958 27.3156 26.6614 27.4541 26.3127 27.4541H13.1662C12.8175 27.4541 12.4832 27.3156 12.2366 27.069C11.9901 26.8225 11.8516 26.4881 11.8516 26.1394Z" fill="#425A8B"/>
</svg>
