<svg width="50" height="50" viewBox="0 0 50 50" fill="none" xmlns="http://www.w3.org/2000/svg">
<path d="M43.5387 11.1569L31.1333 7.68689L18.6917 11.1916L7.12158 7.90939C6.87366 7.83905 6.6128 7.82716 6.3595 7.87465C6.1062 7.92215 5.86737 8.02774 5.66177 8.18312C5.45617 8.33851 5.2894 8.53946 5.17458 8.77017C5.05975 9.00089 4.99999 9.25509 5 9.51281V37.8961C5.00126 38.3311 5.14372 38.7538 5.40596 39.1008C5.66819 39.4478 6.03601 39.7003 6.45408 39.8202L18.6888 43.2911L31.1359 39.7849L42.8845 43.0712C43.1322 43.1405 43.3926 43.1515 43.6453 43.1033C43.8979 43.0552 44.136 42.9493 44.3409 42.7938C44.5458 42.6383 44.7119 42.4375 44.8262 42.2071C44.9406 41.9767 45.0001 41.7229 45 41.4657V13.083C44.9989 12.6467 44.8557 12.2227 44.592 11.8752C44.3283 11.5276 43.9586 11.2755 43.5387 11.1569ZM17.25 40.1106L7.66667 37.3919V10.8359L17.25 13.5546V40.1106ZM29.8013 37.39L19.9167 40.1743V13.6169L29.8013 10.8326V37.39ZM42.3333 40.1476L32.4679 37.3884V10.8291L42.3333 13.5884V40.1476Z" fill="#425A8B"/>
</svg>
