<svg width="14" height="12" viewBox="0 0 14 12" fill="none" xmlns="http://www.w3.org/2000/svg">
<path d="M12.834 5.16669H2.95065L5.97565 1.53336C6.1171 1.36318 6.18515 1.14378 6.16483 0.923423C6.14452 0.703068 6.0375 0.499808 5.86732 0.35836C5.69714 0.216911 5.47774 0.148859 5.25738 0.169176C5.03703 0.189492 4.83377 0.296512 4.69232 0.466693L0.525651 5.46669C0.497618 5.50646 0.47255 5.54824 0.450651 5.59169C0.450651 5.63336 0.450651 5.65836 0.392318 5.70003C0.354546 5.79558 0.334769 5.89729 0.333984 6.00003C0.334769 6.10277 0.354546 6.20448 0.392318 6.30003C0.392318 6.34169 0.392318 6.36669 0.450651 6.40836C0.47255 6.45181 0.497618 6.49359 0.525651 6.53336L4.69232 11.5334C4.77067 11.6274 4.86879 11.7031 4.97969 11.7549C5.09059 11.8068 5.21156 11.8336 5.33398 11.8334C5.52869 11.8337 5.71739 11.7659 5.86732 11.6417C5.9517 11.5717 6.02145 11.4858 6.07258 11.3889C6.1237 11.2919 6.1552 11.1858 6.16526 11.0767C6.17533 10.9675 6.16376 10.8575 6.13122 10.7528C6.09869 10.6481 6.04582 10.5509 5.97565 10.4667L2.95065 6.83336H12.834C13.055 6.83336 13.267 6.74556 13.4232 6.58928C13.5795 6.433 13.6673 6.22104 13.6673 6.00003C13.6673 5.77901 13.5795 5.56705 13.4232 5.41077C13.267 5.25449 13.055 5.16669 12.834 5.16669Z" fill="#425A8B"/>
</svg>
