<svg width="20" height="20" viewBox="0 0 20 20" fill="none" xmlns="http://www.w3.org/2000/svg">
<path fill-rule="evenodd" clip-rule="evenodd" d="M2.53777 9.72931C2.53777 13.788 5.48044 16.5533 8.78577 17.1253C8.87568 17.1409 8.96164 17.174 9.03875 17.2228C9.11585 17.2716 9.18259 17.3352 9.23515 17.4098C9.28771 17.4844 9.32506 17.5686 9.34507 17.6576C9.36508 17.7466 9.36735 17.8387 9.35177 17.9286C9.33619 18.0186 9.30305 18.1045 9.25424 18.1816C9.20544 18.2587 9.14192 18.3255 9.06733 18.378C8.99273 18.4306 8.90851 18.4679 8.81948 18.4879C8.73045 18.5079 8.63835 18.5102 8.54844 18.4946C4.6671 17.8226 1.14844 14.5506 1.14844 9.72931C1.14844 7.67998 2.08044 6.06931 3.16844 4.84531C3.94844 3.96798 4.84044 3.25464 5.55777 2.70931H3.37644C3.19963 2.70931 3.03006 2.63907 2.90503 2.51405C2.78001 2.38902 2.70977 2.21945 2.70977 2.04264C2.70977 1.86583 2.78001 1.69626 2.90503 1.57124C3.03006 1.44621 3.19963 1.37598 3.37644 1.37598H7.37644C7.55325 1.37598 7.72282 1.44621 7.84784 1.57124C7.97287 1.69626 8.0431 1.86583 8.0431 2.04264V6.04264C8.0431 6.21945 7.97287 6.38902 7.84784 6.51405C7.72282 6.63907 7.55325 6.70931 7.37644 6.70931C7.19963 6.70931 7.03006 6.63907 6.90503 6.51405C6.78001 6.38902 6.70977 6.21945 6.70977 6.04264V3.58131L6.70844 3.58398C5.94577 4.15731 5.0151 4.85998 4.20844 5.76798C3.2551 6.83998 2.53777 8.13598 2.53777 9.72798V9.72931ZM17.3484 10.2706C17.3484 6.25464 14.4684 3.50664 11.2058 2.89331C11.1148 2.87788 11.0279 2.8445 10.95 2.79511C10.8721 2.74571 10.8048 2.68131 10.7521 2.60564C10.6993 2.52997 10.6622 2.44455 10.6428 2.35438C10.6234 2.2642 10.6222 2.17107 10.6392 2.08041C10.6562 1.98976 10.6911 1.9034 10.7418 1.82636C10.7925 1.74933 10.8581 1.68318 10.9347 1.63175C11.0112 1.58033 11.0973 1.54467 11.1878 1.52685C11.2783 1.50903 11.3714 1.50942 11.4618 1.52798C15.2938 2.24798 18.7378 5.50131 18.7378 10.2706C18.7378 12.32 17.8058 13.9293 16.7178 15.1546C15.9378 16.032 15.0458 16.7453 14.3284 17.2906H16.5098C16.6866 17.2906 16.8562 17.3609 16.9812 17.4859C17.1062 17.6109 17.1764 17.7805 17.1764 17.9573C17.1764 18.1341 17.1062 18.3037 16.9812 18.4287C16.8562 18.5537 16.6866 18.624 16.5098 18.624H12.5098C12.333 18.624 12.1634 18.5537 12.0384 18.4287C11.9133 18.3037 11.8431 18.1341 11.8431 17.9573V13.9573C11.8431 13.7805 11.9133 13.6109 12.0384 13.4859C12.1634 13.3609 12.333 13.2906 12.5098 13.2906C12.6866 13.2906 12.8562 13.3609 12.9812 13.4859C13.1062 13.6109 13.1764 13.7805 13.1764 13.9573V16.4173H13.1791C13.9404 15.8413 14.8724 15.14 15.6778 14.2306C16.6311 13.16 17.3484 11.864 17.3484 10.2706Z" fill="white"/>
</svg>
