<svg width="969" height="578" viewBox="0 0 969 578" fill="none" xmlns="http://www.w3.org/2000/svg">
<path d="M563.685 185.729C556.36 173.611 547.681 160.673 534.089 156.717C518.348 152.134 502.178 161.237 488.462 170.22C447.444 197.083 407.942 226.195 370.139 257.423L370.18 257.894C399.612 255.863 429.043 253.833 458.475 251.803C479.739 250.336 501.734 248.667 520.525 238.605C527.656 234.787 534.607 229.686 542.688 229.331C552.727 228.889 561.48 235.903 568.359 243.23C609.051 286.573 620.826 352.856 666.478 390.936C637.692 319.923 603.319 251.305 563.685 185.729Z" fill="white"/>
<path d="M813.81 553.36C809.31 547.676 807.471 546.345 803.033 540.609C766.891 493.852 732.921 445.516 701.122 395.6C679.523 361.699 658.995 327.147 639.539 291.944C630.276 275.209 621.266 258.341 612.511 241.343C605.717 228.163 599.075 214.903 592.585 201.566C590.728 197.756 588.925 193.929 587.13 190.093C582.901 181.073 578.751 172.009 574.295 163.111C569.217 152.969 563.036 142.338 553.711 135.524C549.468 132.296 544.394 130.343 539.082 129.893C531.491 129.403 524.487 132.538 517.903 135.962C469.732 161.088 424.634 192.589 383.844 228.434C342.949 264.36 306.396 304.947 274.93 349.368C273.967 350.743 271.69 349.43 272.662 348.046C276.488 342.634 280.39 337.28 284.368 331.984C333.828 266.185 394.474 209.601 463.533 164.819C475.152 157.287 486.989 150.109 499.044 143.283C505.12 139.842 511.223 136.444 517.43 133.256C523.515 130.13 529.976 127.318 536.928 127.213C560.584 126.845 572.833 153.644 581.247 171.676C583.891 177.351 586.567 183.008 589.275 188.648C599.51 210.06 610.138 231.277 621.161 252.299C627.964 265.277 634.916 278.18 642.016 291.007C664.114 330.951 687.601 370.086 712.478 408.412C745.432 459.18 778.124 504.028 815.666 551.503C816.699 552.817 814.852 554.691 813.81 553.36Z" fill="white"/>
<path d="M260.064 332.851C258.689 331.318 257.323 329.786 255.94 328.253C245.031 316.185 233.326 304.257 218.345 297.338C211.203 293.935 203.405 292.128 195.494 292.04C187.317 292.066 179.324 294.212 171.768 297.216C168.196 298.643 164.702 300.263 161.262 301.989C157.331 303.968 153.47 306.079 149.626 308.207C142.412 312.2 135.291 316.369 128.264 320.713C114.282 329.356 100.737 338.66 87.631 348.623C80.8367 353.79 74.1827 359.127 67.669 364.632C61.6105 369.747 55.6745 374.998 49.8611 380.387C48.6179 381.534 46.7617 379.678 48.0049 378.531C49.5371 377.103 51.0867 375.684 52.6364 374.283C57.014 370.325 61.4617 366.442 65.9795 362.635C74.2178 355.682 82.6694 348.997 91.3344 342.58C104.809 332.597 118.747 323.29 133.149 314.661C140.346 310.352 147.642 306.225 155.037 302.278C157.27 301.087 159.528 299.922 161.813 298.818C166.998 296.202 172.386 294.009 177.923 292.259C185.767 289.721 194.066 288.905 202.253 289.868C210.159 291.018 217.776 293.654 224.702 297.636C239.41 305.86 250.818 318.576 261.92 330.985C263.041 332.246 261.193 334.112 260.064 332.851Z" fill="white"/>
<path d="M682.88 340.258L718.126 327.364L735.625 320.961C741.325 318.876 747.01 316.502 752.902 315.009C758.022 313.546 763.458 313.616 768.539 315.209C773.071 316.886 777.218 319.458 780.736 322.771C784.33 326.082 787.674 329.654 790.74 333.458C794.55 338.038 798.304 342.666 802.074 347.279C817.636 366.315 833.096 385.435 848.454 404.637C863.812 423.838 879.067 443.122 894.219 462.487C909.409 481.899 924.494 501.392 939.474 520.967C941.31 523.365 943.143 525.764 944.975 528.164C945.987 529.49 948.27 528.183 947.243 526.838C932.152 507.067 916.956 487.376 901.654 467.767C886.315 448.11 870.87 428.537 855.319 409.048C839.768 389.558 824.113 370.154 808.352 350.833C804.425 346.02 800.492 341.212 796.553 336.41C793.23 332.358 789.944 328.264 786.299 324.493C779.609 317.571 771.25 311.455 761.244 311.289C755.361 311.191 749.668 313.059 744.202 315.036C738.31 317.169 732.432 319.341 726.547 321.494L691.055 334.479L682.182 337.725C680.608 338.301 681.288 340.841 682.881 340.258L682.88 340.258Z" fill="white"/>
<path d="M213.708 312.524C195.797 303.316 172.859 305.119 156.4 316.623C187.795 322.041 218.845 329.29 249.393 338.334C236.708 330.897 226.785 319.247 213.708 312.524Z" fill="white"/>
<path d="M277.667 198.942L274.219 201.745C275.385 200.764 276.598 199.844 277.843 198.974C277.784 198.963 277.726 198.952 277.667 198.942Z" fill="white"/>
<path d="M779.407 340.387C775.938 336.163 772.187 331.739 766.997 330.023L762.152 330.215C799.034 395.404 848.845 452.366 908.529 497.605C865.488 445.199 822.448 392.793 779.407 340.387Z" fill="white"/>
<path d="M478.127 305.538C480.369 313.686 485.42 320.779 492.387 325.56C495.08 327.394 498.267 329.154 499.188 332.28C499.673 334.273 499.374 336.376 498.354 338.156C497.335 339.912 496.096 341.53 494.666 342.972L494.535 343.461C487.852 339.499 481.493 334.487 477.801 327.649C474.109 320.811 473.593 311.849 478.127 305.538" fill="white"/>
<path d="M700.65 499.466C702.892 507.615 707.943 514.707 714.91 519.488C717.603 521.323 720.79 523.082 721.711 526.209C722.196 528.202 721.897 530.305 720.877 532.084C719.858 533.84 718.619 535.459 717.189 536.9L717.059 537.389C710.375 533.427 704.016 528.415 700.324 521.577C696.632 514.739 696.117 505.778 700.65 499.466" fill="white"/>
<path d="M256.556 486.092C258.799 494.24 263.85 501.332 270.816 506.114C273.51 507.948 276.696 509.708 277.618 512.834C278.102 514.827 277.804 516.93 276.783 518.709C275.765 520.465 274.525 522.084 273.096 523.525L272.965 524.014C266.281 520.052 259.923 515.041 256.231 508.203C252.539 501.365 252.023 492.403 256.556 486.092" fill="white"/>
<path d="M767.598 129.817C794.498 129.817 816.305 108.004 816.305 81.0964C816.305 54.1886 794.498 32.3755 767.598 32.3755C740.698 32.3755 718.891 54.1886 718.891 81.0964C718.891 108.004 740.698 129.817 767.598 129.817Z" fill="#3AB2B2"/>
<path d="M855.497 43.7157C831.892 40.524 804.942 53.2866 798.824 76.3143C797.282 72.22 794.479 68.7219 790.82 66.3256C787.16 63.9292 782.834 62.7586 778.466 62.9828C774.097 63.207 769.913 64.8144 766.518 67.5729C763.123 70.3314 760.693 74.0981 759.578 78.3288L762.281 80.2649C812.867 91.2073 865.231 90.9704 915.716 79.5709C899.296 62.3095 879.103 46.9073 855.497 43.7157Z" fill="white"/>
<path d="M754.263 108.677C730.658 105.485 703.708 118.248 697.59 141.275C696.048 137.181 693.245 133.683 689.585 131.287C685.926 128.89 681.599 127.719 677.231 127.944C672.863 128.168 668.679 129.775 665.284 132.534C661.889 135.292 659.459 139.059 658.344 143.29L661.046 145.226C711.632 156.168 763.997 155.931 814.482 144.532C798.062 127.27 777.869 111.868 754.263 108.677Z" fill="white"/>
<path d="M960.253 121C960.176 121 960.1 120.985 960.027 120.955C762.323 41.1078 588.074 51.5493 476.711 74.3691C461.556 77.4735 446.36 81.059 431.545 85.0269C427.763 86.0387 423.839 87.1232 419.883 88.2525C415.158 89.5963 410.496 90.9802 406.026 92.364C404.096 92.9478 402.203 93.5362 400.347 94.1293C397.537 95.0152 394.686 95.9384 391.629 96.9529C388.214 98.0776 384.743 99.2572 381.312 100.459C381.3 100.465 381.287 100.47 381.274 100.473L381.274 100.474C377.399 101.825 373.545 103.216 369.817 104.604C367.799 105.348 365.851 106.082 363.985 106.807C363.777 106.881 363.592 106.952 363.405 107.024L363.004 107.18C362.772 107.27 362.542 107.359 362.313 107.443L362.298 107.449L362.299 107.449L361.692 107.69C360.968 107.97 360.262 108.243 359.568 108.515C341.215 115.741 331.126 120.881 331.026 120.931C330.935 120.978 330.837 121.001 330.739 121C330.641 120.998 330.544 120.972 330.454 120.923C330.363 120.873 330.282 120.802 330.213 120.712C330.144 120.622 330.09 120.516 330.054 120.4C330.017 120.284 329.999 120.159 330 120.034C330.001 119.908 330.022 119.784 330.06 119.669C330.099 119.554 330.155 119.449 330.225 119.362C330.295 119.274 330.378 119.205 330.47 119.158C330.57 119.108 340.708 113.942 359.128 106.69C359.825 106.416 360.533 106.143 361.259 105.862L361.823 105.639C361.842 105.629 361.861 105.622 361.881 105.614C362.109 105.531 362.337 105.443 362.569 105.353L362.97 105.197C363.17 105.12 363.367 105.044 363.569 104.973C365.423 104.253 367.377 103.517 369.4 102.77C373.129 101.381 376.987 99.9903 380.866 98.6372C380.878 98.6316 380.89 98.6279 380.902 98.6232V98.6223C384.345 97.4165 387.828 96.2322 391.255 95.1038C394.316 94.0883 397.173 93.1633 399.988 92.2755C401.851 91.6833 403.747 91.0937 405.677 90.5065C410.153 89.1208 414.824 87.735 419.558 86.3885C423.52 85.2582 427.45 84.1709 431.239 83.1582C446.076 79.1838 461.296 75.5926 476.474 72.4836C587.997 49.6311 762.495 39.1728 960.477 119.135C960.648 119.204 960.793 119.348 960.887 119.541C960.982 119.735 961.018 119.965 960.991 120.191C960.964 120.416 960.875 120.621 960.739 120.77C960.604 120.918 960.431 121 960.253 121Z" fill="white"/>
<path d="M398.704 433.453C398.373 432.486 397.816 431.612 397.08 430.903C396.808 430.651 396.514 430.424 396.202 430.224C393.709 428.562 389.984 428.19 387.616 430.224C387.377 430.431 387.157 430.658 386.957 430.903C386.25 431.772 385.524 432.622 384.779 433.453C383.557 434.848 382.306 436.195 380.997 437.504C380.625 437.867 380.252 438.24 379.87 438.603C379.651 438.822 379.431 439.032 379.211 439.243C378.371 440.045 377.511 440.819 376.642 441.583C376.184 441.994 375.726 442.395 375.258 442.787C374.56 443.37 373.863 443.952 373.157 444.516C373.09 444.564 373.023 444.611 372.956 444.669C372.937 444.678 372.927 444.697 372.908 444.707C372.899 444.707 372.889 444.707 372.88 444.726C372.854 444.736 372.831 444.753 372.813 444.774C372.603 444.917 372.459 445.013 372.354 445.099C372.392 445.08 372.431 445.051 372.469 445.032C372.297 445.166 372.115 445.299 371.944 445.433C370.272 446.665 368.563 447.85 366.815 448.958C362.491 451.726 357.949 454.139 353.234 456.171C352.919 456.295 352.594 456.429 352.27 456.553C339.925 461.612 326.535 463.586 313.256 462.304C311.9 462.199 310.544 462.055 309.188 461.874C307.622 461.645 306.065 461.368 304.518 461.052C298.628 459.877 292.864 458.137 287.308 455.855C280.357 452.672 273.746 448.792 267.577 444.277C266.622 443.599 265.657 442.921 264.692 442.261C265.791 439.567 266.87 436.873 267.921 434.16C268.446 432.852 268.952 431.543 269.449 430.224C273.355 420.07 277.022 409.819 280.537 399.53C284.089 389.108 287.442 378.625 290.593 368.081C290.918 367.012 291.233 365.942 291.539 364.872C293.191 359.302 294.776 353.72 296.295 348.125C296.438 347.581 296.591 347.046 296.725 346.501C297.164 344.896 297.594 343.291 298.014 341.686C298.969 338.066 296.811 333.738 293.009 332.869C291.179 332.399 289.239 332.659 287.596 333.593C285.953 334.526 284.737 336.062 284.204 337.875C283.793 339.422 283.383 340.96 282.962 342.508C280.947 349.988 278.827 357.442 276.602 364.872C276.277 365.942 275.952 367.012 275.628 368.081C270.719 384.264 265.329 400.285 259.459 416.143C258.752 418.063 258.036 419.977 257.31 421.885C256.957 422.821 256.603 423.757 256.24 424.693C255.543 426.537 254.827 428.381 254.111 430.224C253.7 431.304 253.28 432.383 252.86 433.453C252.583 434.132 252.315 434.81 252.048 435.479C249.325 434.501 246.504 433.822 243.634 433.453L243.175 433.396C240.951 433.128 238.701 433.148 236.481 433.453C233.158 433.841 229.961 434.954 227.116 436.714C224.271 438.474 221.847 440.837 220.016 443.637C215.46 450.811 215.517 461.072 221.907 467.166C228.487 473.443 238.448 473.395 246.193 469.469C250.298 467.247 253.759 464.003 256.24 460.049C257.191 458.616 258.065 457.133 258.857 455.607C259.058 455.741 259.258 455.875 259.459 456.018C260.223 456.553 260.987 457.097 261.741 457.632C266.137 460.818 270.77 463.664 275.599 466.144C285.982 471.308 297.159 474.689 308.663 476.146C308.92 476.175 309.169 476.213 309.427 476.242C310.697 476.404 311.977 476.528 313.256 476.634C331.614 478.017 349.995 474.26 366.337 465.781C367.722 465.065 369.094 464.313 370.454 463.527C372.564 462.304 374.627 461.005 376.642 459.629C377.741 458.884 378.81 458.129 379.87 457.336C384.503 453.923 388.821 450.103 392.773 445.92C394.272 444.344 395.708 442.717 397.08 441.039C398.378 439.666 399.126 437.864 399.181 435.975C399.174 435.113 399.012 434.259 398.704 433.453ZM240.559 456.209C240.759 456.066 240.96 455.913 241.151 455.76C241.093 455.903 240.816 456.066 240.559 456.209H240.559ZM243.624 453.123C243.405 453.372 243.204 453.62 242.984 453.868C242.316 454.617 241.598 455.319 240.836 455.97C240.731 456.066 240.616 456.161 240.501 456.247C240.5 456.247 240.499 456.247 240.498 456.248C240.496 456.248 240.495 456.249 240.495 456.25C240.494 456.251 240.493 456.252 240.492 456.253C240.492 456.254 240.492 456.255 240.492 456.257C240.354 456.318 240.22 456.389 240.091 456.467C239.68 456.715 239.26 456.945 238.83 457.155C237.989 457.465 237.123 457.704 236.242 457.871C235.565 457.921 234.885 457.927 234.208 457.89H234.188C233.721 457.786 233.259 457.659 232.804 457.508C232.574 457.394 232.355 457.26 232.135 457.126C232.049 457.05 231.973 456.973 231.925 456.925C231.832 456.84 231.746 456.748 231.667 456.648C231.667 456.647 231.667 456.646 231.667 456.645C231.666 456.644 231.665 456.642 231.665 456.642C231.664 456.641 231.663 456.64 231.661 456.639C231.66 456.639 231.659 456.639 231.658 456.639C231.553 456.448 231.438 456.257 231.333 456.066C231.328 456.061 231.324 456.054 231.323 456.047C231.247 455.808 231.18 455.559 231.123 455.311C231.102 454.875 231.105 454.438 231.132 454.002C231.261 453.392 231.433 452.792 231.648 452.206C231.842 451.791 232.062 451.389 232.307 451.003C232.326 450.964 232.422 450.811 232.527 450.639C232.536 450.63 232.536 450.63 232.536 450.62C232.68 450.458 232.823 450.286 232.976 450.133C233.234 449.847 233.51 449.598 233.787 449.34C234.326 448.988 234.884 448.665 235.459 448.375C236.37 448.051 237.306 447.799 238.257 447.621C239.659 447.509 241.069 447.522 242.469 447.659C243.795 447.889 245.103 448.211 246.384 448.624C245.608 450.131 244.724 451.581 243.739 452.961C243.701 453.018 243.663 453.076 243.624 453.123ZM233.004 449.98C232.92 450.115 232.821 450.24 232.708 450.353C232.784 450.212 232.884 450.086 233.004 449.98Z" fill="#3F3D56"/>
<path d="M369.995 335.887C369.91 338.887 369.824 341.887 369.738 344.887C369.556 351.545 369.368 358.207 369.174 364.872C368.974 372.371 368.763 379.867 368.544 387.36C368.439 391.229 368.33 395.098 368.219 398.967C367.923 409.389 367.63 419.808 367.34 430.225C367.312 431.304 367.274 432.374 367.245 433.453C367.102 438.622 366.958 443.79 366.815 448.958C366.653 454.566 366.494 460.174 366.338 465.781C366.223 469.985 366.105 474.191 365.984 478.401C365.125 508.904 364.265 539.407 363.406 569.91C363.369 571.799 362.603 573.6 361.268 574.936C359.932 576.272 358.131 577.039 356.243 577.075C354.348 577.06 352.535 576.3 351.195 574.96C349.855 573.619 349.095 571.806 349.08 569.91C349.558 552.753 350.041 535.595 350.532 518.438C350.961 502.924 351.398 487.409 351.84 471.895C351.983 466.784 352.127 461.67 352.27 456.553C352.49 448.853 352.706 441.153 352.919 433.453C352.948 432.374 352.986 431.304 353.015 430.225C353.034 429.279 353.063 428.343 353.091 427.397C353.511 412.446 353.932 397.492 354.352 382.535C354.524 376.651 354.689 370.763 354.849 364.872C355.04 358.156 355.231 351.443 355.422 344.734C355.507 341.782 355.584 338.839 355.67 335.887C355.706 333.999 356.472 332.197 357.808 330.861C359.143 329.526 360.944 328.759 362.833 328.723C364.728 328.738 366.541 329.498 367.881 330.838C369.221 332.178 369.98 333.992 369.995 335.887Z" fill="#3F3D56"/>
<path d="M762.926 337.876C755.415 366.325 746.438 394.366 736.031 421.887C733.159 429.479 730.222 437.055 727.081 444.539L727.803 442.828C726.401 446.393 724.611 449.793 722.465 452.966C722.319 453.17 722.17 453.373 722.019 453.574C722.761 452.624 722.902 452.437 722.442 453.011C722.199 453.298 721.96 453.586 721.709 453.866C721.04 454.615 720.323 455.318 719.561 455.971C719.369 456.135 719.174 456.296 718.977 456.453L719.872 455.756C719.768 456.002 719.039 456.327 718.812 456.466C718.076 456.91 717.308 457.299 716.515 457.63L718.226 456.908C716.926 457.432 715.57 457.804 714.185 458.017L716.089 457.761C714.728 457.949 713.349 457.964 711.985 457.805L713.889 458.061C712.772 457.907 711.68 457.613 710.637 457.185L712.348 457.907C711.792 457.664 711.256 457.378 710.745 457.051C710.485 456.882 709.689 456.278 710.73 457.074C711.813 457.902 710.869 457.145 710.647 456.925C710.461 456.742 710.294 456.543 710.112 456.357C709.27 455.493 711.064 457.844 710.491 456.833C710.185 456.327 709.905 455.805 709.652 455.27L710.374 456.981C710.046 456.167 709.812 455.317 709.679 454.448L709.935 456.353C709.798 455.273 709.797 454.18 709.932 453.1L709.676 455.005C709.851 453.799 710.17 452.619 710.626 451.489L709.904 453.201C710.222 452.441 710.598 451.707 711.029 451.005C711.228 450.642 711.461 450.3 711.725 449.982C711.772 449.997 710.513 451.427 711.181 450.705C711.356 450.516 711.519 450.317 711.696 450.13C711.979 449.83 712.282 449.556 712.58 449.272C713.578 448.322 711.184 450.195 712.335 449.443C713.169 448.894 714.048 448.415 714.961 448.011L713.25 448.733C714.779 448.105 716.382 447.675 718.02 447.453L716.116 447.709C718.168 447.473 720.241 447.497 722.286 447.782L720.382 447.526C722.972 447.919 725.504 448.631 727.919 449.647L726.208 448.925C731.355 451.135 735.914 454.417 740.465 457.635C744.86 460.819 749.492 463.663 754.319 466.143C764.703 471.308 775.88 474.69 787.384 476.149C803.883 478.171 820.626 476.016 836.075 469.881C851.524 463.747 865.186 453.83 875.807 441.04C877.103 439.665 877.85 437.862 877.905 435.973C877.892 434.076 877.139 432.258 875.807 430.907C873.18 428.494 868.216 427.813 865.678 430.907C863.273 433.844 860.687 436.629 857.936 439.244C856.651 440.463 855.332 441.644 853.979 442.788C853.207 443.441 852.423 444.082 851.629 444.709C851.254 445.006 850.083 445.797 851.881 444.521C851.469 444.813 851.074 445.132 850.667 445.433C844.652 449.868 838.134 453.576 831.249 456.481L832.96 455.759C825.572 458.859 817.812 460.985 809.876 462.085L811.78 461.829C803.616 462.903 795.345 462.891 787.184 461.793L789.088 462.049C780.929 460.928 772.949 458.754 765.349 455.581L767.06 456.303C759.725 453.057 752.765 449.024 746.301 444.275C742.936 441.783 739.388 439.549 735.687 437.593C731.375 435.39 726.707 433.971 721.898 433.401C712.884 432.34 703.698 435.852 698.742 443.642C694.181 450.812 694.24 461.07 700.627 467.167C707.205 473.446 717.167 473.392 724.919 469.465C732.385 465.682 736.87 457.824 740.023 450.414C747.12 433.739 753.404 416.679 759.258 399.531C765.049 382.567 770.302 365.431 775.014 348.123C775.598 345.979 776.173 343.834 776.74 341.685C777.696 338.066 775.536 333.737 771.737 332.872C769.907 332.4 767.964 332.659 766.321 333.592C764.677 334.526 763.46 336.062 762.926 337.876L762.926 337.876Z" fill="#3F3D56"/>
<path d="M834.394 335.887L831.816 427.4L829.251 518.435L827.801 569.911C827.817 571.806 828.577 573.619 829.917 574.96C831.256 576.3 833.069 577.06 834.964 577.076C836.852 577.039 838.653 576.273 839.988 574.937C841.324 573.601 842.09 571.8 842.126 569.911L844.705 478.399L847.269 387.363L848.72 335.887C848.703 333.992 847.944 332.179 846.604 330.839C845.264 329.499 843.451 328.739 841.557 328.723C839.669 328.759 837.868 329.526 836.532 330.862C835.197 332.197 834.43 333.999 834.394 335.887Z" fill="#3F3D56"/>
<path opacity="0.2" d="M586.469 544.361H588.693V443.058H640.579V440.839H588.693V398.094H628.762C628.175 397.347 627.57 396.609 626.949 395.881H588.693V367.648C587.957 367.335 587.216 367.032 586.469 366.747V395.881H542.869V359.708C542.122 359.742 541.386 359.793 540.645 359.856V395.881H505.862V368.892C505.115 369.223 504.38 369.571 503.65 369.936V395.881H474.41V398.094H503.65V440.839H474.41V443.058H503.65V544.361H505.862V443.058C510.43 443.057 514.954 443.956 519.174 445.704C523.395 447.453 527.229 450.015 530.459 453.246C533.689 456.477 536.251 460.313 537.999 464.535C539.747 468.756 540.646 473.281 540.645 477.85V544.361H542.869V443.058H586.469V544.361ZM505.862 440.839V398.094H540.645V440.839H505.862ZM542.869 440.839V398.094H543.742C549.353 398.094 554.909 399.2 560.094 401.349C565.278 403.497 569.988 406.646 573.955 410.615C577.923 414.584 581.07 419.296 583.217 424.482C585.364 429.668 586.469 435.226 586.469 440.839H542.869Z" fill="#09070B"/>
<path d="M572.886 513.986C570.086 526.481 563.378 537.757 553.737 546.18C553.03 546.792 552.324 547.384 551.588 547.967C549.802 548.129 548.029 548.295 546.269 548.464C544.807 548.597 543.365 548.741 541.933 548.874L541.675 548.903L541.493 547.336L540.768 540.993C537.952 536.395 536.207 531.222 535.661 525.857C535.115 520.492 535.784 515.074 537.616 510.003C540.137 503.201 544.702 497.192 549.191 491.231C555.389 482.996 561.416 474.857 561.635 464.816C564.685 468.72 567.221 473 569.18 477.551C567.331 478.421 565.67 479.645 564.29 481.152C563.899 481.582 563.507 482.184 563.775 482.7C564.004 483.139 564.577 483.244 565.073 483.302C566.267 483.426 567.471 483.55 568.664 483.674C569.619 483.779 570.574 483.875 571.53 483.98C572.685 487.773 573.469 491.67 573.869 495.616C574.513 501.753 574.181 507.953 572.886 513.986Z" fill="#3F3D56"/>
<path d="M604.591 488.948C598.956 493.046 595.662 498.94 593.102 505.436C590.479 506.276 588.119 507.784 586.254 509.812C585.863 510.241 585.471 510.843 585.739 511.359C585.968 511.799 586.541 511.904 587.038 511.961C588.231 512.085 589.435 512.209 590.629 512.334C588.069 520.014 585.72 527.963 581.193 534.449C578.182 538.732 574.258 542.292 569.704 544.872C568.462 545.579 567.18 546.214 565.864 546.773C561.013 547.145 556.253 547.543 551.586 547.967C549.801 548.129 548.027 548.295 546.267 548.464C544.806 548.597 543.364 548.741 541.931 548.874C541.921 548.349 541.921 547.823 541.931 547.298C542.233 533.301 547.381 519.843 556.495 509.219C556.925 508.723 557.364 508.235 557.813 507.748C562.431 502.815 567.861 498.711 573.868 495.616C583.332 490.693 593.939 488.391 604.591 488.948Z" fill="#3AB2B2"/>
<path d="M547.92 543.563L546.822 546.811L546.268 548.464C544.807 548.597 543.364 548.741 541.932 548.874L541.674 548.903C540.089 549.065 538.513 549.228 536.937 549.39C536.526 548.913 536.116 548.425 535.715 547.929C525.746 535.854 520.961 520.323 522.405 504.73C523.849 489.136 531.405 474.749 543.422 464.711C542.161 471.313 543.632 477.637 546.048 483.913C545.79 484.018 545.542 484.123 545.303 484.238C543.454 485.109 541.793 486.332 540.413 487.839C540.022 488.269 539.63 488.871 539.898 489.387C540.127 489.827 540.7 489.932 541.197 489.989C542.39 490.113 543.594 490.237 544.787 490.361C545.743 490.467 546.698 490.562 547.653 490.667C548.101 490.715 548.55 490.763 548.999 490.81C549.066 490.954 549.123 491.088 549.19 491.231C551.912 497.135 554.844 503.067 556.496 509.219C556.911 510.763 557.236 512.329 557.47 513.91C558.206 519.253 557.729 524.693 556.076 529.826C554.423 534.959 551.635 539.654 547.92 543.563Z" fill="#3AB2B2"/>
<path d="M644.053 405.005C635.831 388.963 623.093 375.466 608.112 365.547C593.083 355.642 575.838 349.61 557.913 347.989C555.563 347.775 553.208 347.65 550.846 347.613C548.056 347.572 506.088 359.681 492.028 369.569C477.977 379.336 466.418 392.271 458.284 407.329C450.164 422.47 446.17 439.482 446.703 456.655C447.399 473.932 452.214 490.792 460.745 505.831C469.16 520.82 481.108 533.527 495.551 542.845C510.199 552.194 524.914 576.984 542.209 577.859C559.634 578.74 579.507 555.356 595.4 548.256C611.293 541.097 625.033 529.897 635.25 515.771C645.178 501.928 651.601 485.882 653.967 469.01C656.425 451.735 655.28 433.919 649.382 417.408C647.869 413.166 646.089 409.023 644.053 405.005C642.353 401.656 637.371 400.423 634.253 402.435C632.646 403.424 631.482 404.995 631.004 406.821C630.525 408.647 630.768 410.587 631.683 412.237C632.681 414.204 633.609 416.203 634.467 418.235L633.745 416.523C636.992 424.333 639.2 432.535 640.312 440.92L640.056 439.015C641.24 448.112 641.218 457.325 639.993 466.416L640.249 464.511C639.011 473.602 636.585 482.49 633.034 490.949L633.756 489.237C631.93 493.553 629.8 497.734 627.385 501.75C626.16 503.779 624.861 505.76 623.488 507.694C622.884 508.542 622.262 509.376 621.636 510.207C620.818 511.292 622.75 508.79 621.905 509.854C621.761 510.036 621.618 510.218 621.474 510.398C621.04 510.941 620.6 511.478 620.154 512.011C617.176 515.564 613.927 518.881 610.435 521.93C609.565 522.689 608.681 523.432 607.782 524.157C607.335 524.518 606.892 524.895 606.425 525.232C606.443 525.219 607.934 524.086 607.051 524.743C606.774 524.95 606.499 525.16 606.221 525.366C604.368 526.739 602.466 528.042 600.515 529.275C596.023 532.106 591.311 534.57 586.423 536.644L588.134 535.921C579.703 539.472 570.842 541.897 561.778 543.135L563.682 542.88C554.623 544.104 545.442 544.12 536.378 542.928L538.283 543.184C530.045 542.077 521.988 539.899 514.316 536.702L516.027 537.425C511.583 535.548 507.298 533.314 503.214 530.746C501.193 529.472 499.224 528.12 497.308 526.689C497.035 526.485 496.764 526.277 496.492 526.072C495.617 525.412 497.12 526.559 497.132 526.567C496.623 526.202 496.134 525.812 495.666 525.397C494.74 524.643 493.829 523.872 492.933 523.083C489.346 519.923 485.997 516.504 482.912 512.852C482.139 511.939 481.383 511.012 480.644 510.072C480.324 509.665 479.74 508.839 481.03 510.577C480.861 510.348 480.685 510.124 480.513 509.897C480.101 509.351 479.695 508.8 479.295 508.246C477.892 506.305 476.559 504.316 475.295 502.279C472.439 497.669 469.947 492.843 467.841 487.846L468.563 489.558C465.116 481.355 462.759 472.735 461.552 463.92L461.808 465.825C460.719 457.699 460.704 449.465 461.762 441.334L461.506 443.239C462.591 435.366 464.709 427.67 467.804 420.351L467.082 422.062C469.03 417.48 471.327 413.055 473.954 408.825C475.269 406.709 476.663 404.644 478.135 402.63C478.469 402.173 478.807 401.718 479.149 401.266C479.459 400.857 480.31 399.84 478.858 401.637C479 401.461 479.137 401.28 479.277 401.102C480.085 400.078 480.913 399.07 481.76 398.078C484.967 394.323 488.441 390.805 492.154 387.55C493.093 386.727 494.046 385.922 495.014 385.134C495.454 384.776 495.897 384.422 496.343 384.071C496.521 383.931 496.701 383.793 496.879 383.652C494.971 385.17 496.349 384.065 496.782 383.741C498.777 382.245 500.826 380.824 502.928 379.479C507.601 376.49 512.516 373.899 517.623 371.733L515.912 372.455C523.323 369.343 556.158 361.995 562.13 362.797L560.226 362.541C569.003 363.767 577.583 366.138 585.744 369.594L584.033 368.872C588.169 370.628 592.189 372.648 596.067 374.918C598.005 376.054 599.904 377.252 601.766 378.512C602.647 379.109 603.519 379.719 604.381 380.342C604.812 380.653 605.241 380.968 605.667 381.286C605.903 381.463 606.138 381.642 606.375 381.82C607.367 382.564 605.008 380.742 606.048 381.565C609.53 384.301 612.837 387.254 615.95 390.405C617.478 391.962 618.955 393.568 620.378 395.224C621.108 396.074 621.823 396.936 622.524 397.811C622.872 398.245 624.056 399.818 622.604 397.892C622.959 398.362 623.318 398.83 623.669 399.304C626.686 403.391 629.367 407.716 631.683 412.237C633.395 415.579 638.355 416.825 641.483 414.808C643.09 413.819 644.254 412.248 644.733 410.422C645.212 408.596 644.968 406.656 644.053 405.005Z" fill="#3F3D56"/>
<path d="M560.592 521.93C559.852 521.964 559.12 521.77 558.495 521.374C557.869 520.978 557.381 520.399 557.095 519.716C556.81 519.033 556.741 518.279 556.899 517.555C557.056 516.832 557.432 516.174 557.975 515.672C558.066 515.31 558.132 515.05 558.223 514.688C558.19 514.609 558.157 514.531 558.124 514.452C554.801 506.525 533.594 528.622 532.677 536.072C532.274 539.365 532.444 542.704 533.181 545.938C526.311 530.95 522.744 514.659 522.722 498.17C522.72 494.033 522.95 489.898 523.41 485.786C523.79 482.415 524.318 479.068 524.992 475.745C528.674 457.715 536.579 440.816 548.058 426.436C554.623 426.802 560.376 425.802 560.932 413.075C561.03 410.811 562.709 408.851 563.079 406.621C562.452 406.703 561.815 406.755 561.188 406.796C560.993 406.806 560.788 406.816 560.592 406.827L560.519 406.83C559.83 406.861 559.147 406.692 558.552 406.344C557.957 405.995 557.475 405.482 557.165 404.866C556.854 404.25 556.729 403.558 556.803 402.872C556.877 402.187 557.147 401.537 557.581 401.001C557.852 400.668 558.123 400.335 558.394 400.003C558.805 399.489 559.226 398.985 559.637 398.471C559.684 398.422 559.729 398.371 559.771 398.317C560.243 397.731 560.716 397.156 561.188 396.57C560.326 395.231 559.165 394.109 557.798 393.292C553.061 390.517 546.527 392.439 543.106 396.724C539.674 401.01 539.027 407.022 540.219 412.376C541.391 416.932 543.329 421.256 545.952 425.161C545.695 425.49 545.428 425.809 545.171 426.137C540.475 432.177 536.383 438.662 532.952 445.5C533.923 437.916 522.054 410.528 517.464 404.727C511.95 397.758 500.644 400.8 499.673 409.633C499.664 409.718 499.655 409.804 499.646 409.889C500.327 410.274 500.995 410.682 501.648 411.114C502.468 411.663 503.104 412.446 503.471 413.362C503.839 414.277 503.921 415.283 503.708 416.246C503.495 417.21 502.995 418.086 502.275 418.761C501.555 419.436 500.649 419.877 499.674 420.028L499.574 420.043C490.448 433.077 519.704 467.001 527.026 459.384C523.58 469.155 521.418 479.332 520.595 489.661C520.129 495.754 520.156 501.875 520.677 507.964L520.646 507.748C519.019 494.487 491.105 474.769 482.954 476.411C478.258 477.357 473.633 477.142 474.347 481.88C474.358 481.956 474.369 482.031 474.381 482.107C475.646 482.622 476.878 483.216 478.07 483.885C478.751 484.27 479.419 484.678 480.072 485.11C480.892 485.658 481.528 486.441 481.895 487.357C482.263 488.273 482.346 489.278 482.132 490.242C481.919 491.205 481.419 492.082 480.699 492.757C479.98 493.432 479.073 493.873 478.098 494.023L477.998 494.039C477.926 494.049 477.864 494.059 477.792 494.07C473.638 508.367 504.445 531.441 523.174 524.099H523.184C525.04 532.167 527.729 540.02 531.208 547.531H559.873C559.976 547.213 560.068 546.884 560.161 546.565C557.508 546.732 554.844 546.573 552.229 546.093C554.356 543.482 556.483 540.851 558.609 538.241C558.657 538.192 558.702 538.141 558.743 538.087C559.822 536.751 560.911 535.425 561.99 534.089L561.99 534.087C562.048 529.992 561.578 525.906 560.592 521.931L560.592 521.93ZM527.766 457.339L527.781 457.319L527.766 457.359V457.339ZM521.417 514.593L521.17 514.038C521.18 513.637 521.18 513.236 521.17 512.825C521.17 512.712 521.15 512.599 521.15 512.486C521.242 513.195 521.324 513.904 521.427 514.614L521.417 514.593Z" fill="#3F3D56"/>
<path d="M238.505 462.266C244.307 462.266 249.011 457.561 249.011 451.757C249.011 445.954 244.307 441.249 238.505 441.249C232.703 441.249 228 445.954 228 451.757C228 457.561 232.703 462.266 238.505 462.266Z" fill="#3F3D56"/>
<path d="M364.572 576.903C370.374 576.903 375.077 572.198 375.077 566.395C375.077 560.591 370.374 555.886 364.572 555.886C358.77 555.886 354.066 560.591 354.066 566.395C354.066 572.198 358.77 576.903 364.572 576.903Z" fill="#3F3D56"/>
<path d="M843.048 576.903C848.85 576.903 853.554 572.198 853.554 566.395C853.554 560.591 848.85 555.886 843.048 555.886C837.246 555.886 832.543 560.591 832.543 566.395C832.543 572.198 837.246 576.903 843.048 576.903Z" fill="#3F3D56"/>
<path d="M868.834 443.159C874.636 443.159 879.339 438.455 879.339 432.651C879.339 426.847 874.636 422.143 868.834 422.143C863.032 422.143 858.328 426.847 858.328 432.651C858.328 438.455 863.032 443.159 868.834 443.159Z" fill="#3F3D56"/>
<path d="M838.271 345.718C844.073 345.718 848.777 341.013 848.777 335.21C848.777 329.406 844.073 324.701 838.271 324.701C832.469 324.701 827.766 329.406 827.766 335.21C827.766 341.013 832.469 345.718 838.271 345.718Z" fill="#3F3D56"/>
<path d="M399.908 432.651C399.901 435.336 398.864 437.915 397.009 439.855C395.155 441.795 392.626 442.948 389.945 443.075C387.265 443.202 384.638 442.293 382.609 440.536C380.579 438.78 379.303 436.311 379.043 433.639C378.784 430.967 379.561 428.298 381.214 426.183C382.867 424.069 385.269 422.671 387.924 422.279C390.579 421.887 393.282 422.531 395.476 424.078C397.669 425.624 399.184 427.955 399.707 430.588C399.842 431.267 399.909 431.959 399.908 432.651Z" fill="#3F3D56"/>
<path d="M610.017 376.288C615.819 376.288 620.523 371.583 620.523 365.779C620.523 359.976 615.819 355.271 610.017 355.271C604.215 355.271 599.512 359.976 599.512 365.779C599.512 371.583 604.215 376.288 610.017 376.288Z" fill="#3F3D56"/>
<path d="M505.917 365.779C505.911 368.464 504.873 371.043 503.019 372.983C501.165 374.923 498.635 376.076 495.955 376.203C493.274 376.33 490.648 375.421 488.619 373.664C486.589 371.908 485.313 369.438 485.053 366.767C484.793 364.095 485.57 361.426 487.223 359.311C488.877 357.197 491.279 355.799 493.934 355.407C496.588 355.015 499.292 355.659 501.486 357.206C503.679 358.752 505.194 361.083 505.717 363.716C505.852 364.395 505.919 365.087 505.917 365.779Z" fill="#3F3D56"/>
<path d="M370.302 335.209C370.296 337.894 369.258 340.473 367.404 342.413C365.549 344.353 363.02 345.506 360.34 345.633C357.659 345.76 355.033 344.851 353.003 343.095C350.974 341.338 349.697 338.869 349.438 336.197C349.178 333.525 349.955 330.856 351.608 328.742C353.261 326.627 355.664 325.229 358.318 324.837C360.973 324.445 363.677 325.089 365.87 326.636C368.064 328.182 369.579 330.513 370.102 333.146C370.236 333.825 370.304 334.517 370.302 335.209Z" fill="#3F3D56"/>
<path d="M719.845 466.087C725.647 466.087 730.351 461.382 730.351 455.579C730.351 449.775 725.647 445.07 719.845 445.07C714.043 445.07 709.34 449.775 709.34 455.579C709.34 461.382 714.043 466.087 719.845 466.087Z" fill="#3F3D56"/>
<path d="M554.624 370.556C563.064 370.556 569.905 363.712 569.905 355.271C569.905 346.829 563.064 339.986 554.624 339.986C546.185 339.986 539.344 346.829 539.344 355.271C539.344 363.712 546.185 370.556 554.624 370.556Z" fill="#3F3D56"/>
<path d="M967.863 577.707L148.676 578C148.527 578 148.379 577.971 148.241 577.914C148.103 577.856 147.978 577.773 147.872 577.667C147.767 577.561 147.683 577.436 147.626 577.298C147.568 577.16 147.539 577.012 147.539 576.863C147.539 576.713 147.568 576.565 147.626 576.427C147.683 576.289 147.767 576.164 147.872 576.058C147.978 575.953 148.103 575.869 148.241 575.812C148.379 575.755 148.527 575.725 148.676 575.725L967.863 575.432C968.164 575.433 968.452 575.553 968.665 575.766C968.877 575.979 968.996 576.268 968.996 576.569C968.996 576.87 968.877 577.159 968.665 577.372C968.452 577.585 968.164 577.706 967.863 577.707Z" fill="white"/>
</svg>
