<svg width="20" height="20" viewBox="0 0 20 20" fill="none" xmlns="http://www.w3.org/2000/svg">
<path d="M10.0013 7.93341C9.59255 7.93341 9.19299 8.05462 8.85312 8.28171C8.51326 8.5088 8.24837 8.83157 8.09195 9.2092C7.93553 9.58684 7.8946 10.0024 7.97435 10.4033C8.05409 10.8042 8.25092 11.1724 8.53995 11.4614C8.82898 11.7505 9.19722 11.9473 9.59812 12.027C9.99901 12.1068 10.4145 12.0659 10.7922 11.9094C11.1698 11.753 11.4926 11.4881 11.7197 11.1483C11.9468 10.8084 12.068 10.4088 12.068 10.0001C12.068 9.72868 12.0145 9.45994 11.9107 9.2092C11.8068 8.95846 11.6546 8.73063 11.4627 8.53873C11.2707 8.34682 11.0429 8.19459 10.7922 8.09073C10.5414 7.98687 10.2727 7.93341 10.0013 7.93341ZM18.2763 5.89175C18.2719 5.24821 18.1534 4.61056 17.9263 4.00841C17.759 3.5678 17.5002 3.16766 17.167 2.8344C16.8337 2.50115 16.4336 2.24235 15.993 2.07508C15.3908 1.84797 14.7532 1.72947 14.1096 1.72508C13.0346 1.66675 12.718 1.66675 10.0013 1.66675C7.28464 1.66675 6.96797 1.66675 5.89297 1.72508C5.24943 1.72947 4.61178 1.84797 4.00964 2.07508C3.56902 2.24235 3.16888 2.50115 2.83562 2.8344C2.50237 3.16766 2.24357 3.5678 2.0763 4.00841C1.84919 4.61056 1.73069 5.24821 1.7263 5.89175C1.66797 6.96675 1.66797 7.28341 1.66797 10.0001C1.66797 12.7167 1.66797 13.0334 1.7263 14.1084C1.73527 14.7542 1.85361 15.3938 2.0763 16.0001C2.24283 16.4387 2.50141 16.8365 2.83464 17.1667C3.16646 17.502 3.56746 17.7608 4.00964 17.9251C4.61178 18.1522 5.24943 18.2707 5.89297 18.2751C6.96797 18.3334 7.28464 18.3334 10.0013 18.3334C12.718 18.3334 13.0346 18.3334 14.1096 18.2751C14.7532 18.2707 15.3908 18.1522 15.993 17.9251C16.4351 17.7608 16.8361 17.502 17.168 17.1667C17.5012 16.8365 17.7598 16.4387 17.9263 16.0001C18.1532 15.395 18.2717 14.7546 18.2763 14.1084C18.3346 13.0334 18.3346 12.7167 18.3346 10.0001C18.3346 7.28341 18.3346 6.96675 18.2763 5.89175ZM16.1596 12.5584C16.1329 13.0727 16.0231 13.5792 15.8346 14.0584C15.6729 14.4582 15.4324 14.8213 15.1274 15.1262C14.8225 15.4311 14.4594 15.6716 14.0596 15.8334C13.5759 16.0114 13.0665 16.1099 12.5513 16.1251H7.4513C6.93608 16.1099 6.42671 16.0114 5.94297 15.8334C5.52972 15.6798 5.15653 15.4349 4.8513 15.1167C4.54936 14.8178 4.31617 14.4566 4.16797 14.0584C3.98927 13.5752 3.89347 13.0652 3.88464 12.5501V7.45008C3.89347 6.93494 3.98927 6.42498 4.16797 5.94175C4.32154 5.5285 4.56653 5.15531 4.88464 4.85008C5.18491 4.54977 5.54569 4.31683 5.94297 4.16675C6.42671 3.98875 6.93608 3.89026 7.4513 3.87508H12.5513C13.0665 3.89026 13.5759 3.98875 14.0596 4.16675C14.4729 4.32032 14.8461 4.56531 15.1513 4.88341C15.4532 5.18237 15.6864 5.54352 15.8346 5.94175C16.0126 6.42549 16.1111 6.93486 16.1263 7.45008V10.0001C16.1263 11.7167 16.1846 11.8917 16.1596 12.5501V12.5584ZM14.8263 6.35841C14.7271 6.08923 14.5706 5.84478 14.3678 5.64193C14.1649 5.43907 13.9205 5.28263 13.6513 5.18341C13.2817 5.0553 12.8924 4.99324 12.5013 5.00008H7.5013C7.10819 5.00392 6.71886 5.07728 6.3513 5.21675C6.08624 5.31146 5.84438 5.46151 5.64179 5.65692C5.4392 5.85232 5.28052 6.08861 5.1763 6.35008C5.05528 6.72122 4.99616 7.10974 5.0013 7.50008V12.5001C5.00956 12.8927 5.08278 13.2813 5.21797 13.6501C5.31719 13.9193 5.47362 14.1637 5.67648 14.3666C5.87934 14.5694 6.12379 14.7259 6.39297 14.8251C6.74852 14.9558 7.12268 15.029 7.5013 15.0417H12.5013C12.8944 15.0379 13.2837 14.9646 13.6513 14.8251C13.9205 14.7259 14.1649 14.5694 14.3678 14.3666C14.5706 14.1637 14.7271 13.9193 14.8263 13.6501C14.9658 13.2825 15.0391 12.8932 15.043 12.5001V7.50008C15.0432 7.10658 14.9697 6.71652 14.8263 6.35008V6.35841ZM10.0013 13.1834C9.58365 13.1834 9.17011 13.101 8.78435 12.9409C8.3986 12.7809 8.04822 12.5462 7.75329 12.2505C7.45835 11.9548 7.22466 11.6038 7.06559 11.2177C6.90652 10.8315 6.82521 10.4177 6.8263 10.0001C6.8263 9.37012 7.01322 8.75433 7.36337 8.23065C7.71353 7.70698 8.21119 7.29897 8.79336 7.05828C9.37552 6.81758 10.016 6.75503 10.6337 6.87854C11.2515 7.00204 11.8187 7.30606 12.2635 7.75209C12.7084 8.19812 13.0109 8.76611 13.1328 9.38417C13.2547 10.0022 13.1905 10.6425 12.9483 11.2241C12.706 11.8056 12.2967 12.3022 11.7721 12.651C11.2475 12.9998 10.6313 13.1851 10.0013 13.1834ZM13.3346 7.44175C13.1504 7.42225 12.9799 7.33527 12.856 7.19756C12.7321 7.05985 12.6636 6.88116 12.6636 6.69591C12.6636 6.51067 12.7321 6.33198 12.856 6.19427C12.9799 6.05656 13.1504 5.96958 13.3346 5.95008C13.5188 5.96958 13.6893 6.05656 13.8132 6.19427C13.9371 6.33198 14.0057 6.51067 14.0057 6.69591C14.0057 6.88116 13.9371 7.05985 13.8132 7.19756C13.6893 7.33527 13.5188 7.42225 13.3346 7.44175Z" fill="#425A8B"/>
</svg>
