<svg width="20" height="20" viewBox="0 0 20 20" fill="none" xmlns="http://www.w3.org/2000/svg">
<path d="M10.0013 18.3334C14.6038 18.3334 18.3346 14.6026 18.3346 10.0001C18.3346 5.39758 14.6038 1.66675 10.0013 1.66675C5.3988 1.66675 1.66797 5.39758 1.66797 10.0001C1.66797 13.3384 3.6313 16.2184 6.4663 17.5484L8.37464 8.57675C8.42353 8.36356 8.55427 8.17814 8.73866 8.0605C8.92305 7.94285 9.1463 7.90242 9.36024 7.94792C9.57418 7.99342 9.76165 8.1212 9.88221 8.3037C10.0028 8.4862 10.0467 8.70878 10.0046 8.92341C9.7763 10.0001 9.5763 10.4167 9.58547 10.9167C9.59964 11.7001 9.81297 12.1184 10.0196 12.3351C10.2305 12.5559 10.5346 12.6751 10.9321 12.6684C11.338 12.6601 11.7971 12.5176 12.2038 12.2609C12.9938 11.7642 13.3346 10.9126 13.3346 10.0001C13.3341 9.50488 13.2232 9.01603 13.0101 8.56905C12.7969 8.12207 12.4869 7.7282 12.1024 7.41606C11.718 7.10391 11.2688 6.88135 10.7876 6.76453C10.3064 6.64772 9.80519 6.63959 9.32044 6.74074C8.83568 6.84189 8.37955 7.04977 7.9852 7.34929C7.59084 7.6488 7.26818 8.03241 7.04065 8.47224C6.81313 8.91208 6.68645 9.39708 6.66985 9.892C6.65324 10.3869 6.74711 10.8793 6.94463 11.3334C7.02517 11.5345 7.02427 11.759 6.94212 11.9594C6.85997 12.1598 6.70303 12.3203 6.50455 12.407C6.30607 12.4937 6.08164 12.4996 5.87881 12.4237C5.67599 12.3477 5.5107 12.1958 5.41797 12.0001C5.08623 11.2392 4.94915 10.4077 5.01908 9.58059C5.08901 8.75348 5.36375 7.9568 5.81852 7.26241C6.27329 6.56802 6.89378 5.99778 7.62402 5.60312C8.35425 5.20847 9.17125 5.00182 10.0013 5.00182C10.8314 5.00182 11.6484 5.20847 12.3786 5.60312C13.1088 5.99778 13.7293 6.56802 14.1841 7.26241C14.6389 7.9568 14.9136 8.75348 14.9835 9.58059C15.0535 10.4077 14.9164 11.2392 14.5846 12.0001C14.278 12.7067 13.718 13.2784 13.0913 13.6726C12.4621 14.0684 11.7105 14.3217 10.9621 14.3351C10.2796 14.3476 9.5688 14.1584 8.9963 13.6617L8.0513 18.1051C8.6763 18.2551 9.32963 18.3342 10.0005 18.3342L10.0013 18.3334Z" fill="#425A8B"/>
</svg>
