<svg width="40" height="40" viewBox="0 0 40 40" fill="none" xmlns="http://www.w3.org/2000/svg">
<g clip-path="url(#clip0_179_9894)">
<rect x="19.7881" y="2.64136" width="8.16391" height="3.06147" fill="#FD9808"/>
<circle cx="23.8699" cy="23.0512" r="11.2254" fill="#FFDD09"/>
<path d="M39.1032 21.7809C38.7551 18.2788 37.1905 14.9772 34.6976 12.4842C32.5671 10.3538 29.9595 8.9848 27.2158 8.37607V6.45165C28.3364 6.17285 29.1694 5.15846 29.1694 3.95274C29.1694 2.53276 28.0142 1.37756 26.5942 1.37756H21.1409C19.7209 1.37756 18.5657 2.53276 18.5657 3.95274C18.5657 5.15838 19.3987 6.17278 20.5193 6.45165V8.38145C17.7839 8.99275 15.185 10.3599 13.0606 12.4842C12.5957 12.9491 12.167 13.4368 11.7746 13.9437C11.7556 13.9422 11.7366 13.9408 11.7172 13.9408H6.31983C5.90159 13.9408 5.56242 14.2799 5.56242 14.6982C5.56242 15.1165 5.90159 15.4556 6.31983 15.4556H10.744C10.1887 16.3853 9.74088 17.3617 9.40005 18.3668H1.15682C0.738581 18.3668 0.399414 18.7059 0.399414 19.1242C0.399414 19.5425 0.738581 19.8816 1.15682 19.8816H8.97204C8.75375 20.8398 8.62848 21.815 8.59614 22.7928H5.24681C4.82857 22.7928 4.48941 23.1319 4.48941 23.5502C4.48941 23.9686 4.82857 24.3077 5.24681 24.3077H8.6203C8.68423 25.288 8.84184 26.2633 9.09322 27.2189H4.18644C3.76821 27.2189 3.42904 27.558 3.42904 27.9763C3.42904 28.3946 3.76821 28.7337 4.18644 28.7337H9.5766C10.3196 30.6993 11.4808 32.5415 13.0606 34.1213C15.5559 36.6166 18.861 38.1816 22.3667 38.528C22.867 38.5773 23.3678 38.6018 23.8678 38.6018C26.8233 38.6018 29.7413 37.7465 32.2173 36.1341C32.5678 35.9058 32.667 35.4366 32.4387 35.0861C32.2104 34.7355 31.7412 34.6364 31.3907 34.8647C25.9709 38.394 18.7124 37.6309 14.1317 33.0502C8.75701 27.6755 8.75701 18.9302 14.1317 13.5554C19.5063 8.18081 28.2516 8.18081 33.6264 13.5554C38.201 18.1302 38.9683 25.3824 35.4507 30.7995C35.2228 31.1504 35.3226 31.6195 35.6733 31.8473C36.0243 32.0751 36.4933 31.9753 36.7211 31.6245C38.6005 28.7301 39.4465 25.2343 39.1032 21.7809ZM20.0805 3.95282C20.0805 3.3681 20.5562 2.89245 21.1409 2.89245H26.5942C27.1789 2.89245 27.6546 3.3681 27.6546 3.95282C27.6546 4.53754 27.1789 5.01319 26.5942 5.01319H26.4583H21.2767H21.1409C20.5562 5.01319 20.0805 4.53746 20.0805 3.95282ZM22.0341 8.12105V6.528H25.7009V8.11833C24.4833 7.97351 23.2515 7.97442 22.0341 8.12105Z" fill="#0E224D"/>
<path d="M34.1622 32.828C33.9621 32.828 33.7673 32.9091 33.6264 33.0501C33.4847 33.191 33.4043 33.3866 33.4043 33.5859C33.4043 33.7852 33.4847 33.9807 33.6264 34.1217C33.7673 34.2634 33.9622 34.3438 34.1622 34.3438C34.3615 34.3438 34.5563 34.2634 34.698 34.1217C34.839 33.9807 34.9201 33.7852 34.9201 33.5859C34.9201 33.3866 34.839 33.191 34.698 33.0501C34.5563 32.9091 34.3614 32.828 34.1622 32.828Z" fill="#0E224D"/>
<path d="M23.8785 11.5531C17.3998 11.5531 12.1289 16.8239 12.1289 23.3027C12.1289 29.7814 17.3998 35.0522 23.8785 35.0522C30.3572 35.0522 35.628 29.7814 35.628 23.3027C35.628 16.8239 30.3572 11.5531 23.8785 11.5531ZM23.8785 33.5374C18.235 33.5374 13.6437 28.9461 13.6437 23.3027C13.6437 17.6592 18.235 13.0679 23.8785 13.0679C29.522 13.0679 34.1132 17.6592 34.1132 23.3027C34.1132 28.9461 29.522 33.5374 23.8785 33.5374Z" fill="#0E224D"/>
<path d="M28.6698 17.4406L24.9184 21.1919C24.6047 21.0368 24.2518 20.9492 23.8788 20.9492C23.5057 20.9492 23.1529 21.0368 22.8392 21.1919L21.1602 19.513C20.8644 19.2172 20.3849 19.2172 20.089 19.513C19.7932 19.8088 19.7932 20.2883 20.089 20.5841L21.768 22.2631C21.6128 22.5768 21.5252 22.9296 21.5252 23.3027C21.5252 24.6004 22.581 25.6562 23.8788 25.6562C25.1766 25.6562 26.2323 24.6004 26.2323 23.3027C26.2323 22.9296 26.1447 22.5768 25.9896 22.2631L29.6309 18.6218L29.7409 18.5117C30.0367 18.2159 30.0367 17.7363 29.7409 17.4406C29.4452 17.1448 28.9657 17.1448 28.6698 17.4406ZM23.8788 24.1415C23.4163 24.1415 23.04 23.7652 23.04 23.3027C23.04 22.8403 23.4163 22.464 23.8788 22.464C24.3412 22.464 24.7175 22.8403 24.7175 23.3027C24.7175 23.7652 24.3412 24.1415 23.8788 24.1415Z" fill="#0E224D"/>
<path d="M31.9767 22.5544H31.275C30.8567 22.5544 30.5176 22.8935 30.5176 23.3118C30.5176 23.7301 30.8567 24.0692 31.275 24.0692H31.9767C32.3949 24.0692 32.7341 23.7301 32.7341 23.3118C32.7341 22.8935 32.3949 22.5544 31.9767 22.5544Z" fill="#0E224D"/>
<path d="M16.4825 22.536H15.7808C15.3626 22.536 15.0234 22.8751 15.0234 23.2934C15.0234 23.7117 15.3626 24.0508 15.7808 24.0508H16.4825C16.9007 24.0508 17.2399 23.7117 17.2399 23.2934C17.2399 22.8751 16.9007 22.536 16.4825 22.536Z" fill="#0E224D"/>
<path d="M23.8883 16.6636C24.3065 16.6636 24.6456 16.3245 24.6456 15.9062V15.2045C24.6456 14.7862 24.3065 14.4471 23.8883 14.4471C23.47 14.4471 23.1309 14.7862 23.1309 15.2045V15.9062C23.1309 16.3245 23.47 16.6636 23.8883 16.6636Z" fill="#0E224D"/>
<path d="M23.8697 29.9417C23.4515 29.9417 23.1123 30.2807 23.1123 30.699V31.4007C23.1123 31.819 23.4515 32.1581 23.8697 32.1581C24.2879 32.1581 24.6271 31.819 24.6271 31.4007V30.699C24.6271 30.2807 24.2879 29.9417 23.8697 29.9417Z" fill="#0E224D"/>
<path d="M1.1573 27.2186C0.957975 27.2186 0.762441 27.2997 0.621474 27.4407C0.480508 27.5817 0.399414 27.7772 0.399414 27.9765C0.399414 28.1766 0.480432 28.3714 0.621474 28.5123C0.762517 28.6533 0.957975 28.7344 1.1573 28.7344C1.35662 28.7344 1.55216 28.6533 1.69305 28.5123C1.83401 28.3714 1.91518 28.1758 1.91518 27.9765C1.91518 27.7772 1.83409 27.5817 1.69305 27.4407C1.55216 27.2997 1.35662 27.2186 1.1573 27.2186Z" fill="#0E224D"/>
</g>
<defs>
<clipPath id="clip0_179_9894">
<rect width="38.7786" height="38.7786" fill="white" transform="translate(0.398438 0.600464)"/>
</clipPath>
</defs>
</svg>
