<svg width="62" height="62" viewBox="0 0 62 62" fill="none" xmlns="http://www.w3.org/2000/svg">
<g clip-path="url(#clip0_178_9831)">
<path d="M46.9637 21.8463H32.9831L45.9432 1.43652H29.6154L14.3081 32.0512H26.3498L14.3081 60.625L46.9637 21.8463Z" fill="#FFDD09"/>
<path d="M33.6974 1.43652H29.6154L14.3081 32.0512H18.39L33.6974 1.43652Z" fill="white"/>
<path d="M41.8612 21.8463L17.3695 50.9303L13.2876 60.6249L45.9432 21.8463H41.8612Z" fill="#FD9808"/>
<path d="M14.3079 61.6454C14.1037 61.6454 13.8997 61.6454 13.7976 61.5434C13.3894 61.2373 13.1853 60.727 13.3894 60.3188L24.8189 33.0718H14.3079C14.0017 33.0718 13.5936 32.8676 13.3894 32.5615C13.1853 32.2553 13.1853 31.8472 13.3894 31.541L28.6968 0.926361C28.9009 0.620214 29.2071 0.416077 29.6152 0.416077H45.943C46.3511 0.416077 46.6573 0.620214 46.8614 0.926361C47.0656 1.23251 47.0656 1.64066 46.8614 1.94681L34.9217 20.8259H46.9634C47.3716 20.8259 47.6777 21.03 47.8819 21.4382C48.086 21.8463 47.9839 22.2546 47.7799 22.5608L15.1242 61.3393C14.9202 61.5434 14.614 61.6454 14.3079 61.6454ZM15.9406 31.0308H26.3496C26.6558 31.0308 26.9619 31.2349 27.166 31.4389C27.3702 31.7451 27.3702 32.0512 27.268 32.3573L17.8795 54.8081L44.8204 22.8668H32.9827C32.5745 22.8668 32.2684 22.6627 32.0643 22.3565C31.8601 22.0504 31.8601 21.6422 32.0643 21.3361L44.1061 2.45709H30.2275L15.9406 31.0308Z" fill="black"/>
</g>
<defs>
<clipPath id="clip0_178_9831">
<rect width="61.2293" height="61.2293" fill="white" transform="translate(0 0.416077)"/>
</clipPath>
</defs>
</svg>
