<svg width="17" height="14" viewBox="0 0 17 14" fill="none" xmlns="http://www.w3.org/2000/svg">
<path d="M1.89784 8.03533L13.573 8.03533L9.99957 12.3274C9.83248 12.5284 9.75209 12.7876 9.77609 13.0479C9.80009 13.3082 9.92651 13.5483 10.1275 13.7154C10.3286 13.8825 10.5878 13.9629 10.8481 13.9389C11.1084 13.9149 11.3485 13.7885 11.5156 13.5874L16.4376 7.68094C16.4708 7.63396 16.5004 7.58461 16.5262 7.53328C16.5262 7.48406 16.5262 7.45453 16.5952 7.40531C16.6398 7.29244 16.6631 7.17229 16.6641 7.05092C16.6631 6.92955 16.6398 6.8094 16.5952 6.69653C16.5952 6.64731 16.5952 6.61778 16.5262 6.56856C16.5004 6.51723 16.4708 6.46787 16.4376 6.42089L11.5156 0.514406C11.423 0.403283 11.3071 0.313917 11.1761 0.252666C11.0451 0.191414 10.9022 0.159781 10.7576 0.160016C10.5276 0.159567 10.3047 0.239674 10.1275 0.386431C10.0279 0.469072 9.94547 0.570567 9.88507 0.685101C9.82468 0.799635 9.78747 0.924957 9.77558 1.05389C9.7637 1.18283 9.77736 1.31284 9.8158 1.43649C9.85423 1.56013 9.91668 1.67498 9.99957 1.77446L13.573 6.0665L1.89784 6.06651C1.63676 6.06651 1.38637 6.17022 1.20175 6.35483C1.01714 6.53945 0.913426 6.78984 0.913426 7.05092C0.913426 7.312 1.01714 7.56239 1.20175 7.74701C1.38637 7.93162 1.63676 8.03533 1.89784 8.03533Z" fill="#425A8B"/>
</svg>
