<svg width="18" height="18" viewBox="0 0 18 18" fill="none" xmlns="http://www.w3.org/2000/svg">
<path opacity="0.4" d="M8.25 12.1125V14.1375C8.25 15.825 7.575 16.5 5.8875 16.5H3.8625C2.175 16.5 1.5 15.825 1.5 14.1375V12.1125C1.5 10.425 2.175 9.75 3.8625 9.75H5.8875C7.575 9.75 8.25 10.425 8.25 12.1125Z" fill="#27B3D2"/>
<path opacity="0.4" d="M13.125 8.25C14.989 8.25 16.5 6.73896 16.5 4.875C16.5 3.01104 14.989 1.5 13.125 1.5C11.261 1.5 9.75 3.01104 9.75 4.875C9.75 6.73896 11.261 8.25 13.125 8.25Z" fill="#27B3D2"/>
<path d="M11.0851 16.5001C10.8826 16.5001 10.6951 16.3876 10.5976 16.2151C10.5001 16.0351 10.5001 15.8251 10.6051 15.6451L11.3326 14.4301C11.4901 14.1601 11.8351 14.0776 12.1051 14.2351C12.3751 14.3926 12.4576 14.7376 12.3001 15.0076L12.1651 15.2326C14.0176 14.7526 15.3826 13.0726 15.3826 11.0776C15.3826 10.7701 15.6376 10.5151 15.9451 10.5151C16.2526 10.5151 16.5001 10.7701 16.5001 11.0851C16.5001 14.0701 14.0701 16.5001 11.0851 16.5001Z" fill="#27B3D2"/>
<path d="M2.0625 7.4775C1.755 7.4775 1.5 7.23 1.5 6.915C1.5 3.93 3.93 1.5 6.915 1.5C7.125 1.5 7.305 1.6125 7.41 1.785C7.5075 1.965 7.5075 2.175 7.4025 2.355L6.675 3.5625C6.51 3.8325 6.165 3.9225 5.9025 3.7575C5.6325 3.6 5.55 3.255 5.7075 2.985L5.8425 2.76C3.9975 3.24 2.625 4.92 2.625 6.915C2.625 7.23 2.37 7.4775 2.0625 7.4775Z" fill="#27B3D2"/>
</svg>
