<svg width="32" height="32" viewBox="0 0 32 32" fill="none" xmlns="http://www.w3.org/2000/svg">
<path opacity="0.8" d="M19.0625 16C19.0625 17.6914 17.6914 19.0625 16 19.0625C14.3086 19.0625 12.9375 17.6914 12.9375 16C12.9375 14.3086 14.3086 12.9375 16 12.9375C17.6914 12.9375 19.0625 14.3086 19.0625 16Z" fill="#425A8B"/>
<path opacity="0.8" d="M23.1621 10.5813C23.0149 10.1824 22.78 9.82129 22.4749 9.5249C22.1785 9.21973 21.8176 8.98486 21.4185 8.83765C21.0947 8.71191 20.6084 8.56226 19.7126 8.52148C18.7437 8.47729 18.4531 8.46777 16 8.46777C13.5466 8.46777 13.2561 8.47705 12.2874 8.52124C11.3916 8.56226 10.905 8.71191 10.5815 8.83765C10.1824 8.98486 9.82129 9.21973 9.52515 9.5249C9.21997 9.82129 8.98511 10.1821 8.83765 10.5813C8.71191 10.905 8.56226 11.3916 8.52148 12.2874C8.47729 13.2561 8.46777 13.5466 8.46777 16C8.46777 18.4531 8.47729 18.7437 8.52148 19.7126C8.56226 20.6084 8.71191 21.0947 8.83765 21.4185C8.98511 21.8176 9.21973 22.1785 9.5249 22.4749C9.82129 22.78 10.1821 23.0149 10.5813 23.1621C10.905 23.2881 11.3916 23.4377 12.2874 23.4785C13.2561 23.5227 13.5464 23.532 15.9998 23.532C18.4534 23.532 18.7439 23.5227 19.7124 23.4785C20.6082 23.4377 21.0947 23.2881 21.4185 23.1621C22.2197 22.853 22.853 22.2197 23.1621 21.4185C23.2878 21.0947 23.4375 20.6084 23.4785 19.7126C23.5227 18.7437 23.532 18.4531 23.532 16C23.532 13.5466 23.5227 13.2561 23.4785 12.2874C23.4377 11.3916 23.2881 10.905 23.1621 10.5813V10.5813ZM16 20.7175C13.3943 20.7175 11.282 18.6055 11.282 15.9998C11.282 13.394 13.3943 11.282 16 11.282C18.6055 11.282 20.7178 13.394 20.7178 15.9998C20.7178 18.6055 18.6055 20.7175 16 20.7175ZM20.9043 12.198C20.2954 12.198 19.8018 11.7043 19.8018 11.0955C19.8018 10.4866 20.2954 9.99292 20.9043 9.99292C21.5132 9.99292 22.0068 10.4866 22.0068 11.0955C22.0066 11.7043 21.5132 12.198 20.9043 12.198Z" fill="#425A8B"/>
<path opacity="0.8" d="M16 0C7.16479 0 0 7.16479 0 16C0 24.8352 7.16479 32 16 32C24.8352 32 32 24.8352 32 16C32 7.16479 24.8352 0 16 0ZM25.1321 19.7878C25.0876 20.7659 24.9321 21.4336 24.7051 22.0181C24.2278 23.2522 23.2522 24.2278 22.0181 24.7051C21.4338 24.9321 20.7659 25.0874 19.7881 25.1321C18.8083 25.1768 18.4954 25.1875 16.0002 25.1875C13.5049 25.1875 13.1921 25.1768 12.2122 25.1321C11.2344 25.0874 10.5664 24.9321 9.98218 24.7051C9.3689 24.4744 8.81372 24.1128 8.35474 23.6453C7.88745 23.1865 7.52588 22.6311 7.29517 22.0181C7.06812 21.4338 6.9126 20.7659 6.86816 19.7881C6.823 18.8081 6.8125 18.4951 6.8125 16C6.8125 13.5049 6.823 13.1919 6.86792 12.2122C6.91235 11.2341 7.06763 10.5664 7.29468 9.98193C7.52539 9.3689 7.88721 8.81348 8.35474 8.35474C8.81348 7.88721 9.3689 7.52563 9.98193 7.29492C10.5664 7.06787 11.2341 6.9126 12.2122 6.86792C13.1919 6.82324 13.5049 6.8125 16 6.8125C18.4951 6.8125 18.8081 6.82324 19.7878 6.86816C20.7659 6.9126 21.4336 7.06787 22.0181 7.29468C22.6311 7.52539 23.1865 7.88721 23.6455 8.35474C24.1128 8.81372 24.4746 9.3689 24.7051 9.98193C24.9324 10.5664 25.0876 11.2341 25.1323 12.2122C25.177 13.1919 25.1875 13.5049 25.1875 16C25.1875 18.4951 25.177 18.8081 25.1321 19.7878V19.7878Z" fill="#425A8B"/>
</svg>
