<svg width="32" height="32" viewBox="0 0 32 32" fill="none" xmlns="http://www.w3.org/2000/svg">
<path opacity="0.8" d="M16 0C7.16479 0 0 7.16479 0 16C0 24.8352 7.16479 32 16 32C24.8352 32 32 24.8352 32 16C32 7.16479 24.8352 0 16 0ZM11.3506 24.1875H7.45386V12.4641H11.3506V24.1875ZM9.40234 10.8633H9.37695C8.06934 10.8633 7.22363 9.96313 7.22363 8.83813C7.22363 7.68774 8.09521 6.8125 9.42822 6.8125C10.7612 6.8125 11.5815 7.68774 11.6069 8.83813C11.6069 9.96313 10.7612 10.8633 9.40234 10.8633ZM25.4014 24.1875H21.5051V17.9158C21.5051 16.3396 20.9409 15.2646 19.531 15.2646C18.4546 15.2646 17.8135 15.9897 17.5317 16.6897C17.4287 16.9402 17.4036 17.2903 17.4036 17.6406V24.1875H13.5071C13.5071 24.1875 13.5581 13.564 13.5071 12.4641H17.4036V14.124C17.9214 13.3252 18.8479 12.189 20.9153 12.189C23.479 12.189 25.4014 13.8645 25.4014 17.4653V24.1875Z" fill="#8C9EC5"/>
</svg>
