<svg width="12" height="12" viewBox="0 0 12 12" fill="none" xmlns="http://www.w3.org/2000/svg">
<g clip-path="url(#clip0_134_3383)">
<path d="M11.9687 4.60347C11.8902 4.36049 11.6746 4.18791 11.4197 4.16493L7.95614 3.85043L6.58656 0.644816C6.48558 0.409886 6.25559 0.257812 6.00006 0.257812C5.74453 0.257812 5.51454 0.409885 5.41356 0.645365L4.04399 3.85043L0.579908 4.16493C0.325385 4.18846 0.110414 4.36049 0.0314019 4.60347C-0.0476102 4.84646 0.0253592 5.11298 0.2179 5.28098L2.83592 7.577L2.06392 10.9776C2.00744 11.2277 2.10448 11.4861 2.31195 11.6361C2.42346 11.7167 2.55393 11.7577 2.68549 11.7577C2.79893 11.7577 2.91145 11.7271 3.01244 11.6667L6.00006 9.88107L8.98659 11.6667C9.20513 11.7981 9.48062 11.7862 9.68762 11.6361C9.89518 11.4857 9.99214 11.2271 9.93565 10.9776L9.16366 7.577L11.7817 5.28144C11.9742 5.11298 12.0477 4.84692 11.9687 4.60347Z" fill="#FFB067"/>
</g>
<defs>
<clipPath id="clip0_134_3383">
<rect width="12" height="12" fill="white"/>
</clipPath>
</defs>
</svg>
