<svg width="12" height="12" viewBox="0 0 12 12" fill="none" xmlns="http://www.w3.org/2000/svg">
<g clip-path="url(#clip0_20_2637)">
<path d="M11.9687 4.60323C11.8902 4.36024 11.6746 4.18766 11.4197 4.16468L7.95614 3.85019L6.58656 0.644572C6.48558 0.409641 6.25559 0.257568 6.00006 0.257568C5.74453 0.257568 5.51454 0.409641 5.41356 0.645121L4.04399 3.85019L0.579908 4.16468C0.325385 4.18821 0.110414 4.36024 0.0314019 4.60323C-0.0476102 4.84622 0.0253592 5.11273 0.2179 5.28074L2.83592 7.57676L2.06392 10.9774C2.00744 11.2274 2.10448 11.4859 2.31195 11.6358C2.42346 11.7164 2.55393 11.7574 2.68549 11.7574C2.79893 11.7574 2.91145 11.7269 3.01244 11.6664L6.00006 9.88083L8.98659 11.6664C9.20513 11.7979 9.48062 11.7859 9.68762 11.6358C9.89518 11.4854 9.99214 11.2269 9.93565 10.9774L9.16366 7.57676L11.7817 5.2812C11.9742 5.11273 12.0477 4.84667 11.9687 4.60323Z" fill="#DDE4F0"/>
</g>
<defs>
<clipPath id="clip0_20_2637">
<rect width="12" height="12" fill="white"/>
</clipPath>
</defs>
</svg>
