<svg width="32" height="32" viewBox="0 0 32 32" fill="none" xmlns="http://www.w3.org/2000/svg">
<path opacity="0.8" d="M16 0C7.16479 0 0 7.16479 0 16C0 24.8352 7.16479 32 16 32C24.8352 32 32 24.8352 32 16C32 7.16479 24.8352 0 16 0ZM23.3054 12.4751C23.3125 12.6326 23.3159 12.7908 23.3159 12.9497C23.3159 17.8025 19.6221 23.3984 12.8669 23.3987H12.8672H12.8669C10.793 23.3987 8.86304 22.7908 7.23779 21.749C7.52515 21.783 7.81763 21.7998 8.11377 21.7998C9.83447 21.7998 11.418 21.2129 12.675 20.2278C11.0674 20.198 9.71191 19.1362 9.24414 17.677C9.46802 17.72 9.69824 17.7434 9.93433 17.7434C10.2695 17.7434 10.5942 17.6982 10.9028 17.614C9.22241 17.2776 7.95654 15.7925 7.95654 14.0142C7.95654 13.9976 7.95654 13.9827 7.95703 13.9673C8.4519 14.2424 9.01782 14.408 9.62036 14.4265C8.63428 13.7686 7.98608 12.6438 7.98608 11.3696C7.98608 10.6968 8.16797 10.0664 8.4834 9.52368C10.2944 11.7458 13.001 13.2073 16.0532 13.3608C15.9902 13.0918 15.9578 12.8115 15.9578 12.5234C15.9578 10.4961 17.6025 8.85132 19.6306 8.85132C20.687 8.85132 21.6411 9.29785 22.3113 10.0117C23.1479 9.84668 23.9336 9.54102 24.6433 9.12036C24.3687 9.97754 23.7866 10.6968 23.0283 11.1516C23.7712 11.0627 24.4792 10.8657 25.1372 10.5732C24.6458 11.3098 24.0225 11.9568 23.3054 12.4751V12.4751Z" fill="#8C9EC5"/>
</svg>
