<svg width="18" height="18" viewBox="0 0 18 18" fill="none" xmlns="http://www.w3.org/2000/svg">
<path opacity="0.4" d="M15.9375 6.86227C14.205 4.13977 11.67 2.57227 9 2.57227C7.665 2.57227 6.3675 2.96227 5.1825 3.68977C3.9975 4.42477 2.9325 5.49727 2.0625 6.86227C1.3125 8.03977 1.3125 9.95227 2.0625 11.1298C3.795 13.8598 6.33 15.4198 9 15.4198C10.335 15.4198 11.6325 15.0298 12.8175 14.3023C14.0025 13.5673 15.0675 12.4948 15.9375 11.1298C16.6875 9.95977 16.6875 8.03977 15.9375 6.86227ZM9 12.0298C7.32 12.0298 5.97 10.6723 5.97 8.99977C5.97 7.32727 7.32 5.96977 9 5.96977C10.68 5.96977 12.03 7.32727 12.03 8.99977C12.03 10.6723 10.68 12.0298 9 12.0298Z" fill="#FD9636"/>
<path d="M9.00005 6.85498C7.82255 6.85498 6.86255 7.81498 6.86255 8.99998C6.86255 10.1775 7.82255 11.1375 9.00005 11.1375C10.1775 11.1375 11.145 10.1775 11.145 8.99998C11.145 7.82248 10.1775 6.85498 9.00005 6.85498Z" fill="#FD9636"/>
</svg>
