<svg width="18" height="18" viewBox="0 0 18 18" fill="none" xmlns="http://www.w3.org/2000/svg">
<path d="M16.5 6.5177C16.5 7.4102 16.3575 8.2352 16.11 9.0002H1.89C1.6425 8.2352 1.5 7.4102 1.5 6.5177C1.5 4.2002 3.3675 2.3252 5.67 2.3252C7.0275 2.3252 8.2425 2.9852 9 3.9977C9.7575 2.9852 10.9725 2.3252 12.33 2.3252C14.6325 2.3252 16.5 4.2002 16.5 6.5177Z" fill="#425A8B"/>
<path opacity="0.4" d="M16.1099 9C14.9249 12.75 11.2724 14.9925 9.46489 15.6075C9.20989 15.6975 8.78989 15.6975 8.53489 15.6075C6.72739 14.9925 3.07489 12.75 1.88989 9H16.1099Z" fill="#425A8B"/>
</svg>
