<svg width="24" height="24" viewBox="0 0 24 24" fill="none" xmlns="http://www.w3.org/2000/svg">
<path opacity="0.4" d="M10.5 4.83002V17.11C10.5 17.93 9.98 18.62 9.25 18.88C9.05 18.96 8.82999 19 8.60999 19C8.29999 19 8 18.92 7.75 18.78C7.14 18.47 6.72 17.84 6.72 17.11V9.56H5.78C3.7 9.56 2 7.86003 2 5.78003C2 4.74003 2.41999 3.79999 3.10999 3.10999C3.79999 2.41999 4.74 2 5.78 2H7.67001C9.22001 2 10.5 3.28002 10.5 4.83002Z" fill="#425A8B"/>
<path d="M5.78009 7.46997C4.85009 7.46997 4.09009 6.71002 4.09009 5.77002C4.09009 4.83002 4.85009 4.08002 5.78009 4.08002C6.19009 4.08002 6.53009 4.42002 6.53009 4.83002C6.53009 5.24002 6.19009 5.58002 5.78009 5.58002C5.67009 5.58002 5.59009 5.67002 5.59009 5.77002C5.59009 5.87002 5.68009 5.96997 5.78009 5.96997C6.19009 5.96997 6.53009 6.30997 6.53009 6.71997C6.53009 7.12997 6.19009 7.46997 5.78009 7.46997Z" fill="#425A8B"/>
<path opacity="0.4" d="M22 5.78003C22 7.86003 20.3 9.56 18.22 9.56H17.28V17.11C17.28 17.84 16.86 18.47 16.25 18.78C16 18.92 15.7 19 15.39 19C15.17 19 14.95 18.96 14.75 18.88C14.02 18.62 13.5 17.93 13.5 17.11V4.83002C13.5 3.28002 14.77 2 16.33 2H18.22C19.26 2 20.2 2.41999 20.89 3.10999C21.58 3.79999 22 4.74003 22 5.78003Z" fill="#425A8B"/>
<path d="M18.22 7.46997C17.81 7.46997 17.47 7.12997 17.47 6.71997C17.47 6.30997 17.81 5.96997 18.22 5.96997C18.33 5.96997 18.41 5.88002 18.41 5.77002C18.41 5.66002 18.32 5.58002 18.22 5.58002C17.81 5.58002 17.47 5.24002 17.47 4.83002C17.47 4.42002 17.81 4.08002 18.22 4.08002C19.15 4.08002 19.91 4.84002 19.91 5.77002C19.91 6.70002 19.16 7.46997 18.22 7.46997Z" fill="#425A8B"/>
<path d="M9.25 18.88V22C9.25 22.41 8.91 22.75 8.5 22.75C8.09 22.75 7.75 22.41 7.75 22V18.78C8 18.92 8.29999 19 8.60999 19C8.82999 19 9.05 18.96 9.25 18.88Z" fill="#425A8B"/>
<path d="M16.25 18.78V22C16.25 22.41 15.91 22.75 15.5 22.75C15.09 22.75 14.75 22.41 14.75 22V18.88C14.95 18.96 15.17 19 15.39 19C15.7 19 16 18.92 16.25 18.78Z" fill="#425A8B"/>
</svg>
