<svg width="24" height="24" viewBox="0 0 24 24" fill="none" xmlns="http://www.w3.org/2000/svg">
<path opacity="0.4" d="M16.19 2H7.82001C4.18001 2 2.01001 4.17 2.01001 7.81V16.18C2.01001 19.82 4.18001 21.99 7.82001 21.99H16.19C19.83 21.99 22 19.82 22 16.18V7.81C22 4.17 19.83 2 16.19 2Z" fill="#425A8B"/>
<path d="M12.7099 19.03C12.4799 19.03 12.3 18.97 12.2 18.92C11.97 18.81 11.4299 18.45 11.4299 17.47V14.05L8.50996 16.73C8.20996 17.01 7.72996 16.99 7.44996 16.68C7.16996 16.37 7.18995 15.9 7.49995 15.62L11.4299 12.02V11.94L7.49995 8.38C7.18995 8.1 7.16996 7.63001 7.44996 7.32001C7.72996 7.02001 8.20996 6.99 8.50996 7.27L11.4299 9.95V6.53C11.4299 5.55 11.97 5.19 12.2 5.08C12.43 4.97 13.0499 4.79 13.7999 5.42L16.22 7.44C16.55 7.71 16.74 8.11 16.75 8.52C16.76 8.93 16.5899 9.32999 16.2699 9.61999L13.66 12.01L16.2699 14.4C16.5799 14.69 16.76 15.09 16.75 15.5C16.74 15.91 16.55 16.3 16.22 16.58L13.7999 18.6C13.3799 18.94 12.9999 19.03 12.7099 19.03ZM12.9299 13.3V17.36L15.26 15.41L12.9299 13.3ZM12.9299 6.64V10.64L15.26 8.5L12.9299 6.64Z" fill="#425A8B"/>
</svg>
