<svg width="24" height="24" viewBox="0 0 24 24" fill="none" xmlns="http://www.w3.org/2000/svg">
<path opacity="0.4" d="M5.5 12C5.5 8.41 8.41 5.5 12 5.5C15.59 5.5 18.5 8.41 18.5 12C18.5 14.08 17.52 15.94 16 17.13H15.99C14.89 17.99 13.51 18.5 12 18.5C10.51 18.5 9.14 18 8.04 17.15H8.03C6.49 15.96 5.5 14.1 5.5 12Z" fill="#425A8B"/>
<path d="M8.03003 17.15H8.04003C9.14003 18 10.51 18.5 12 18.5C13.51 18.5 14.89 17.99 15.99 17.13H16L15.49 19.6C15 21.5 13.9 22 12.55 22H11.46C10.11 22 9.00003 21.5 8.52003 19.59L8.03003 17.15Z" fill="#425A8B"/>
<path d="M8.03003 6.85H8.04003C9.14003 6 10.51 5.5 12 5.5C13.51 5.5 14.89 6.01 15.99 6.87H16L15.49 4.4C15 2.5 13.9 2 12.55 2H11.46C10.11 2 9.00003 2.5 8.52003 4.41L8.03003 6.85Z" fill="#425A8B"/>
<path d="M13.4 14.6C13.21 14.6 13.02 14.53 12.87 14.38L11.47 12.98C11.33 12.84 11.25 12.65 11.25 12.45V9.66C11.25 9.25 11.59 8.91 12 8.91C12.41 8.91 12.75 9.25 12.75 9.66V12.14L13.93 13.32C14.22 13.61 14.22 14.09 13.93 14.38C13.78 14.53 13.59 14.6 13.4 14.6Z" fill="#425A8B"/>
</svg>
