<svg width="24" height="24" viewBox="0 0 24 24" fill="none" xmlns="http://www.w3.org/2000/svg">
<path opacity="0.4" d="M15 4H9C6.24 4 4 6.24 4 9V15C4 17.76 6.24 20 9 20H15C17.76 20 20 17.76 20 15V9C20 6.24 17.76 4 15 4ZM17.26 14.26C17.26 15.92 15.92 17.26 14.26 17.26H9.74C8.08 17.26 6.74 15.92 6.74 14.26V9.74C6.74 8.08 8.08 6.74 9.74 6.74H14.25C15.91 6.74 17.25 8.08 17.25 9.74V14.26H17.26Z" fill="#425A8B"/>
<path d="M9.06006 2.75V4H9.00006C8.50006 4 8.02006 4.07 7.56006 4.21V2.75C7.56006 2.34 7.89006 2 8.31006 2C8.72006 2 9.06006 2.34 9.06006 2.75Z" fill="#425A8B"/>
<path d="M12.75 2.75V4H11.25V2.75C11.25 2.34 11.59 2 12 2C12.41 2 12.75 2.34 12.75 2.75Z" fill="#425A8B"/>
<path d="M16.45 2.75V4.21C15.99 4.07 15.5 4 15 4H14.95V2.75C14.95 2.34 15.29 2 15.7 2C16.11 2 16.45 2.34 16.45 2.75Z" fill="#425A8B"/>
<path d="M22 8.29999C22 8.71999 21.67 9.04999 21.25 9.04999H20V8.99999C20 8.49999 19.93 8.00999 19.79 7.54999H21.25C21.67 7.54999 22 7.88999 22 8.29999Z" fill="#425A8B"/>
<path d="M22 12C22 12.41 21.67 12.75 21.25 12.75H20V11.25H21.25C21.67 11.25 22 11.58 22 12Z" fill="#425A8B"/>
<path d="M22 15.7C22 16.11 21.67 16.45 21.25 16.45H19.79C19.93 15.99 20 15.5 20 15V14.95H21.25C21.67 14.95 22 15.28 22 15.7Z" fill="#425A8B"/>
<path d="M16.45 19.79V21.25C16.45 21.66 16.11 22 15.7 22C15.29 22 14.95 21.66 14.95 21.25V20H15C15.5 20 15.99 19.93 16.45 19.79Z" fill="#425A8B"/>
<path d="M12.76 20V21.25C12.76 21.66 12.42 22 12.01 22C11.59 22 11.26 21.66 11.26 21.25V20H12.76Z" fill="#425A8B"/>
<path d="M9.06006 20V21.25C9.06006 21.66 8.72006 22 8.31006 22C7.89006 22 7.56006 21.66 7.56006 21.25V19.79C8.02006 19.93 8.50006 20 9.00006 20H9.06006Z" fill="#425A8B"/>
<path d="M4.21 7.54999C4.07 8.00999 4 8.49999 4 8.99999V9.04999H2.75C2.34 9.04999 2 8.71999 2 8.29999C2 7.88999 2.34 7.54999 2.75 7.54999H4.21Z" fill="#425A8B"/>
<path d="M4 11.25V12.75H2.75C2.34 12.75 2 12.41 2 12C2 11.58 2.34 11.25 2.75 11.25H4Z" fill="#425A8B"/>
<path d="M4.21 16.45H2.75C2.34 16.45 2 16.11 2 15.7C2 15.28 2.34 14.95 2.75 14.95H4V15C4 15.5 4.07 15.99 4.21 16.45Z" fill="#425A8B"/>
<path d="M14.26 6.73999H9.73999C8.07999 6.73999 6.73999 8.07999 6.73999 9.73999V14.25C6.73999 15.91 8.07999 17.25 9.73999 17.25H14.25C15.91 17.25 17.25 15.91 17.25 14.25V9.73999C17.26 8.08999 15.91 6.73999 14.26 6.73999ZM13.59 13.04L12.65 14.68C12.51 14.92 12.26 15.06 12 15.06C11.87 15.06 11.74 15.03 11.63 14.96C11.27 14.75 11.15 14.29 11.35 13.94L12.03 12.76H11.44C10.96 12.76 10.57 12.55 10.36 12.19C10.15 11.83 10.17 11.38 10.4 10.97L11.34 9.32999C11.55 8.96999 12.01 8.84999 12.36 9.04999C12.72 9.25999 12.84 9.71999 12.64 10.07L11.96 11.25H12.55C13.03 11.25 13.42 11.46 13.63 11.82C13.85 12.18 13.83 12.62 13.59 13.04Z" fill="#425A8B"/>
</svg>
