<svg width="48" height="48" viewBox="0 0 48 48" fill="none" xmlns="http://www.w3.org/2000/svg">
<g clip-path="url(#clip0_132_3238)">
<path d="M47.7319 23.4587C45.7928 20.7429 42.643 19.1217 39.3061 19.1217H34.9419L23.0705 4.74683C22.8925 4.53113 22.6273 4.40625 22.3476 4.40625H17.7304C17.4315 4.40625 17.151 4.54834 16.9745 4.78894C16.7976 5.02991 16.7464 5.34009 16.8357 5.625L17.934 9.11756H16.7409C16.2234 9.11756 15.8034 9.5376 15.8034 10.0551C15.8034 10.5729 16.2234 10.9926 16.7409 10.9926H18.5236L19.5072 14.1215H18.3676C17.8498 14.1215 17.4301 14.5415 17.4301 15.059C17.4301 15.5768 17.8498 15.9965 18.3676 15.9965H20.0972L21.0797 19.1217H13.0333L9.8063 15.3479C9.62795 15.1395 9.36757 15.0198 9.09365 15.0198H6.5624C6.27163 15.0198 5.9977 15.1545 5.82009 15.3845C5.64248 15.6149 5.58168 15.9141 5.65566 16.1953L7.70278 23.9894L5.65529 31.8124C5.58168 32.0933 5.64284 32.3928 5.82045 32.6228C5.9977 32.8528 6.27199 32.9872 6.5624 32.9872H9.09365C9.36831 32.9872 9.62868 32.8671 9.80666 32.6583L13.0253 28.8853H21.0797L20.0968 32.0105H18.3672C17.8498 32.0105 17.4297 32.4302 17.4297 32.948C17.4297 33.4658 17.8498 33.8855 18.3672 33.8855H19.5076L18.5236 37.0144H16.7412C16.2234 37.0144 15.8037 37.4341 15.8037 37.9519C15.8037 38.4697 16.2234 38.8894 16.7412 38.8894H17.934L16.8361 42.382C16.7464 42.6669 16.798 42.9774 16.9745 43.218C17.151 43.4586 17.4319 43.6007 17.7304 43.6007H22.3479C22.6273 43.6007 22.8925 43.4758 23.0708 43.2602L34.9419 28.8853H39.3061C42.643 28.8853 45.7928 27.264 47.7319 24.5482C47.9644 24.2223 47.9644 23.7847 47.7319 23.4587ZM19.0077 6.28125H21.9059L32.5099 19.1217H23.0452L19.0077 6.28125ZM8.66189 16.8948L11.3257 20.0094L9.16396 22.1712L7.77785 16.8948H8.66189ZM8.66115 31.1122H7.77675L9.16286 25.8168L11.3202 27.995L8.66115 31.1122ZM21.9059 41.7257H19.0077L23.0452 28.8853H32.5099L21.9059 41.7257ZM39.3061 27.0103H22.3637C22.3607 27.0103 22.3582 27.0103 22.3553 27.0103H12.9839L9.99453 23.992L12.9898 20.9967H22.3523C22.3538 20.9967 22.3556 20.9971 22.3571 20.9971C22.3585 20.9971 22.3604 20.9967 22.3618 20.9967H39.3061C41.8073 20.9967 44.1807 22.1093 45.7821 24.0033C44.1807 25.8977 41.8073 27.0103 39.3061 27.0103Z" fill="#425A8B"/>
<path d="M12.6021 37.0142C12.3552 37.0142 12.1135 37.1145 11.9392 37.2888C11.7638 37.4631 11.6646 37.7052 11.6646 37.9517C11.6646 38.1981 11.7638 38.4402 11.9392 38.6145C12.1135 38.7888 12.3545 38.8892 12.6021 38.8892C12.8485 38.8892 13.0902 38.7888 13.2645 38.6145C13.4388 38.4402 13.5396 38.1981 13.5396 37.9517C13.5396 37.7052 13.4392 37.4631 13.2645 37.2888C13.0902 37.1145 12.8485 37.0142 12.6021 37.0142Z" fill="#425A8B"/>
<path d="M8.85169 37.0146H0.84375C0.325928 37.0146 -0.09375 37.4343 -0.09375 37.9521C-0.09375 38.4696 0.325928 38.8896 0.84375 38.8896H8.85169C9.36915 38.8896 9.78919 38.4696 9.78919 37.9521C9.78919 37.4343 9.36915 37.0146 8.85169 37.0146Z" fill="#425A8B"/>
<path d="M0.84375 24.9531H3.9375C4.45532 24.9531 4.875 24.5334 4.875 24.0156C4.875 23.4978 4.45532 23.0781 3.9375 23.0781H0.84375C0.325928 23.0781 -0.09375 23.4978 -0.09375 24.0156C-0.09375 24.5334 0.325928 24.9531 0.84375 24.9531Z" fill="#425A8B"/>
<path d="M0.84375 10.9927C1.09021 10.9927 1.33228 10.8923 1.50659 10.718C1.68091 10.5437 1.78125 10.3016 1.78125 10.0552C1.78125 9.80835 1.68091 9.56665 1.50659 9.39233C1.33228 9.21692 1.09021 9.11768 0.84375 9.11768C0.59729 9.11768 0.355225 9.21692 0.180908 9.39233C0.0065918 9.56665 -0.09375 9.80835 -0.09375 10.0552C-0.09375 10.3016 0.0065918 10.5437 0.180908 10.718C0.355225 10.8923 0.59729 10.9927 0.84375 10.9927Z" fill="#425A8B"/>
<path d="M4.59375 10.9927H12.6017C13.1191 10.9927 13.5392 10.573 13.5392 10.0552C13.5392 9.53772 13.1191 9.11768 12.6017 9.11768H4.59375C4.07593 9.11768 3.65625 9.53772 3.65625 10.0552C3.65625 10.573 4.07593 10.9927 4.59375 10.9927Z" fill="#425A8B"/>
</g>
<defs>
<clipPath id="clip0_132_3238">
<rect width="48" height="48" fill="white"/>
</clipPath>
</defs>
</svg>
