<svg width="24" height="24" viewBox="0 0 24 24" fill="none" xmlns="http://www.w3.org/2000/svg">
<path opacity="0.4" d="M16 2H6C2.8 2 2 2.8 2 6V11.9C2.03 14.93 2.87 15.7 6 15.7H8.25V19.25H4.95001C4.54001 19.25 4.20001 19.59 4.20001 20C4.20001 20.41 4.54001 20.75 4.95001 20.75H12.25C12.1 20.36 12.03 19.87 12.02 19.25H9.75V15.7H12.02V11.9V10.59C12.02 8.45003 12.73 7.73999 14.87 7.73999H19.15C19.46 7.73999 19.75 7.75998 20 7.78998V6C20 2.8 19.2 2 16 2Z" fill="#425A8B"/>
<path d="M20 7.78998C19.75 7.75998 19.46 7.73999 19.15 7.73999H14.87C12.73 7.73999 12.02 8.45003 12.02 10.59V19.25C12.03 19.87 12.1 20.36 12.25 20.75C12.6 21.66 13.39 22 14.87 22H19.15C21.29 22 22 21.29 22 19.15V10.59C22 8.76003 21.48 7.97998 20 7.78998ZM17.01 10.09C17.88 10.09 18.58 10.79 18.58 11.66C18.58 12.53 17.88 13.23 17.01 13.23C16.14 13.23 15.44 12.53 15.44 11.66C15.44 10.79 16.14 10.09 17.01 10.09ZM17.01 19.15C15.83 19.15 14.87 18.19 14.87 17.01C14.87 16.52 15.04 16.06 15.32 15.7C15.71 15.2 16.32 14.87 17.01 14.87C17.55 14.87 18.04 15.07 18.41 15.39C18.86 15.79 19.15 16.37 19.15 17.01C19.15 18.19 18.19 19.15 17.01 19.15Z" fill="#425A8B"/>
<path opacity="0.4" d="M19.1501 17.01C19.1501 18.19 18.1901 19.15 17.0101 19.15C15.8301 19.15 14.8701 18.19 14.8701 17.01C14.8701 16.52 15.0401 16.06 15.3201 15.7C15.7101 15.2 16.3201 14.87 17.0101 14.87C17.5501 14.87 18.0401 15.07 18.4101 15.39C18.8601 15.79 19.1501 16.37 19.1501 17.01Z" fill="#425A8B"/>
<path opacity="0.4" d="M17.0099 13.23C17.877 13.23 18.5799 12.5271 18.5799 11.66C18.5799 10.7929 17.877 10.09 17.0099 10.09C16.1429 10.09 15.4399 10.7929 15.4399 11.66C15.4399 12.5271 16.1429 13.23 17.0099 13.23Z" fill="#425A8B"/>
</svg>
