<svg width="24" height="24" viewBox="0 0 24 24" fill="none" xmlns="http://www.w3.org/2000/svg">
<path opacity="0.4" d="M10.5 16H13.5C16 16 17.5 14.2 17.5 12V6.91C17.5 5.86 16.64 5 15.59 5H8.42006C7.37006 5 6.51006 5.86 6.51006 6.91V12C6.50006 14.2 8.00005 16 10.5 16Z" fill="#425A8B"/>
<path d="M10.25 2V5H8.75V2C8.75 1.59 9.09 1.25 9.5 1.25C9.91 1.25 10.25 1.59 10.25 2Z" fill="#425A8B"/>
<path d="M15.25 2V5H13.75V2C13.75 1.59 14.09 1.25 14.5 1.25C14.91 1.25 15.25 1.59 15.25 2Z" fill="#425A8B"/>
<path d="M12.75 16V22C12.75 22.41 12.41 22.75 12 22.75C11.59 22.75 11.25 22.41 11.25 22V16H12.75Z" fill="#425A8B"/>
</svg>
