<svg width="37" height="31" viewBox="0 0 37 31" fill="none" xmlns="http://www.w3.org/2000/svg">
<g clip-path="url(#clip0_629_20685)">
<path d="M9.72811 4.80874L8.84912 5.28558L11.2517 9.71433L12.1307 9.23749L9.72811 4.80874Z" fill="#FD9636"/>
<path d="M10.5871 2.19748C10.8228 2.6321 10.9244 3.12688 10.879 3.61924C10.8336 4.1116 10.6432 4.57944 10.3319 4.96359C10.0206 5.34774 9.60234 5.63095 9.13007 5.7774C8.6578 5.92386 8.15272 5.92698 7.67867 5.78638C7.20463 5.64577 6.78293 5.36776 6.4669 4.98749C6.15086 4.60722 5.95469 4.14177 5.90318 3.65001C5.85167 3.15825 5.94715 2.66225 6.17753 2.22475C6.40791 1.78725 6.76286 1.42789 7.19747 1.19211C7.78107 0.879883 8.46423 0.81033 9.09878 0.99854C9.73332 1.18675 10.2681 1.61755 10.5871 2.19748Z" fill="#36BEF9"/>
<path d="M26.1606 4.80874L27.0396 5.28558L24.637 9.71433L23.758 9.23749L26.1606 4.80874Z" fill="#FD9636"/>
<path d="M25.3016 2.19748C25.0658 2.6321 24.9642 3.12688 25.0097 3.61924C25.0551 4.1116 25.2455 4.57944 25.5568 4.96359C25.8681 5.34774 26.2863 5.63095 26.7586 5.7774C27.2309 5.92386 27.736 5.92698 28.21 5.78638C28.684 5.64577 29.1057 5.36776 29.4218 4.98749C29.7378 4.60722 29.934 4.14177 29.9855 3.65001C30.037 3.15825 29.9415 2.66225 29.7111 2.22475C29.4808 1.78725 29.1258 1.42789 28.6912 1.19211C28.1076 0.879883 27.4244 0.81033 26.7899 0.99854C26.1553 1.18675 25.6206 1.61755 25.3016 2.19748Z" fill="#36BEF9"/>
<path d="M24.32 31.04H12.52C12.1169 31.04 11.7303 30.8799 11.4452 30.5948C11.1601 30.3097 11 29.9231 11 29.52C11 29.1169 11.1601 28.7303 11.4452 28.4452C11.7303 28.1601 12.1169 28 12.52 28H24.32C24.7231 28 25.1097 28.1601 25.3948 28.4452C25.6799 28.7303 25.84 29.1169 25.84 29.52C25.84 29.9231 25.6799 30.3097 25.3948 30.5948C25.1097 30.8799 24.7231 31.04 24.32 31.04Z" fill="#FD9636"/>
<path d="M3.04 23.76C4.71895 23.76 6.08 22.399 6.08 20.72C6.08 19.0411 4.71895 17.68 3.04 17.68C1.36105 17.68 0 19.0411 0 20.72C0 22.399 1.36105 23.76 3.04 23.76Z" fill="#36BEF9"/>
<path d="M33.7802 23.56C35.4592 23.56 36.8202 22.199 36.8202 20.52C36.8202 18.8411 35.4592 17.48 33.7802 17.48C32.1013 17.48 30.7402 18.8411 30.7402 20.52C30.7402 22.199 32.1013 23.56 33.7802 23.56Z" fill="#36BEF9"/>
<path d="M18.7902 7.00001C18.7902 7.00001 31.1702 6.85001 33.1302 17.57C35.0902 28.29 24.6202 28.45 21.6102 28.66C20.2402 28.75 17.3202 28.76 14.7502 28.71C9.00017 28.61 5.00017 27.51 3.63017 22.21C3.46956 21.5911 3.36909 20.9582 3.33017 20.32C3.00017 14.51 6.89017 6.67001 18.7902 7.00001Z" fill="#36BEF9"/>
<path d="M9.80982 23.29L27.8098 23.57C28.2576 23.5766 28.7024 23.495 29.1186 23.3297C29.5349 23.1644 29.9145 22.9187 30.2358 22.6067C30.5571 22.2947 30.8138 21.9224 30.9912 21.5112C31.1686 21.1 31.2633 20.6578 31.2698 20.21C31.2778 19.7614 31.1971 19.3155 31.0324 18.8981C30.8677 18.4807 30.6223 18.0999 30.3101 17.7776C29.998 17.4552 29.6253 17.1976 29.2134 17.0196C28.8015 16.8415 28.3585 16.7465 27.9098 16.74L9.90982 16.46C9.00446 16.4466 8.13074 16.7928 7.48026 17.4227C6.82977 18.0526 6.45561 18.9147 6.43982 19.82C6.43321 20.2691 6.51514 20.7152 6.68092 21.1327C6.84671 21.5501 7.09311 21.9308 7.40605 22.2531C7.719 22.5753 8.09235 22.8327 8.50479 23.0106C8.91724 23.1886 9.36069 23.2835 9.80982 23.29Z" fill="#FD9636"/>
<path d="M24.0598 19.84C24.136 20.1054 24.3092 20.3324 24.545 20.476C24.7809 20.6196 25.0621 20.6693 25.3328 20.6151C25.6036 20.561 25.8441 20.407 26.0065 20.1837C26.169 19.9605 26.2416 19.6843 26.2098 19.41C26.1823 19.2695 26.1273 19.1357 26.0481 19.0164C25.9689 18.8971 25.8669 18.7946 25.748 18.7148C25.6292 18.6349 25.4957 18.5792 25.3553 18.551C25.2149 18.5227 25.0703 18.5224 24.9298 18.55C24.788 18.5776 24.653 18.6328 24.5325 18.7125C24.412 18.7923 24.3084 18.895 24.2276 19.0148C24.1468 19.1346 24.0904 19.2691 24.0616 19.4107C24.0328 19.5523 24.0322 19.6982 24.0598 19.84Z" fill="#425A8B"/>
<path d="M11.4998 19.63C11.54 19.8447 11.6432 20.0425 11.7962 20.1983C11.9492 20.3541 12.1451 20.4608 12.359 20.5049C12.5729 20.549 12.795 20.5284 12.9972 20.4458C13.1993 20.3632 13.3723 20.2223 13.4941 20.041C13.6159 19.8597 13.6809 19.6463 13.681 19.428C13.6811 19.2096 13.6162 18.9961 13.4945 18.8148C13.3729 18.6334 13.2 18.4924 12.998 18.4096C12.7959 18.3269 12.5737 18.3061 12.3598 18.35C12.2187 18.3763 12.0842 18.4305 11.9642 18.5094C11.8442 18.5883 11.7412 18.6903 11.6611 18.8095C11.581 18.9286 11.5255 19.0626 11.4978 19.2035C11.4701 19.3444 11.4708 19.4894 11.4998 19.63Z" fill="#425A8B"/>
<path d="M21.0484 19.5723C21.0484 19.5723 21.1187 19.661 21.1278 19.8433C21.1389 20.1008 21.0885 20.3572 20.9807 20.5913C20.8266 20.9552 20.5818 21.2734 20.2696 21.5156C19.8814 21.8121 19.4065 21.9728 18.918 21.9732C18.4284 21.9535 17.96 21.7679 17.5897 21.4468C17.2909 21.1984 17.0611 20.877 16.9227 20.5139C16.8266 20.2768 16.7874 20.0206 16.808 19.7657C16.8299 19.577 16.8402 19.4876 16.8998 19.4945C16.9594 19.5014 16.9554 19.8835 17.2303 20.3784C17.3855 20.6635 17.6006 20.9116 17.8608 21.1057C18.165 21.3445 18.5361 21.4825 18.9224 21.5005C19.2963 21.4867 19.6588 21.3682 19.9687 21.1586C20.242 20.9768 20.4699 20.7345 20.6346 20.4506C20.9737 19.9563 20.9777 19.5742 21.0484 19.5723Z" fill="#425A8B"/>
<path d="M33.1 17.18C33.1419 17.2631 33.1754 17.3502 33.2 17.44C33.2 17.53 33.26 17.64 33.29 17.76C33.335 17.9011 33.3717 18.0447 33.4 18.19C33.472 18.5634 33.5221 18.9408 33.55 19.32C33.5848 19.786 33.5848 20.254 33.55 20.72C33.5043 21.1846 33.4275 21.6457 33.32 22.1C33.2402 22.4707 33.1333 22.835 33 23.19C32.95 23.34 32.88 23.47 32.83 23.59L32.68 23.89L32.54 24.13C32.5642 24.0386 32.6013 23.9511 32.65 23.87C32.65 23.79 32.73 23.69 32.78 23.57C32.83 23.45 32.89 23.32 32.94 23.16C33.07 22.8064 33.1802 22.4459 33.27 22.08C33.3767 21.6289 33.4535 21.1712 33.5 20.71C33.5296 20.2505 33.5296 19.7895 33.5 19.33C33.475 18.951 33.4283 18.5737 33.36 18.2C33.3379 18.0551 33.3079 17.9116 33.27 17.77C33.2517 17.6614 33.2249 17.5545 33.19 17.45C33.12 17.28 33.1 17.18 33.1 17.18Z" fill="#FFB800"/>
<path d="M3.76985 17.25C3.73249 17.334 3.70238 17.4209 3.67985 17.51C3.64081 17.6148 3.60743 17.7216 3.57985 17.83C3.57985 17.95 3.50985 18.09 3.47985 18.26C3.40341 18.633 3.34998 19.0104 3.31985 19.39C3.28531 19.856 3.28531 20.324 3.31985 20.79C3.3615 21.2552 3.43838 21.7165 3.54985 22.17C3.64568 22.5364 3.76254 22.897 3.89985 23.25C3.95985 23.41 4.02985 23.54 4.07985 23.66C4.12365 23.7598 4.17376 23.8566 4.22985 23.95C4.26694 24.0384 4.3139 24.1222 4.36985 24.2C4.34776 24.1079 4.31059 24.02 4.25985 23.94L4.12985 23.63C4.07985 23.51 4.01985 23.38 3.96985 23.23C3.83621 22.8767 3.7227 22.5161 3.62985 22.15C3.53157 21.6977 3.45813 21.2404 3.40985 20.78C3.38025 20.3172 3.38025 19.8529 3.40985 19.39C3.4354 19.0143 3.48214 18.6404 3.54985 18.27C3.54985 18.11 3.60985 17.97 3.62985 17.84L3.70985 17.52C3.74349 17.4336 3.76373 17.3425 3.76985 17.25Z" fill="#FFB800"/>
</g>
<defs>
<clipPath id="clip0_629_20685">
<rect width="37" height="31" fill="white"/>
</clipPath>
</defs>
</svg>
