<svg width="18" height="12" viewBox="0 0 18 12" fill="none" xmlns="http://www.w3.org/2000/svg">
<g clip-path="url(#clip0_103_113)">
<path d="M17.6898 11.8965H0.310572C0.139186 11.8965 0.000213623 11.7575 0.000213623 11.5861V0.413782C0.000213623 0.242396 0.139186 0.103424 0.310572 0.103424H17.6898C17.8612 0.103424 18.0002 0.242396 18.0002 0.413782V11.5861C18.0001 11.7575 17.8612 11.8965 17.6898 11.8965Z" fill="#41479B"/>
<path d="M18.0001 0.413782C18.0001 0.242396 17.8612 0.103424 17.6898 0.103424H16.3013L10.5519 3.8703V0.103424H7.44842V3.8703L1.69903 0.103424H0.310572C0.139186 0.103424 0.000213623 0.242396 0.000213623 0.413782V1.21643L4.93293 4.44823H0.000213623V7.55167H4.93293L0.000213623 10.7835V11.5861C0.000213623 11.7575 0.139186 11.8965 0.310572 11.8965H1.69906L7.44849 8.12963V11.8965H10.5519V8.12963L16.3014 11.8965H17.6899C17.8612 11.8965 18.0002 11.7575 18.0002 11.5861V10.7835L13.0675 7.5517H18.0001V4.44826H13.0674L18.0001 1.21643V0.413782Z" fill="#F5F5F5"/>
<path d="M18.0001 5.06894H9.93122V0.103424H8.06914V5.06894H0.000213623V6.93099H8.06914V11.8965H9.93122V6.93099H18.0001V5.06894Z" fill="#FF4B55"/>
<path d="M6.29142 7.55171L0.00909424 11.6297C0.0310668 11.7796 0.154641 11.8966 0.310628 11.8966H0.738091L7.43146 7.55175H6.29142V7.55171V7.55171Z" fill="#FF4B55"/>
<path d="M12.1781 7.55171H11.0381L17.7217 11.8901C17.8775 11.8735 18.0004 11.7463 18.0004 11.5862V11.331L12.1781 7.55171Z" fill="#FF4B55"/>
<path d="M0.000427246 0.756413L5.68795 4.4483H6.82799L0.181235 0.133728C0.0750637 0.183052 0.000427246 0.289048 0.000427246 0.413817V0.756413Z" fill="#FF4B55"/>
<path d="M11.6922 4.44832L17.9896 0.360472C17.9635 0.215558 17.8425 0.103516 17.6901 0.103516H17.2455L10.5522 4.44832H11.6922Z" fill="#FF4B55"/>
</g>
<defs>
<clipPath id="clip0_103_113">
<rect width="18.0004" height="12" fill="white"/>
</clipPath>
</defs>
</svg>
