<svg width="18" height="12" viewBox="0 0 18 12" fill="none" xmlns="http://www.w3.org/2000/svg">
<path d="M0.310969 11.8966H17.6903C17.8616 11.8966 18.0006 11.7576 18.0006 11.5862V0.413844C18.0006 0.242457 17.8616 0.103485 17.6903 0.103485H0.310969C0.139583 0.10352 0.000610352 0.242457 0.000610352 0.413844V11.5862C0.000610352 11.7577 0.139583 11.8966 0.310969 11.8966Z" fill="#C8414B"/>
<path d="M18.0006 2.5864H0.000610352V9.41408H18.0006V2.5864Z" fill="#FFD250"/>
<path d="M7.60397 6.00007L7.86711 4.81597C7.89137 4.70691 7.80837 4.60349 7.69664 4.60349H7.5113C7.39961 4.60349 7.31664 4.70691 7.34082 4.81597L7.60397 6.00007Z" fill="#C8414B"/>
<path d="M7.91438 5.3792H7.2937V8.01696H7.91438V5.3792Z" fill="#F5F5F5"/>
<path d="M8.06932 5.06912H7.13828V5.37948H8.06932V5.06912Z" fill="#FAB446"/>
<path d="M8.07016 6.00003H6.51837V6.31039H8.07016V6.00003Z" fill="#C8414B"/>
<path d="M8.07011 7.24139L7.13907 6.93107V6.62071L8.07011 6.93107V7.24139Z" fill="#C8414B"/>
<path d="M2.94943 6.00003L3.21257 4.81594C3.23683 4.70688 3.15382 4.60345 3.0421 4.60345H2.85676C2.74506 4.60345 2.6621 4.70688 2.68628 4.81594L2.94943 6.00003Z" fill="#C8414B"/>
<path d="M4.03518 5.06902C3.8638 5.06902 3.72482 5.20799 3.72482 5.37937V7.3966C3.72482 7.77365 4.07674 8.48282 5.27655 8.48282C6.47636 8.48282 6.82827 7.77369 6.82827 7.3966V5.37937C6.82827 5.20799 6.6893 5.06902 6.51791 5.06902H4.03518V5.06902Z" fill="#F5F5F5"/>
<path d="M5.277 6.62071H3.72528V5.37934C3.72528 5.20796 3.86425 5.06898 4.03564 5.06898H5.277V6.62071Z" fill="#C8414B"/>
<path d="M5.27704 6.62071H6.82876V7.39657C6.82876 7.82509 6.48142 8.17244 6.0529 8.17244C5.62438 8.17244 5.27704 7.82509 5.27704 7.39657V6.62071V6.62071Z" fill="#C8414B"/>
<path d="M3.72482 6.62074H5.27655V7.3966C5.27655 7.82512 4.9292 8.17247 4.50068 8.17247C4.07217 8.17247 3.72482 7.82512 3.72482 7.3966V6.62074V6.62074Z" fill="#FAB446"/>
<path d="M4.96557 8.01382V6.62076H4.65521V8.15684C4.77067 8.13342 4.87497 8.08231 4.96557 8.01382Z" fill="#C8414B"/>
<path d="M4.34487 8.15684V6.62076H4.03452V8.01382C4.12515 8.08231 4.22946 8.13342 4.34487 8.15684Z" fill="#C8414B"/>
<path d="M4.96617 6.00006H4.03513V6.31042H4.96617V6.00006Z" fill="#FFB441"/>
<path d="M4.96617 5.3792H4.03513V5.68956H4.96617V5.3792Z" fill="#FAB446"/>
<path d="M4.81062 5.56378H4.18994V6.126H4.81062V5.56378Z" fill="#FAB446"/>
<path d="M3.25899 5.3792H2.63831V8.01696H3.25899V5.3792Z" fill="#F5F5F5"/>
<path d="M3.41371 7.86227H2.48267V8.17263H3.41371V7.86227Z" fill="#FAB446"/>
<path d="M3.41371 5.06911H2.48267V5.37947H3.41371V5.06911Z" fill="#FAB446"/>
<path d="M3.56967 8.17236H2.32831V8.48272H3.56967V8.17236Z" fill="#5064AA"/>
<path d="M8.22474 7.86227H7.2937V8.17263H8.22474V7.86227Z" fill="#FAB446"/>
<path d="M8.22458 8.17236H6.98322V8.48272H8.22458V8.17236Z" fill="#5064AA"/>
<path d="M6.2076 4.7587H4.34552V5.06906H6.2076V4.7587Z" fill="#FAB446"/>
<path d="M5.43182 3.82776H5.12146V4.7588H5.43182V3.82776Z" fill="#FFB441"/>
<path d="M4.96608 4.29316C4.70937 4.29316 4.50058 4.08433 4.50058 3.82766C4.50058 3.57094 4.70941 3.36215 4.96608 3.36215C5.22279 3.36215 5.43159 3.57098 5.43159 3.82766C5.43162 4.08433 5.22279 4.29316 4.96608 4.29316ZM4.96608 3.67248C4.88048 3.67248 4.8109 3.74201 4.8109 3.82766C4.8109 3.91326 4.88044 3.98283 4.96608 3.98283C5.05172 3.98283 5.12126 3.9133 5.12126 3.82766C5.12126 3.74205 5.05172 3.67248 4.96608 3.67248Z" fill="#F5F5F5"/>
<path d="M5.58678 4.29316C5.33007 4.29316 5.12128 4.08433 5.12128 3.82766C5.12128 3.57094 5.3301 3.36215 5.58678 3.36215C5.84349 3.36215 6.05228 3.57098 6.05228 3.82766C6.05228 4.08433 5.84346 4.29316 5.58678 4.29316ZM5.58678 3.67248C5.50117 3.67248 5.4316 3.74201 5.4316 3.82766C5.4316 3.91326 5.50114 3.98283 5.58678 3.98283C5.67239 3.98283 5.74196 3.9133 5.74196 3.82766C5.74192 3.74205 5.67239 3.67248 5.58678 3.67248Z" fill="#F5F5F5"/>
<path d="M6.20754 4.60352C5.95083 4.60352 5.74203 4.39469 5.74203 4.13802C5.74203 3.88131 5.95086 3.67252 6.20754 3.67252C6.46425 3.67252 6.67304 3.88134 6.67304 4.13802C6.67304 4.39469 6.46421 4.60352 6.20754 4.60352ZM6.20754 3.98284C6.12193 3.98284 6.05236 4.05238 6.05236 4.13802C6.05236 4.22362 6.1219 4.2932 6.20754 4.2932C6.29314 4.2932 6.36272 4.22366 6.36272 4.13802C6.36272 4.05238 6.29314 3.98284 6.20754 3.98284Z" fill="#F5F5F5"/>
<path d="M4.34539 4.60352C4.08868 4.60352 3.87988 4.39469 3.87988 4.13802C3.87988 3.88131 4.08871 3.67252 4.34539 3.67252C4.6021 3.67252 4.81089 3.88134 4.81089 4.13802C4.81092 4.39469 4.6021 4.60352 4.34539 4.60352ZM4.34539 3.98284C4.25978 3.98284 4.19021 4.05238 4.19021 4.13802C4.19021 4.22362 4.25975 4.2932 4.34539 4.2932C4.43103 4.2932 4.50057 4.22362 4.50057 4.13798C4.50057 4.05238 4.43103 3.98284 4.34539 3.98284Z" fill="#F5F5F5"/>
<path d="M6.20742 7.24143V7.39661C6.20742 7.48218 6.13781 7.55179 6.05224 7.55179C5.96667 7.55179 5.89706 7.48218 5.89706 7.39661V7.24143H6.20742ZM6.51774 6.93111H5.5867V7.39661C5.5867 7.65332 5.79553 7.86211 6.0522 7.86211C6.30891 7.86211 6.51771 7.65329 6.51771 7.39661V6.93111H6.51774Z" fill="#FAB446"/>
<path d="M6.05236 6.31041C5.88098 6.31041 5.742 6.17144 5.742 6.00005V5.68969C5.742 5.51831 5.88098 5.37933 6.05236 5.37933C6.22375 5.37933 6.36272 5.51831 6.36272 5.68969V6.00005C6.36272 6.17144 6.22375 6.31041 6.05236 6.31041Z" fill="#FFA0D2"/>
<path d="M5.27645 7.08607C5.53354 7.08607 5.74195 6.87765 5.74195 6.62056C5.74195 6.36347 5.53354 6.15506 5.27645 6.15506C5.01936 6.15506 4.81094 6.36347 4.81094 6.62056C4.81094 6.87765 5.01936 7.08607 5.27645 7.08607Z" fill="#5064AA"/>
<path d="M5.43182 3.20689H5.12146V4.13794H5.43182V3.20689Z" fill="#FAB446"/>
<path d="M4.3453 4.75869L4.03494 4.44833L4.21674 4.26654C4.49774 3.98554 4.8789 3.82765 5.27634 3.82765C5.67378 3.82765 6.05491 3.98554 6.33595 4.26654L6.51774 4.44833L6.20738 4.75869H4.3453Z" fill="#C8414B"/>
<path d="M5.27606 4.6034C5.36176 4.6034 5.43124 4.53393 5.43124 4.44822C5.43124 4.36252 5.36176 4.29305 5.27606 4.29305C5.19036 4.29305 5.12088 4.36252 5.12088 4.44822C5.12088 4.53393 5.19036 4.6034 5.27606 4.6034Z" fill="#FFD250"/>
<path d="M4.65518 4.6034C4.74088 4.6034 4.81036 4.53393 4.81036 4.44822C4.81036 4.36252 4.74088 4.29305 4.65518 4.29305C4.56948 4.29305 4.5 4.36252 4.5 4.44822C4.5 4.53393 4.56948 4.6034 4.65518 4.6034Z" fill="#FFD250"/>
<path d="M5.89657 4.6034C5.98228 4.6034 6.05175 4.53393 6.05175 4.44822C6.05175 4.36252 5.98228 4.29305 5.89657 4.29305C5.81087 4.29305 5.74139 4.36252 5.74139 4.44822C5.74139 4.53393 5.81087 4.6034 5.89657 4.6034Z" fill="#FFD250"/>
<path d="M4.03446 6.00008H2.48267V6.31043H4.03446V6.00008Z" fill="#C8414B"/>
<path d="M2.48267 7.24144L3.41367 6.93112V6.62076L2.48267 6.93112V7.24144Z" fill="#C8414B"/>
</svg>
