<svg width="18" height="12" viewBox="0 0 18 12" fill="none" xmlns="http://www.w3.org/2000/svg">
<path d="M17.6901 11.8966H0.310847C0.139461 11.8966 0.000488281 11.7576 0.000488281 11.5862V0.413829C0.000488281 0.242442 0.139461 0.10347 0.310847 0.10347H17.6901C17.8615 0.10347 18.0005 0.242442 18.0005 0.413829V11.5862C18.0005 11.7576 17.8615 11.8966 17.6901 11.8966Z" fill="#FF4B55"/>
<path d="M6.51771 0.1035H0.310847C0.139461 0.1035 0.000488281 0.242437 0.000488281 0.413824V11.5862C0.000488281 11.7576 0.139461 11.8966 0.310847 11.8966H6.51774V0.1035H6.51771Z" fill="#73AF00"/>
<path d="M6.52025 8.79075C8.06151 8.79075 9.31095 7.54131 9.31095 6.00005C9.31095 4.45879 8.06151 3.20935 6.52025 3.20935C4.97899 3.20935 3.72955 4.45879 3.72955 6.00005C3.72955 7.54131 4.97899 8.79075 6.52025 8.79075Z" fill="#FFE15A"/>
<path d="M7.45121 5.069V6.31037C7.45121 6.82375 7.03356 7.24141 6.52017 7.24141C6.00679 7.24141 5.58913 6.82375 5.58913 6.31037V5.069H7.45121V5.069ZM7.76154 4.44832H5.27877C5.10739 4.44832 4.96841 4.58729 4.96841 4.75868V6.3104C4.96841 7.16737 5.66317 7.86212 6.52014 7.86212C7.37711 7.86212 8.07186 7.16737 8.07186 6.3104V4.75868C8.0719 4.58729 7.93292 4.44832 7.76154 4.44832Z" fill="#FF4B55"/>
<path d="M7.45122 5.069V6.31036C7.45122 6.82375 7.03357 7.24141 6.52018 7.24141C6.0068 7.24141 5.58914 6.82375 5.58914 6.31036V5.069H7.45122" fill="#F5F5F5"/>
<path d="M5.27575 4.91386C5.36146 4.91386 5.43093 4.84438 5.43093 4.75868C5.43093 4.67298 5.36146 4.6035 5.27575 4.6035C5.19005 4.6035 5.12057 4.67298 5.12057 4.75868C5.12057 4.84438 5.19005 4.91386 5.27575 4.91386Z" fill="#FFE15A"/>
<path d="M7.75839 4.91386C7.84409 4.91386 7.91357 4.84438 7.91357 4.75868C7.91357 4.67298 7.84409 4.6035 7.75839 4.6035C7.67269 4.6035 7.60321 4.67298 7.60321 4.75868C7.60321 4.84438 7.67269 4.91386 7.75839 4.91386Z" fill="#FFE15A"/>
<path d="M5.27575 6.15522C5.36146 6.15522 5.43093 6.08575 5.43093 6.00004C5.43093 5.91434 5.36146 5.84486 5.27575 5.84486C5.19005 5.84486 5.12057 5.91434 5.12057 6.00004C5.12057 6.08575 5.19005 6.15522 5.27575 6.15522Z" fill="#FFE15A"/>
<path d="M7.75839 6.15522C7.84409 6.15522 7.91357 6.08575 7.91357 6.00004C7.91357 5.91434 7.84409 5.84486 7.75839 5.84486C7.67269 5.84486 7.60321 5.91434 7.60321 6.00004C7.60321 6.08575 7.67269 6.15522 7.75839 6.15522Z" fill="#FFE15A"/>
<path d="M6.51715 4.91386C6.60285 4.91386 6.67233 4.84438 6.67233 4.75868C6.67233 4.67298 6.60285 4.6035 6.51715 4.6035C6.43145 4.6035 6.36197 4.67298 6.36197 4.75868C6.36197 4.84438 6.43145 4.91386 6.51715 4.91386Z" fill="#FFE15A"/>
<path d="M7.44876 7.29956C7.53446 7.29956 7.60394 7.23008 7.60394 7.14438C7.60394 7.05867 7.53446 6.9892 7.44876 6.9892C7.36306 6.9892 7.29358 7.05867 7.29358 7.14438C7.29358 7.23008 7.36306 7.29956 7.44876 7.29956Z" fill="#FFE15A"/>
<path d="M5.60379 7.29956C5.68949 7.29956 5.75897 7.23008 5.75897 7.14438C5.75897 7.05867 5.68949 6.9892 5.60379 6.9892C5.51808 6.9892 5.44861 7.05867 5.44861 7.14438C5.44861 7.23008 5.51808 7.29956 5.60379 7.29956Z" fill="#FFE15A"/>
<path d="M6.72023 5.92133V6.18858C6.72023 6.29911 6.6303 6.38904 6.51977 6.38904C6.40924 6.38904 6.31931 6.29911 6.31931 6.18858V5.92133H6.72023Z" fill="#41479B"/>
<path d="M6.72023 5.28773V5.55499C6.72023 5.66552 6.6303 5.75545 6.51977 5.75545C6.40924 5.75545 6.31931 5.66552 6.31931 5.55499V5.28773H6.72023Z" fill="#41479B"/>
<path d="M6.72023 6.56142V6.82867C6.72023 6.9392 6.6303 7.02913 6.51977 7.02913C6.40924 7.02913 6.31931 6.9392 6.31931 6.82867V6.56142H6.72023Z" fill="#41479B"/>
<path d="M7.26017 5.92133V6.18858C7.26017 6.29911 7.17024 6.38904 7.05971 6.38904C6.94918 6.38904 6.85925 6.29911 6.85925 6.18858V5.92133H7.26017Z" fill="#41479B"/>
<path d="M6.18034 5.92133V6.18858C6.18034 6.29911 6.09041 6.38904 5.97988 6.38904C5.86935 6.38904 5.77942 6.29911 5.77942 6.18858V5.92133H6.18034Z" fill="#41479B"/>
</svg>
