<svg width="18" height="12" viewBox="0 0 18 12" fill="none" xmlns="http://www.w3.org/2000/svg">
<g clip-path="url(#clip0_103_174)">
<path d="M17.6897 11.8966H0.310481C0.139094 11.8966 0.00012207 11.7576 0.00012207 11.5862V0.413844C0.00012207 0.242457 0.139094 0.103485 0.310481 0.103485H17.6898C17.8612 0.103485 18.0001 0.242457 18.0001 0.413844V11.5862C18.0001 11.7577 17.8611 11.8966 17.6897 11.8966Z" fill="#FF4B55"/>
<path d="M2.98846 1.94769L3.28433 2.83483L4.21948 2.84207C4.34056 2.84298 4.39076 2.99753 4.29335 3.06942L3.54108 3.62493L3.82313 4.51656C3.85963 4.63201 3.72821 4.72746 3.6297 4.65708L2.86892 4.11324L2.10814 4.65704C2.00964 4.72746 1.87822 4.63194 1.91472 4.51652L2.19677 3.62489L1.4445 3.06942C1.34708 2.99749 1.39729 2.84298 1.51836 2.84207L2.45352 2.83483L2.74939 1.94769C2.78771 1.8328 2.95017 1.8328 2.98846 1.94769Z" fill="#FFE15A"/>
<path d="M6.38423 2.1663L6.5964 2.45564L6.93879 2.34855C6.98312 2.3347 7.01957 2.38525 6.99243 2.42291L6.78283 2.71404L6.99046 3.00657C7.01736 3.04443 6.98055 3.09474 6.93632 3.08057L6.59464 2.9712L6.38058 3.2591C6.35287 3.29636 6.29363 3.27689 6.29346 3.23048L6.29188 2.87171L5.95192 2.75707C5.90794 2.7422 5.90811 2.6799 5.95223 2.66534L6.2929 2.55298L6.2969 2.19425C6.2974 2.14788 6.35677 2.12886 6.38423 2.1663Z" fill="#FFE15A"/>
<path d="M5.09254 1.30392L5.4492 1.34267L5.60136 1.01779C5.62108 0.975742 5.68296 0.982949 5.69245 1.02841L5.76579 1.37955L6.12178 1.42384C6.16787 1.42957 6.18014 1.49067 6.13981 1.51377L5.8285 1.69201L5.89639 2.04428C5.90518 2.08991 5.85086 2.12043 5.81645 2.08924L5.5507 1.84825L5.23668 2.02164C5.19604 2.0441 5.15017 2.00185 5.16922 1.95948L5.31628 1.63225L5.05429 1.38714C5.0204 1.35557 5.04638 1.29893 5.09254 1.30392Z" fill="#FFE15A"/>
<path d="M5.65637 4.78063L5.44421 5.06996L5.10182 4.96288C5.05749 4.94903 5.02103 4.99958 5.04817 5.03723L5.25777 5.32836L5.05014 5.6209C5.02325 5.65876 5.06005 5.70907 5.10428 5.6949L5.44596 5.58553L5.66003 5.87342C5.68773 5.91069 5.74697 5.89121 5.74715 5.8448L5.74873 5.48604L6.08869 5.37139C6.1327 5.35652 6.13249 5.29422 6.08837 5.27967L5.74771 5.16731L5.7437 4.80858C5.74314 4.76224 5.68383 4.74315 5.65637 4.78063Z" fill="#FFE15A"/>
<path d="M6.94805 3.97025L6.59139 4.00899L6.43923 3.68411C6.41951 3.64206 6.35763 3.64927 6.34814 3.69473L6.27477 4.04587L5.91878 4.09016C5.87269 4.09589 5.86042 4.157 5.90074 4.18009L6.21205 4.35834L6.14417 4.7106C6.13538 4.75623 6.18969 4.78675 6.22411 4.75556L6.48986 4.51457L6.80387 4.68796C6.84451 4.71042 6.89039 4.66817 6.87134 4.6258L6.72428 4.29857L6.98626 4.05346C7.02026 4.02189 6.99428 3.96525 6.94805 3.97025Z" fill="#FFE15A"/>
</g>
<defs>
<clipPath id="clip0_103_174">
<rect width="18.0001" height="12" fill="white"/>
</clipPath>
</defs>
</svg>
