<svg width="24" height="24" viewBox="0 0 24 24" fill="none" xmlns="http://www.w3.org/2000/svg">
<path opacity="0.4" d="M18.2101 14.69H5.79011C4.13011 14.69 3.13011 13.38 3.57011 11.78L5.77011 3.7C6.02011 2.77 7.03011 2 7.99011 2H16.0101C16.9701 2 17.9801 2.77 18.2301 3.7L20.4301 11.78C20.8701 13.38 19.8701 14.69 18.2101 14.69Z" fill="#425A8B"/>
<path d="M16.75 21.25C16.75 21.66 16.41 22 16 22H8C7.59 22 7.25 21.66 7.25 21.25C7.25 20.84 7.59 20.5 8 20.5H11.25V14.69H12.75V20.5H16C16.41 20.5 16.75 20.84 16.75 21.25Z" fill="#425A8B"/>
</svg>
