<svg width="159" height="53" viewBox="0 0 159 53" fill="none" xmlns="http://www.w3.org/2000/svg">
<g clip-path="url(#clip0_123_2863)">
<path d="M14.3476 6.84518L13.0964 7.52393L16.5163 13.8279L17.7674 13.1492L14.3476 6.84518Z" fill="#FD9636"/>
<path d="M15.5699 3.12824C15.9055 3.74689 16.0502 4.45116 15.9855 5.152C15.9208 5.85284 15.6498 6.51877 15.2067 7.06558C14.7636 7.61239 14.1683 8.01552 13.496 8.22398C12.8238 8.43245 12.1048 8.4369 11.4301 8.23676C10.7553 8.03662 10.1551 7.64089 9.7052 7.0996C9.25535 6.55832 8.97611 5.89579 8.90279 5.1958C8.82948 4.49581 8.96538 3.78981 9.29331 3.16706C9.62124 2.54431 10.1265 2.03278 10.7451 1.69717C11.5758 1.25274 12.5483 1.15374 13.4515 1.42164C14.3547 1.68954 15.1159 2.30275 15.5699 3.12824Z" fill="#36BEF9"/>
<path d="M37.7374 6.84518L38.9885 7.52393L35.5687 13.8279L34.3175 13.1492L37.7374 6.84518Z" fill="#FD9636"/>
<path d="M36.515 3.12824C36.1794 3.74689 36.0348 4.45116 36.0995 5.152C36.1641 5.85284 36.4351 6.51877 36.8783 7.06558C37.3214 7.61239 37.9167 8.01552 38.5889 8.22398C39.2612 8.43245 39.9801 8.4369 40.6549 8.23676C41.3296 8.03662 41.9299 7.64089 42.3798 7.0996C42.8296 6.55832 43.1089 5.89579 43.1822 5.1958C43.2555 4.49581 43.1196 3.78981 42.7917 3.16706C42.4637 2.54431 41.9585 2.03278 41.3398 1.69717C40.5091 1.25274 39.5367 1.15374 38.6335 1.42164C37.7303 1.68954 36.9691 2.30275 36.515 3.12824Z" fill="#36BEF9"/>
<path d="M35.1177 44.1832H18.3213C17.7475 44.1832 17.1972 43.9552 16.7914 43.5495C16.3857 43.1437 16.1577 42.5934 16.1577 42.0196C16.1577 41.4457 16.3857 40.8954 16.7914 40.4897C17.1972 40.0839 17.7475 39.856 18.3213 39.856H35.1177C35.6915 39.856 36.2419 40.0839 36.6476 40.4897C37.0534 40.8954 37.2813 41.4457 37.2813 42.0196C37.2813 42.5934 37.0534 43.1437 36.6476 43.5495C36.2419 43.9552 35.6915 44.1832 35.1177 44.1832Z" fill="#FD9636"/>
<path d="M4.82721 33.8209C7.21706 33.8209 9.15441 31.8836 9.15441 29.4937C9.15441 27.1039 7.21706 25.1665 4.82721 25.1665C2.43736 25.1665 0.5 27.1039 0.5 29.4937C0.5 31.8836 2.43736 33.8209 4.82721 33.8209Z" fill="#36BEF9"/>
<path d="M48.5833 33.5358C50.9732 33.5358 52.9105 31.5984 52.9105 29.2086C52.9105 26.8187 50.9732 24.8813 48.5833 24.8813C46.1935 24.8813 44.2561 26.8187 44.2561 29.2086C44.2561 31.5984 46.1935 33.5358 48.5833 33.5358Z" fill="#36BEF9"/>
<path d="M27.246 9.96357C27.246 9.96357 44.868 9.75006 47.6579 25.0092C50.4478 40.2683 35.5446 40.496 31.2601 40.7949C29.31 40.923 25.1536 40.9373 21.4954 40.8661C13.3107 40.7237 7.617 39.158 5.66691 31.6138C5.43829 30.7329 5.29528 29.832 5.23988 28.9236C4.77015 20.6535 10.3073 9.49384 27.246 9.96357Z" fill="#36BEF9"/>
<path d="M14.4637 33.1512L40.0853 33.5498C40.7228 33.5592 41.3558 33.443 41.9483 33.2077C42.5409 32.9724 43.0812 32.6227 43.5386 32.1786C43.9959 31.7345 44.3613 31.2046 44.6138 30.6192C44.8664 30.0339 45.0011 29.4045 45.0104 28.7671C45.0217 28.1285 44.9069 27.4939 44.6724 26.8997C44.438 26.3056 44.0886 25.7635 43.6443 25.3047C43.2 24.8458 42.6695 24.4792 42.0832 24.2257C41.4969 23.9723 40.8663 23.8371 40.2277 23.8278L14.6061 23.4292C13.3174 23.4102 12.0737 23.903 11.1478 24.7996C10.2218 25.6961 9.68926 26.9233 9.66679 28.2119C9.65737 28.8513 9.77399 29.4862 10.01 30.0804C10.246 30.6746 10.5967 31.2165 11.0421 31.6752C11.4876 32.1339 12.019 32.5003 12.6061 32.7536C13.1932 33.0068 13.8244 33.1419 14.4637 33.1512Z" fill="#FD9636"/>
<path d="M34.7476 28.2404C34.856 28.6181 35.1026 28.9413 35.4383 29.1457C35.774 29.3501 36.1743 29.4208 36.5596 29.3437C36.945 29.2666 37.2873 29.0474 37.5186 28.7296C37.7499 28.4118 37.8531 28.0187 37.808 27.6283C37.7688 27.4283 37.6906 27.2379 37.5778 27.0681C37.465 26.8983 37.3198 26.7524 37.1506 26.6387C36.9814 26.525 36.7915 26.4458 36.5916 26.4055C36.3918 26.3653 36.186 26.3648 35.986 26.4042C35.7841 26.4434 35.5919 26.522 35.4204 26.6355C35.2489 26.749 35.1014 26.8952 34.9864 27.0657C34.8714 27.2362 34.7911 27.4277 34.7501 27.6293C34.7092 27.8308 34.7083 28.0385 34.7476 28.2404Z" fill="#425A8B"/>
<path d="M16.8694 27.9419C16.9266 28.2474 17.0734 28.529 17.2912 28.7507C17.509 28.9725 17.7879 29.1245 18.0923 29.1872C18.3968 29.2499 18.713 29.2206 19.0007 29.103C19.2885 28.9855 19.5347 28.7849 19.708 28.5269C19.8814 28.2689 19.974 27.9651 19.9741 27.6543C19.9743 27.3434 19.8819 27.0396 19.7087 26.7814C19.5356 26.5233 19.2895 26.3225 19.0018 26.2047C18.7142 26.0869 18.398 26.0574 18.0935 26.1199C17.8926 26.1573 17.7011 26.2344 17.5303 26.3467C17.3596 26.459 17.2129 26.6042 17.0989 26.7739C16.9849 26.9435 16.9059 27.1342 16.8665 27.3347C16.8271 27.5353 16.8281 27.7417 16.8694 27.9419Z" fill="#425A8B"/>
<path d="M30.4604 27.8601C30.4604 27.8601 30.5604 27.9863 30.5734 28.2457C30.5893 28.6122 30.5175 28.9773 30.3641 29.3105C30.1448 29.8284 29.7963 30.2814 29.3519 30.6262C28.7992 31.0482 28.1233 31.277 27.428 31.2775C26.731 31.2494 26.0643 30.9852 25.5373 30.5283C25.1119 30.1746 24.7848 29.7172 24.5878 29.2003C24.451 28.8629 24.3951 28.4982 24.4245 28.1353C24.4556 27.8667 24.4704 27.7394 24.5552 27.7492C24.6401 27.7591 24.6344 28.3029 25.0256 29.0074C25.2466 29.4132 25.5528 29.7664 25.9231 30.0428C26.3562 30.3826 26.8844 30.579 27.4343 30.6047C27.9664 30.585 28.4824 30.4164 28.9236 30.1181C29.3126 29.8592 29.637 29.5144 29.8714 29.1102C30.3541 28.4066 30.3598 27.8627 30.4604 27.8601Z" fill="#425A8B"/>
<path d="M47.6152 24.4546C47.6749 24.5729 47.7225 24.6969 47.7576 24.8247C47.7576 24.9528 47.843 25.1094 47.8857 25.2802C47.9497 25.481 48.0019 25.6854 48.0423 25.8922C48.1447 26.4238 48.216 26.9609 48.2558 27.5007C48.3053 28.1641 48.3053 28.8302 48.2558 29.4935C48.1907 30.1549 48.0813 30.8111 47.9284 31.4578C47.8148 31.9855 47.6626 32.5041 47.4729 33.0094C47.4017 33.2229 47.3021 33.4079 47.2309 33.5787L47.0174 34.0058L46.8181 34.3474C46.8525 34.2172 46.9053 34.0926 46.9747 33.9773C46.9747 33.8634 47.0886 33.7211 47.1597 33.5503C47.2309 33.3795 47.3163 33.1944 47.3875 32.9667C47.5725 32.4633 47.7293 31.9501 47.8572 31.4294C48.009 30.7872 48.1184 30.1358 48.1846 29.4793C48.2266 28.8252 48.2266 28.169 48.1846 27.5149C48.149 26.9754 48.0824 26.4384 47.9853 25.9065C47.9539 25.7003 47.9111 25.4959 47.8572 25.2944C47.8311 25.1399 47.793 24.9876 47.7433 24.8389C47.6437 24.5969 47.6152 24.4546 47.6152 24.4546Z" fill="#FFB800"/>
<path d="M5.86638 24.5542C5.8132 24.6737 5.77034 24.7975 5.73827 24.9243C5.6827 25.0735 5.63518 25.2255 5.59593 25.3798C5.59593 25.5506 5.49629 25.7499 5.45359 25.9919C5.34478 26.5228 5.26872 27.06 5.22584 27.6003C5.17667 28.2637 5.17667 28.9298 5.22584 29.5931C5.28512 30.2552 5.39456 30.9119 5.55323 31.5574C5.68963 32.079 5.85597 32.5923 6.05143 33.0947C6.13683 33.3225 6.23647 33.5075 6.30764 33.6783C6.36999 33.8203 6.44131 33.9582 6.52116 34.0911C6.57395 34.2169 6.6408 34.3363 6.72044 34.447C6.68899 34.3158 6.63608 34.1908 6.56386 34.0769L6.37881 33.6356C6.30764 33.4648 6.22224 33.2798 6.15107 33.0663C5.96084 32.5634 5.79926 32.0501 5.6671 31.529C5.5272 30.8851 5.42266 30.2341 5.35395 29.5789C5.31182 28.92 5.31182 28.2592 5.35395 27.6003C5.39031 27.0656 5.45684 26.5333 5.55323 26.0061C5.55323 25.7783 5.63863 25.5791 5.6671 25.394L5.78098 24.9385C5.82886 24.8155 5.85766 24.6859 5.86638 24.5542Z" fill="#FFB800"/>
</g>
<path d="M77.2953 40.9142V44.811H64.3892V40.9142H77.2953ZM66.0212 20.5641V44.811H61.0253V20.5641H66.0212ZM75.6134 30.4394V34.2363H64.3892V30.4394H75.6134ZM77.2787 20.5641V24.4776H64.3892V20.5641H77.2787ZM87.0208 41.3971C87.6092 41.3971 88.131 41.2861 88.5861 41.0641C89.0413 40.8309 89.3966 40.509 89.6519 40.0982C89.9184 39.6763 90.0572 39.1823 90.0683 38.6161H94.5813C94.5702 39.8817 94.2316 41.0086 93.5654 41.9967C92.8993 42.9736 92.0056 43.7452 90.8843 44.3114C89.763 44.8665 88.5084 45.1441 87.1207 45.1441C85.7218 45.1441 84.5006 44.911 83.457 44.4447C82.4245 43.9784 81.5641 43.3345 80.8758 42.5129C80.1874 41.6803 79.6712 40.7144 79.327 39.6153C78.9829 38.5051 78.8108 37.3171 78.8108 36.0515V35.5686C78.8108 34.2918 78.9829 33.1039 79.327 32.0048C79.6712 30.8946 80.1874 29.9287 80.8758 29.1072C81.5641 28.2745 82.4245 27.625 83.457 27.1587C84.4895 26.6925 85.6996 26.4593 87.0874 26.4593C88.5639 26.4593 89.8573 26.7424 90.9675 27.3086C92.0889 27.8748 92.9659 28.6853 93.5987 29.74C94.2427 30.7836 94.5702 32.0214 94.5813 33.4536H90.0683C90.0572 32.8541 89.9295 32.3101 89.6853 31.8216C89.4521 31.3331 89.1079 30.9445 88.6528 30.6559C88.2087 30.3561 87.6591 30.2063 87.0041 30.2063C86.3047 30.2063 85.7329 30.3561 85.2888 30.6559C84.8448 30.9445 84.5006 31.3442 84.2563 31.8549C84.0121 32.3545 83.84 32.9263 83.7401 33.5702C83.6513 34.203 83.6069 34.8691 83.6069 35.5686V36.0515C83.6069 36.7509 83.6513 37.4226 83.7401 38.0665C83.8289 38.7104 83.9954 39.2822 84.2397 39.7818C84.495 40.2814 84.8448 40.6755 85.2888 40.9642C85.7329 41.2528 86.3102 41.3971 87.0208 41.3971ZM96.5963 35.9849V35.6352C96.5963 34.314 96.785 33.0983 97.1625 31.9881C97.54 30.8668 98.0895 29.8954 98.8112 29.0738C99.5328 28.2523 100.421 27.6139 101.476 27.1587C102.53 26.6925 103.74 26.4593 105.106 26.4593C106.472 26.4593 107.687 26.6925 108.753 27.1587C109.819 27.6139 110.713 28.2523 111.434 29.0738C112.167 29.8954 112.722 30.8668 113.1 31.9881C113.477 33.0983 113.666 34.314 113.666 35.6352V35.9849C113.666 37.2949 113.477 38.5106 113.1 39.6319C112.722 40.7421 112.167 41.7136 111.434 42.5462C110.713 43.3678 109.824 44.0061 108.77 44.4613C107.715 44.9165 106.505 45.1441 105.139 45.1441C103.774 45.1441 102.558 44.9165 101.492 44.4613C100.438 44.0061 99.5439 43.3678 98.8112 42.5462C98.0895 41.7136 97.54 40.7421 97.1625 39.6319C96.785 38.5106 96.5963 37.2949 96.5963 35.9849ZM101.392 35.6352V35.9849C101.392 36.7398 101.459 37.4448 101.592 38.0998C101.725 38.7549 101.936 39.3322 102.225 39.8318C102.525 40.3202 102.913 40.7033 103.391 40.9808C103.868 41.2584 104.451 41.3971 105.139 41.3971C105.805 41.3971 106.377 41.2584 106.855 40.9808C107.332 40.7033 107.715 40.3202 108.004 39.8318C108.292 39.3322 108.503 38.7549 108.636 38.0998C108.781 37.4448 108.853 36.7398 108.853 35.9849V35.6352C108.853 34.9024 108.781 34.2141 108.636 33.5702C108.503 32.9152 108.287 32.3379 107.987 31.8383C107.698 31.3276 107.315 30.9279 106.838 30.6392C106.361 30.3506 105.783 30.2063 105.106 30.2063C104.429 30.2063 103.851 30.3506 103.374 30.6392C102.908 30.9279 102.525 31.3276 102.225 31.8383C101.936 32.3379 101.725 32.9152 101.592 33.5702C101.459 34.2141 101.392 34.9024 101.392 35.6352ZM121.409 30.5227V44.811H116.597V26.7924H121.11L121.409 30.5227ZM120.743 35.1689H119.411C119.411 33.9144 119.561 32.7597 119.861 31.705C120.172 30.6392 120.621 29.7178 121.21 28.9406C121.809 28.1524 122.547 27.5418 123.424 27.1088C124.302 26.6758 125.317 26.4593 126.472 26.4593C127.271 26.4593 128.004 26.5814 128.67 26.8257C129.336 27.0588 129.908 27.4307 130.385 27.9414C130.874 28.441 131.251 29.0961 131.518 29.9065C131.784 30.7059 131.918 31.6662 131.918 32.7875V44.811H127.121V33.3204C127.121 32.4988 127.01 31.866 126.788 31.4219C126.566 30.9779 126.25 30.667 125.839 30.4894C125.439 30.3117 124.957 30.2229 124.39 30.2229C123.769 30.2229 123.225 30.3506 122.758 30.6059C122.303 30.8613 121.926 31.2165 121.626 31.6717C121.326 32.1158 121.104 32.6376 120.96 33.2371C120.815 33.8366 120.743 34.4806 120.743 35.1689ZM131.468 34.6193L129.753 34.8358C129.753 33.659 129.897 32.5655 130.186 31.5552C130.485 30.5449 130.924 29.6567 131.501 28.8907C132.09 28.1246 132.817 27.5307 133.683 27.1088C134.549 26.6758 135.548 26.4593 136.68 26.4593C137.546 26.4593 138.335 26.587 139.045 26.8423C139.756 27.0866 140.361 27.4807 140.86 28.0247C141.371 28.5576 141.76 29.257 142.026 30.123C142.304 30.989 142.442 32.0492 142.442 33.3037V44.811H137.63V33.3037C137.63 32.4711 137.519 31.8383 137.296 31.4053C137.086 30.9612 136.775 30.6559 136.364 30.4894C135.964 30.3117 135.487 30.2229 134.932 30.2229C134.354 30.2229 133.849 30.3395 133.416 30.5726C132.983 30.7947 132.623 31.1055 132.334 31.5052C132.045 31.9049 131.829 32.3712 131.684 32.9041C131.54 33.4259 131.468 33.9976 131.468 34.6193Z" fill="#425A8B"/>
<path d="M150.199 19.6877H148.275L148.257 18.5064H149.903C150.178 18.5064 150.431 18.4676 150.664 18.39C150.897 18.3065 151.085 18.1872 151.228 18.032C151.371 17.8769 151.443 17.686 151.443 17.4593C151.443 17.161 151.392 16.9283 151.29 16.7612C151.195 16.5942 151.031 16.4719 150.798 16.3943C150.566 16.3168 150.252 16.278 149.859 16.278H148.677V22.7125H147.362V15.1056H149.859C150.449 15.1056 150.962 15.1951 151.398 15.3741C151.833 15.5471 152.167 15.8067 152.4 16.1527C152.639 16.4987 152.758 16.9283 152.758 17.4414C152.758 17.7636 152.681 18.0499 152.525 18.3005C152.376 18.5511 152.159 18.7659 151.872 18.9449C151.586 19.1239 151.231 19.27 150.807 19.3834C150.789 19.3834 150.768 19.4043 150.745 19.446C150.727 19.4818 150.709 19.4997 150.691 19.4997C150.589 19.5594 150.524 19.6041 150.494 19.634C150.47 19.6578 150.443 19.6728 150.413 19.6787C150.39 19.6847 150.318 19.6877 150.199 19.6877ZM150.109 19.6877L150.297 18.7301C151.228 18.7301 151.863 18.9389 152.203 19.3565C152.549 19.7742 152.722 20.2992 152.722 20.9316V21.4328C152.722 21.6535 152.734 21.8653 152.758 22.0682C152.782 22.2651 152.821 22.4321 152.874 22.5694V22.7125H151.523C151.463 22.5574 151.428 22.3367 151.416 22.0503C151.41 21.7639 151.407 21.5551 151.407 21.4238V20.9406C151.407 20.517 151.308 20.2038 151.111 20.0009C150.915 19.7921 150.58 19.6877 150.109 19.6877ZM144.695 19.0165C144.695 19.804 144.832 20.5379 145.106 21.218C145.381 21.8982 145.76 22.4948 146.243 23.0079C146.726 23.515 147.287 23.9118 147.925 24.1981C148.564 24.4785 149.25 24.6187 149.984 24.6187C150.712 24.6187 151.392 24.4785 152.024 24.1981C152.663 23.9118 153.223 23.515 153.707 23.0079C154.19 22.4948 154.569 21.8982 154.843 21.218C155.118 20.5379 155.255 19.804 155.255 19.0165C155.255 18.223 155.118 17.4891 154.843 16.8149C154.569 16.1348 154.19 15.5412 153.707 15.034C153.223 14.5269 152.663 14.1331 152.024 13.8527C151.392 13.5723 150.712 13.4321 149.984 13.4321C149.25 13.4321 148.564 13.5723 147.925 13.8527C147.287 14.1331 146.726 14.5269 146.243 15.034C145.76 15.5412 145.381 16.1348 145.106 16.8149C144.832 17.4891 144.695 18.223 144.695 19.0165ZM143.63 19.0165C143.63 18.0678 143.794 17.1878 144.122 16.3764C144.45 15.565 144.907 14.858 145.491 14.2554C146.076 13.6469 146.75 13.1756 147.514 12.8414C148.283 12.5014 149.107 12.3313 149.984 12.3313C150.861 12.3313 151.681 12.5014 152.445 12.8414C153.215 13.1756 153.889 13.6469 154.467 14.2554C155.052 14.858 155.509 15.565 155.837 16.3764C156.165 17.1878 156.329 18.0678 156.329 19.0165C156.329 19.9651 156.165 20.8451 155.837 21.6565C155.509 22.4679 155.052 23.1779 154.467 23.7865C153.889 24.395 153.215 24.8693 152.445 25.2094C151.681 25.5495 150.861 25.7195 149.984 25.7195C149.107 25.7195 148.283 25.5495 147.514 25.2094C146.75 24.8693 146.076 24.395 145.491 23.7865C144.907 23.1779 144.45 22.4679 144.122 21.6565C143.794 20.8451 143.63 19.9651 143.63 19.0165Z" fill="#4C6290"/>
<defs>
<clipPath id="clip0_123_2863">
<rect width="52.6667" height="44.1261" fill="white" transform="translate(0.5)"/>
</clipPath>
</defs>
</svg>
