<svg width="111" height="37" viewBox="0 0 111 37" fill="none" xmlns="http://www.w3.org/2000/svg">
<g clip-path="url(#clip0_111_997)">
<path d="M9.72835 4.80874L8.84937 5.28558L11.2519 9.71433L12.1309 9.23749L9.72835 4.80874Z" fill="#FD9636"/>
<path d="M10.5871 2.19748C10.8228 2.6321 10.9244 3.12688 10.879 3.61924C10.8336 4.1116 10.6432 4.57944 10.3319 4.96359C10.0206 5.34774 9.60234 5.63095 9.13007 5.7774C8.6578 5.92386 8.15272 5.92698 7.67867 5.78638C7.20463 5.64577 6.78293 5.36776 6.4669 4.98749C6.15086 4.60722 5.95469 4.14177 5.90318 3.65001C5.85167 3.15825 5.94715 2.66225 6.17753 2.22475C6.40791 1.78725 6.76286 1.42789 7.19747 1.19211C7.78107 0.879883 8.46423 0.81033 9.09878 0.99854C9.73332 1.18675 10.2681 1.61755 10.5871 2.19748Z" fill="#36BEF9"/>
<path d="M26.1603 4.80874L27.0393 5.28558L24.6368 9.71433L23.7578 9.23749L26.1603 4.80874Z" fill="#FD9636"/>
<path d="M25.3016 2.19748C25.0658 2.6321 24.9642 3.12688 25.0097 3.61924C25.0551 4.1116 25.2455 4.57944 25.5568 4.96359C25.8681 5.34774 26.2863 5.63095 26.7586 5.7774C27.2309 5.92386 27.736 5.92698 28.21 5.78638C28.684 5.64577 29.1057 5.36776 29.4218 4.98749C29.7378 4.60722 29.934 4.14177 29.9855 3.65001C30.037 3.15825 29.9415 2.66225 29.7111 2.22475C29.4808 1.78725 29.1258 1.42789 28.6912 1.19211C28.1076 0.879883 27.4244 0.81033 26.7899 0.99854C26.1553 1.18675 25.6206 1.61755 25.3016 2.19748Z" fill="#36BEF9"/>
<path d="M24.32 31.04H12.52C12.1169 31.04 11.7303 30.8799 11.4452 30.5948C11.1601 30.3097 11 29.9231 11 29.52C11 29.1169 11.1601 28.7303 11.4452 28.4452C11.7303 28.1601 12.1169 28 12.52 28H24.32C24.7231 28 25.1097 28.1601 25.3948 28.4452C25.6799 28.7303 25.84 29.1169 25.84 29.52C25.84 29.9231 25.6799 30.3097 25.3948 30.5948C25.1097 30.8799 24.7231 31.04 24.32 31.04Z" fill="#FD9636"/>
<path d="M3.04 23.76C4.71895 23.76 6.08 22.399 6.08 20.72C6.08 19.0411 4.71895 17.68 3.04 17.68C1.36105 17.68 0 19.0411 0 20.72C0 22.399 1.36105 23.76 3.04 23.76Z" fill="#36BEF9"/>
<path d="M33.78 23.56C35.4589 23.56 36.82 22.199 36.82 20.52C36.82 18.8411 35.4589 17.48 33.78 17.48C32.101 17.48 30.74 18.8411 30.74 20.52C30.74 22.199 32.101 23.56 33.78 23.56Z" fill="#36BEF9"/>
<path d="M18.7899 7.00001C18.7899 7.00001 31.1699 6.85001 33.1299 17.57C35.0899 28.29 24.6199 28.45 21.6099 28.66C20.2399 28.75 17.3199 28.76 14.7499 28.71C8.99992 28.61 4.99992 27.51 3.62992 22.21C3.46931 21.5911 3.36884 20.9582 3.32992 20.32C2.99992 14.51 6.88993 6.67001 18.7899 7.00001Z" fill="#36BEF9"/>
<path d="M9.81007 23.29L27.8101 23.57C28.2579 23.5766 28.7026 23.495 29.1189 23.3297C29.5351 23.1644 29.9148 22.9187 30.2361 22.6067C30.5574 22.2947 30.814 21.9224 30.9915 21.5112C31.1689 21.1 31.2636 20.6578 31.2701 20.21C31.278 19.7614 31.1973 19.3155 31.0326 18.8981C30.868 18.4807 30.6225 18.0999 30.3104 17.7776C29.9982 17.4552 29.6255 17.1976 29.2136 17.0196C28.8017 16.8415 28.3587 16.7465 27.9101 16.74L9.91007 16.46C9.0047 16.4466 8.13099 16.7928 7.4805 17.4227C6.83001 18.0526 6.45585 18.9147 6.44007 19.82C6.43345 20.2691 6.51538 20.7152 6.68117 21.1327C6.84695 21.5501 7.09336 21.9308 7.4063 22.2531C7.71924 22.5753 8.0926 22.8327 8.50504 23.0106C8.91748 23.1886 9.36093 23.2835 9.81007 23.29Z" fill="#FD9636"/>
<path d="M24.0601 19.84C24.1362 20.1054 24.3095 20.3324 24.5453 20.476C24.7811 20.6196 25.0623 20.6693 25.3331 20.6151C25.6038 20.561 25.8443 20.407 26.0068 20.1837C26.1692 19.9605 26.2418 19.6843 26.2101 19.41C26.1825 19.2695 26.1276 19.1357 26.0483 19.0164C25.9691 18.8971 25.8671 18.7946 25.7483 18.7148C25.6294 18.6349 25.496 18.5792 25.3556 18.551C25.2152 18.5227 25.0706 18.5224 24.9301 18.55C24.7882 18.5776 24.6532 18.6328 24.5327 18.7125C24.4122 18.7923 24.3086 18.895 24.2278 19.0148C24.147 19.1346 24.0906 19.2691 24.0618 19.4107C24.0331 19.5523 24.0325 19.6982 24.0601 19.84Z" fill="#425A8B"/>
<path d="M11.5001 19.63C11.5403 19.8447 11.6434 20.0425 11.7964 20.1983C11.9494 20.3541 12.1454 20.4608 12.3592 20.5049C12.5731 20.549 12.7953 20.5284 12.9974 20.4458C13.1996 20.3632 13.3725 20.2223 13.4943 20.041C13.6161 19.8597 13.6812 19.6463 13.6813 19.428C13.6814 19.2096 13.6164 18.9961 13.4948 18.8148C13.3731 18.6334 13.2003 18.4924 12.9982 18.4096C12.7961 18.3269 12.574 18.3061 12.3601 18.35C12.2189 18.3763 12.0844 18.4305 11.9644 18.5094C11.8444 18.5883 11.7414 18.6903 11.6613 18.8095C11.5813 18.9286 11.5257 19.0626 11.4981 19.2035C11.4704 19.3444 11.471 19.4894 11.5001 19.63Z" fill="#425A8B"/>
<path d="M21.0482 19.5723C21.0482 19.5723 21.1184 19.661 21.1275 19.8433C21.1387 20.1008 21.0883 20.3572 20.9805 20.5913C20.8264 20.9552 20.5816 21.2734 20.2694 21.5156C19.8811 21.8121 19.4063 21.9728 18.9178 21.9732C18.4281 21.9535 17.9597 21.7679 17.5895 21.4468C17.2906 21.1984 17.0609 20.877 16.9224 20.5139C16.8264 20.2768 16.7871 20.0206 16.8077 19.7657C16.8296 19.577 16.84 19.4876 16.8996 19.4945C16.9592 19.5014 16.9552 19.8835 17.2301 20.3784C17.3853 20.6635 17.6004 20.9116 17.8606 21.1057C18.1648 21.3445 18.5359 21.4825 18.9222 21.5005C19.2961 21.4867 19.6585 21.3682 19.9685 21.1586C20.2418 20.9768 20.4696 20.7345 20.6344 20.4506C20.9735 19.9563 20.9775 19.5742 21.0482 19.5723Z" fill="#425A8B"/>
<path d="M33.1 17.18C33.1419 17.2631 33.1754 17.3502 33.2 17.44C33.2 17.53 33.26 17.64 33.29 17.76C33.335 17.9011 33.3717 18.0447 33.4 18.19C33.472 18.5634 33.5221 18.9408 33.55 19.32C33.5848 19.786 33.5848 20.254 33.55 20.72C33.5043 21.1846 33.4275 21.6457 33.32 22.1C33.2402 22.4707 33.1333 22.835 33 23.19C32.95 23.34 32.88 23.47 32.83 23.59L32.68 23.89L32.54 24.13C32.5642 24.0386 32.6013 23.9511 32.65 23.87C32.65 23.79 32.73 23.69 32.78 23.57C32.83 23.45 32.89 23.32 32.94 23.16C33.07 22.8064 33.1802 22.4459 33.27 22.08C33.3767 21.6289 33.4535 21.1712 33.5 20.71C33.5296 20.2505 33.5296 19.7895 33.5 19.33C33.475 18.951 33.4283 18.5737 33.36 18.2C33.3379 18.0551 33.3079 17.9116 33.27 17.77C33.2517 17.6614 33.2249 17.5545 33.19 17.45C33.12 17.28 33.1 17.18 33.1 17.18Z" fill="#FFB800"/>
<path d="M3.7701 17.25C3.73273 17.334 3.70262 17.4209 3.6801 17.51C3.64105 17.6148 3.60767 17.7216 3.5801 17.83C3.5801 17.95 3.5101 18.09 3.4801 18.26C3.40365 18.633 3.35022 19.0104 3.3201 19.39C3.28555 19.856 3.28555 20.324 3.3201 20.79C3.36174 21.2552 3.43863 21.7165 3.5501 22.17C3.64592 22.5364 3.76278 22.897 3.9001 23.25C3.9601 23.41 4.0301 23.54 4.0801 23.66C4.1239 23.7598 4.174 23.8566 4.2301 23.95C4.26718 24.0384 4.31415 24.1222 4.3701 24.2C4.348 24.1079 4.31083 24.02 4.2601 23.94L4.1301 23.63C4.0801 23.51 4.0201 23.38 3.9701 23.23C3.83646 22.8767 3.72294 22.5161 3.6301 22.15C3.53181 21.6977 3.45837 21.2404 3.4101 20.78C3.3805 20.3172 3.3805 19.8529 3.4101 19.39C3.43564 19.0143 3.48238 18.6404 3.5501 18.27C3.5501 18.11 3.6101 17.97 3.6301 17.84L3.7101 17.52C3.74374 17.4336 3.76397 17.3425 3.7701 17.25Z" fill="#FFB800"/>
</g>
<path d="M53.9512 28.2624V31H44.8842V28.2624H53.9512ZM46.0307 13.9658V31H42.5209V13.9658H46.0307ZM52.7695 20.9035V23.5709H44.8842V20.9035H52.7695ZM53.9395 13.9658V16.7151H44.8842V13.9658H53.9395ZM60.7836 28.6016C61.197 28.6016 61.5635 28.5236 61.8833 28.3676C62.2031 28.2039 62.4527 27.9777 62.6321 27.6891C62.8193 27.3927 62.9168 27.0456 62.9246 26.6478H66.0951C66.0873 27.537 65.8494 28.3287 65.3814 29.0228C64.9134 29.7092 64.2856 30.2512 63.4978 30.649C62.7101 31.039 61.8287 31.234 60.8538 31.234C59.871 31.234 59.0131 31.0702 58.2799 30.7426C57.5546 30.415 56.9501 29.9627 56.4665 29.3855C55.9829 28.8005 55.6203 28.122 55.3785 27.3498C55.1367 26.5699 55.0158 25.7353 55.0158 24.8461V24.5069C55.0158 23.6099 55.1367 22.7754 55.3785 22.0032C55.6203 21.2233 55.9829 20.5447 56.4665 19.9675C56.9501 19.3826 57.5546 18.9263 58.2799 18.5987C59.0053 18.2711 59.8554 18.1073 60.8304 18.1073C61.8677 18.1073 62.7764 18.3062 63.5563 18.704C64.3441 19.1018 64.9602 19.6711 65.4048 20.4121C65.8572 21.1453 66.0873 22.0149 66.0951 23.0211H62.9246C62.9168 22.5999 62.8271 22.2177 62.6555 21.8745C62.4917 21.5313 62.2499 21.2584 61.9301 21.0556C61.6181 20.845 61.2321 20.7397 60.7719 20.7397C60.2805 20.7397 59.8788 20.845 59.5668 21.0556C59.2549 21.2584 59.0131 21.5391 58.8415 21.8979C58.6699 22.2489 58.549 22.6506 58.4788 23.1029C58.4164 23.5475 58.3852 24.0155 58.3852 24.5069V24.8461C58.3852 25.3375 58.4164 25.8094 58.4788 26.2618C58.5412 26.7141 58.6582 27.1158 58.8298 27.4668C59.0092 27.8178 59.2549 28.0947 59.5668 28.2975C59.8788 28.5002 60.2844 28.6016 60.7836 28.6016ZM67.5107 24.7994V24.5537C67.5107 23.6255 67.6433 22.7715 67.9085 21.9915C68.1737 21.2038 68.5597 20.5213 69.0667 19.9441C69.5737 19.367 70.1976 18.9185 70.9386 18.5987C71.6796 18.2711 72.5297 18.1073 73.4891 18.1073C74.4484 18.1073 75.3025 18.2711 76.0512 18.5987C76.8 18.9185 77.4278 19.367 77.9348 19.9441C78.4496 20.5213 78.8395 21.2038 79.1047 21.9915C79.3699 22.7715 79.5025 23.6255 79.5025 24.5537V24.7994C79.5025 25.7197 79.3699 26.5738 79.1047 27.3615C78.8395 28.1415 78.4496 28.8239 77.9348 29.4089C77.4278 29.9861 76.8039 30.4345 76.0629 30.7543C75.3219 31.0741 74.4718 31.234 73.5125 31.234C72.5531 31.234 71.6991 31.0741 70.9503 30.7543C70.2093 30.4345 69.5815 29.9861 69.0667 29.4089C68.5597 28.8239 68.1737 28.1415 67.9085 27.3615C67.6433 26.5738 67.5107 25.7197 67.5107 24.7994ZM70.8801 24.5537V24.7994C70.8801 25.3297 70.9269 25.825 71.0205 26.2852C71.1141 26.7453 71.2623 27.1509 71.4651 27.5019C71.6757 27.8451 71.9486 28.1142 72.284 28.3092C72.6194 28.5041 73.0289 28.6016 73.5125 28.6016C73.9804 28.6016 74.3821 28.5041 74.7175 28.3092C75.0529 28.1142 75.3219 27.8451 75.5247 27.5019C75.7275 27.1509 75.8757 26.7453 75.9693 26.2852C76.0707 25.825 76.1214 25.3297 76.1214 24.7994V24.5537C76.1214 24.0389 76.0707 23.5553 75.9693 23.1029C75.8757 22.6428 75.7236 22.2372 75.513 21.8862C75.3103 21.5274 75.0412 21.2467 74.7058 21.0439C74.3704 20.8411 73.9648 20.7397 73.4891 20.7397C73.0133 20.7397 72.6077 20.8411 72.2723 21.0439C71.9447 21.2467 71.6757 21.5274 71.4651 21.8862C71.2623 22.2372 71.1141 22.6428 71.0205 23.1029C70.9269 23.5553 70.8801 24.0389 70.8801 24.5537ZM84.9427 20.962V31H81.5616V18.3413H84.7321L84.9427 20.962ZM84.4747 24.2261H83.5388C83.5388 23.3447 83.6441 22.5336 83.8547 21.7926C84.0731 21.0439 84.3889 20.3965 84.8023 19.8505C85.2235 19.2968 85.7422 18.8678 86.3583 18.5636C86.9745 18.2594 87.6881 18.1073 88.4993 18.1073C89.0609 18.1073 89.5756 18.1931 90.0436 18.3647C90.5116 18.5285 90.9133 18.7898 91.2486 19.1486C91.5918 19.4996 91.857 19.9597 92.0442 20.5291C92.2314 21.0907 92.325 21.7653 92.325 22.5531V31H88.9556V22.9275C88.9556 22.3503 88.8776 21.9057 88.7216 21.5937C88.5656 21.2818 88.3433 21.0634 88.0547 20.9386C87.7739 20.8138 87.4347 20.7514 87.0369 20.7514C86.6001 20.7514 86.2179 20.8411 85.8904 21.0205C85.5706 21.1999 85.3054 21.4494 85.0948 21.7692C84.8842 22.0812 84.7282 22.4478 84.6268 22.869C84.5254 23.2901 84.4747 23.7425 84.4747 24.2261ZM92.0091 23.84L90.8041 23.9921C90.8041 23.1653 90.9055 22.3971 91.1083 21.6873C91.3188 20.9776 91.6269 20.3536 92.0325 19.8154C92.4459 19.2773 92.9567 18.86 93.5651 18.5636C94.1735 18.2594 94.8754 18.1073 95.671 18.1073C96.2794 18.1073 96.8331 18.197 97.3323 18.3764C97.8315 18.548 98.2565 18.8249 98.6075 19.2071C98.9663 19.5814 99.2393 20.0728 99.4265 20.6812C99.6215 21.2896 99.719 22.0344 99.719 22.9158V31H96.3379V22.9158C96.3379 22.3308 96.2599 21.8862 96.1039 21.582C95.9557 21.2701 95.7373 21.0556 95.4487 20.9386C95.1679 20.8138 94.8325 20.7514 94.4426 20.7514C94.037 20.7514 93.6821 20.8333 93.3779 20.9971C93.0737 21.1531 92.8203 21.3714 92.6175 21.6522C92.4147 21.933 92.2626 22.2606 92.1612 22.635C92.0598 23.0016 92.0091 23.4032 92.0091 23.84Z" fill="#425A8B"/>
<path d="M105.168 13.8882H103.816L103.804 13.0583H104.961C105.153 13.0583 105.332 13.031 105.495 12.9765C105.658 12.9179 105.79 12.834 105.891 12.7251C105.992 12.6161 106.042 12.482 106.042 12.3227C106.042 12.1131 106.006 11.9496 105.935 11.8323C105.868 11.7149 105.753 11.629 105.589 11.5745C105.426 11.52 105.206 11.4928 104.929 11.4928H104.099V16.0133H103.175V10.6691H104.929C105.344 10.6691 105.705 10.732 106.011 10.8578C106.317 10.9793 106.551 11.1616 106.715 11.4047C106.882 11.6479 106.966 11.9496 106.966 12.3101C106.966 12.5364 106.912 12.7376 106.803 12.9137C106.698 13.0897 106.545 13.2406 106.344 13.3663C106.143 13.4921 105.893 13.5948 105.596 13.6744C105.583 13.6744 105.568 13.6891 105.552 13.7184C105.539 13.7436 105.526 13.7562 105.514 13.7562C105.443 13.7981 105.396 13.8295 105.376 13.8505C105.359 13.8672 105.34 13.8777 105.319 13.8819C105.302 13.8861 105.252 13.8882 105.168 13.8882ZM105.105 13.8882L105.237 13.2155C105.891 13.2155 106.337 13.3622 106.576 13.6556C106.819 13.949 106.941 14.3178 106.941 14.7621V15.1142C106.941 15.2693 106.949 15.4181 106.966 15.5606C106.983 15.6989 107.01 15.8163 107.048 15.9127V16.0133H106.099C106.057 15.9043 106.032 15.7492 106.023 15.548C106.019 15.3468 106.017 15.2001 106.017 15.1079V14.7684C106.017 14.4708 105.948 14.2507 105.809 14.1082C105.671 13.9615 105.436 13.8882 105.105 13.8882ZM101.301 13.4166C101.301 13.9699 101.398 14.4855 101.591 14.9633C101.783 15.4411 102.05 15.8603 102.389 16.2207C102.729 16.577 103.123 16.8557 103.571 17.0569C104.02 17.2539 104.502 17.3524 105.017 17.3524C105.529 17.3524 106.006 17.2539 106.451 17.0569C106.899 16.8557 107.293 16.577 107.633 16.2207C107.972 15.8603 108.238 15.4411 108.431 14.9633C108.624 14.4855 108.72 13.9699 108.72 13.4166C108.72 12.8592 108.624 12.3436 108.431 11.87C108.238 11.3922 107.972 10.9751 107.633 10.6189C107.293 10.2626 106.899 9.98594 106.451 9.78894C106.006 9.59194 105.529 9.49345 105.017 9.49345C104.502 9.49345 104.02 9.59194 103.571 9.78894C103.123 9.98594 102.729 10.2626 102.389 10.6189C102.05 10.9751 101.783 11.3922 101.591 11.87C101.398 12.3436 101.301 12.8592 101.301 13.4166ZM100.553 13.4166C100.553 12.7502 100.669 12.132 100.899 11.5619C101.13 10.9919 101.45 10.4952 101.861 10.0719C102.272 9.64434 102.745 9.31321 103.282 9.07849C103.823 8.83958 104.401 8.72012 105.017 8.72012C105.633 8.72012 106.21 8.83958 106.746 9.07849C107.287 9.31321 107.76 9.64434 108.167 10.0719C108.578 10.4952 108.898 10.9919 109.129 11.5619C109.36 12.132 109.475 12.7502 109.475 13.4166C109.475 14.0831 109.36 14.7013 109.129 15.2714C108.898 15.8414 108.578 16.3402 108.167 16.7677C107.76 17.1952 107.287 17.5285 106.746 17.7674C106.21 18.0063 105.633 18.1257 105.017 18.1257C104.401 18.1257 103.823 18.0063 103.282 17.7674C102.745 17.5285 102.272 17.1952 101.861 16.7677C101.45 16.3402 101.13 15.8414 100.899 15.2714C100.669 14.7013 100.553 14.0831 100.553 13.4166Z" fill="#4C6290"/>
<defs>
<clipPath id="clip0_111_997">
<rect width="37" height="31" fill="white"/>
</clipPath>
</defs>
</svg>
