<svg width="24" height="24" viewBox="0 0 24 24" fill="none" xmlns="http://www.w3.org/2000/svg">
<path opacity="0.4" d="M19.5 9.5V14.5C19.5 18.63 16.13 22 12 22C7.87 22 4.5 18.63 4.5 14.5V9.5C4.5 7.44 5.34 5.56 6.7 4.2C7.89 3.01 9.48 2.22 11.25 2.04C11.49 2.01 11.75 2 12 2C12.25 2 12.51 2.01 12.75 2.04C16.53 2.42 19.5 5.62 19.5 9.5Z" fill="#425A8B"/>
<path d="M13.8701 7.5V9.5C13.8701 10.53 13.0301 11.38 12.0001 11.38C10.9601 11.38 10.1201 10.53 10.1201 9.5V7.5C10.1201 6.73 10.5901 6.07 11.2501 5.78V2.04C11.4901 2.01 11.7501 2 12.0001 2C12.2501 2 12.5101 2.01 12.7501 2.04V5.78C13.4101 6.07 13.8701 6.73 13.8701 7.5Z" fill="#425A8B"/>
</svg>
