<svg width="22" height="22" viewBox="0 0 22 22" fill="none" xmlns="http://www.w3.org/2000/svg">
<path d="M5.95825 10.0833C8.23643 10.0833 10.0833 8.2365 10.0833 5.95833C10.0833 3.68015 8.23643 1.83333 5.95825 1.83333C3.68008 1.83333 1.83325 3.68015 1.83325 5.95833C1.83325 8.2365 3.68008 10.0833 5.95825 10.0833Z" fill="#425A8B"/>
<path opacity="0.3" d="M11.9166 5.95833C11.9166 5.14248 12.1585 4.34496 12.6118 3.6666C13.065 2.98825 13.7093 2.45954 14.463 2.14733C15.2168 1.83512 16.0462 1.75343 16.8463 1.91259C17.6465 2.07175 18.3815 2.46462 18.9584 3.04151C19.5353 3.61841 19.9282 4.35341 20.0873 5.15358C20.2465 5.95375 20.1648 6.78315 19.8526 7.5369C19.5404 8.29064 19.0117 8.93488 18.3333 9.38814C17.655 9.8414 16.8574 10.0833 16.0416 10.0833C15.4996 10.0845 14.9626 9.97867 14.4616 9.77179C13.9606 9.56492 13.5054 9.26112 13.1221 8.87784C12.7388 8.49456 12.435 8.03934 12.2281 7.53833C12.0213 7.03731 11.9154 6.50037 11.9166 5.95833ZM5.95826 20.1667C6.77411 20.1667 7.57164 19.9247 8.24999 19.4715C8.92834 19.0182 9.45705 18.374 9.76927 17.6202C10.0815 16.8665 10.1632 16.0371 10.004 15.2369C9.84484 14.4367 9.45197 13.7017 8.87508 13.1248C8.29819 12.548 7.56318 12.1551 6.76301 11.9959C5.96284 11.8368 5.13344 11.9184 4.37969 12.2307C3.62595 12.5429 2.98171 13.0716 2.52845 13.7499C2.07519 14.4283 1.83326 15.2258 1.83326 16.0417C1.83205 16.5837 1.93793 17.1206 2.1448 17.6217C2.35167 18.1227 2.65547 18.5779 3.03875 18.9612C3.42203 19.3445 3.87725 19.6483 4.37826 19.8551C4.87928 20.062 5.41622 20.1679 5.95826 20.1667ZM16.0416 20.1667C16.8574 20.1667 17.655 19.9247 18.3333 19.4715C19.0117 19.0182 19.5404 18.374 19.8526 17.6202C20.1648 16.8665 20.2465 16.0371 20.0873 15.2369C19.9282 14.4367 19.5353 13.7017 18.9584 13.1248C18.3815 12.548 17.6465 12.1551 16.8463 11.9959C16.0462 11.8368 15.2168 11.9184 14.463 12.2307C13.7093 12.5429 13.065 13.0716 12.6118 13.7499C12.1585 14.4283 11.9166 15.2258 11.9166 16.0417C11.9154 16.5837 12.0213 17.1206 12.2281 17.6217C12.435 18.1227 12.7388 18.5779 13.1221 18.9612C13.5054 19.3445 13.9606 19.6483 14.4616 19.8551C14.9626 20.062 15.4996 20.1679 16.0416 20.1667Z" fill="#425A8B"/>
</svg>
