<svg width="48" height="48" viewBox="0 0 48 48" fill="none" xmlns="http://www.w3.org/2000/svg">
<g clip-path="url(#clip0_132_3280)">
<path d="M46.5837 10.3809L28.2559 0.115631C27.9805 -0.0385437 27.6467 -0.0385437 27.3713 0.115631L20.4632 3.98465C20.3174 4.02383 20.1813 4.09854 20.0686 4.20584L9.04385 10.3809C8.7498 10.5453 8.56706 10.8603 8.56706 11.2027V23.618C6.70728 24.2112 5.00296 25.2575 3.58587 26.7033C-0.107839 30.4705 -1.04958 36.2163 1.24247 41.0009C1.46507 41.466 2.01547 41.659 2.47144 41.4316C2.92776 41.2041 3.11661 40.6427 2.89401 40.1777C0.946634 36.1123 1.74691 31.2304 4.88556 28.029C6.84838 26.0269 9.45781 24.9242 12.2335 24.9242C15.0091 24.9242 17.6186 26.0269 19.5814 28.029C21.5439 30.0307 22.6249 32.6923 22.6249 35.5235C22.6249 38.3547 21.5439 41.0163 19.581 43.0183C16.4424 46.2198 11.6562 47.036 7.67056 45.0497C7.21459 44.8223 6.66419 45.0153 6.4416 45.4804C6.21864 45.9458 6.40749 46.5072 6.86381 46.7343C8.57244 47.5861 10.4057 47.9999 12.2256 47.9999C15.4005 47.9995 18.533 46.7391 20.8811 44.344C21.9578 43.2458 22.8087 41.9787 23.4108 40.6014L27.3713 42.8195C27.5091 42.8968 27.6614 42.9352 27.8136 42.9352C27.9658 42.9352 28.1184 42.8968 28.2559 42.8195L46.5837 32.5546C46.8778 32.3898 47.0605 32.0749 47.0605 31.7328V25.2176C47.0605 24.6997 46.6491 24.2801 46.1414 24.2801C45.6337 24.2801 45.2223 24.6997 45.2223 25.2176V31.178L28.7356 40.412V22.0209L34.1767 18.9733V23.8044C34.1767 24.1361 34.3483 24.443 34.628 24.6115C34.7723 24.6983 34.9339 24.7419 35.0958 24.7419C35.248 24.7419 35.4006 24.7034 35.5389 24.6258L39.4663 22.4208C39.76 22.256 39.942 21.9414 39.942 21.5998V15.7441L45.2223 12.7869V17.7179C45.2223 18.2358 45.6337 18.6554 46.1414 18.6554C46.6491 18.6554 47.0605 18.2358 47.0605 17.7179V11.2027C47.0605 10.8606 46.8778 10.5453 46.5837 10.3809ZM27.8136 2.00674L44.2317 11.2027L39.0527 14.1034L22.6346 4.9075L27.8136 2.00674ZM27.8136 20.3982L11.3955 11.2027L16.7644 8.19534L33.1829 17.3909L27.8136 20.3982ZM35.0922 16.3216L18.6741 7.12601L20.7249 5.9772L37.1434 15.1728L35.0922 16.3216ZM20.8811 26.7033C18.5711 24.3471 15.4999 23.0496 12.2335 23.0496C11.6156 23.0496 11.0052 23.0961 10.4053 23.1873V12.7869L26.8977 22.0242V40.4153L24.0352 38.812C24.317 37.7537 24.4628 36.6499 24.4628 35.5235C24.4628 32.1917 23.1907 29.0591 20.8811 26.7033ZM38.1041 21.0457L36.0149 22.2187V17.9439L38.1041 16.7738V21.0457Z" fill="#425A8B"/>
<path d="M46.1413 20.5259C45.8997 20.5259 45.6623 20.6262 45.4914 20.8005C45.3205 20.9749 45.2222 21.2166 45.2222 21.4634C45.2222 21.7098 45.3205 21.9515 45.4914 22.1259C45.6623 22.3005 45.8997 22.4005 46.1413 22.4005C46.3829 22.4005 46.6202 22.3005 46.7911 22.1259C46.962 21.9515 47.0604 21.7098 47.0604 21.4634C47.0604 21.2166 46.962 20.9749 46.7911 20.8005C46.6202 20.6262 46.3829 20.5259 46.1413 20.5259Z" fill="#425A8B"/>
<path d="M9.1428 36.4612C9.37796 36.4612 9.61349 36.3696 9.79264 36.1869C10.1517 35.8206 10.1517 35.227 9.79264 34.8608L9.15608 34.2112H14.5882C15.9059 34.2112 16.9779 35.3047 16.9779 36.6487C16.9779 37.9926 15.9059 39.0862 14.5882 39.0862H11.3695C10.8618 39.0862 10.4504 39.5058 10.4504 40.0237C10.4504 40.5411 10.8618 40.9608 11.3695 40.9608H14.5882C16.9194 40.9608 18.8162 39.0265 18.8162 36.6487C18.8162 34.2708 16.9194 32.3365 14.5882 32.3365H9.15608L9.79264 31.6869C10.1517 31.3206 10.1517 30.727 9.79264 30.3608C9.43397 29.995 8.85198 29.995 8.49295 30.3608L6.28707 32.6108C5.9284 32.977 5.9284 33.5706 6.28707 33.9369L8.49295 36.1865C8.67247 36.3696 8.90763 36.4612 9.1428 36.4612Z" fill="#425A8B"/>
<path d="M4.23634 44.6203C3.97497 44.6203 3.71539 44.5067 3.53408 44.2867L3.53228 44.2845C3.20556 43.8882 3.25583 43.2972 3.6443 42.9639C4.03277 42.6303 4.61261 42.6816 4.93932 43.0778C5.26568 43.4744 5.21649 44.0666 4.82802 44.3998C4.65533 44.5478 4.4453 44.6203 4.23634 44.6203Z" fill="#425A8B"/>
</g>
<defs>
<clipPath id="clip0_132_3280">
<rect width="48" height="48" fill="white"/>
</clipPath>
</defs>
</svg>
