<svg width="18" height="18" viewBox="0 0 18 18" fill="none" xmlns="http://www.w3.org/2000/svg">
<g opacity="0.6" clip-path="url(#clip0_123_1024)">
<path d="M18.0001 16.9395L13.3036 12.243C14.5235 10.7509 15.1234 8.84707 14.979 6.92517C14.8346 5.00328 13.957 3.2104 12.5278 1.91739C11.0985 0.624387 9.22702 -0.0698265 7.30031 -0.0216526C5.3736 0.0265212 3.53911 0.813397 2.17629 2.17621C0.813473 3.53903 0.0265975 5.37352 -0.0215763 7.30023C-0.0697502 9.22695 0.624463 11.0985 1.91747 12.5277C3.21048 13.9569 5.00335 14.8345 6.92525 14.9789C8.84715 15.1233 10.751 14.5235 12.2431 13.3035L16.9396 18L18.0001 16.9395ZM7.50008 13.5C6.31339 13.5 5.15335 13.1481 4.16666 12.4888C3.17996 11.8295 2.41093 10.8925 1.9568 9.7961C1.50268 8.69975 1.38386 7.49335 1.61537 6.32946C1.84688 5.16558 2.41832 4.09648 3.25744 3.25736C4.09655 2.41825 5.16565 1.8468 6.32954 1.61529C7.49342 1.38378 8.69982 1.5026 9.79618 1.95673C10.8925 2.41085 11.8296 3.17989 12.4889 4.16658C13.1482 5.15328 13.5001 6.31332 13.5001 7.5C13.4983 9.09075 12.8656 10.6158 11.7407 11.7407C10.6159 12.8655 9.09083 13.4982 7.50008 13.5Z" fill="#425A8B"/>
</g>
<defs>
<clipPath id="clip0_123_1024">
<rect width="18" height="18" fill="white"/>
</clipPath>
</defs>
</svg>
