<svg width="48" height="48" viewBox="0 0 48 48" fill="none" xmlns="http://www.w3.org/2000/svg">
<path d="M41.1357 28.4209C41.6532 28.4209 42.0732 28.0012 42.0732 27.4834C42.0732 26.9659 41.6532 26.5459 41.1357 26.5459H36.6562C36.1384 26.5459 35.7188 26.9659 35.7188 27.4834C35.7188 28.0012 36.1384 28.4209 36.6562 28.4209H41.1357Z" fill="#425A8B"/>
<path d="M32.2019 31.3501C32.2019 31.8679 32.6216 32.2876 33.1394 32.2876H41.1356C41.6531 32.2876 42.0731 31.8679 42.0731 31.3501C42.0731 30.8323 41.6531 30.4126 41.1356 30.4126H33.1394C32.6216 30.4126 32.2019 30.8323 32.2019 31.3501Z" fill="#425A8B"/>
<path d="M30.0524 32.0125C30.2271 31.8381 30.3274 31.5964 30.3274 31.3496C30.3274 31.1031 30.2271 30.8615 30.0524 30.6868C29.8784 30.5125 29.6364 30.4121 29.3899 30.4121C29.1423 30.4121 28.9014 30.5125 28.7271 30.6868C28.5516 30.8615 28.4524 31.1031 28.4524 31.3496C28.4524 31.5964 28.5516 31.8381 28.7271 32.0125C28.9014 32.1879 29.1431 32.2871 29.3899 32.2871C29.6364 32.2871 29.8773 32.1879 30.0524 32.0125Z" fill="#425A8B"/>
<path d="M45.1874 0H12.9375C11.3866 0 10.125 1.26159 10.125 2.81249V12.5625C10.125 13.0803 10.5447 13.5 11.0625 13.5C11.5803 13.5 12 13.0803 12 12.5625V2.81249C12 2.29541 12.4208 1.875 12.9375 1.875H22.7252V13.3498C22.7252 13.7292 22.9533 14.0709 23.3038 14.2163C23.6539 14.3613 24.0574 14.2807 24.3255 14.013L26.3624 11.9758L28.3996 14.013C28.7658 14.3792 29.3591 14.3792 29.7256 14.013L31.7625 11.9758L33.7997 14.013C33.9792 14.1925 34.2187 14.2877 34.4626 14.2877C34.5834 14.2877 34.7054 14.2643 34.8215 14.2163C35.1716 14.0709 35.4001 13.7292 35.4001 13.3498V1.875H45.1874C45.7045 1.875 46.1249 2.29541 46.1249 2.81249V35.0624C46.1249 35.5795 45.7045 35.9999 45.1874 35.9999H24.2453C24.6899 34.4413 24.9257 32.8025 24.9257 31.1205V26.265C24.9257 25.9343 24.7514 25.6281 24.4669 25.4593L12.9415 18.6115C12.6467 18.4361 12.279 18.4361 11.9839 18.6115L0.458495 25.4593C0.174316 25.6281 0 25.9346 0 26.2653V31.1205C0 38.7857 4.89037 45.55 12.1688 47.9527C12.2644 47.9842 12.3636 47.9999 12.4629 47.9999C12.5621 47.9999 12.6614 47.9842 12.7569 47.9527C17.7828 46.2934 21.6698 42.554 23.5946 37.8749H45.1874C46.7383 37.8749 47.9999 36.6133 47.9999 35.0624V2.81249C47.9999 1.26159 46.7383 0 45.1874 0V0ZM33.5251 11.0866L32.4254 9.98692C32.0591 9.62107 31.4659 9.62107 31.0993 9.98692L29.0624 12.0241L27.0256 9.98692C26.8425 9.80381 26.6022 9.71263 26.3624 9.71263C26.1225 9.71263 25.8826 9.80381 25.6995 9.98692L24.6002 11.0866V1.875H33.5251V11.0866ZM12.4629 46.0722C6.11681 43.8401 1.875 37.8709 1.875 31.1205V26.7985L12.4629 20.5078L23.0507 26.7985V31.1205C23.0507 37.8709 18.8089 43.8401 12.4629 46.0722Z" fill="#425A8B"/>
<path d="M20.7169 27.5931L12.9415 22.9734C12.6467 22.7979 12.2791 22.7979 11.9839 22.9734L4.2085 27.5931C3.92432 27.7619 3.75 28.0685 3.75 28.3991V31.1205C3.75 36.6612 7.02173 41.6805 12.0853 43.9082C12.2054 43.9609 12.3344 43.9876 12.4629 43.9876C12.5914 43.9876 12.72 43.9613 12.8405 43.9082C17.9037 41.6805 21.1754 36.6609 21.1754 31.1205V28.3991C21.1758 28.0685 21.0015 27.7619 20.7169 27.5931ZM19.3008 31.1205C19.3008 35.7787 16.6304 40.011 12.4629 42.0182C8.29504 40.011 5.625 35.7787 5.625 31.1205V28.9323L12.4629 24.8696L19.3008 28.9323V31.1205Z" fill="#425A8B"/>
<path d="M11.3075 32.7518C10.9413 32.3856 10.348 32.3856 9.98145 32.7518C9.61523 33.1177 9.61523 33.7113 9.98145 34.0775L11.5082 35.6046C11.684 35.7804 11.9227 35.8793 12.1714 35.8793C12.4197 35.8793 12.6584 35.7804 12.8342 35.6046L16.5494 31.8894C16.9153 31.5232 16.9153 30.9296 16.5494 30.5637C16.1832 30.1975 15.5896 30.1975 15.2234 30.5637L12.171 33.6157L11.3075 32.7518Z" fill="#425A8B"/>
<path d="M11.7253 16.9753C11.8997 16.801 12 16.559 12 16.3125C12 16.066 11.8997 15.824 11.7253 15.6497C11.551 15.4753 11.309 15.375 11.0625 15.375C10.816 15.375 10.574 15.4753 10.3997 15.6497C10.2253 15.824 10.125 16.066 10.125 16.3125C10.125 16.559 10.2253 16.801 10.3997 16.9753C10.5743 17.1497 10.816 17.25 11.0625 17.25C11.309 17.25 11.551 17.1497 11.7253 16.9753Z" fill="#425A8B"/>
</svg>
