<svg width="48" height="48" viewBox="0 0 48 48" fill="none" xmlns="http://www.w3.org/2000/svg">
<path d="M44.6294 20.7994C44.4457 15.3455 42.3254 10.2455 38.6024 6.36738C34.7002 2.30176 29.5139 0.0634766 23.9999 0.0634766C12.8632 0.0634766 3.76343 9.29707 3.37118 20.7994C1.67168 21.5861 0.482178 23.358 0.482178 25.4174V31.0908C0.482178 33.8768 2.65793 36.1439 5.33318 36.1439C7.06418 36.1439 8.47193 34.6775 8.47193 32.8744V23.633C8.47193 21.94 7.22543 20.5596 5.64068 20.3955C6.22568 10.3744 14.2342 2.40723 23.9999 2.40723C28.9139 2.40723 33.5347 4.40254 37.0124 8.0252C40.2059 11.3518 42.0749 15.6877 42.3562 20.3963C40.7729 20.5619 39.5287 21.9416 39.5287 23.633V32.8736C39.5287 34.5807 40.7947 35.9697 42.3982 36.1143V38.4494C42.3982 41.0791 40.3439 43.2182 37.8194 43.2182H34.4287C34.2622 42.7229 34.0012 42.265 33.6352 41.8854C32.9939 41.2143 32.1389 40.8447 31.2284 40.8447H27.7334C27.2317 40.8447 26.7502 40.9557 26.3092 41.1697C25.1062 41.7455 24.3292 43.0096 24.3292 44.39C24.3292 45.3385 24.6839 46.2291 25.3267 46.8955C25.9694 47.5666 26.8244 47.9361 27.7334 47.9361H31.2284C32.6774 47.9361 33.9547 46.9604 34.4309 45.5619H37.8194C41.5852 45.5619 44.6482 42.3713 44.6482 38.4494V35.6971C46.3372 34.9057 47.5177 33.14 47.5177 31.0893V25.4158C47.5177 23.358 46.3282 21.5861 44.6294 20.7994ZM6.22118 23.633V32.8736C6.22118 33.3838 5.82293 33.7994 5.33243 33.7994C3.89843 33.7994 2.73143 32.5838 2.73143 31.09V25.4166C2.73143 23.9221 3.89843 22.7072 5.33243 22.7072C5.82293 22.7072 6.22118 23.1229 6.22118 23.633ZM32.3572 44.6416C32.2454 45.1932 31.7699 45.5939 31.2277 45.5939H27.7327C27.4252 45.5939 27.1364 45.4689 26.9159 45.2393C26.6984 45.0135 26.5784 44.7119 26.5784 44.3916C26.5784 43.9236 26.8417 43.4963 27.2542 43.2986C27.4012 43.2268 27.5624 43.19 27.7327 43.19H31.2277C31.5352 43.19 31.8239 43.3143 32.0437 43.5439C32.2612 43.7697 32.3812 44.0713 32.3812 44.3916C32.3819 44.4775 32.3729 44.5635 32.3572 44.6416ZM45.2677 31.09C45.2677 32.5838 44.1007 33.7994 42.6667 33.7994C42.1769 33.7994 41.7779 33.3846 41.7779 32.8736V23.633C41.7779 23.1229 42.1762 22.7072 42.6667 22.7072C44.1007 22.7072 45.2677 23.9229 45.2677 25.4166V31.09Z" fill="#425A8B"/>
<path d="M31.2847 31.494C33.9135 31.494 36.0517 29.2659 36.0517 26.5284V16.4104C36.0517 15.087 35.5552 13.8401 34.6537 12.9011C33.7522 11.962 32.556 11.4448 31.2847 11.4448H16.7152C14.0865 11.4448 11.9482 13.6722 11.9482 16.4104V26.5284C11.9482 29.2667 14.0865 31.494 16.7152 31.494H16.8045V34.1159C16.8045 35.1159 17.3767 36.0034 18.2617 36.3776C18.5475 36.4972 18.8445 36.5565 19.1385 36.5565C19.7512 36.5565 20.3482 36.3034 20.7855 35.8323L24.9727 31.494H31.2847ZM23.7165 29.4909L19.185 34.1854C19.1647 34.2073 19.1497 34.2237 19.107 34.2042C19.0552 34.1823 19.0552 34.1472 19.0552 34.1159V30.3222C19.0552 29.6753 18.552 29.1503 17.9302 29.1503H16.716C15.3277 29.1503 14.199 27.9737 14.199 26.5284V16.4104C14.199 14.9644 15.3277 13.7886 16.716 13.7886H31.2855C31.956 13.7886 32.5867 14.062 33.0637 14.5581C33.5407 15.055 33.8025 15.7128 33.8025 16.4104V26.5284C33.8025 27.9745 32.673 29.1503 31.2855 29.1503H24.51C24.2122 29.1503 23.9272 29.2729 23.7165 29.4909Z" fill="#425A8B"/>
<path d="M18.5347 19.9277C17.6197 19.9277 16.875 20.7043 16.875 21.6566C16.875 22.609 17.6205 23.3855 18.5347 23.3855C19.4505 23.3855 20.196 22.609 20.196 21.6566C20.196 20.7043 19.4512 19.9277 18.5347 19.9277Z" fill="#425A8B"/>
<path d="M23.9991 19.9277C23.0841 19.9277 22.3394 20.7043 22.3394 21.6566C22.3394 22.609 23.0849 23.3855 23.9991 23.3855C24.9156 23.3855 25.6604 22.609 25.6604 21.6566C25.6604 20.7043 24.9156 19.9277 23.9991 19.9277Z" fill="#425A8B"/>
<path d="M29.4637 19.9277C28.5487 19.9277 27.804 20.7043 27.804 21.6566C27.804 22.609 28.5495 23.3855 29.4637 23.3855C30.3795 23.3855 31.125 22.609 31.125 21.6566C31.125 20.7043 30.3795 19.9277 29.4637 19.9277Z" fill="#425A8B"/>
</svg>
