<svg width="48" height="48" viewBox="0 0 48 48" fill="none" xmlns="http://www.w3.org/2000/svg">
<path d="M38.4004 13.1626H40.0004V16.9724H38.4004V13.1626Z" fill="#425A8B"/>
<path d="M35.2002 13.1626H36.8002V16.9724H35.2002V13.1626Z" fill="#425A8B"/>
<path d="M32 13.1626H33.6V16.9724H32V13.1626Z" fill="#425A8B"/>
<path d="M28.8 13.1626H30.4001V16.9724H28.8V13.1626Z" fill="#425A8B"/>
<path d="M38.4004 31.2593H40.0004V33.1642H38.4004V31.2593Z" fill="#425A8B"/>
<path d="M35.2002 31.2593H36.8002V33.1642H35.2002V31.2593Z" fill="#425A8B"/>
<path d="M32 31.2593H33.6V33.1642H32V31.2593Z" fill="#425A8B"/>
<path d="M28.8 31.2593H30.4001V33.1642H28.8V31.2593Z" fill="#425A8B"/>
<path d="M2.39928 28.33V34.1162C2.40202 36.7452 4.19152 38.8752 6.39939 38.8784H20.8623L35.1025 47.0142C35.9947 47.5229 37.0202 47.588 37.9526 47.1946C38.8851 46.8016 39.6476 45.9827 40.0714 44.9186L42.5453 38.7277C44.3337 38.2106 45.5946 36.3071 45.6005 34.1162V31.0836L47.6365 25.9921C48.5205 23.7775 47.7373 21.129 45.8829 20.0621L45.6005 19.9012V13.1625C45.5977 10.5336 43.8086 8.40359 41.6004 8.40034H25.471L12.8988 1.21704C12.007 0.708265 10.9812 0.643156 10.0491 1.0366C9.11666 1.42957 8.35414 2.24854 7.9299 3.31259L5.87047 8.46405C3.88878 8.77517 2.40553 10.7828 2.39928 13.1625V17.1467L0.363288 22.2391C-0.52033 24.4537 0.262895 27.1022 2.11685 28.1691L2.39928 28.33ZM45.6005 22.0935C46.372 22.8339 46.6161 24.1072 46.1911 25.1727L45.6005 26.6502V22.0935ZM38.6245 44.095C38.3835 44.7024 37.9495 45.1702 37.4182 45.3948C36.8866 45.6199 36.3018 45.5832 35.7932 45.293L24.5601 38.8784H40.7125L38.6245 44.095ZM44.0004 34.1162C44.0004 35.6942 42.9258 36.9735 41.6004 36.9735H15.1996V25.9596C16.979 27.9974 19.3533 29.134 21.8225 29.1303V27.2254C19.7685 27.2282 17.7931 26.2846 16.311 24.5918H44.0004V34.1162ZM15.9454 22.0954L17.5196 17.3857C17.8314 16.4733 18.6208 15.9259 19.4412 16.0543C20.2615 16.1822 20.9057 16.9532 21.0088 17.9308C21.1119 18.9079 20.6478 19.845 19.8798 20.2105L15.9454 22.0954ZM41.6004 10.3052C42.9258 10.3052 44.0004 11.5846 44.0004 13.1625V22.6869H19.0013L20.4767 21.9819C21.9283 21.2969 22.8065 19.5292 22.612 17.6848C22.4174 15.8403 21.199 14.3861 19.6505 14.1494C18.1017 13.9127 16.6145 14.9535 16.0348 16.6798L15.1996 19.1762V10.3052H41.6004ZM9.37565 4.13249C9.61628 3.52513 10.0503 3.05728 10.5819 2.83219C11.1132 2.60756 11.698 2.6443 12.207 2.9345L21.7744 8.40034H7.66896L9.37565 4.13249ZM3.99933 13.1625C3.99933 11.5846 5.07397 10.3052 6.39939 10.3052H13.5996V18.5116L12.9867 16.6798C12.4042 14.9623 10.9206 13.9299 9.3776 14.1685C7.83459 14.4066 6.62127 15.8548 6.42596 17.6927C6.23025 19.5301 7.10176 21.2932 8.54594 21.9819L10.0202 22.6869H3.99933V13.1625ZM13.0773 22.0954L9.14283 20.2105C8.36742 19.8491 7.89592 18.9083 7.99709 17.9243C8.09827 16.9402 8.74672 16.1631 9.57253 16.0352C10.3983 15.9073 11.1917 16.4612 11.5011 17.382L13.0773 22.0954ZM3.99933 24.5918H12.7109C11.2284 26.2846 9.25338 27.2282 7.19942 27.2254V29.1303C9.56433 29.1331 11.8452 28.0891 13.5996 26.2014V36.9735H6.39939C5.07397 36.9735 3.99933 35.6942 3.99933 34.1162V24.5918ZM1.80903 23.0585L2.39928 21.5801V26.1377C1.62778 25.3973 1.38363 24.124 1.80903 23.0585Z" fill="#425A8B"/>
</svg>
