<svg width="94" height="15" viewBox="0 0 94 15" fill="none" xmlns="http://www.w3.org/2000/svg">
<g clip-path="url(#clip0_220_8228)">
<path fill-rule="evenodd" clip-rule="evenodd" d="M73.8823 0.491658H81.4903L80.5904 3.153C82.9178 0.974123 85.5814 0.332911 88.8656 0.199066C90.1219 0.193641 91.3765 0.254047 92.6153 0.379601L91.1517 3.87514C89.978 3.68664 88.7715 3.58216 87.5571 3.56387C83.0574 3.51718 79.7163 5.34432 78.5578 7.96209L75.9304 13.9633H68.0327C69.9826 9.47485 72.5686 4.57861 73.8823 0.49477V0.491658Z" fill="#006354"/>
<path fill-rule="evenodd" clip-rule="evenodd" d="M52.2375 6.47414C53.5512 6.09128 58.1233 6.13174 61.0868 5.90763C64.4952 5.65862 69.2586 4.52871 69.1448 2.81363C68.9586 0.986486 66.2588 0.5725 63.7452 0.774824C57.8284 1.29464 53.9649 3.62915 52.2375 6.47414ZM51.5031 7.63828C51.3112 8.38669 51.2436 9.14473 51.3014 9.9012C51.7875 12.133 55.0407 13.1789 58.5422 13.2473C61.4489 13.2878 64.9865 12.2419 66.9105 10.9408C66.9705 10.8904 67.0506 10.8498 67.1434 10.8228C67.2363 10.7958 67.3389 10.7833 67.4418 10.7864C67.5448 10.7895 67.6448 10.8081 67.7328 10.8405C67.8207 10.8729 67.8936 10.9181 67.9449 10.972C68.0259 11.0643 68.0634 11.1682 68.0534 11.2724C68.0434 11.3767 67.9862 11.4773 67.888 11.5634C64.8469 13.3843 61.7385 14.3897 57.4095 14.4115C52.5013 14.4333 46.3517 13.3065 45.6018 10.2374C45.4937 9.84215 45.4797 9.43968 45.5604 9.0421C46.5483 3.35835 55.1649 0.286133 63.6418 0.0153302C67.6915 -0.118515 73.5359 0.513359 73.1997 3.15291C72.8635 5.92942 65.8916 6.88813 61.3506 6.96594C57.5285 7.03442 52.8219 7.02508 51.5237 7.63828H51.5031Z" fill="#006354"/>
<path fill-rule="evenodd" clip-rule="evenodd" d="M47.2775 10.8476L46.031 13.7829C43.5722 14.1099 41.0599 14.2686 38.5419 14.256C30.9701 14.1657 25.4205 12.0771 25.7567 7.73493C26.1704 2.75465 34.3836 0.199136 42.3072 0.130657C44.891 0.122135 47.4669 0.304024 49.9773 0.672263L47.6188 3.49235C45.5535 3.11896 43.3931 2.97343 41.2417 3.0628C37.6213 3.22155 34.2698 4.39503 33.2923 6.6953C32.02 9.58386 34.7922 11.6164 39.7056 11.6164C42.2788 11.5866 44.8305 11.3275 47.2775 10.8476V10.8476Z" fill="#006354"/>
<path fill-rule="evenodd" clip-rule="evenodd" d="M15.2576 0.173875C21.5985 0.173875 26.3671 1.05165 26.8222 4.22036C26.9981 5.43742 26.2636 6.52374 25.6999 7.80928L23.057 13.9848C17.9987 13.9848 13.8715 14.0533 9.29939 14.2774C5.0635 14.2774 -0.0102539 13.7358 -0.0102539 10.4862C0.0880146 5.17595 13.7577 5.65842 19.571 5.65842C20.8071 3.53557 17.9212 2.67958 13.8818 2.67958C10.2097 2.67958 7.18403 3.30212 4.22046 3.89664L5.25487 1.03297C8.49951 0.448704 11.8709 0.159148 15.2576 0.173875V0.173875ZM18.7073 7.78126C15.5162 7.78126 6.49615 7.32681 6.49615 10.2714C6.49615 11.7375 9.04596 11.9554 11.182 11.9554C16.7988 11.9554 17.6729 10.7757 18.7073 7.78749V7.78126Z" fill="#006354"/>
<path fill-rule="evenodd" clip-rule="evenodd" d="M89.9466 11.2305C89.5421 11.2294 89.1413 11.2767 88.7675 11.3697C88.3937 11.4627 88.0543 11.5995 87.7691 11.7721C87.1828 12.1355 86.8481 12.6196 86.833 13.1261C86.8432 13.6161 87.1653 14.0852 87.7329 14.4365C88.0218 14.6135 88.3663 14.754 88.7463 14.8499C89.1264 14.9459 89.5344 14.9953 89.9466 14.9953C90.3587 14.9953 90.7667 14.9459 91.1468 14.8499C91.5269 14.754 91.8714 14.6135 92.1602 14.4365C92.4485 14.2657 92.6763 14.0616 92.8301 13.8364C92.9839 13.6112 93.0603 13.3696 93.055 13.1261C93.0668 12.8794 92.9933 12.6338 92.8393 12.405C92.6853 12.1763 92.454 11.9692 92.1602 11.797C91.8712 11.6196 91.527 11.4783 91.1471 11.3811C90.7673 11.2839 90.3593 11.2327 89.9466 11.2305V11.2305ZM92.7602 13.1261C92.7602 13.3451 92.6869 13.5619 92.5448 13.7635C92.4026 13.9651 92.1944 14.1474 91.9326 14.2996C91.4035 14.6148 90.6911 14.7935 89.9466 14.7976C89.2074 14.796 88.4987 14.6201 87.9727 14.3076C87.4466 13.9951 87.1452 13.5709 87.133 13.1261C87.1412 12.6718 87.4372 12.2365 87.9605 11.909C88.2204 11.7511 88.5297 11.6258 88.8707 11.5403C89.2116 11.4548 89.5773 11.4109 89.9466 11.411C90.3194 11.4099 90.6886 11.4555 91.0306 11.545C91.3725 11.6345 91.6797 11.7659 91.9326 11.9308C92.1974 12.0862 92.4072 12.2722 92.5494 12.4776C92.6916 12.683 92.7633 12.9036 92.7602 13.1261V13.1261ZM90.019 11.9993H88.7467V14.1782H89.2328V13.1946H90.1328L90.9189 14.1657H91.4827L90.6603 13.1728C90.8995 13.1648 91.1245 13.102 91.2891 12.9972C91.4536 12.8924 91.5451 12.7536 91.5447 12.6094C91.5447 12.1799 91.0586 11.9869 90.0448 11.9869L90.019 11.9993ZM89.9466 12.2016C90.6603 12.2016 91.0327 12.3137 91.0327 12.5845C91.0327 12.9238 90.6965 13.0141 89.9466 13.0141H89.2328V12.2016H89.9466Z" fill="#006354"/>
</g>
<defs>
<clipPath id="clip0_220_8228">
<rect width="93.0551" height="15" fill="white"/>
</clipPath>
</defs>
</svg>
