<svg width="94" height="15" viewBox="0 0 94 15" fill="none" xmlns="http://www.w3.org/2000/svg">
<g clip-path="url(#clip0_220_8206)">
<path fill-rule="evenodd" clip-rule="evenodd" d="M62.7944 14.6825C62.7944 14.7268 62.8136 14.7694 62.848 14.8011C62.8824 14.8329 62.9292 14.8513 62.9785 14.8525H67.5693C67.5939 14.8525 67.6182 14.8481 67.6409 14.8395C67.6635 14.8309 67.6841 14.8183 67.7012 14.8024C67.7184 14.7866 67.7318 14.7678 67.7408 14.7472C67.7497 14.7266 67.754 14.7046 67.7533 14.6825V0.362315C67.754 0.340417 67.7497 0.318624 67.7407 0.298268C67.7317 0.277913 67.7182 0.259424 67.701 0.243934C67.6837 0.228443 67.6632 0.216277 67.6405 0.20818C67.6179 0.200082 67.5937 0.196224 67.5693 0.196841H62.9785C62.9297 0.196841 62.8828 0.214275 62.8483 0.245307C62.8138 0.27634 62.7944 0.318429 62.7944 0.362315V0.362315V14.6736V14.6825Z" fill="#DF0B40"/>
<path fill-rule="evenodd" clip-rule="evenodd" d="M41.3673 14.5083L34.6079 0.447467C34.5839 0.403612 34.5472 0.366362 34.5017 0.339613C34.4562 0.312864 34.4035 0.297597 34.3492 0.29541H27.55C27.4956 0.297118 27.4427 0.31219 27.3971 0.338994C27.3515 0.365798 27.315 0.403311 27.2914 0.447467V0.447467L20.532 14.5083C20.5199 14.5243 20.5134 14.5431 20.5132 14.5624C20.513 14.5817 20.5191 14.6007 20.5307 14.6169C20.5424 14.6331 20.5591 14.6458 20.5788 14.6536C20.5985 14.6613 20.6202 14.6637 20.6414 14.6603H25.4262C25.4802 14.657 25.5321 14.6407 25.5767 14.6131C25.6213 14.5856 25.6569 14.5479 25.6799 14.5038V14.5038L26.6746 12.3303C26.6978 12.2868 26.7336 12.2497 26.7782 12.2229C26.8229 12.1962 26.8747 12.1807 26.9283 12.1782H35.0008C35.0539 12.1801 35.1054 12.1953 35.1494 12.2222C35.1934 12.2491 35.2281 12.2865 35.2495 12.3303V12.3303L36.1696 14.5038C36.1908 14.5481 36.2253 14.5862 36.2692 14.6139C36.3132 14.6415 36.3648 14.6576 36.4183 14.6603H41.2529C41.2739 14.6627 41.2952 14.6599 41.3145 14.652C41.3337 14.6442 41.3502 14.6317 41.3621 14.6159C41.3739 14.6002 41.3807 14.5818 41.3816 14.5628C41.3825 14.5438 41.3776 14.5249 41.3673 14.5083V14.5083ZM27.9977 9.14156L30.2309 3.90901C30.4945 3.38575 30.7283 3.31419 30.9869 3.31419C31.2456 3.31419 31.534 3.52886 31.6932 3.93584L33.8916 9.14156H27.9977Z" fill="#DF0B40"/>
<path fill-rule="evenodd" clip-rule="evenodd" d="M83.0127 0.107422H77.7753C71.4386 0.192395 70.4688 2.00814 70.4688 7.31225C70.4688 8.20671 70.4688 9.10116 70.5135 9.99562C70.6876 13.5332 72.8363 14.6289 76.4274 14.8704C77.5515 14.9375 80.1727 14.9822 80.2821 14.9777C80.2821 14.9777 83.2316 14.9375 84.3556 14.8704C87.9467 14.6289 90.0954 13.5287 90.2695 9.99562C90.3192 9.10116 90.3192 8.20671 90.3192 7.31225C90.3192 2.00814 89.3245 0.192395 83.0127 0.107422V0.107422ZM85.3056 7.92943C85.3056 10.3445 85.1365 11.2926 82.1821 11.3552C81.4111 11.3954 79.3768 11.3954 78.6059 11.3552C75.6465 11.2926 75.4774 10.3445 75.4774 7.92943V7.33461C75.4651 6.76283 75.49 6.1909 75.552 5.62173C75.8454 3.60027 77.5415 3.71207 79.1928 3.66735C79.7996 3.66735 80.9834 3.66735 81.5952 3.66735C83.2564 3.71207 84.9425 3.60027 85.236 5.62173C85.2939 6.19113 85.3171 6.76294 85.3056 7.33461V7.33461V7.92943Z" fill="#DF0B40"/>
<path fill-rule="evenodd" clip-rule="evenodd" d="M14.8021 9.19061C14.6628 10.6843 14.0858 11.306 11.7133 11.3552C10.9424 11.3954 8.9081 11.3954 8.13716 11.3552C5.18271 11.2926 5.00863 10.3445 5.00863 7.92943V7.33461C4.99633 6.76283 5.02124 6.1909 5.08324 5.62173C5.37669 3.60027 7.07276 3.71207 8.72407 3.66735C9.33585 3.66735 10.5196 3.66735 11.1264 3.66735C12.7131 3.7076 14.3196 3.61368 14.7175 5.35787H19.7858C19.4924 1.55197 18.0301 0.178978 12.544 0.107422H7.30653C0.994763 0.192395 0 2.00814 0 7.31225C0 8.20671 0 9.10116 0.0497381 9.99562C0.218848 13.5555 2.37251 14.6512 5.96858 14.8928C7.09266 14.9598 9.70888 15.0046 9.81831 15.0001C9.81831 15.0001 12.7678 14.9598 13.8919 14.8928C17.483 14.6512 19.6366 13.5511 19.8057 10.018C19.8057 9.7407 19.8057 9.46789 19.8405 9.19061H14.8021V9.19061Z" fill="#DF0B40"/>
<path fill-rule="evenodd" clip-rule="evenodd" d="M47.8679 9.11896C48.9671 9.11896 50.0414 9.15474 51.1456 9.16368L52.4985 9.21288C53.6226 9.26655 55.3236 8.89982 55.3236 10.5546C55.3236 11.6279 54.1747 11.6503 53.2943 11.6905C52.021 11.7263 52.21 11.7442 50.9417 11.7352C50.1608 11.7352 50.0962 11.7352 49.2904 11.7039C48.1912 11.6503 47.46 11.4043 47.3954 10.3041L42.531 10.2862C42.531 11.212 42.4663 11.932 42.9985 12.7952C44.1524 14.5394 46.4802 14.8614 48.4697 14.8971L50.8273 14.9553C52.7074 14.9553 55.3883 14.9553 57.1242 14.5572C59.6857 13.9669 60.1831 12.4732 60.1831 10.2862C60.2481 9.31606 59.9505 8.35419 59.3375 7.55367C58.6113 6.69946 57.4574 6.2746 56.0349 6.21199C53.3242 6.08229 52.7124 6.03757 50.0017 6.01968H49.1163C48.042 6.01968 46.8184 5.70662 46.8284 4.51699C46.8383 3.32737 47.9375 3.20662 49.0417 3.17531C49.5839 3.17531 50.2304 3.17531 51.3297 3.17531C52.1106 3.17531 51.8818 3.21556 52.6626 3.20662C53.9907 3.20662 55.2291 3.2737 55.2192 4.61538L60.1035 4.64669V3.98479C60.1333 0.675313 57.6961 0.259392 55.0053 0.0894454C53.9061 0 52.782 0 51.6828 0C49.559 0 49.5789 0.0268336 47.4551 0.125224C43.6899 0.362254 41.9242 1.01968 41.8943 4.5975C41.8645 8.39893 44.0828 9.06977 47.8629 9.0966L47.8679 9.11896Z" fill="#DF0B40"/>
<path fill-rule="evenodd" clip-rule="evenodd" d="M92.8861 13.1396C92.7791 12.9683 92.6228 12.8262 92.4335 12.7282C92.2441 12.631 92.0297 12.5801 91.8117 12.5806C91.5953 12.5803 91.3826 12.6312 91.195 12.7282C91.0031 12.8246 90.8447 12.967 90.7374 13.1396C90.6289 13.3097 90.5723 13.5025 90.5733 13.6986C90.5728 13.8958 90.6306 14.0895 90.7407 14.2601C90.8508 14.4306 91.0093 14.5717 91.2 14.6691C91.3869 14.7631 91.5975 14.8125 91.8117 14.8125C92.0259 14.8125 92.2366 14.7631 92.4235 14.6691C92.6137 14.5709 92.7721 14.4297 92.8829 14.2594C92.9937 14.0892 93.0531 13.8959 93.0552 13.6986C93.0569 13.5019 92.9984 13.3085 92.8861 13.1396V13.1396ZM92.7219 14.1772C92.6259 14.3159 92.4917 14.43 92.3322 14.5084C92.1727 14.5867 91.9934 14.6267 91.8117 14.6244C91.6291 14.6247 91.4493 14.5832 91.2895 14.5036C91.128 14.4208 90.9937 14.3011 90.9002 14.1566C90.8067 14.0121 90.7574 13.8479 90.7573 13.6807C90.758 13.5146 90.806 13.3515 90.8965 13.2067C90.9888 13.0617 91.1221 12.9412 91.2828 12.8574C91.4435 12.7736 91.626 12.7295 91.8117 12.7295C91.9975 12.7295 92.18 12.7736 92.3407 12.8574C92.5014 12.9412 92.6346 13.0617 92.7269 13.2067C92.8175 13.3515 92.8654 13.5146 92.8662 13.6807C92.8662 13.8489 92.8164 14.0141 92.7219 14.1593V14.1772Z" fill="#DF0B40"/>
<path fill-rule="evenodd" clip-rule="evenodd" d="M92.1598 13.9668C92.1195 13.8912 92.0619 13.8241 91.9907 13.77C92.0831 13.7378 92.1616 13.6798 92.2145 13.6045C92.2637 13.5384 92.2897 13.4605 92.2891 13.3809C92.2904 13.3155 92.2733 13.2509 92.2394 13.1931C92.2046 13.1381 92.155 13.092 92.0952 13.0589C92.0093 13.0243 91.9155 13.009 91.8216 13.0142H91.3242V14.3916H91.5679V13.8102H91.747C91.7719 13.8102 91.8117 13.855 91.8713 13.9444L91.9211 14.0294L92.13 14.3916H92.4035L92.1499 13.9668H92.1598ZM91.747 13.6448H91.5779V13.1975H91.7619C91.8221 13.1916 91.883 13.2025 91.936 13.2288C91.9686 13.2484 91.9958 13.2744 92.0156 13.3049C92.032 13.3387 92.0405 13.3753 92.0404 13.4122C92.0412 13.4752 92.0184 13.5366 91.9758 13.5866C91.9466 13.6141 91.9108 13.6352 91.8711 13.6484C91.8315 13.6615 91.789 13.6664 91.747 13.6626V13.6448Z" fill="#DF0B40"/>
</g>
<defs>
<clipPath id="clip0_220_8206">
<rect width="93.0551" height="15" fill="white"/>
</clipPath>
</defs>
</svg>
