<svg width="94" height="15" viewBox="0 0 94 15" fill="none" xmlns="http://www.w3.org/2000/svg">
<g clip-path="url(#clip0_220_5015)">
<path fill-rule="evenodd" clip-rule="evenodd" d="M0 14.5923L3.24038 0H9.02753L9.29227 8.1539L13.1892 0H18.9869L15.7307 14.5923H11.5319L13.2686 6.7455L9.3611 14.5923H6.3431L6.18955 6.7455L4.24109 14.5923H0Z" fill="#5988FF"/>
<path fill-rule="evenodd" clip-rule="evenodd" d="M19.4897 2.37734H23.3973L23.9267 0H20.0033L19.4897 2.37734Z" fill="#5988FF"/>
<path fill-rule="evenodd" clip-rule="evenodd" d="M20.6864 14.6081L16.7471 14.5922L19.1562 3.78564H23.0902L20.6864 14.6081Z" fill="#5988FF"/>
<path fill-rule="evenodd" clip-rule="evenodd" d="M35.5964 3.78597H39.1174L38.8103 5.12025C39.2808 4.54366 39.9105 4.11829 40.6211 3.89716C41.213 3.69773 41.8338 3.59754 42.4584 3.60066L41.553 7.12166C41.3306 7.12166 38.6038 6.59218 37.7566 10.7539L36.8777 14.6084H33.1714L35.5964 3.78597Z" fill="#5988FF"/>
<path fill-rule="evenodd" clip-rule="evenodd" d="M33.5371 10.5895C33.5371 10.6742 32.3034 15.0159 26.8604 14.9047C19.5907 14.7617 21.4651 3.07622 29.7408 3.48921C34.4425 3.72747 34.2095 7.63499 34.1672 7.80442H30.1061C30.159 7.65088 30.2967 6.03598 29.0048 6.06775C26.5957 6.13658 24.8855 12.1038 27.5328 12.1779C28.7559 12.2202 29.3278 10.8012 29.439 10.6212L33.5371 10.5895Z" fill="#5988FF"/>
<path fill-rule="evenodd" clip-rule="evenodd" d="M68.4397 14.9525C60.524 14.6189 62.9067 2.96517 71.0288 3.35169C78.6638 3.72762 76.4983 15.2754 68.4397 14.9525ZM70.7641 5.89846C68.1167 5.36899 66.1735 11.6856 68.6779 12.1992C71.463 12.7869 73.3267 6.41205 70.7641 5.89846Z" fill="#5988FF"/>
<path fill-rule="evenodd" clip-rule="evenodd" d="M83.2702 2.18675C82.1848 2.18675 81.9783 2.59974 81.7983 3.42042L81.7241 3.78576H84.022L84.5939 1.17016H88.1837L87.6225 3.78576H89.4809L88.9514 6.27429H87.1036L86.087 11.0396C86.0036 11.296 85.989 11.5699 86.0446 11.8338C86.1982 12.2626 87.7442 12.0826 87.7442 12.0826L87.1459 14.5606C87.1459 14.5606 84.0009 14.9206 82.9419 14.1846C82.4707 13.8617 81.9571 13.1945 82.2748 11.7596L83.4873 6.31135H81.3323L79.5109 14.6294H75.6405L77.4513 6.31135H75.4604L76.0164 3.82282H77.949C78.2984 2.43031 78.6055 1.48255 79.4686 0.762464C80.6493 -0.201179 83.7044 0.174748 83.7044 0.174748L83.2702 2.22381V2.18675Z" fill="#5988FF"/>
<path fill-rule="evenodd" clip-rule="evenodd" d="M48.5476 10.8911H55.8967C55.8967 10.8911 55.2666 12.5166 57.5751 12.5325C59.1635 12.5325 59.8042 10.7058 57.6492 10.3298C56.6591 10.1498 52.8363 9.50916 53.2652 6.55999C53.6252 4.14029 56.1455 3.29313 58.8988 3.33549C64.5324 3.40432 63.4735 6.71353 63.5476 6.93591H59.7883C59.7883 6.93591 60.1907 5.54869 58.4964 5.54869C56.9503 5.54869 56.5744 6.93591 58.3587 7.31184C60.5243 7.78837 63.0181 7.89955 63.1558 10.6952C63.1981 11.4735 62.7375 15.1163 57.0615 15.0051C51.8621 14.8939 51.4968 12.4477 51.6397 11.2988C51.0297 12.4676 50.0938 13.4344 48.9454 14.0819C47.7969 14.7294 46.4853 15.0299 45.1695 14.9469C37.2274 14.6927 39.6577 2.97015 47.7693 3.37255C51.4756 3.55257 52.8628 6.3482 52.418 9.10146C52.3492 9.58858 52.3069 9.65741 52.1639 9.69977L48.5476 10.8964V10.8911ZM47.4886 5.88226C44.8783 5.36867 42.9299 11.6482 45.4184 12.1777C48.1717 12.7442 50.0248 6.39055 47.4781 5.87167L47.4886 5.88226Z" fill="#5988FF"/>
<path fill-rule="evenodd" clip-rule="evenodd" d="M91.6468 3.77002C92.0176 3.77002 92.3731 3.91729 92.6352 4.17943C92.8974 4.44157 93.0446 4.79711 93.0446 5.16783C93.0446 5.53855 92.8974 5.89409 92.6352 6.15623C92.3731 6.41837 92.0176 6.56564 91.6468 6.56564C91.2761 6.56564 90.9206 6.41837 90.6584 6.15623C90.3963 5.89409 90.249 5.53855 90.249 5.16783C90.249 4.79711 90.3963 4.44157 90.6584 4.17943C90.9206 3.91729 91.2761 3.77002 91.6468 3.77002ZM91.6468 4.01887C91.4905 4.00821 91.3336 4.02981 91.1859 4.08233C91.0382 4.13484 90.9029 4.21716 90.7884 4.32415C90.6738 4.43115 90.5825 4.56055 90.5201 4.70432C90.4576 4.84808 90.4254 5.00315 90.4254 5.15989C90.4254 5.31663 90.4576 5.4717 90.5201 5.61546C90.5825 5.75923 90.6738 5.88863 90.7884 5.99563C90.9029 6.10262 91.0382 6.18493 91.1859 6.23745C91.3336 6.28997 91.4905 6.31156 91.6468 6.30091C91.8032 6.31156 91.9601 6.28997 92.1078 6.23745C92.2555 6.18493 92.3908 6.10262 92.5053 5.99563C92.6199 5.88863 92.7112 5.75923 92.7736 5.61546C92.8361 5.4717 92.8683 5.31663 92.8683 5.15989C92.8683 5.00315 92.8361 4.84808 92.7736 4.70432C92.7112 4.56055 92.6199 4.43115 92.5053 4.32415C92.3908 4.21716 92.2555 4.13484 92.1078 4.08233C91.9601 4.02981 91.8032 4.00821 91.6468 4.01887ZM91.8957 5.32667L92.1763 5.85615H91.8427L91.6204 5.32667H91.4245L91.3397 5.92498H91.0697L91.3027 4.43716H91.9857C92.0873 4.46337 92.1771 4.52311 92.2405 4.60672C92.3039 4.69032 92.3373 4.79288 92.3352 4.8978C92.3366 4.95361 92.3268 5.00915 92.3064 5.06112C92.286 5.1131 92.2554 5.16047 92.2164 5.20044C92.1775 5.24041 92.1309 5.27217 92.0794 5.29385C92.028 5.31553 91.9727 5.32669 91.9169 5.32667H91.8957ZM91.8269 4.63306H91.5462L91.4774 5.12018H91.758C91.7941 5.127 91.8313 5.12608 91.867 5.11747C91.9027 5.10886 91.9362 5.09276 91.9652 5.07023C91.9943 5.04771 92.0182 5.01927 92.0354 4.9868C92.0526 4.95434 92.0628 4.91859 92.0651 4.88192C92.0666 4.84975 92.0614 4.81762 92.0501 4.78748C92.0388 4.75734 92.0215 4.72981 91.9992 4.70655C91.9769 4.68329 91.9502 4.66479 91.9205 4.65216C91.8909 4.63953 91.8591 4.63303 91.8269 4.63306Z" fill="#5988FF"/>
</g>
<defs>
<clipPath id="clip0_220_5015">
<rect width="93.0551" height="15" fill="white"/>
</clipPath>
</defs>
</svg>
