<svg width="94" height="15" viewBox="0 0 94 15" fill="none" xmlns="http://www.w3.org/2000/svg">
<g clip-path="url(#clip0_220_8088)">
<path fill-rule="evenodd" clip-rule="evenodd" d="M16.6921 11.195L16.7123 0.209296L21.0588 0.194336L21.0791 14.8303H13.5107L4.42758 3.78476L4.40731 14.7904L0.040527 14.8303L0 0.209296L0.0607905 0.194336H7.62921L16.6921 11.195Z" fill="#233E99"/>
<path fill-rule="evenodd" clip-rule="evenodd" d="M69.8785 0.2094L69.9089 14.8304H65.2686V0.229347L65.3091 0.189453C66.8288 0.189453 68.3486 0.189453 69.8684 0.189453L69.8785 0.2094Z" fill="#233E99"/>
<path fill-rule="evenodd" clip-rule="evenodd" d="M49.0884 7.26067L49.1087 7.28062L49.671 6.82184L57.1077 0.209473H63.2779L54.7774 7.30056L54.7976 7.37536L64.3671 14.7906L57.6295 14.8305L49.1289 7.33547L49.0884 7.39531V14.8305H44.4531V0.209473H49.0884V7.26067Z" fill="#233E99"/>
<path fill-rule="evenodd" clip-rule="evenodd" d="M37.2089 0.0398936C39.1339 0.114694 41.2109 0.249335 42.2393 2.11935C42.4749 2.655 42.5824 3.23679 42.5534 3.81981V11.7686C42.4973 12.2988 42.3082 12.807 42.0031 13.2475C41.6981 13.6879 41.2866 14.0468 40.8056 14.2919C38.7793 15.1546 36.3426 14.9402 33.992 15C31.2159 14.9601 28.3638 15.1346 25.7802 14.6759C25.1742 14.576 24.6062 14.3185 24.1351 13.9301C23.6639 13.5418 23.3067 13.0366 23.1004 12.4668L22.9434 11.5492L22.9839 3.12168C23.0193 2.04953 23.9971 1.12699 24.8836 0.628324C26.378 0 28.1865 0.0748005 29.914 0L37.2089 0.0398936ZM28.0903 3.65027C27.7053 3.72507 27.219 3.87965 27.1582 4.31848C27.1582 6.49767 27.1024 8.71177 27.1987 10.871C27.3355 11.235 27.7407 11.2001 28.0346 11.2899H36.4186C37.1379 11.235 37.989 11.4046 38.3791 10.7015V4.52793L38.3183 4.02926C38.2018 3.74501 37.913 3.70512 37.6597 3.63032H28.07L28.0903 3.65027Z" fill="#233E99"/>
<path fill-rule="evenodd" clip-rule="evenodd" d="M93.0551 14.7706V14.8305H87.9284C87.4675 13.9877 87.0014 13.1849 86.5708 12.3371L86.4745 12.3022H77.356L75.9578 14.7956L70.7754 14.8355L78.9618 0.209473H84.9598L93.0652 14.7706H93.0551ZM81.9102 3.87969L79.0784 9.09578H84.7876C83.8352 7.35542 82.8828 5.60508 81.9304 3.87969H81.9102Z" fill="#233E99"/>
</g>
<defs>
<clipPath id="clip0_220_8088">
<rect width="93.0551" height="15" fill="white"/>
</clipPath>
</defs>
</svg>
