<svg width="94" height="15" viewBox="0 0 94 15" fill="none" xmlns="http://www.w3.org/2000/svg">
<g clip-path="url(#clip0_220_8107)">
<path fill-rule="evenodd" clip-rule="evenodd" d="M22.2803 4.29831H25.7219L25.8754 5.53626C26.1401 4.54705 27.8768 3.84131 28.9358 3.84131C31.3978 3.84131 32.3773 5.49576 32.3773 8.38817V14.63H28.5598V9.05342C28.5598 7.93695 28.3692 7.10972 27.3473 7.10972C26.3255 7.10972 25.9125 8.22619 25.9125 9.00714V14.63H22.2803V4.29831Z" fill="#0066B1"/>
<path fill-rule="evenodd" clip-rule="evenodd" d="M0 14.6703V0.0405273H6.39075C10.2136 0.0405273 11.9555 2.06521 11.9555 4.99811C11.9555 8.13926 10.3671 10.2912 6.39075 10.2912H4.23579V14.6703H0ZM5.9407 6.73933C6.96258 6.73933 8.0586 6.49059 8.0586 5.20636C8.0586 3.92213 6.88316 3.59818 5.9407 3.59818H4.23579V6.73933H5.9407Z" fill="#0066B1"/>
<path fill-rule="evenodd" clip-rule="evenodd" d="M64.3418 4.29831H67.8257L67.9369 5.53626C68.2387 4.54705 69.9807 3.84131 71.0396 3.84131C73.4593 3.84131 74.4812 5.49576 74.4812 8.38817V14.6705H70.6584V9.05342C70.6584 7.93695 70.436 7.10972 69.4142 7.10972C68.5035 7.10972 68.0111 8.22619 68.0111 9.00714V14.6705H64.3418V4.29831V4.29831Z" fill="#0066B1"/>
<path fill-rule="evenodd" clip-rule="evenodd" d="M46.7897 10.9508C46.7933 11.4058 46.9411 11.8453 47.208 12.1945C47.501 12.4448 47.8583 12.5884 48.2299 12.6053C48.9076 12.6053 49.4424 12.397 49.4424 11.697C49.4794 9.9616 43.6923 11.4888 43.6923 7.35844C43.6923 4.46603 45.7308 3.80078 47.8487 3.80078C49.9666 3.80078 52.884 4.25778 52.7675 7.39893H49.5536C49.5407 7.12564 49.4479 6.86407 49.2888 6.65269C49.1649 6.50329 49.0125 6.38544 48.8423 6.30747C48.6722 6.2295 48.4884 6.19332 48.304 6.20148C47.6634 6.1552 47.0545 6.28246 47.0545 6.82045C47.0968 8.42862 53.0322 7.35844 53.0322 11.1591C53.0322 13.8027 51.3326 15.0002 48.0393 15.0002C45.9585 14.9597 43.3481 13.8027 43.3481 10.9508H46.7897Z" fill="#0066B1"/>
<path fill-rule="evenodd" clip-rule="evenodd" d="M85.9442 8.30718C85.965 7.94713 85.8568 7.59234 85.6424 7.31798C85.529 7.13009 85.3781 6.97265 85.2012 6.85744C85.0242 6.74224 84.8257 6.67225 84.6205 6.65272C83.1803 6.65272 82.8044 8.1857 82.8044 9.42365C82.8044 10.8698 83.408 12.0673 84.5411 12.0673C84.9559 12.036 85.343 11.8283 85.6192 11.4887C85.8954 11.1491 86.0387 10.7046 86.0183 10.2509H89.3487C89.4228 12.397 88.0621 14.9597 84.3928 14.9597C83.7139 14.9943 83.0358 14.8737 82.402 14.6058C81.7681 14.3378 81.1923 13.9284 80.7115 13.4036C80.2306 12.8788 79.8553 12.2502 79.6094 11.5579C79.3635 10.8656 79.2525 10.125 79.2834 9.38315C79.2834 5.37428 82.0102 3.84131 84.3557 3.84131C87.5326 3.84131 89.3487 5.95276 89.3116 8.30718H85.9442Z" fill="#0066B1"/>
<path fill-rule="evenodd" clip-rule="evenodd" d="M18.2352 14.6701L17.854 13.8024C17.1163 14.5154 16.1535 14.8868 15.1696 14.8378C13.9941 14.7974 11.6909 14.6296 11.6909 11.8587C11.6909 7.3176 17.8911 9.38277 17.8911 7.14984C17.8911 6.4036 17.1339 6.44409 16.7209 6.44409C15.9638 6.44409 15.4714 6.61185 15.3602 7.8498H12.178C12.178 5.70364 12.7869 3.88721 16.9433 3.88721C20.9885 3.88721 21.4068 6.20113 21.4068 8.47456V13.1834C21.3764 13.4303 21.3978 13.6815 21.4693 13.918C21.5409 14.1545 21.6607 14.3701 21.8198 14.5486V14.6296L18.2299 14.6701H18.2352ZM17.9281 9.92076C16.6415 10.5802 15.016 10.5397 14.979 11.5694C14.979 12.2347 15.3178 12.5644 16.075 12.5644C17.3245 12.5644 18.0075 11.1587 17.9281 9.92076ZM39.5677 14.6701L39.1812 13.8024C38.4409 14.5107 37.48 14.8814 36.4968 14.8378C35.2896 14.7974 32.9811 14.6296 32.9811 11.8587C32.9811 7.3176 39.1812 9.38277 39.2236 7.14984C39.2236 6.4036 38.4294 6.44409 38.0481 6.44409C37.2539 6.44409 36.7986 6.61185 36.6874 7.8498H33.5105C33.5105 5.70364 34.0771 3.88721 38.2758 3.88721C42.2839 3.88721 42.7022 6.20113 42.7022 8.47456V13.1834C42.6718 13.4303 42.6932 13.6815 42.7647 13.918C42.8363 14.1545 42.9561 14.3701 43.1152 14.5486V14.6296L39.5624 14.6701H39.5677ZM39.2659 9.92076C37.9793 10.5802 36.3115 10.5397 36.3115 11.5694C36.3115 12.2347 36.6186 12.5644 37.4128 12.5644C38.62 12.5644 39.3401 11.1587 39.2659 9.92076Z" fill="#0066B1"/>
<path fill-rule="evenodd" clip-rule="evenodd" d="M78.6801 14.6703V4.29811H75.1855V14.6703H78.6801ZM75.1855 2.97339H78.7013V0H75.1855V2.97339Z" fill="#0066B1"/>
<path fill-rule="evenodd" clip-rule="evenodd" d="M58.6709 3.92773C61.8107 3.92773 63.738 6.32264 63.738 9.46379C63.738 12.6049 61.8107 14.9999 58.6709 14.9999C55.5312 14.9999 53.5615 12.6454 53.5615 9.46379C53.5615 6.28215 55.5312 3.92773 58.6709 3.92773V3.92773ZM57.0031 9.46379C57.0031 10.748 57.3843 12.3157 58.6709 12.3562C59.9576 12.3967 60.2964 10.748 60.2964 9.46379C60.2964 8.17957 59.9576 6.61188 58.6709 6.61188C57.3843 6.61188 57.0402 8.22585 57.0031 9.46379Z" fill="#0066B1"/>
<path fill-rule="evenodd" clip-rule="evenodd" d="M91.5989 12.6457C91.8266 12.6457 92.1655 12.6862 92.1655 12.3564C92.1655 12.0267 91.9378 12.0267 91.7525 12.0267H91.2971V12.6457H91.5989ZM92.3561 13.6407H92.1284L91.6731 12.8134H91.2971V13.6407H91.0695V11.8589H91.7525C92.0543 11.8589 92.3243 11.9631 92.3243 12.3564C92.3243 12.7498 92.1284 12.8134 91.8266 12.8134L92.319 13.6407H92.3561ZM92.8856 12.7903C92.8897 12.5138 92.8183 12.2422 92.6803 12.0104C92.5422 11.7786 92.344 11.597 92.111 11.4891C91.8779 11.3812 91.6207 11.3517 91.3722 11.4046C91.1238 11.4574 90.8954 11.5901 90.7164 11.7856C90.5375 11.9812 90.416 12.2307 90.3677 12.5021C90.3193 12.7736 90.3463 13.0546 90.445 13.3092C90.5438 13.5638 90.71 13.7804 90.9222 13.9312C91.1344 14.082 91.3829 14.1601 91.636 14.1555C91.9657 14.1495 92.2804 14.0038 92.5135 13.7491C92.7467 13.4943 92.8801 13.1505 92.8856 12.7903ZM90.18 12.7903C90.1758 12.4772 90.2572 12.1698 90.4138 11.9075C90.5704 11.6453 90.7951 11.44 91.0591 11.3181C91.3231 11.1961 91.6144 11.163 91.8958 11.223C92.1771 11.2829 92.4356 11.4333 92.6383 11.6547C92.841 11.8761 92.9786 12.1586 93.0335 12.466C93.0884 12.7733 93.0581 13.0916 92.9464 13.3801C92.8348 13.6685 92.647 13.914 92.4069 14.0851C92.1669 14.2562 91.8855 14.3452 91.5989 14.3406C91.2184 14.3406 90.8534 14.1754 90.5843 13.8815C90.3152 13.5875 90.1641 13.1887 90.1641 12.7729L90.18 12.7903Z" fill="#0066B1"/>
</g>
<defs>
<clipPath id="clip0_220_8107">
<rect width="93.0551" height="15" fill="white"/>
</clipPath>
</defs>
</svg>
