<svg width="94" height="15" viewBox="0 0 94 15" fill="none" xmlns="http://www.w3.org/2000/svg">
<g clip-path="url(#clip0_220_8191)">
<path d="M9.44958 5.54065C9.44958 7.40874 8.42316 8.67528 5.81871 8.67528H4.9971V2.72521C5.29037 2.71088 5.56268 2.71088 5.82103 2.71088C8.28351 2.71088 9.44958 3.73394 9.44958 5.54065ZM6.77763 11.2697C11.4326 11.2697 14.3792 9.16225 14.3792 5.48745C14.3792 1.44434 11.2301 -0.000206105 6.09335 -0.000206105C4.05755 0.00337736 2.02346 0.103783 0 0.300571L0 14.699H4.9971V11.2636L6.77763 11.2697ZM74.8778 5.99976C74.309 7.99976 72.7874 7.18995 70.39 7.49976V2.82956L72.0062 2.71088C72.2948 2.69656 72.5313 2.71088 72.7874 2.71088C75.2634 2.82956 74.8778 3.99976 74.8778 5.99976ZM73.7486 11.2697C77.7216 10.4998 78.8591 8.99976 78.8591 5.49976C78.8591 1.10619 75.5245 -0.000206105 70.39 -0.000206105C68.3535 0.00343931 66.3186 0.103845 64.2944 0.300571V14.699H69.2961V11.2636L73.7486 11.2697ZM85.1858 3.97538C85.1858 3.19172 86.0773 2.82956 87.5133 2.82956C89.0354 2.83183 90.5442 3.07797 91.9658 3.55593L91.5469 0.421292C90.042 0.121928 88.5021 -0.0195584 86.9594 -0.000206105C82.9189 -0.000206105 80.1818 1.40138 80.1818 4.33754C80.1818 9.39756 87.9788 8.3745 87.9788 10.7234C87.9788 11.6258 87.2247 12.1066 85.3744 12.1066C83.7335 12.1066 81.1989 11.6258 79.693 10.9628L80.2423 14.2775C81.7458 14.7584 83.801 14.9998 85.4442 14.9998C89.6337 14.9998 93.0458 13.7946 93.0458 10.1792C93.0458 5.36264 85.1696 6.26497 85.1696 3.97538M60.5215 0.292387H55.5314V14.699H60.5308L60.5215 0.292387ZM40.2654 0.300571H35.2637V14.699H40.2654V0.300571ZM48.9586 11.8058V0.300571H43.9592V14.699H52.9991L53.7509 11.8058H48.9586ZM31.5653 0.300571H26.5682V6.02967H21.364V0.300571H16.3645V14.699H21.364V9.0354H26.5682V14.699H31.5653V0.300571Z" fill="#0079C1"/>
</g>
<defs>
<clipPath id="clip0_220_8191">
<rect width="93.0551" height="15" fill="white"/>
</clipPath>
</defs>
</svg>
