<svg width="94" height="15" viewBox="0 0 94 15" fill="none" xmlns="http://www.w3.org/2000/svg">
<g clip-path="url(#clip0_220_8170)">
<path fill-rule="evenodd" clip-rule="evenodd" d="M91.6363 12.2173C91.4042 12.2151 91.1767 12.2875 90.9828 12.4254C90.7888 12.5633 90.6372 12.7604 90.5472 12.9917C90.4572 13.2231 90.4328 13.4781 90.4772 13.7245C90.5215 13.9708 90.6327 14.1973 90.7964 14.3752C90.9602 14.5531 91.1691 14.6743 91.3967 14.7234C91.6244 14.7725 91.8604 14.7473 92.0747 14.651C92.289 14.5547 92.472 14.3916 92.6004 14.1826C92.7289 13.9735 92.7969 13.7279 92.7958 13.4769C92.7958 13.1438 92.6738 12.8243 92.4565 12.5883C92.2392 12.3522 91.9443 12.2189 91.6363 12.2173V12.2173ZM91.6363 14.5876C91.4329 14.5887 91.2338 14.5245 91.0642 14.4032C90.8946 14.2818 90.7621 14.1088 90.6835 13.9059C90.605 13.7031 90.5839 13.4796 90.6229 13.2637C90.6619 13.0479 90.7593 12.8495 90.9028 12.6936C91.0462 12.5376 91.2292 12.4313 91.4286 12.388C91.628 12.3446 91.8348 12.3663 92.0228 12.4502C92.2108 12.5341 92.3716 12.6765 92.4847 12.8592C92.5978 13.042 92.6582 13.257 92.6582 13.4769C92.6589 13.6225 92.6329 13.7668 92.5819 13.9015C92.5309 14.0362 92.4557 14.1587 92.3607 14.2619C92.2658 14.3651 92.1529 14.447 92.0286 14.5029C91.9042 14.5588 91.7709 14.5876 91.6363 14.5876V14.5876Z" fill="#ED1C24"/>
<path fill-rule="evenodd" clip-rule="evenodd" d="M92.2346 13.1681C92.2372 13.1078 92.2249 13.0479 92.1988 12.9945C92.1727 12.9411 92.1339 12.8963 92.0864 12.8647C91.9884 12.8103 91.8784 12.7865 91.7687 12.796H91.2021V14.2044H91.361V13.5288H91.6522L92.0281 14.1815H92.2134L91.8216 13.5288C92.0546 13.5288 92.2346 13.42 92.2346 13.1452V13.1681ZM91.5993 13.3971H91.3557V12.899H91.7263C91.8905 12.899 92.0652 12.899 92.0652 13.1395C92.0652 13.3799 91.7846 13.3971 91.5993 13.3971V13.3971Z" fill="#ED1C24"/>
<path fill-rule="evenodd" clip-rule="evenodd" d="M83.9002 0.120111C81.3155 0.150647 78.7344 0.341802 76.1699 0.69263V14.4445H80.231V9.46362C81.7052 9.74955 83.1973 9.91415 84.6945 9.95599C85.7216 9.95599 93.0548 9.6182 93.0548 4.91782C93.0548 -0.126072 85.2451 0.120111 83.9002 0.120111ZM84.1279 7.56286C82.8089 7.60056 81.4929 7.40722 80.231 6.99034V2.76515C81.597 2.6392 83.7573 2.54759 84.3821 2.54759C85.0068 2.54759 88.2525 2.70217 88.279 4.9808C88.3055 7.3453 85.4357 7.55713 84.1279 7.55713V7.56286Z" fill="#ED1C24"/>
<path fill-rule="evenodd" clip-rule="evenodd" d="M14.0734 6.20611C12.9721 5.94275 8.84222 5.2271 7.76209 5.06107C6.3378 4.87786 5.51712 4.59733 5.51712 3.73855C5.51712 2.59351 7.63502 2.77099 9.32404 2.84542C11.4419 2.93702 15.3812 4.35115 16.5143 4.87786L17.8539 1.71756C15.6618 0.572519 11.4578 0 8.78397 0C6.85139 0.028626 0.391811 0.520992 0.31239 4.24237C0.254148 6.87023 2.39852 7.84351 5.11472 8.58779C7.4497 9.10878 10.0335 9.35496 11.7967 9.73282C14.0575 10.2424 14.0417 11.9771 12.252 12.1603C9.1599 12.4065 3.9234 10.7462 1.53547 9.45802L0 12.8473C3.3251 14.5992 8.47158 15.0229 10.2347 15C12.5062 14.9714 18.5316 14.7252 18.5316 10.8206C18.5316 8.25 16.4825 6.81298 14.0681 6.20611H14.0734Z" fill="#ED1C24"/>
<path fill-rule="evenodd" clip-rule="evenodd" d="M32.102 6.02311H23.6887V0.675781H19.3682V14.4449H23.6887V8.7941H32.102V14.4449H36.4278V0.675781H32.102V6.02311Z" fill="#ED1C24"/>
<path fill-rule="evenodd" clip-rule="evenodd" d="M49.7389 0.675781H44.4441L36.9468 14.4449H40.3036L42.035 11.3132H50.4695L52.2115 14.4449H57.4162L49.7389 0.704407V0.675781ZM43.5123 8.54792L46.1596 3.59563L48.9076 8.54792H43.5123Z" fill="#ED1C24"/>
<path fill-rule="evenodd" clip-rule="evenodd" d="M74.9102 4.70037C74.8784 -0.3378 66.9681 0.120216 65.6126 0.120216C63.0279 0.151092 60.4469 0.342245 57.8823 0.692735V14.4446H62.0069V2.76525C63.4842 2.6393 65.5862 2.5477 66.211 2.5477C66.8357 2.5477 70.0496 2.42747 70.0761 4.91793C70.1026 7.28243 67.0952 7.31678 65.7874 7.31678C65.0365 7.29226 64.2913 7.16727 63.5689 6.94464L62.8011 8.35877L69.1548 14.4446H75.265L69.732 9.16029C72.0881 8.64502 74.9261 7.44273 74.9102 4.68319V4.70037Z" fill="#ED1C24"/>
</g>
<defs>
<clipPath id="clip0_220_8170">
<rect width="93.0551" height="15" fill="white"/>
</clipPath>
</defs>
</svg>
