<svg width="94" height="15" viewBox="0 0 94 15" fill="none" xmlns="http://www.w3.org/2000/svg">
<g clip-path="url(#clip0_220_2567)">
<path fill-rule="evenodd" clip-rule="evenodd" d="M7.85912 14.8879H4.21374V3.52454H0V0.111816H12.2933V3.52454H7.85912V14.8879Z" fill="#FF3D00"/>
<path fill-rule="evenodd" clip-rule="evenodd" d="M14.0178 4.00995C14.5666 0.533239 17.4182 0 20.1474 0C24.8266 0 26.4582 1.2851 26.4582 6.62282C26.4582 12.0992 26.3357 15 20.2258 15C17.8053 15 14.9145 14.7974 14.1011 11.7632C13.874 10.7573 13.7783 9.72149 13.8169 8.68646V8.68646V7.61998C13.7869 6.42036 13.8475 5.22009 13.9982 4.03128L14.0178 4.00995ZM17.5603 8.41984C17.5603 10.4995 17.5995 11.6193 19.8583 11.6193C22.3424 11.6193 22.7295 10.9527 22.7295 8.41984C22.7295 7.71063 22.7295 6.98009 22.7295 6.28688C22.7295 4.3139 22.4453 3.42872 20.4903 3.42872C17.6436 3.42872 17.5995 3.738 17.5505 7.55066V8.43583L17.5603 8.41984Z" fill="#FF3D00"/>
<path fill-rule="evenodd" clip-rule="evenodd" d="M37.1201 4.71916C37.1201 3.2101 36.6301 3.0128 35.3317 3.0128H34.9642C33.9843 3.0128 33.0043 3.05546 33.0043 4.36722C33.0043 5.27373 33.2493 5.69499 34.1214 5.75898C37.2768 6.04693 40.981 5.35905 40.981 10.1262C40.981 11.39 40.981 12.9844 40.0011 13.8589C38.8839 14.8774 37.3356 14.968 35.9098 14.968H35.0426C31.2992 14.968 29.3442 14.7867 29.3442 10.0942H32.8279C32.8279 11.198 33.0729 11.8646 34.2145 11.8646H35.7677C36.684 11.8646 37.414 11.7312 37.414 10.4035C37.414 9.07572 36.6938 9.10771 35.6746 9.06506C31.7549 8.77711 29.3638 9.17704 29.3638 4.26591C29.3638 1.6957 30.2997 0.341273 32.725 0.143974C33.5188 0.0426591 34.2978 0 35.1063 0C38.2617 0 40.6037 0.0639886 40.6037 4.26591C40.6037 4.42055 40.5792 4.57519 40.5792 4.72983H37.1201V4.71916Z" fill="#FF3D00"/>
<path fill-rule="evenodd" clip-rule="evenodd" d="M55.8417 14.8879H52.1963V9.08622H47.473V14.8879H43.8325V0.111816H47.473V5.69482H52.1963V0.111816H55.8417V14.8879Z" fill="#FF3D00"/>
<path fill-rule="evenodd" clip-rule="evenodd" d="M62.9564 14.8879H59.3159V0.111816H62.9564V14.8879Z" fill="#FF3D00"/>
<path fill-rule="evenodd" clip-rule="evenodd" d="M66.4546 0.111816H73.8433C76.2932 0.111816 77.8954 0.842353 77.8954 3.87648C77.8954 5.58284 77.7484 6.9586 75.7738 7.31054V7.46518C77.6063 7.64114 78.1159 8.70762 78.1159 10.6646C78.1159 13.992 77.1016 14.9305 73.9021 14.9305H66.4546V0.111816V0.111816ZM72.4175 6.02543C73.3975 5.98277 74.2892 6.11608 74.2892 4.76166C74.2892 3.69518 74.0246 3.3699 73.0496 3.3699H70.1098V6.0361L72.4175 6.02543ZM72.5155 11.6298C73.6522 11.6298 74.4754 11.6298 74.4754 10.1687C74.4754 8.70762 73.8825 8.75028 72.7458 8.75028H70.0755V11.6298H72.5155Z" fill="#FF3D00"/>
<path fill-rule="evenodd" clip-rule="evenodd" d="M89.3509 14.8879H93.0551L88.9246 0.111816H83.4076L79.3359 14.8879H83.1234L83.8976 11.9177H88.5621L89.3509 14.8879ZM84.6472 9.06489L86.2347 3.05529L87.8075 9.06489H84.6472Z" fill="#FF3D00"/>
</g>
<defs>
<clipPath id="clip0_220_2567">
<rect width="93.0551" height="15" fill="white"/>
</clipPath>
</defs>
</svg>
