<svg width="36" height="36" viewBox="0 0 36 36" fill="none" xmlns="http://www.w3.org/2000/svg">
<path d="M9.62044 19.8621L4.03418 33.5173L8.379 32.2758L10.2411 36L15.8273 22.9655L9.62044 19.8621Z" fill="#DE4C3C"/>
<path d="M23.2752 19.2414L17.0684 22.9655L22.6545 36L24.5166 32.2758L28.8615 33.5173L23.2752 19.2414Z" fill="#DE4C3C"/>
<path d="M9.62094 19.8621L7.56641 24.8834L7.67195 24.9144L9.00022 29.0358L13.2333 28.1296L13.5064 28.3779L15.8278 22.9655L9.62094 19.8621Z" fill="#C74436"/>
<path d="M17.0693 22.9655L19.3907 28.3779L19.6638 28.1296L23.8969 29.0358L25.2252 24.9145L25.4673 24.84L23.2762 19.2414L17.0693 22.9655Z" fill="#C74436"/>
<path d="M16.4483 0L19.6635 2.90482L23.8966 1.99245L25.2248 6.12L29.3462 7.44827L28.44 11.6814L31.3448 14.8965L28.44 18.1117L29.3462 22.3448L25.2248 23.6731L23.8966 27.7945L19.6635 26.8883L16.4483 29.7931L13.2331 26.8883L9.00003 27.7945L7.67176 23.6731L3.5442 22.3448L4.45658 18.1117L1.55176 14.8965L4.45658 11.6814L3.5442 7.44827L7.67176 6.12L9.00003 1.99245L13.2331 2.90482L16.4483 0Z" fill="#FDB62F"/>
<path d="M31.3451 14.8965L28.4403 11.6814L29.3465 7.44827L26.1376 6.41173C22.6555 16.0262 14.3818 21.4635 7.89551 24.3621L9.00033 27.7945L13.2334 26.8883L16.4486 29.7931L19.6638 26.8883L23.8969 27.7945L25.2251 23.6731L29.3465 22.3448L28.4403 18.1117L31.3451 14.8965Z" fill="#FFA83D"/>
<path d="M12.7239 13.6552C11.3529 13.6552 10.2412 12.5435 10.2412 11.1724C10.2412 9.80135 11.3529 8.68971 12.7239 8.68971C14.095 8.68971 15.2067 9.80135 15.2067 11.1724C15.2067 12.5435 14.095 13.6552 12.7239 13.6552ZM12.7239 9.93101C12.0381 9.93101 11.4826 10.4865 11.4826 11.1724C11.4826 11.8582 12.0381 12.4137 12.7239 12.4137C13.4098 12.4137 13.9653 11.8582 13.9653 11.1724C13.9653 10.4865 13.4098 9.93101 12.7239 9.93101Z" fill="white"/>
<path d="M20.7933 21.7242C19.4222 21.7242 18.3105 20.6125 18.3105 19.2414C18.3105 17.8703 19.4222 16.7587 20.7933 16.7587C22.1644 16.7587 23.276 17.8703 23.276 19.2414C23.276 20.6125 22.1644 21.7242 20.7933 21.7242ZM20.7933 18C20.1075 18 19.5519 18.5555 19.5519 19.2414C19.5519 19.9272 20.1075 20.4827 20.7933 20.4827C21.4791 20.4827 22.0346 19.9272 22.0346 19.2414C22.0346 18.5555 21.4792 18 20.7933 18Z" fill="white"/>
<path d="M12.5395 19.6816L21.2295 10.9917L20.3517 10.1139L11.6618 18.8039L12.5395 19.6816Z" fill="white"/>
</svg>
