<svg width="22" height="22" viewBox="0 0 22 22" fill="none" xmlns="http://www.w3.org/2000/svg">
<path d="M5.95801 10.0833C8.23618 10.0833 10.083 8.2365 10.083 5.95833C10.083 3.68015 8.23618 1.83333 5.95801 1.83333C3.67983 1.83333 1.83301 3.68015 1.83301 5.95833C1.83301 8.2365 3.67983 10.0833 5.95801 10.0833Z" fill="white"/>
<path opacity="0.3" d="M11.9164 5.95833C11.9164 5.14248 12.1583 4.34496 12.6115 3.6666C13.0648 2.98825 13.709 2.45954 14.4628 2.14733C15.2165 1.83512 16.0459 1.75343 16.8461 1.91259C17.6463 2.07175 18.3813 2.46462 18.9582 3.04151C19.5351 3.61841 19.9279 4.35341 20.0871 5.15358C20.2463 5.95375 20.1646 6.78315 19.8524 7.5369C19.5401 8.29064 19.0114 8.93488 18.3331 9.38814C17.6547 9.8414 16.8572 10.0833 16.0414 10.0833C15.4993 10.0845 14.9624 9.97867 14.4614 9.77179C13.9603 9.56492 13.5051 9.26112 13.1218 8.87784C12.7386 8.49456 12.4348 8.03934 12.2279 7.53833C12.021 7.03731 11.9151 6.50037 11.9164 5.95833ZM5.95802 20.1667C6.77387 20.1667 7.57139 19.9247 8.24974 19.4715C8.9281 19.0182 9.45681 18.374 9.76902 17.6202C10.0812 16.8665 10.1629 16.0371 10.0038 15.2369C9.84459 14.4367 9.45172 13.7017 8.87483 13.1248C8.29794 12.548 7.56294 12.1551 6.76277 11.9959C5.96259 11.8368 5.13319 11.9184 4.37945 12.2307C3.6257 12.5429 2.98147 13.0716 2.52821 13.7499C2.07495 14.4283 1.83302 15.2258 1.83302 16.0417C1.83181 16.5837 1.93768 17.1206 2.14455 17.6217C2.35143 18.1227 2.65523 18.5779 3.03851 18.9612C3.42179 19.3445 3.87701 19.6483 4.37802 19.8551C4.87903 20.062 5.41598 20.1679 5.95802 20.1667ZM16.0414 20.1667C16.8572 20.1667 17.6547 19.9247 18.3331 19.4715C19.0114 19.0182 19.5401 18.374 19.8524 17.6202C20.1646 16.8665 20.2463 16.0371 20.0871 15.2369C19.9279 14.4367 19.5351 13.7017 18.9582 13.1248C18.3813 12.548 17.6463 12.1551 16.8461 11.9959C16.0459 11.8368 15.2165 11.9184 14.4628 12.2307C13.709 12.5429 13.0648 13.0716 12.6115 13.7499C12.1583 14.4283 11.9164 15.2258 11.9164 16.0417C11.9151 16.5837 12.021 17.1206 12.2279 17.6217C12.4348 18.1227 12.7386 18.5779 13.1218 18.9612C13.5051 19.3445 13.9603 19.6483 14.4614 19.8551C14.9624 20.062 15.4993 20.1679 16.0414 20.1667Z" fill="white"/>
</svg>
