<svg width="40" height="40" viewBox="0 0 40 40" fill="none" xmlns="http://www.w3.org/2000/svg">
<g clip-path="url(#clip0_543_40683)">
<path d="M38.8698 19.1035C37.2907 16.8919 34.7257 15.5717 32.0083 15.5717H28.4544L18.7869 3.86554C18.642 3.68989 18.4261 3.5882 18.1982 3.5882H14.4382C14.1949 3.5882 13.9664 3.70391 13.8227 3.89984C13.6787 4.09607 13.6369 4.34866 13.7097 4.58068L14.604 7.42483H13.6324C13.211 7.42483 12.869 7.76689 12.869 8.18828C12.869 8.60996 13.211 8.95173 13.6324 8.95173H15.0842L15.8852 11.4997H14.9571C14.5355 11.4997 14.1937 11.8418 14.1937 12.2632C14.1937 12.6849 14.5355 13.0266 14.9571 13.0266H16.3656L17.1658 15.5717H10.6132L7.9853 12.4985C7.84006 12.3288 7.62803 12.2313 7.40496 12.2313H5.34364C5.10685 12.2313 4.88378 12.341 4.73915 12.5283C4.59451 12.7159 4.545 12.9595 4.60524 13.1886L6.27231 19.5356L4.60495 25.9063C4.545 26.135 4.59481 26.3789 4.73944 26.5662C4.88378 26.7535 5.10715 26.863 5.34364 26.863H7.40496C7.62862 26.863 7.84066 26.7651 7.98559 26.5952L10.6067 23.5226H17.1658L16.3653 26.0676H14.9568C14.5355 26.0676 14.1934 26.4094 14.1934 26.831C14.1934 27.2527 14.5355 27.5945 14.9568 27.5945H15.8855L15.0842 30.1425H13.6327C13.211 30.1425 12.8693 30.4843 12.8693 30.906C12.8693 31.3276 13.211 31.6694 13.6327 31.6694H14.604L13.71 34.5136C13.6369 34.7456 13.679 34.9985 13.8227 35.1944C13.9664 35.3903 14.1952 35.506 14.4382 35.506H18.1985C18.4261 35.506 18.642 35.4043 18.7872 35.2287L28.4544 23.5226H32.0083C34.7257 23.5226 37.2907 22.2023 38.8698 19.9907C39.0592 19.7253 39.0592 19.3689 38.8698 19.1035ZM15.4784 5.11509H17.8386L26.4739 15.5717H18.7663L15.4784 5.11509ZM7.05335 13.7582L9.22262 16.2946L7.46221 18.055L6.33344 13.7582H7.05335ZM7.05275 25.3361H6.33255L7.46132 21.0238L9.21815 22.7976L7.05275 25.3361ZM17.8386 33.9791H15.4784L18.7663 23.5226H26.4739L17.8386 33.9791ZM32.0083 21.9957H18.2113C18.209 21.9957 18.2069 21.9957 18.2045 21.9957H10.573L8.13858 19.5377L10.5777 17.0986H18.2021C18.2033 17.0986 18.2048 17.0989 18.206 17.0989C18.2072 17.0989 18.2087 17.0986 18.2098 17.0986H32.0083C34.0452 17.0986 35.9779 18.0046 37.2821 19.547C35.9779 21.0897 34.0452 21.9957 32.0083 21.9957Z" fill="#425A8B"/>
<path d="M10.2615 30.1422C10.0605 30.1422 9.86367 30.2239 9.72171 30.3659C9.57887 30.5078 9.49805 30.705 9.49805 30.9057C9.49805 31.1064 9.57887 31.3035 9.72171 31.4454C9.86367 31.5874 10.0599 31.6691 10.2615 31.6691C10.4622 31.6691 10.659 31.5874 10.801 31.4454C10.9429 31.3035 11.0249 31.1064 11.0249 30.9057C11.0249 30.705 10.9432 30.5078 10.801 30.3659C10.659 30.2239 10.4622 30.1422 10.2615 30.1422Z" fill="#425A8B"/>
<path d="M7.20851 30.1425H0.687277C0.265591 30.1425 -0.0761719 30.4843 -0.0761719 30.906C-0.0761719 31.3274 0.265591 31.6694 0.687277 31.6694H7.20851C7.62989 31.6694 7.97196 31.3274 7.97196 30.906C7.97196 30.4843 7.62989 30.1425 7.20851 30.1425Z" fill="#425A8B"/>
<path d="M0.687277 20.3203H3.20666C3.62835 20.3203 3.97011 19.9785 3.97011 19.5568C3.97011 19.1351 3.62835 18.7934 3.20666 18.7934H0.687277C0.265591 18.7934 -0.0761719 19.1351 -0.0761719 19.5568C-0.0761719 19.9785 0.265591 20.3203 0.687277 20.3203Z" fill="#425A8B"/>
<path d="M0.687277 8.95204C0.887981 8.95204 1.08511 8.87033 1.22706 8.72837C1.36901 8.58642 1.45073 8.38929 1.45073 8.18859C1.45073 7.98759 1.36901 7.79076 1.22706 7.64881C1.08511 7.50596 0.887981 7.42514 0.687277 7.42514C0.486574 7.42514 0.289449 7.50596 0.147495 7.64881C0.00554101 7.79076 -0.0761719 7.98759 -0.0761719 8.18859C-0.0761719 8.38929 0.00554101 8.58642 0.147495 8.72837C0.289449 8.87033 0.486574 8.95204 0.687277 8.95204Z" fill="#425A8B"/>
<path d="M3.74001 8.95173H10.2612C10.6826 8.95173 11.0247 8.60997 11.0247 8.18828C11.0247 7.7669 10.6826 7.42484 10.2612 7.42484H3.74001C3.31833 7.42484 2.97656 7.7669 2.97656 8.18828C2.97656 8.60997 3.31833 8.95173 3.74001 8.95173Z" fill="#425A8B"/>
</g>
<defs>
<clipPath id="clip0_543_40683">
<rect width="39.0886" height="39.0886" fill="white"/>
</clipPath>
</defs>
</svg>
