<svg width="40" height="40" viewBox="0 0 40 40" fill="none" xmlns="http://www.w3.org/2000/svg">
<g clip-path="url(#clip0_543_40704)">
<path d="M33.4992 23.3216C33.9206 23.3216 34.2626 22.9798 34.2626 22.5581C34.2626 22.1367 33.9206 21.7947 33.4992 21.7947H29.8513C29.4297 21.7947 29.0879 22.1367 29.0879 22.5581C29.0879 22.9798 29.4297 23.3216 29.8513 23.3216H33.4992Z" fill="#425A8B"/>
<path d="M26.2227 25.7071C26.2227 26.1287 26.5644 26.4705 26.9861 26.4705H33.4978C33.9192 26.4705 34.2612 26.1287 34.2612 25.7071C34.2612 25.2854 33.9192 24.9436 33.4978 24.9436H26.9861C26.5644 24.9436 26.2227 25.2854 26.2227 25.7071Z" fill="#425A8B"/>
<path d="M24.4729 26.2465C24.6151 26.1046 24.6968 25.9077 24.6968 25.7067C24.6968 25.506 24.6151 25.3092 24.4729 25.167C24.3312 25.025 24.1341 24.9433 23.9334 24.9433C23.7318 24.9433 23.5355 25.025 23.3936 25.167C23.2507 25.3092 23.1699 25.506 23.1699 25.7067C23.1699 25.9077 23.2507 26.1046 23.3936 26.2465C23.5355 26.3894 23.7324 26.4702 23.9334 26.4702C24.1341 26.4702 24.3303 26.3894 24.4729 26.2465Z" fill="#425A8B"/>
<path d="M36.7982 0.177185H10.5356C9.2726 0.177185 8.24523 1.20456 8.24523 2.46753V10.4074C8.24523 10.8291 8.58699 11.1708 9.00868 11.1708C9.43036 11.1708 9.77213 10.8291 9.77213 10.4074V2.46753C9.77213 2.04644 10.1148 1.70408 10.5356 1.70408H18.5061V11.0486C18.5061 11.3575 18.6919 11.6358 18.9773 11.7541C19.2624 11.8722 19.5911 11.8066 19.8094 11.5886L21.4681 9.92963L23.1271 11.5886C23.4253 11.8869 23.9084 11.8869 24.2069 11.5886L25.8657 9.92963L27.5247 11.5886C27.6708 11.7348 27.8658 11.8123 28.0644 11.8123C28.1629 11.8123 28.2622 11.7932 28.3567 11.7541C28.6418 11.6358 28.8279 11.3575 28.8279 11.0486V1.70408H36.7982C37.2193 1.70408 37.5616 2.04644 37.5616 2.46753V28.7301C37.5616 29.1512 37.2193 29.4936 36.7982 29.4936H19.7441C20.1061 28.2243 20.2982 26.8898 20.2982 25.5201V21.5659C20.2982 21.2966 20.1562 21.0473 19.9245 20.9099L10.5389 15.3334C10.2988 15.1906 9.99937 15.1906 9.759 15.3334L0.373373 20.9099C0.141953 21.0473 0 21.2969 0 21.5662V25.5201C0 31.7621 3.98245 37.2706 9.90961 39.2272C9.98744 39.2529 10.0683 39.2657 10.1491 39.2657C10.2299 39.2657 10.3107 39.2529 10.3886 39.2272C14.4813 37.876 17.6467 34.8308 19.2141 31.0205H36.7982C38.0611 31.0205 39.0885 29.9931 39.0885 28.7301V2.46753C39.0885 1.20456 38.0611 0.177185 36.7982 0.177185V0.177185ZM27.301 9.20555L26.4054 8.30999C26.1072 8.01206 25.6241 8.01206 25.3256 8.30999L23.6669 9.96899L22.0082 8.30999C21.859 8.16088 21.6634 8.08662 21.4681 8.08662C21.2727 8.08662 21.0774 8.16088 20.9283 8.30999L20.033 9.20555V1.70408H27.301V9.20555ZM10.1491 37.6959C4.9812 35.8782 1.52689 31.0172 1.52689 25.5201V22.0004L10.1491 16.8776L18.7713 22.0004V25.5201C18.7713 31.0172 15.317 35.8782 10.1491 37.6959Z" fill="#425A8B"/>
<path d="M16.8716 22.6476L10.5398 18.8855C10.2997 18.7427 10.0003 18.7427 9.75992 18.8855L3.42806 22.6476C3.19664 22.7851 3.05469 23.0347 3.05469 23.304V25.5201C3.05469 30.0322 5.719 34.1196 9.84252 35.9337C9.94034 35.9767 10.0453 35.9984 10.15 35.9984C10.2547 35.9984 10.3593 35.977 10.4575 35.9337C14.5807 34.1196 17.245 30.0319 17.245 25.5201V23.304C17.2453 23.0347 17.1033 22.7851 16.8716 22.6476ZM15.7184 25.5201C15.7184 29.3135 13.5438 32.76 10.15 34.3946C6.75592 32.76 4.58159 29.3135 4.58159 25.5201V23.7382L10.15 20.4297L15.7184 23.7382V25.5201Z" fill="#425A8B"/>
<path d="M9.20783 26.8487C8.9096 26.5504 8.42648 26.5504 8.12796 26.8487C7.82974 27.1466 7.82974 27.63 8.12796 27.9282L9.37125 29.1718C9.5144 29.315 9.70884 29.3955 9.91133 29.3955C10.1135 29.3955 10.308 29.315 10.4511 29.1718L13.4766 26.1463C13.7745 25.8481 13.7745 25.3647 13.4766 25.0668C13.1784 24.7686 12.6949 24.7686 12.3967 25.0668L9.91103 27.5522L9.20783 26.8487Z" fill="#425A8B"/>
<path d="M9.54932 14.001C9.69128 13.859 9.77299 13.6619 9.77299 13.4612C9.77299 13.2605 9.69128 13.0633 9.54932 12.9214C9.40737 12.7794 9.21025 12.6977 9.00954 12.6977C8.80884 12.6977 8.61171 12.7794 8.46976 12.9214C8.32781 13.0633 8.24609 13.2605 8.24609 13.4612C8.24609 13.6619 8.32781 13.859 8.46976 14.001C8.61201 14.1429 8.80884 14.2246 9.00954 14.2246C9.21025 14.2246 9.40737 14.1429 9.54932 14.001Z" fill="#425A8B"/>
</g>
<defs>
<clipPath id="clip0_543_40704">
<rect width="39.0886" height="39.0886" fill="white" transform="translate(0 0.177185)"/>
</clipPath>
</defs>
</svg>
