<svg width="40" height="40" viewBox="0 0 40 40" fill="none" xmlns="http://www.w3.org/2000/svg">
<g clip-path="url(#clip0_543_40695)">
<path d="M37.9358 8.63091L23.0106 0.27144C22.7864 0.145889 22.5145 0.145889 22.2902 0.27144L16.6647 3.42216C16.5459 3.45407 16.4351 3.51491 16.3433 3.60229L7.36538 8.63091C7.12592 8.76481 6.9771 9.02128 6.9771 9.30012V19.4105C5.4626 19.8936 4.0747 20.7456 2.9207 21.923C-0.0872569 24.9908 -0.854156 29.6699 1.01236 33.5662C1.19364 33.9449 1.64185 34.1021 2.01316 33.9169C2.38477 33.7317 2.53856 33.2745 2.35729 32.8958C0.771448 29.5852 1.42315 25.6096 3.97909 23.0025C5.57751 21.3722 7.70249 20.4742 9.96284 20.4742C12.2232 20.4742 14.3482 21.3722 15.9466 23.0025C17.5447 24.6326 18.425 26.8001 18.425 29.1057C18.425 31.4112 17.5447 33.5787 15.9463 35.2091C13.3903 37.8161 9.4927 38.4809 6.24704 36.8633C5.87573 36.6781 5.42752 36.8353 5.24625 37.214C5.06468 37.5931 5.21847 38.0502 5.59008 38.2351C6.98149 38.9288 8.47436 39.2658 9.9564 39.2658C12.5419 39.2655 15.0928 38.239 17.005 36.2886C17.8818 35.3943 18.5747 34.3624 19.0651 33.2408L22.2902 35.0471C22.4025 35.1101 22.5265 35.1414 22.6504 35.1414C22.7744 35.1414 22.8987 35.1101 23.0106 35.0471L37.9358 26.688C38.1753 26.5538 38.3241 26.2973 38.3241 26.0188V20.7131C38.3241 20.2914 37.989 19.9496 37.5756 19.9496C37.1622 19.9496 36.8271 20.2914 36.8271 20.7131V25.567L23.4013 33.0866V18.1099L27.8322 15.6281V19.5622C27.8322 19.8324 27.972 20.0823 28.1997 20.2195C28.3173 20.2902 28.4488 20.3257 28.5807 20.3257C28.7046 20.3257 28.8289 20.2944 28.9415 20.2312L32.1398 18.4356C32.3789 18.3014 32.5272 18.0452 32.5272 17.7669V12.9984L36.8271 10.5902V14.6058C36.8271 15.0275 37.1622 15.3692 37.5756 15.3692C37.989 15.3692 38.3241 15.0275 38.3241 14.6058V9.30012C38.3241 9.02158 38.1753 8.76481 37.9358 8.63091ZM22.6504 1.81146L36.0205 9.30012L31.8029 11.6623L18.4329 4.17368L22.6504 1.81146ZM22.6504 16.7885L9.28043 9.30012L13.6526 6.85112L27.0229 14.3395L22.6504 16.7885ZM28.5778 13.4687L15.2077 5.98031L16.8778 5.04479L30.2481 12.5331L28.5778 13.4687ZM17.005 21.923C15.1238 20.0042 12.6229 18.9476 9.96284 18.9476C9.45966 18.9476 8.96262 18.9855 8.47406 19.0597V10.5902L21.9046 18.1126V33.0893L19.5735 31.7837C19.803 30.9218 19.9217 30.023 19.9217 29.1057C19.9217 26.3924 18.8858 23.8414 17.005 21.923ZM31.0305 17.3157L29.3292 18.2709V14.7898L31.0305 13.837V17.3157Z" fill="#425A8B"/>
<path d="M37.5747 16.8922C37.3779 16.8922 37.1846 16.974 37.0455 17.1159C36.9063 17.2579 36.8262 17.4547 36.8262 17.6557C36.8262 17.8564 36.9063 18.0532 37.0455 18.1952C37.1846 18.3374 37.3779 18.4188 37.5747 18.4188C37.7714 18.4188 37.9647 18.3374 38.1039 18.1952C38.243 18.0532 38.3231 17.8564 38.3231 17.6557C38.3231 17.4547 38.243 17.2579 38.1039 17.1159C37.9647 16.974 37.7714 16.8922 37.5747 16.8922Z" fill="#425A8B"/>
<path d="M7.445 29.8691C7.63651 29.8691 7.8283 29.7945 7.9742 29.6457C8.26657 29.3475 8.26657 28.8641 7.9742 28.5659L7.45582 28.0368H11.8794C12.9525 28.0368 13.8255 28.9273 13.8255 30.0218C13.8255 31.1163 12.9525 32.0067 11.8794 32.0067H9.25831C8.84489 32.0067 8.50983 32.3485 8.50983 32.7702C8.50983 33.1916 8.84489 33.5333 9.25831 33.5333H11.8794C13.7778 33.5333 15.3225 31.9581 15.3225 30.0218C15.3225 28.0854 13.7778 26.5102 11.8794 26.5102H7.45582L7.9742 25.9812C8.26657 25.6829 8.26657 25.1995 7.9742 24.9013C7.68212 24.6034 7.20818 24.6034 6.9158 24.9013L5.11945 26.7336C4.82737 27.0318 4.82737 27.5152 5.11945 27.8134L6.9158 29.6454C7.06199 29.7945 7.2535 29.8691 7.445 29.8691Z" fill="#425A8B"/>
<path d="M3.45012 36.5135C3.23727 36.5135 3.02588 36.421 2.87823 36.2418L2.87677 36.24C2.61071 35.9173 2.65164 35.436 2.96799 35.1646C3.28434 34.8929 3.75653 34.9347 4.02259 35.2574C4.28836 35.5803 4.2483 36.0626 3.93195 36.3339C3.79132 36.4544 3.62028 36.5135 3.45012 36.5135Z" fill="#425A8B"/>
</g>
<defs>
<clipPath id="clip0_543_40695">
<rect width="39.0886" height="39.0886" fill="white" transform="translate(0 0.177185)"/>
</clipPath>
</defs>
</svg>
