<svg width="40" height="40" viewBox="0 0 40 40" fill="none" xmlns="http://www.w3.org/2000/svg">
<g clip-path="url(#clip0_543_40671)">
<path d="M36.3437 17.0263C36.1941 12.585 34.4674 8.43181 31.4356 5.27368C28.2579 1.96286 24.0345 0.140121 19.5442 0.140121C10.475 0.140121 3.06465 7.65946 2.74522 17.0263C1.36124 17.667 0.392578 19.1099 0.392578 20.787V25.4071C0.392578 27.6758 2.16439 29.5221 4.34297 29.5221C5.7526 29.5221 6.89899 28.3279 6.89899 26.8596V19.3339C6.89899 17.9552 5.88391 16.831 4.59338 16.6974C5.06977 8.53679 11.5915 2.04874 19.5442 2.04874C23.5458 2.04874 27.3087 3.67362 30.1408 6.62371C32.7414 9.33268 34.2634 12.8636 34.4925 16.6981C33.2032 16.8329 32.1899 17.9565 32.1899 19.3339V26.8589C32.1899 28.249 33.2209 29.3802 34.5267 29.4979V31.3995C34.5267 33.541 32.8538 35.2829 30.798 35.2829H28.0368C27.9012 34.8796 27.6886 34.5068 27.3906 34.1976C26.8684 33.6511 26.1721 33.3501 25.4306 33.3501H22.5845C22.1759 33.3501 21.7838 33.4405 21.4247 33.6148C20.445 34.0837 19.8123 35.1131 19.8123 36.2373C19.8123 37.0096 20.1012 37.7349 20.6246 38.2776C21.148 38.8241 21.8443 39.125 22.5845 39.125H25.4306C26.6106 39.125 27.6508 38.3304 28.0386 37.1916H30.798C33.8646 37.1916 36.359 34.5933 36.359 31.3995V29.1582C37.7344 28.5137 38.6957 27.0759 38.6957 25.4058V20.7857C38.6957 19.1099 37.7271 17.667 36.3437 17.0263ZM5.06611 19.3339V26.8589C5.06611 27.2744 4.74179 27.6128 4.34236 27.6128C3.17459 27.6128 2.22424 26.6229 2.22424 25.4065V20.7863C2.22424 19.5693 3.17459 18.58 4.34236 18.58C4.74179 18.58 5.06611 18.9184 5.06611 19.3339ZM26.3498 36.4421C26.2588 36.8913 25.8716 37.2177 25.43 37.2177H22.5839C22.3335 37.2177 22.0983 37.1159 21.9188 36.9288C21.7417 36.7449 21.6439 36.4994 21.6439 36.2385C21.6439 35.8574 21.8583 35.5094 22.1942 35.3485C22.3139 35.2899 22.4453 35.26 22.5839 35.26H25.43C25.6804 35.26 25.9156 35.3612 26.0945 35.5482C26.2717 35.7321 26.3694 35.9777 26.3694 36.2385C26.37 36.3085 26.3627 36.3785 26.3498 36.4421ZM36.8634 25.4065C36.8634 26.6229 35.9131 27.6128 34.7453 27.6128C34.3465 27.6128 34.0216 27.275 34.0216 26.8589V19.3339C34.0216 18.9184 34.3459 18.58 34.7453 18.58C35.9131 18.58 36.8634 19.5699 36.8634 20.7863V25.4065Z" fill="#425A8B"/>
<path d="M25.4771 25.7354C27.6178 25.7354 29.359 23.9209 29.359 21.6917V13.4521C29.359 12.3744 28.9547 11.359 28.2206 10.5943C27.4865 9.82957 26.5123 9.4084 25.4771 9.4084H13.6125C11.4717 9.4084 9.73047 11.2222 9.73047 13.4521V21.6917C9.73047 23.9216 11.4717 25.7354 13.6125 25.7354H13.6851V27.8705C13.6851 28.6849 14.1511 29.4076 14.8718 29.7123C15.1045 29.8097 15.3464 29.858 15.5858 29.858C16.0848 29.858 16.571 29.6519 16.927 29.2683L20.3369 25.7354H25.4771ZM19.3139 24.1042L15.6237 27.9271C15.6072 27.9449 15.595 27.9583 15.5602 27.9424C15.518 27.9246 15.518 27.896 15.518 27.8705V24.7811C15.518 24.2543 15.1082 23.8268 14.6019 23.8268H13.6131C12.4825 23.8268 11.5634 22.8686 11.5634 21.6917V13.4521C11.5634 12.2745 12.4825 11.317 13.6131 11.317H25.4777C26.0237 11.317 26.5373 11.5397 26.9258 11.9437C27.3142 12.3483 27.5274 12.884 27.5274 13.4521V21.6917C27.5274 22.8693 26.6076 23.8268 25.4777 23.8268H19.9601C19.7176 23.8268 19.4855 23.9267 19.3139 24.1042Z" fill="#425A8B"/>
<path d="M15.0938 16.3163C14.3487 16.3163 13.7422 16.9487 13.7422 17.7243C13.7422 18.4998 14.3493 19.1322 15.0938 19.1322C15.8395 19.1322 16.4466 18.4998 16.4466 17.7243C16.4466 16.9487 15.8401 16.3163 15.0938 16.3163Z" fill="#425A8B"/>
<path d="M19.543 16.3163C18.7979 16.3163 18.1914 16.9487 18.1914 17.7243C18.1914 18.4998 18.7985 19.1322 19.543 19.1322C20.2894 19.1322 20.8958 18.4998 20.8958 17.7243C20.8958 16.9487 20.2894 16.3163 19.543 16.3163Z" fill="#425A8B"/>
<path d="M23.9942 16.3163C23.2491 16.3163 22.6426 16.9487 22.6426 17.7243C22.6426 18.4998 23.2497 19.1322 23.9942 19.1322C24.7399 19.1322 25.347 18.4998 25.347 17.7243C25.347 16.9487 24.7399 16.3163 23.9942 16.3163Z" fill="#425A8B"/>
</g>
<defs>
<clipPath id="clip0_543_40671">
<rect width="39.0886" height="39.0886" fill="white" transform="translate(0 0.0885925)"/>
</clipPath>
</defs>
</svg>
