<svg width="16" height="14" viewBox="0 0 16 14" fill="none" xmlns="http://www.w3.org/2000/svg">
<path d="M5.5553 13.4297C5.50166 13.4297 5.44896 13.4157 5.40241 13.389C5.35587 13.3624 5.3171 13.324 5.28995 13.2778C4.13982 11.3183 1.07505 7.14819 1.04422 7.10628C1.00043 7.04676 0.979527 6.97347 0.985324 6.89981C0.99112 6.82614 1.02323 6.75702 1.07579 6.70508L2.01789 5.77416C2.06907 5.72358 2.13636 5.69254 2.20805 5.68644C2.27975 5.68033 2.35132 5.69955 2.41032 5.74075L5.49115 7.89201C7.53939 5.26075 9.44284 3.44484 10.6939 2.37487C12.0962 1.17539 12.9878 0.636407 13.0251 0.613945C13.0729 0.585238 13.1276 0.570071 13.1834 0.570068H14.7075C14.7698 0.570058 14.8307 0.589009 14.8821 0.624407C14.9335 0.659806 14.9729 0.709981 14.9951 0.768279C15.0173 0.826577 15.0212 0.890245 15.0064 0.95084C14.9916 1.01144 14.9587 1.0661 14.9121 1.10758C12.6527 3.11988 10.3036 6.31721 8.73093 8.64499C7.0213 11.1753 5.83447 13.2536 5.82268 13.2743C5.79597 13.3212 5.75739 13.3602 5.71081 13.3875C5.66423 13.4148 5.6113 13.4293 5.55733 13.4297L5.5553 13.4297Z" fill="white"/>
</svg>
