<svg width="18" height="18" viewBox="0 0 18 18" fill="none" xmlns="http://www.w3.org/2000/svg">
<path d="M11.8119 7.00875L9.79256 9L11.8119 10.9913C11.8681 11.0439 11.9129 11.1075 11.9436 11.1781C11.9742 11.2487 11.99 11.3249 11.99 11.4019C11.99 11.4789 11.9742 11.555 11.9436 11.6257C11.9129 11.6963 11.8681 11.7599 11.8119 11.8125C11.7594 11.8646 11.697 11.9059 11.6285 11.9339C11.56 11.9619 11.4866 11.9761 11.4126 11.9756C11.265 11.975 11.1236 11.9164 11.0188 11.8125L8.99943 9.79313L7.00818 11.8125C6.90341 11.9164 6.762 11.975 6.61443 11.9756C6.5404 11.9761 6.46702 11.9619 6.39848 11.9339C6.32995 11.9059 6.26762 11.8646 6.21506 11.8125C6.11029 11.7071 6.05149 11.5645 6.05149 11.4159C6.05149 11.2673 6.11029 11.1248 6.21506 11.0194L8.20631 9L6.21506 7.00875C6.1229 6.90115 6.07475 6.76273 6.08022 6.62116C6.08569 6.47959 6.14437 6.3453 6.24455 6.24513C6.34473 6.14495 6.47902 6.08626 6.62059 6.08079C6.76216 6.07532 6.90057 6.12348 7.00818 6.21563L8.99943 8.20688L10.9907 6.21563C11.0428 6.16171 11.1049 6.11857 11.1737 6.08868C11.2424 6.05879 11.3164 6.04273 11.3914 6.04142C11.4663 6.04012 11.5408 6.05359 11.6105 6.08107C11.6803 6.10854 11.7439 6.14949 11.7979 6.20157C11.8518 6.25364 11.8949 6.31583 11.9248 6.38458C11.9547 6.45333 11.9708 6.52729 11.9721 6.60225C11.9734 6.6772 11.9599 6.75168 11.9324 6.82143C11.905 6.89118 11.864 6.95483 11.8119 7.00875ZM14.5682 14.5688C13.4668 15.67 12.0636 16.42 10.536 16.7237C9.00846 17.0275 7.4251 16.8715 5.98618 16.2755C4.54726 15.6794 3.3174 14.6701 2.45212 13.375C1.58684 12.08 1.125 10.5575 1.125 9C1.125 7.44251 1.58684 5.91999 2.45212 4.62497C3.3174 3.32995 4.54726 2.32059 5.98618 1.72453C7.4251 1.12847 9.00846 0.972467 10.536 1.27626C12.0636 1.58005 13.4668 2.33 14.5682 3.43125C15.2995 4.16253 15.8797 5.0307 16.2755 5.98619C16.6713 6.94168 16.875 7.96578 16.875 9C16.875 10.0342 16.6713 11.0583 16.2755 12.0138C15.8797 12.9693 15.2995 13.8375 14.5682 14.5688ZM13.7751 4.22438C12.8301 3.28272 11.6273 2.64217 10.3186 2.38362C9.00989 2.12507 7.65389 2.26011 6.42185 2.77169C5.18982 3.28327 4.137 4.14844 3.39633 5.25797C2.65567 6.36749 2.26038 7.6716 2.26038 9.00563C2.26038 10.3397 2.65567 11.6438 3.39633 12.7533C4.137 13.8628 5.18982 14.728 6.42185 15.2396C7.65389 15.7512 9.00989 15.8862 10.3186 15.6276C11.6273 15.3691 12.8301 14.7285 13.7751 13.7869C14.4043 13.1598 14.9036 12.4146 15.2443 11.5942C15.585 10.7737 15.7604 9.89402 15.7604 9.00563C15.7604 8.11723 15.585 7.23758 15.2443 6.4171C14.9036 5.59663 14.4043 4.85148 13.7751 4.22438Z" fill="white"/>
</svg>
