<svg width="14" height="12" viewBox="0 0 14 12" fill="none" xmlns="http://www.w3.org/2000/svg">
<path d="M1.16602 6.83331L11.0493 6.83331L8.02435 10.4666C7.8829 10.6368 7.81485 10.8562 7.83517 11.0766C7.85548 11.2969 7.9625 11.5002 8.13268 11.6416C8.30286 11.7831 8.52226 11.8511 8.74262 11.8308C8.96297 11.8105 9.16623 11.7035 9.30768 11.5333L13.4743 6.53331C13.5024 6.49354 13.5275 6.45176 13.5493 6.40831C13.5493 6.36664 13.5493 6.34164 13.6077 6.29997C13.6455 6.20442 13.6652 6.10271 13.666 5.99997C13.6652 5.89723 13.6455 5.79552 13.6077 5.69997C13.6077 5.65831 13.6077 5.63331 13.5493 5.59164C13.5275 5.54819 13.5024 5.50641 13.4743 5.46664L9.30768 0.466641C9.22933 0.372572 9.13121 0.296921 9.02031 0.24507C8.90941 0.19322 8.78844 0.166441 8.66602 0.16664C8.47131 0.16626 8.28261 0.234072 8.13268 0.358307C8.0483 0.428264 7.97855 0.514182 7.92742 0.611138C7.8763 0.708094 7.8448 0.814183 7.83474 0.92333C7.82467 1.03248 7.83624 1.14254 7.86878 1.24721C7.90132 1.35188 7.95418 1.4491 8.02435 1.53331L11.0493 5.16664L1.16602 5.16664C0.945003 5.16664 0.733041 5.25444 0.57676 5.41072C0.42048 5.567 0.332683 5.77896 0.332683 5.99997C0.332683 6.22099 0.42048 6.43295 0.57676 6.58923C0.73304 6.74551 0.945003 6.83331 1.16602 6.83331Z" fill="#425A8B"/>
</svg>
