<svg width="67" height="20" viewBox="0 0 67 20" fill="none" xmlns="http://www.w3.org/2000/svg">
<g clip-path="url(#clip0_576_167876)">
<path d="M41.0995 15.6244C37.2534 18.4593 31.6788 19.9718 26.8791 19.9718C20.1491 19.9718 14.0904 17.4827 9.5068 13.3427C9.14668 13.0171 9.46935 12.5735 9.9015 12.827C14.8481 15.7051 20.9644 17.4366 27.2824 17.4366C31.5434 17.4366 36.2307 16.555 40.5406 14.7256C41.1917 14.449 41.7362 15.1519 41.0995 15.6244Z" fill="#FF9900"/>
<path d="M42.6988 13.7954C42.209 13.1673 39.449 13.4986 38.2102 13.6456C37.8328 13.6917 37.7752 13.3632 38.1151 13.127C40.3133 11.5799 43.9203 12.0265 44.3409 12.545C44.7615 13.0665 44.2314 16.6821 42.1658 18.4078C41.8489 18.6729 41.5464 18.5317 41.6875 18.1802C42.1514 17.0221 43.1914 14.4263 42.6988 13.7954Z" fill="#FF9900"/>
<path d="M38.2963 2.20544V0.701577C38.2963 0.47398 38.4691 0.321289 38.6765 0.321289H45.4094C45.6254 0.321289 45.7983 0.476862 45.7983 0.701577V1.98937C45.7954 2.20544 45.6139 2.48778 45.2913 2.93433L41.8024 7.91553C43.0988 7.88384 44.4673 8.07686 45.6427 8.73949C45.9078 8.8893 45.9798 9.10825 46 9.32433V10.929C46 11.148 45.758 11.4044 45.5044 11.2719C43.433 10.1857 40.6817 10.0676 38.3913 11.2834C38.158 11.4102 37.9131 11.1566 37.9131 10.9377V9.41364C37.9131 9.16875 37.916 8.75101 38.1608 8.37937L42.2029 2.58285H38.6852C38.4691 2.58285 38.2963 2.43016 38.2963 2.20544Z" fill="#221F1F"/>
<path d="M13.7365 11.5884H11.6881C11.4922 11.574 11.3367 11.4271 11.3223 11.2398V0.727174C11.3223 0.516863 11.498 0.349765 11.717 0.349765H13.627C13.8258 0.358402 13.9843 0.511099 13.9987 0.701243V2.07547H14.0361C14.5346 0.747338 15.4709 0.12793 16.7327 0.12793C18.0148 0.12793 18.8157 0.747338 19.3919 2.07547C19.8874 0.747338 21.0139 0.12793 22.221 0.12793C23.0795 0.12793 24.0187 0.482289 24.592 1.27744C25.2402 2.1619 25.1077 3.44681 25.1077 4.57327L25.1048 11.2081C25.1048 11.4185 24.9291 11.5884 24.7101 11.5884H22.6647C22.4601 11.574 22.2959 11.4098 22.2959 11.2081V5.63635C22.2959 5.19268 22.3362 4.08639 22.2383 3.66576C22.0856 2.95993 21.6275 2.76114 21.034 2.76114C20.5385 2.76114 20.0199 3.09245 19.8096 3.62255C19.5993 4.15265 19.6195 5.03999 19.6195 5.63635V11.2081C19.6195 11.4185 19.4437 11.5884 19.2248 11.5884H17.1793C16.9719 11.574 16.8105 11.4098 16.8105 11.2081L16.8076 5.63635C16.8076 4.46379 17.0007 2.73809 15.5458 2.73809C14.0736 2.73809 14.1312 4.42058 14.1312 5.63635V11.2081C14.1312 11.4185 13.9555 11.5884 13.7365 11.5884Z" fill="#221F1F"/>
<path d="M51.5949 0.12793C54.6343 0.12793 56.2794 2.73809 56.2794 6.05697C56.2794 9.26349 54.4615 11.8074 51.5949 11.8074C48.6102 11.8074 46.9854 9.19723 46.9854 5.94461C46.9854 2.67183 48.6304 0.12793 51.5949 0.12793ZM51.6122 2.27425C50.1026 2.27425 50.0075 4.33127 50.0075 5.6133C50.0075 6.89821 49.9873 9.6409 51.5949 9.6409C53.1823 9.6409 53.2572 7.42831 53.2572 6.08002C53.2572 5.19268 53.2198 4.13248 52.9518 3.29124C52.7214 2.55947 52.2633 2.27425 51.6122 2.27425Z" fill="#221F1F"/>
<path d="M60.2209 11.5884H58.1812C57.9767 11.574 57.8124 11.4098 57.8124 11.2081L57.8096 0.6926C57.8269 0.499575 57.9968 0.349765 58.2043 0.349765H60.1028C60.2814 0.358402 60.4284 0.479409 60.4687 0.643624V2.25121H60.5062C61.0795 0.813601 61.8833 0.12793 63.2978 0.12793C64.2168 0.12793 65.1128 0.459242 65.689 1.36675C66.2249 2.20799 66.2249 3.62255 66.2249 4.63953V11.2571C66.2018 11.4415 66.0319 11.5884 65.8302 11.5884H63.7761C63.5888 11.574 63.4332 11.4357 63.4131 11.2571V5.54704C63.4131 4.39753 63.5456 2.71504 62.131 2.71504C61.6326 2.71504 61.1745 3.04924 60.9469 3.55629C60.6588 4.19874 60.6214 4.83832 60.6214 5.54704V11.2081C60.6185 11.4185 60.4399 11.5884 60.2209 11.5884Z" fill="#221F1F"/>
<path d="M32.9292 6.56715V6.12348C31.4484 6.12348 29.884 6.44039 29.884 8.18626C29.884 9.07071 30.3421 9.66996 31.1286 9.66996C31.7048 9.66996 32.2205 9.3156 32.546 8.7394C32.9494 8.03068 32.9292 7.36518 32.9292 6.56715ZM34.9948 11.5599C34.8594 11.6809 34.6635 11.6895 34.5108 11.6089C33.8309 11.0442 33.7099 10.782 33.3354 10.2433C32.2118 11.3899 31.4167 11.7327 29.9589 11.7327C28.2361 11.7327 26.8936 10.6697 26.8936 8.54062C26.8936 6.8783 27.7953 5.74607 29.0773 5.19293C30.1894 4.70316 31.7422 4.61673 32.9292 4.48133V4.21628C32.9292 3.72939 32.9666 3.1532 32.6814 2.73258C32.4308 2.35517 31.9525 2.1996 31.5319 2.1996C30.7512 2.1996 30.054 2.60005 29.884 3.42977C29.8494 3.61415 29.714 3.79566 29.5296 3.8043L27.5418 3.5911C27.3747 3.55365 27.1903 3.41825 27.2364 3.16184C27.6945 0.75335 29.8696 0.0273438 31.8171 0.0273438C32.8139 0.0273438 34.1161 0.292393 34.9027 1.04721C35.8995 1.97776 35.8044 3.21946 35.8044 4.57064V7.76275C35.8044 8.72212 36.202 9.14274 36.5765 9.66131C36.709 9.8457 36.7378 10.0675 36.5707 10.2058C36.153 10.5544 35.4097 11.2026 35.0006 11.5656L34.9948 11.5599" fill="#221F1F"/>
<path d="M6.07568 6.56715V6.12348C4.59485 6.12348 3.03049 6.44039 3.03049 8.18626C3.03049 9.07071 3.48856 9.66996 4.27507 9.66996C4.85126 9.66996 5.36695 9.3156 5.69251 8.7394C6.09584 8.03068 6.07568 7.36518 6.07568 6.56715ZM8.14133 11.5599C8.00593 11.6809 7.81002 11.6895 7.65733 11.6089C6.97742 11.0442 6.85642 10.782 6.48189 10.2433C5.35831 11.3899 4.56317 11.7327 3.10539 11.7327C1.38257 11.7327 0.0400391 10.6697 0.0400391 8.54062C0.0400391 6.8783 0.941783 5.74607 2.22381 5.19293C3.33587 4.70316 4.88871 4.61673 6.07568 4.48133V4.21628C6.07568 3.72939 6.11313 3.1532 5.82791 2.73258C5.57726 2.35517 5.09903 2.1996 4.6784 2.1996C3.89766 2.1996 3.20046 2.60005 3.03049 3.42977C2.99591 3.61415 2.86051 3.79566 2.67613 3.8043L0.688258 3.5911C0.521161 3.55365 0.336779 3.41825 0.382874 3.16184C0.840949 0.75335 3.01608 0.0273438 4.96362 0.0273438C5.96043 0.0273438 7.26263 0.292393 8.04914 1.04721C9.04596 1.97776 8.95088 3.21946 8.95088 4.57064V7.76275C8.95088 8.72212 9.34846 9.14274 9.72299 9.66131C9.85551 9.8457 9.88432 10.0675 9.71722 10.2058C9.29948 10.5544 8.55619 11.2026 8.14709 11.5656L8.14133 11.5599" fill="#221F1F"/>
</g>
<defs>
<clipPath id="clip0_576_167876">
<rect width="66.2637" height="20" fill="white"/>
</clipPath>
</defs>
</svg>
