<svg width="33" height="32" viewBox="0 0 33 32" fill="none" xmlns="http://www.w3.org/2000/svg">
<g clip-path="url(#clip0_612_49509)">
<path d="M2.538 24.5319H4.49944C4.75074 25.3124 5.24318 25.9931 5.90591 26.4759C6.56863 26.9588 7.36747 27.2189 8.18744 27.2189C9.00741 27.2189 9.80624 26.9588 10.469 26.4759C11.1317 25.9931 11.6241 25.3124 11.8754 24.5319H22.4164C22.6677 25.3124 23.1601 25.9931 23.8228 26.4759C24.4856 26.9588 25.2844 27.2189 26.1044 27.2189C26.9243 27.2189 27.7232 26.9588 28.3859 26.4759C29.0486 25.9931 29.5411 25.3124 29.7924 24.5319H31.5C31.6327 24.5319 31.7641 24.5055 31.8866 24.4542C32.009 24.4029 32.12 24.3278 32.2131 24.2331C32.3061 24.1385 32.3794 24.0263 32.4287 23.903C32.478 23.7798 32.5022 23.648 32.5 23.5152L32.4176 18.5721C32.4147 18.4033 32.3692 18.2379 32.2852 18.0914L28.2152 10.9929C28.1276 10.8402 28.0013 10.7133 27.849 10.6251C27.6966 10.5368 27.5237 10.4904 27.3477 10.4904H22.0156V6.81906C22.0149 6.27877 21.8 5.7608 21.4179 5.37878C21.0358 4.99675 20.5179 4.78186 19.9776 4.78125H2.538C1.99771 4.78186 1.47972 4.99675 1.09766 5.37878C0.715597 5.7608 0.500662 6.27877 0.5 6.81906L0.5 22.4937C0.500579 23.0341 0.715478 23.5521 1.09755 23.9342C1.47962 24.3163 1.99766 24.5313 2.538 24.5319ZM26.1044 25.2188C25.7335 25.2188 25.371 25.1088 25.0627 24.9028C24.7543 24.6967 24.514 24.4039 24.3721 24.0613C24.2302 23.7187 24.1931 23.3417 24.2654 22.978C24.3377 22.6142 24.5163 22.2801 24.7785 22.0179C25.0408 21.7557 25.3749 21.5771 25.7386 21.5048C26.1023 21.4324 26.4793 21.4696 26.8219 21.6115C27.1645 21.7534 27.4574 21.9937 27.6634 22.3021C27.8694 22.6104 27.9794 22.9729 27.9794 23.3438C27.9788 23.8409 27.7811 24.3174 27.4296 24.669C27.0781 25.0205 26.6015 25.2182 26.1044 25.2188ZM22.0156 12.4904H26.7684L30.422 18.8628L30.4831 22.5316H29.8931C29.7073 21.6646 29.2298 20.8876 28.5403 20.3302C27.8508 19.7728 26.991 19.4687 26.1044 19.4687C25.2177 19.4687 24.3579 19.7728 23.6684 20.3302C22.9789 20.8876 22.5015 21.6646 22.3157 22.5316H22.0157L22.0156 12.4904ZM8.1875 25.2188C7.81666 25.2188 7.45415 25.1088 7.14581 24.9028C6.83746 24.6967 6.59714 24.4039 6.45523 24.0613C6.31331 23.7187 6.27618 23.3417 6.34853 22.978C6.42087 22.6142 6.59945 22.2801 6.86167 22.0179C7.1239 21.7557 7.45799 21.5771 7.82171 21.5048C8.18542 21.4324 8.56242 21.4696 8.90503 21.6115C9.24764 21.7534 9.54048 21.9937 9.74651 22.3021C9.95253 22.6104 10.0625 22.9729 10.0625 23.3438C10.0619 23.8409 9.86421 24.3174 9.5127 24.669C9.16119 25.0205 8.68461 25.2182 8.1875 25.2188ZM2.5 6.81875C2.5005 6.80883 2.50466 6.79945 2.51168 6.79243C2.5187 6.78541 2.52808 6.78125 2.538 6.78075H19.9776C19.9875 6.78125 19.9969 6.78541 20.0039 6.79243C20.0109 6.79945 20.0151 6.80883 20.0156 6.81875V22.5312H11.9761C11.7904 21.6643 11.3129 20.8873 10.6234 20.3299C9.93388 19.7725 9.07407 19.4684 8.18744 19.4684C7.30081 19.4684 6.44099 19.7725 5.75149 20.3299C5.06199 20.8873 4.58452 21.6643 4.39875 22.5312H2.538C2.52816 22.5308 2.51885 22.5267 2.51184 22.5198C2.50483 22.5128 2.50062 22.5036 2.5 22.4937V6.81875ZM6.09375 9.40625C6.09375 9.14103 6.19911 8.88668 6.38664 8.69914C6.57418 8.51161 6.82853 8.40625 7.09375 8.40625H15.9688C16.234 8.40625 16.4883 8.51161 16.6759 8.69914C16.8634 8.88668 16.9688 9.14103 16.9688 9.40625C16.9688 9.67147 16.8634 9.92582 16.6759 10.1134C16.4883 10.3009 16.234 10.4062 15.9688 10.4062H7.09375C6.82853 10.4062 6.57418 10.3009 6.38664 10.1134C6.19911 9.92582 6.09375 9.67147 6.09375 9.40625ZM16.9688 12.6562C16.9688 12.9215 16.8634 13.1758 16.6759 13.3634C16.4883 13.5509 16.234 13.6562 15.9688 13.6562H12.5938C12.3285 13.6562 12.0742 13.5509 11.8866 13.3634C11.6991 13.1758 11.5938 12.9215 11.5938 12.6562C11.5938 12.391 11.6991 12.1367 11.8866 11.9491C12.0742 11.7616 12.3285 11.6562 12.5938 11.6562H15.9688C16.1001 11.6562 16.2302 11.6821 16.3515 11.7324C16.4729 11.7827 16.5831 11.8564 16.676 11.9493C16.7688 12.0421 16.8425 12.1524 16.8927 12.2738C16.943 12.3951 16.9688 12.5252 16.9688 12.6566V12.6562Z" fill="#425A8B"/>
</g>
<defs>
<clipPath id="clip0_612_49509">
<rect width="32" height="32" fill="white" transform="translate(0.5)"/>
</clipPath>
</defs>
</svg>
