<svg width="33" height="24" viewBox="0 0 33 24" fill="none" xmlns="http://www.w3.org/2000/svg">
<path d="M2.538 20.5319H4.49944C4.75074 21.3124 5.24318 21.9931 5.90591 22.4759C6.56863 22.9588 7.36747 23.2189 8.18744 23.2189C9.00741 23.2189 9.80624 22.9588 10.469 22.4759C11.1317 21.9931 11.6241 21.3124 11.8754 20.5319H22.4164C22.6677 21.3124 23.1601 21.9931 23.8228 22.4759C24.4856 22.9588 25.2844 23.2189 26.1044 23.2189C26.9243 23.2189 27.7232 22.9588 28.3859 22.4759C29.0486 21.9931 29.5411 21.3124 29.7924 20.5319H31.5C31.6327 20.5319 31.7641 20.5055 31.8866 20.4542C32.009 20.4029 32.12 20.3278 32.2131 20.2331C32.3061 20.1385 32.3794 20.0263 32.4287 19.903C32.478 19.7798 32.5022 19.648 32.5 19.5152L32.4176 14.5721C32.4147 14.4033 32.3692 14.2379 32.2852 14.0914L28.2152 6.99294C28.1276 6.84022 28.0013 6.71333 27.849 6.62509C27.6966 6.53685 27.5237 6.49037 27.3477 6.49037H22.0156V2.81906C22.0149 2.27877 21.8 1.7608 21.4179 1.37878C21.0358 0.99675 20.5179 0.781862 19.9776 0.78125H2.538C1.99771 0.781862 1.47972 0.99675 1.09766 1.37878C0.715597 1.7608 0.500662 2.27877 0.5 2.81906L0.5 18.4937C0.500579 19.0341 0.715478 19.5521 1.09755 19.9342C1.47962 20.3163 1.99766 20.5313 2.538 20.5319ZM26.1044 21.2188C25.7335 21.2188 25.371 21.1088 25.0627 20.9028C24.7543 20.6967 24.514 20.4039 24.3721 20.0613C24.2302 19.7187 24.1931 19.3417 24.2654 18.978C24.3377 18.6142 24.5163 18.2801 24.7785 18.0179C25.0408 17.7557 25.3749 17.5771 25.7386 17.5048C26.1023 17.4324 26.4793 17.4696 26.8219 17.6115C27.1645 17.7534 27.4574 17.9937 27.6634 18.3021C27.8694 18.6104 27.9794 18.9729 27.9794 19.3438C27.9788 19.8409 27.7811 20.3174 27.4296 20.669C27.0781 21.0205 26.6015 21.2182 26.1044 21.2188V21.2188ZM22.0156 8.49037H26.7684L30.422 14.8628L30.4831 18.5316H29.8931C29.7073 17.6646 29.2298 16.8876 28.5403 16.3302C27.8508 15.7728 26.991 15.4687 26.1044 15.4687C25.2177 15.4687 24.3579 15.7728 23.6684 16.3302C22.9789 16.8876 22.5015 17.6646 22.3157 18.5316H22.0157L22.0156 8.49037ZM8.1875 21.2188C7.81666 21.2188 7.45415 21.1088 7.14581 20.9028C6.83746 20.6967 6.59714 20.4039 6.45523 20.0613C6.31331 19.7187 6.27618 19.3417 6.34853 18.978C6.42087 18.6142 6.59945 18.2801 6.86167 18.0179C7.1239 17.7557 7.45799 17.5771 7.82171 17.5048C8.18542 17.4324 8.56242 17.4696 8.90503 17.6115C9.24764 17.7534 9.54048 17.9937 9.74651 18.3021C9.95253 18.6104 10.0625 18.9729 10.0625 19.3438C10.0619 19.8409 9.86421 20.3174 9.5127 20.669C9.1612 21.0205 8.68461 21.2182 8.1875 21.2188V21.2188ZM2.5 2.81875C2.5005 2.80883 2.50466 2.79945 2.51168 2.79243C2.5187 2.78541 2.52808 2.78125 2.538 2.78075H19.9776C19.9875 2.78125 19.9969 2.78541 20.0039 2.79243C20.0109 2.79945 20.0151 2.80883 20.0156 2.81875V18.5312H11.9761C11.7904 17.6643 11.3129 16.8873 10.6234 16.3299C9.93388 15.7725 9.07407 15.4684 8.18744 15.4684C7.30081 15.4684 6.44099 15.7725 5.75149 16.3299C5.06199 16.8873 4.58452 17.6643 4.39875 18.5312H2.538C2.52816 18.5308 2.51885 18.5267 2.51184 18.5198C2.50483 18.5128 2.50062 18.5036 2.5 18.4937V2.81875ZM6.09375 5.40625C6.09375 5.14103 6.19911 4.88668 6.38664 4.69914C6.57418 4.51161 6.82853 4.40625 7.09375 4.40625H15.9688C16.234 4.40625 16.4883 4.51161 16.6759 4.69914C16.8634 4.88668 16.9687 5.14103 16.9688 5.40625C16.9687 5.67147 16.8634 5.92582 16.6759 6.11336C16.4883 6.30089 16.234 6.40625 15.9688 6.40625H7.09375C6.82853 6.40625 6.57418 6.30089 6.38664 6.11336C6.19911 5.92582 6.09375 5.67147 6.09375 5.40625ZM16.9688 8.65625C16.9688 8.92147 16.8634 9.17582 16.6759 9.36336C16.4883 9.55089 16.234 9.65625 15.9688 9.65625H12.5938C12.3285 9.65625 12.0742 9.55089 11.8866 9.36336C11.6991 9.17582 11.5938 8.92147 11.5938 8.65625C11.5938 8.39103 11.6991 8.13668 11.8866 7.94914C12.0742 7.76161 12.3285 7.65625 12.5938 7.65625H15.9688C16.1001 7.65625 16.2302 7.68213 16.3515 7.7324C16.4729 7.78267 16.5831 7.85636 16.676 7.94925C16.7688 8.04215 16.8425 8.15242 16.8927 8.27378C16.943 8.39514 16.9688 8.52521 16.9688 8.65656V8.65625Z" fill="white"/>
</svg>
