<svg width="32" height="32" viewBox="0 0 32 32" fill="none" xmlns="http://www.w3.org/2000/svg">
<path d="M29.4406 17.3008V11.1996C29.4406 11.0252 29.3939 10.8547 29.3037 10.7056L24.1033 2.03645C23.5849 1.17501 22.6381 0.639648 21.6333 0.639648H8.44799C7.44287 0.639648 6.49598 1.17501 5.97758 2.03741L0.777585 10.7056C0.687345 10.8547 0.640625 11.0252 0.640625 11.1996V26.5596C0.640625 28.1478 1.93247 29.4396 3.52062 29.4396H17.3017C18.7853 30.638 20.6694 31.3596 22.7206 31.3596C27.4851 31.3596 31.3606 27.4841 31.3606 22.7196C31.3606 20.6684 30.639 18.7843 29.4406 17.3008ZM16.0006 2.55965H21.6333C21.9689 2.55965 22.2848 2.73885 22.4573 3.02557L26.7849 10.2396H16.0006V2.55965ZM7.62398 3.02653C7.79646 2.73885 8.11263 2.55965 8.44799 2.55965H14.0806V10.2396H3.2963L7.62398 3.02653ZM2.56062 26.5596V12.1596H27.5206V15.5404C26.1469 14.6188 24.4957 14.0796 22.7206 14.0796C17.9561 14.0796 14.0806 17.9552 14.0806 22.7196C14.0806 24.4947 14.6198 26.1459 15.5414 27.5196H3.52062C2.99102 27.5196 2.56062 27.0892 2.56062 26.5596ZM22.7206 29.4396C19.0157 29.4396 16.0006 26.4246 16.0006 22.7196C16.0006 19.0147 19.0157 15.9996 22.7206 15.9996C26.4256 15.9996 29.4406 19.0147 29.4406 22.7196C29.4406 26.4246 26.4256 29.4396 22.7206 29.4396ZM21.7606 26.5596C21.5149 26.5596 21.2694 26.4659 21.0819 26.2784L18.2019 23.3984C17.8269 23.0233 17.8269 22.416 18.2019 22.0409C18.5769 21.6659 19.1843 21.6659 19.5593 22.0409L21.7606 24.2422L25.8819 20.1209C26.2569 19.7459 26.8643 19.7459 27.2393 20.1209C27.6144 20.496 27.6144 21.1033 27.2393 21.4784L22.4393 26.2784C22.2518 26.4659 22.0064 26.5596 21.7606 26.5596V26.5596ZM10.2406 16.9596H6.40062C5.87006 16.9596 5.44062 16.5302 5.44062 15.9996C5.44062 15.4691 5.87006 15.0396 6.40062 15.0396H10.2406C10.7712 15.0396 11.2006 15.4691 11.2006 15.9996C11.2006 16.5302 10.7712 16.9596 10.2406 16.9596Z" fill="white"/>
</svg>
