<svg width="62" height="24" viewBox="0 0 62 24" fill="none" xmlns="http://www.w3.org/2000/svg">
<path d="M18.3341 13.2005C18.3341 12.6376 18.2785 12.0565 18.1859 11.5117H10.165V14.7258H14.759C14.5737 15.7609 13.9624 16.6688 13.0548 17.2499L15.7963 19.3382C17.4079 17.8673 18.3341 15.7246 18.3341 13.2005Z" fill="#4280EF"/>
<path d="M10.1651 21.3359C12.4621 21.3359 14.3885 20.5914 15.7963 19.3203L13.0548 17.2502C12.2953 17.7587 11.3136 18.0492 10.1651 18.0492C7.94223 18.0492 6.07132 16.5783 5.38594 14.6172L2.57031 16.7418C4.01517 19.5564 6.94194 21.3359 10.1651 21.3359Z" fill="#34A353"/>
<path d="M5.38566 14.5994C5.0337 13.5644 5.0337 12.4385 5.38566 11.4035L2.57003 9.26074C1.36598 11.6214 1.36598 14.3997 2.57003 16.7422L5.38566 14.5994Z" fill="#F6B704"/>
<path d="M10.1651 7.97123C11.3691 7.95307 12.5547 8.40704 13.4253 9.22419L15.8519 6.82723C14.3144 5.41084 12.2768 4.64817 10.1651 4.66633C6.94194 4.66633 4.01517 6.44589 2.57031 9.2605L5.38594 11.4032C6.07132 9.42393 7.94223 7.97123 10.1651 7.97123Z" fill="#E54335"/>
<path d="M24.848 17.192C24.08 17.192 23.3867 17.016 22.768 16.664C22.16 16.312 21.6747 15.8267 21.312 15.208C20.96 14.5787 20.784 13.8533 20.784 13.032C20.784 12.2107 20.9653 11.4907 21.328 10.872C21.6907 10.2427 22.176 9.752 22.784 9.4C23.4027 9.048 24.096 8.872 24.864 8.872C25.6213 8.872 26.304 9.048 26.912 9.4C27.5307 9.752 28.016 10.2427 28.368 10.872C28.7307 11.4907 28.912 12.2107 28.912 13.032C28.912 13.8533 28.7307 14.5787 28.368 15.208C28.016 15.8267 27.5307 16.312 26.912 16.664C26.2933 17.016 25.6053 17.192 24.848 17.192ZM24.848 15.416C25.3813 15.416 25.8453 15.2187 26.24 14.824C26.6347 14.4187 26.832 13.8213 26.832 13.032C26.832 12.2427 26.6347 11.6507 26.24 11.256C25.8453 10.8507 25.3867 10.648 24.864 10.648C24.32 10.648 23.8507 10.8507 23.456 11.256C23.072 11.6507 22.88 12.2427 22.88 13.032C22.88 13.8213 23.072 14.4187 23.456 14.824C23.8507 15.2187 24.3147 15.416 24.848 15.416ZM34.5511 17.192C33.7831 17.192 33.0898 17.016 32.4711 16.664C31.8631 16.312 31.3778 15.8267 31.0151 15.208C30.6631 14.5787 30.4871 13.8533 30.4871 13.032C30.4871 12.2107 30.6685 11.4907 31.0311 10.872C31.3938 10.2427 31.8791 9.752 32.4871 9.4C33.1058 9.048 33.7991 8.872 34.5671 8.872C35.3245 8.872 36.0071 9.048 36.6151 9.4C37.2338 9.752 37.7191 10.2427 38.0711 10.872C38.4338 11.4907 38.6151 12.2107 38.6151 13.032C38.6151 13.8533 38.4338 14.5787 38.0711 15.208C37.7191 15.8267 37.2338 16.312 36.6151 16.664C35.9965 17.016 35.3085 17.192 34.5511 17.192ZM34.5511 15.416C35.0845 15.416 35.5485 15.2187 35.9431 14.824C36.3378 14.4187 36.5351 13.8213 36.5351 13.032C36.5351 12.2427 36.3378 11.6507 35.9431 11.256C35.5485 10.8507 35.0898 10.648 34.5671 10.648C34.0231 10.648 33.5538 10.8507 33.1591 11.256C32.7751 11.6507 32.5831 12.2427 32.5831 13.032C32.5831 13.8213 32.7751 14.4187 33.1591 14.824C33.5538 15.2187 34.0178 15.416 34.5511 15.416ZM43.3063 14.632C42.9223 14.632 42.5649 14.5893 42.2343 14.504L41.6423 15.096C41.8236 15.192 42.0689 15.272 42.3783 15.336C42.6876 15.4 43.1889 15.464 43.8823 15.528C44.9383 15.624 45.7063 15.8747 46.1863 16.28C46.6663 16.6853 46.9062 17.2453 46.9062 17.96C46.9062 18.4293 46.7783 18.872 46.5223 19.288C46.2663 19.7147 45.8716 20.056 45.3383 20.312C44.8049 20.5787 44.1223 20.712 43.2903 20.712C42.1596 20.712 41.2476 20.4987 40.5543 20.072C39.8609 19.656 39.5143 19.0267 39.5143 18.184C39.5143 17.4693 39.8609 16.8507 40.5543 16.328C40.3409 16.232 40.1543 16.1307 39.9943 16.024C39.8449 15.9173 39.7116 15.8053 39.5943 15.688V15.32L40.9863 13.848C40.3676 13.304 40.0583 12.6053 40.0583 11.752C40.0583 11.2187 40.1863 10.7333 40.4423 10.296C40.7089 9.85867 41.0823 9.512 41.5623 9.256C42.0423 9 42.6236 8.872 43.3063 8.872C43.7543 8.872 44.1703 8.936 44.5543 9.064H47.5623V10.312L46.2023 10.408C46.4156 10.8133 46.5223 11.2613 46.5223 11.752C46.5223 12.2853 46.3943 12.7707 46.1383 13.208C45.8823 13.6453 45.5089 13.992 45.0183 14.248C44.5383 14.504 43.9676 14.632 43.3063 14.632ZM43.3063 13.064C43.7223 13.064 44.0636 12.952 44.3303 12.728C44.6076 12.504 44.7463 12.184 44.7463 11.768C44.7463 11.352 44.6076 11.032 44.3303 10.808C44.0636 10.584 43.7223 10.472 43.3063 10.472C42.8689 10.472 42.5169 10.584 42.2503 10.808C41.9836 11.032 41.8503 11.352 41.8503 11.768C41.8503 12.184 41.9836 12.504 42.2503 12.728C42.5169 12.952 42.8689 13.064 43.3063 13.064ZM41.3863 17.976C41.3863 18.3707 41.5676 18.664 41.9303 18.856C42.3036 19.0587 42.7569 19.16 43.2903 19.16C43.8023 19.16 44.2183 19.0533 44.5383 18.84C44.8583 18.6373 45.0183 18.36 45.0183 18.008C45.0183 17.72 44.9116 17.48 44.6983 17.288C44.4956 17.096 44.0849 16.9787 43.4663 16.936C43.0289 16.904 42.6236 16.856 42.2503 16.792C41.9409 16.9627 41.7169 17.1493 41.5783 17.352C41.4503 17.5547 41.3863 17.7627 41.3863 17.976ZM49.0556 17V5.48H51.1036V17H49.0556ZM57.0523 17.192C56.2523 17.192 55.5429 17.0213 54.9243 16.68C54.3056 16.3387 53.8203 15.8587 53.4683 15.24C53.1163 14.6213 52.9403 13.9067 52.9403 13.096C52.9403 12.2747 53.1109 11.544 53.4523 10.904C53.8043 10.264 54.2843 9.768 54.8923 9.416C55.5109 9.05333 56.2363 8.872 57.0683 8.872C57.8469 8.872 58.5349 9.04267 59.1323 9.384C59.7296 9.72533 60.1936 10.1947 60.5243 10.792C60.8656 11.3787 61.0363 12.0347 61.0363 12.76C61.0363 12.8773 61.0309 13 61.0203 13.128C61.0203 13.256 61.0149 13.3893 61.0043 13.528H54.9723C55.0149 14.1467 55.2283 14.632 55.6123 14.984C56.0069 15.336 56.4816 15.512 57.0363 15.512C57.4523 15.512 57.7989 15.4213 58.0763 15.24C58.3643 15.048 58.5776 14.8027 58.7163 14.504H60.7963C60.6469 15.0053 60.3963 15.464 60.0443 15.88C59.7029 16.2853 59.2763 16.6053 58.7643 16.84C58.2629 17.0747 57.6923 17.192 57.0523 17.192ZM57.0683 10.536C56.5669 10.536 56.1243 10.68 55.7403 10.968C55.3563 11.2453 55.1109 11.672 55.0043 12.248H58.9563C58.9243 11.7253 58.7323 11.3093 58.3803 11C58.0283 10.6907 57.5909 10.536 57.0683 10.536Z" fill="#E54335"/>
</svg>
