<svg width="26" height="26" viewBox="0 0 26 26" fill="none" xmlns="http://www.w3.org/2000/svg">
<path d="M1.07333 11.6667H3.66667C4.37391 11.6667 5.05219 11.9476 5.55229 12.4477C6.05238 12.9478 6.33333 13.6261 6.33333 14.3333V15.6667C6.33333 16.3739 6.61428 17.0522 7.11438 17.5523C7.61448 18.0524 8.29276 18.3333 9 18.3333C9.70724 18.3333 10.3855 18.6143 10.8856 19.1144C11.3857 19.6145 11.6667 20.2928 11.6667 21V24.9267M7.66667 2.24667V4.33333C7.66667 5.21739 8.01786 6.06523 8.64298 6.69036C9.2681 7.31548 10.1159 7.66667 11 7.66667H11.6667C12.3739 7.66667 13.0522 7.94762 13.5523 8.44772C14.0524 8.94781 14.3333 9.62609 14.3333 10.3333C14.3333 11.0406 14.6143 11.7189 15.1144 12.219C15.6145 12.719 16.2928 13 17 13C17.7072 13 18.3855 12.719 18.8856 12.219C19.3857 11.7189 19.6667 11.0406 19.6667 10.3333C19.6667 9.62609 19.9476 8.94781 20.4477 8.44772C20.9478 7.94762 21.6261 7.66667 22.3333 7.66667H23.752M17 24.3173V21C17 20.2928 17.281 19.6145 17.781 19.1144C18.2811 18.6143 18.9594 18.3333 19.6667 18.3333H23.752M25 13C25 14.5759 24.6896 16.1363 24.0866 17.5922C23.4835 19.0481 22.5996 20.371 21.4853 21.4853C20.371 22.5996 19.0481 23.4835 17.5922 24.0866C16.1363 24.6896 14.5759 25 13 25C11.4241 25 9.86371 24.6896 8.4078 24.0866C6.95189 23.4835 5.62902 22.5996 4.51472 21.4853C3.40042 20.371 2.5165 19.0481 1.91345 17.5922C1.31039 16.1363 1 14.5759 1 13C1 9.8174 2.26428 6.76516 4.51472 4.51472C6.76516 2.26428 9.8174 1 13 1C16.1826 1 19.2348 2.26428 21.4853 4.51472C23.7357 6.76516 25 9.8174 25 13Z" stroke="#425A8B" stroke-width="2" stroke-linecap="round" stroke-linejoin="round"/>
</svg>
