<svg width="32" height="32" viewBox="0 0 32 32" fill="none" xmlns="http://www.w3.org/2000/svg">
<path d="M4.07333 14.6667H6.66667C7.37391 14.6667 8.05219 14.9476 8.55229 15.4477C9.05238 15.9478 9.33333 16.6261 9.33333 17.3333V18.6667C9.33333 19.3739 9.61428 20.0522 10.1144 20.5523C10.6145 21.0524 11.2928 21.3333 12 21.3333C12.7072 21.3333 13.3855 21.6143 13.8856 22.1144C14.3857 22.6145 14.6667 23.2928 14.6667 24V27.9267M10.6667 5.24667V7.33333C10.6667 8.21739 11.0179 9.06523 11.643 9.69036C12.2681 10.3155 13.1159 10.6667 14 10.6667H14.6667C15.3739 10.6667 16.0522 10.9476 16.5523 11.4477C17.0524 11.9478 17.3333 12.6261 17.3333 13.3333C17.3333 14.0406 17.6143 14.7189 18.1144 15.219C18.6145 15.719 19.2928 16 20 16C20.7072 16 21.3855 15.719 21.8856 15.219C22.3857 14.7189 22.6667 14.0406 22.6667 13.3333C22.6667 12.6261 22.9476 11.9478 23.4477 11.4477C23.9478 10.9476 24.6261 10.6667 25.3333 10.6667H26.752M20 27.3173V24C20 23.2928 20.281 22.6145 20.781 22.1144C21.2811 21.6143 21.9594 21.3333 22.6667 21.3333H26.752M28 16C28 17.5759 27.6896 19.1363 27.0866 20.5922C26.4835 22.0481 25.5996 23.371 24.4853 24.4853C23.371 25.5996 22.0481 26.4835 20.5922 27.0866C19.1363 27.6896 17.5759 28 16 28C14.4241 28 12.8637 27.6896 11.4078 27.0866C9.95189 26.4835 8.62902 25.5996 7.51472 24.4853C6.40042 23.371 5.5165 22.0481 4.91345 20.5922C4.31039 19.1363 4 17.5759 4 16C4 12.8174 5.26428 9.76516 7.51472 7.51472C9.76516 5.26428 12.8174 4 16 4C19.1826 4 22.2348 5.26428 24.4853 7.51472C26.7357 9.76516 28 12.8174 28 16Z" stroke="white" stroke-width="2" stroke-linecap="round" stroke-linejoin="round"/>
</svg>
