<svg width="27" height="26" viewBox="0 0 27 26" fill="none" xmlns="http://www.w3.org/2000/svg">
<path d="M9.4998 12.9998L12.1665 15.6665L17.4998 10.3331M7.94647 3.26247C8.90288 3.18613 9.81084 2.81007 10.5411 2.1878C11.3663 1.48416 12.4153 1.09766 13.4998 1.09766C14.5843 1.09766 15.6333 1.48416 16.4585 2.1878C17.1888 2.81007 18.0967 3.18613 19.0531 3.26247C20.1341 3.34847 21.1491 3.8169 21.9159 4.5837C22.6827 5.3505 23.1511 6.36547 23.2371 7.44647C23.3135 8.40288 23.6895 9.31084 24.3118 10.0411C25.0154 10.8663 25.4019 11.9153 25.4019 12.9998C25.4019 14.0843 25.0154 15.1333 24.3118 15.9585C23.6895 16.6888 23.3135 17.5967 23.2371 18.5531C23.1511 19.6341 22.6827 20.6491 21.9159 21.4159C21.1491 22.1827 20.1341 22.6511 19.0531 22.7371C18.0967 22.8135 17.1888 23.1895 16.4585 23.8118C15.6333 24.5154 14.5843 24.9019 13.4998 24.9019C12.4153 24.9019 11.3663 24.5154 10.5411 23.8118C9.81084 23.1895 8.90288 22.8135 7.94647 22.7371C6.86547 22.6511 5.8505 22.1827 5.0837 21.4159C4.3169 20.6491 3.84847 19.6341 3.76247 18.5531C3.68613 17.5967 3.31007 16.6888 2.6878 15.9585C1.98416 15.1333 1.59766 14.0843 1.59766 12.9998C1.59766 11.9153 1.98416 10.8663 2.6878 10.0411C3.31007 9.31084 3.68613 8.40288 3.76247 7.44647C3.84847 6.36547 4.3169 5.3505 5.0837 4.5837C5.8505 3.8169 6.86547 3.34847 7.94647 3.26247V3.26247Z" stroke="#425A8B" stroke-width="2" stroke-linecap="round" stroke-linejoin="round"/>
</svg>
