<svg width="33" height="32" viewBox="0 0 33 32" fill="none" xmlns="http://www.w3.org/2000/svg">
<path d="M12.4998 15.9998L15.1665 18.6665L20.4998 13.3331M10.9465 6.26247C11.9029 6.18613 12.8108 5.81007 13.5411 5.1878C14.3663 4.48416 15.4153 4.09766 16.4998 4.09766C17.5843 4.09766 18.6333 4.48416 19.4585 5.1878C20.1888 5.81007 21.0967 6.18613 22.0531 6.26247C23.1341 6.34847 24.1491 6.8169 24.9159 7.5837C25.6827 8.3505 26.1511 9.36547 26.2371 10.4465C26.3135 11.4029 26.6895 12.3108 27.3118 13.0411C28.0154 13.8663 28.4019 14.9153 28.4019 15.9998C28.4019 17.0843 28.0154 18.1333 27.3118 18.9585C26.6895 19.6888 26.3135 20.5967 26.2371 21.5531C26.1511 22.6341 25.6827 23.6491 24.9159 24.4159C24.1491 25.1827 23.1341 25.6511 22.0531 25.7371C21.0967 25.8135 20.1888 26.1895 19.4585 26.8118C18.6333 27.5154 17.5843 27.9019 16.4998 27.9019C15.4153 27.9019 14.3663 27.5154 13.5411 26.8118C12.8108 26.1895 11.9029 25.8135 10.9465 25.7371C9.86547 25.6511 8.8505 25.1827 8.0837 24.4159C7.3169 23.6491 6.84847 22.6341 6.76247 21.5531C6.68613 20.5967 6.31007 19.6888 5.6878 18.9585C4.98416 18.1333 4.59766 17.0843 4.59766 15.9998C4.59766 14.9153 4.98416 13.8663 5.6878 13.0411C6.31007 12.3108 6.68613 11.4029 6.76247 10.4465C6.84847 9.36547 7.3169 8.3505 8.0837 7.5837C8.8505 6.8169 9.86547 6.34847 10.9465 6.26247V6.26247Z" stroke="white" stroke-width="2" stroke-linecap="round" stroke-linejoin="round"/>
</svg>
