<svg width="57" height="15" viewBox="0 0 57 15" fill="none" xmlns="http://www.w3.org/2000/svg">
<g clip-path="url(#clip0_209_4659)">
<path fill-rule="evenodd" clip-rule="evenodd" d="M44.4648 0.491841H49.0435L48.5019 3.15318C49.9026 0.974306 51.5057 0.333094 53.4822 0.199249C54.2383 0.193824 54.9933 0.25423 55.7389 0.379784L54.858 3.87532C54.1517 3.68682 53.4255 3.58234 52.6947 3.56405C49.9867 3.51736 47.9759 5.34451 47.2786 7.96227L45.6974 13.9635H40.9443C42.1178 9.47503 43.6742 4.57879 44.4648 0.494953V0.491841Z" fill="#425A8B"/>
<path fill-rule="evenodd" clip-rule="evenodd" d="M31.4382 6.47438C32.2288 6.09152 34.9804 6.13199 36.764 5.90788C38.8153 5.65886 41.682 4.52896 41.6136 2.81387C41.5015 0.98673 39.8767 0.572744 38.3639 0.775068C34.803 1.29489 32.4778 3.62939 31.4382 6.47438ZM30.9962 7.63853C30.8807 8.38693 30.84 9.14498 30.8748 9.90144C31.1674 12.1332 33.1253 13.1791 35.2326 13.2476C36.9819 13.288 39.111 12.2422 40.2689 10.9411C40.305 10.8906 40.3532 10.85 40.409 10.823C40.4649 10.796 40.5267 10.7835 40.5886 10.7866C40.6506 10.7897 40.7108 10.8083 40.7637 10.8408C40.8166 10.8732 40.8605 10.9184 40.8914 10.9722C40.9402 11.0645 40.9627 11.1684 40.9567 11.2727C40.9507 11.3769 40.9162 11.4775 40.8572 11.5636C39.0269 13.3845 37.1562 14.3899 34.5509 14.4117C31.5969 14.4335 27.896 13.3067 27.4446 10.2376C27.3796 9.8424 27.3712 9.43993 27.4197 9.04234C28.0143 3.35859 33.2 0.286377 38.3017 0.0155744C40.7389 -0.118271 44.2562 0.513603 44.0539 3.15315C43.8516 5.92966 39.6557 6.88837 36.9227 6.96619C34.6225 7.03467 31.7899 7.02533 31.0087 7.63853H30.9962Z" fill="#425A8B"/>
<path fill-rule="evenodd" clip-rule="evenodd" d="M28.453 10.8477L27.7029 13.7829C26.2231 14.11 24.7111 14.2687 23.1957 14.2561C18.6387 14.1658 15.2988 12.0772 15.5012 7.73499C15.7502 2.75471 20.6931 0.199197 25.4617 0.130718C27.0168 0.122196 28.567 0.304085 30.0778 0.672324L28.6584 3.49241C27.4155 3.11902 26.1153 2.9735 24.8205 3.06286C22.6416 3.22161 20.6246 4.39509 20.0363 6.69536C19.2706 9.58392 20.939 11.6165 23.896 11.6165C25.4447 11.5867 26.9803 11.3276 28.453 10.8477Z" fill="#425A8B"/>
<path fill-rule="evenodd" clip-rule="evenodd" d="M9.18253 0.174302C12.9987 0.174302 15.8686 1.05208 16.1425 4.22078C16.2483 5.43784 15.8063 6.52417 15.467 7.8097L13.8764 13.9853C10.8322 13.9853 8.34833 14.0537 5.59672 14.2779C3.04743 14.2779 -0.00610352 13.7362 -0.00610352 10.4866C0.0530374 5.17638 8.27985 5.65884 11.7785 5.65884C12.5224 3.536 10.7856 2.68001 8.35455 2.68001C6.14455 2.68001 4.32363 3.30254 2.54007 3.89707L3.1626 1.0334C5.11533 0.449131 7.14432 0.159575 9.18253 0.174302ZM11.2587 7.78169C9.33816 7.78169 3.90965 7.32724 3.90965 10.2718C3.90965 11.7379 5.4442 11.9558 6.72973 11.9558C10.1101 11.9558 10.6361 10.7761 11.2587 7.78791V7.78169Z" fill="#425A8B"/>
<path fill-rule="evenodd" clip-rule="evenodd" d="M54.1326 11.2305C53.8892 11.2295 53.648 11.2768 53.423 11.3698C53.1981 11.4628 52.9938 11.5995 52.8222 11.7722C52.4693 12.1356 52.2679 12.6197 52.2588 13.1262C52.2649 13.6162 52.4588 14.0852 52.8004 14.4366C52.9742 14.6135 53.1816 14.7541 53.4103 14.85C53.639 14.9459 53.8846 14.9953 54.1326 14.9953C54.3807 14.9953 54.6262 14.9459 54.8549 14.85C55.0837 14.7541 55.291 14.6135 55.4648 14.4366C55.6383 14.2658 55.7755 14.0616 55.868 13.8364C55.9606 13.6112 56.0066 13.3696 56.0033 13.1262C56.0104 12.8794 55.9663 12.6339 55.8736 12.4051C55.7809 12.1763 55.6417 11.9693 55.4648 11.7971C55.2909 11.6197 55.0837 11.4784 54.8551 11.3811C54.6265 11.2839 54.381 11.2328 54.1326 11.2305ZM55.8259 13.1262C55.8259 13.3452 55.7819 13.562 55.6963 13.7636C55.6107 13.9652 55.4854 14.1475 55.3279 14.2996C55.0095 14.6149 54.5807 14.7936 54.1326 14.7977C53.6878 14.7961 53.2613 14.6202 52.9447 14.3077C52.6281 13.9952 52.4467 13.571 52.4393 13.1262C52.4443 12.6719 52.6224 12.2366 52.9374 11.9091C53.0938 11.7512 53.2799 11.6259 53.4851 11.5404C53.6903 11.4549 53.9104 11.4109 54.1326 11.4111C54.357 11.41 54.5792 11.4556 54.785 11.5451C54.9908 11.6346 55.1757 11.766 55.3279 11.9309C55.4872 12.0862 55.6135 12.2722 55.6991 12.4776C55.7847 12.683 55.8278 12.9036 55.8259 13.1262ZM54.1762 11.9994H53.4105V14.1783H53.7031V13.1946H54.2447L54.7178 14.1658H55.0571L54.5622 13.1729C54.7061 13.1649 54.8416 13.102 54.9406 12.9972C55.0396 12.8924 55.0947 12.7536 55.0944 12.6095C55.0944 12.1799 54.8019 11.9869 54.1918 11.9869L54.1762 11.9994ZM54.1326 12.2017C54.5622 12.2017 54.7863 12.3138 54.7863 12.5846C54.7863 12.9238 54.584 13.0141 54.1326 13.0141H53.7031V12.2017H54.1326Z" fill="#425A8B"/>
</g>
<defs>
<clipPath id="clip0_209_4659">
<rect width="56.0033" height="15" fill="white"/>
</clipPath>
</defs>
</svg>
