<svg width="78" height="15" viewBox="0 0 78 15" fill="none" xmlns="http://www.w3.org/2000/svg">
<g clip-path="url(#clip0_209_4675)">
<path fill-rule="evenodd" clip-rule="evenodd" d="M75.522 0.139404C75.8322 0.141628 76.1368 0.222017 76.4077 0.373139C76.6914 0.524944 76.9249 0.755679 77.0802 1.03744C77.2375 1.31061 77.3202 1.62028 77.3202 1.93547C77.3202 2.25066 77.2375 2.56033 77.0802 2.8335C76.9267 3.1162 76.6945 3.34836 76.4118 3.5019C76.1398 3.65804 75.8315 3.74005 75.5179 3.73973C75.203 3.73963 74.8935 3.65767 74.6199 3.5019C74.3378 3.34887 74.1068 3.11648 73.9556 2.8335C73.7982 2.56179 73.7147 2.25357 73.7136 1.93957C73.7152 1.62304 73.7985 1.31228 73.9556 1.03744C74.1147 0.755807 74.3508 0.525373 74.6363 0.373139C74.907 0.221518 75.2117 0.141095 75.522 0.139404ZM74.7306 2.93601V1.00053H75.3949C75.5618 0.993568 75.7288 1.01013 75.891 1.04974C75.99 1.08471 76.0749 1.15091 76.133 1.23837C76.1915 1.32114 76.223 1.41995 76.2232 1.52131C76.2249 1.66025 76.1719 1.79429 76.0756 1.89446C75.9656 2.00217 75.8194 2.06504 75.6655 2.07079C75.7277 2.09368 75.7848 2.1285 75.8336 2.1733C75.9427 2.29031 76.0376 2.41968 76.1166 2.55876L76.3544 2.93601H75.9731L75.8008 2.62847C75.7211 2.45984 75.6098 2.3081 75.4728 2.1815C75.3992 2.13178 75.3114 2.10732 75.2226 2.11179H75.0381V2.93191L74.7306 2.93601Z" fill="#425A8B"/>
<path fill-rule="evenodd" clip-rule="evenodd" d="M40.7899 0.020503H40.8514V4.16211H36.6893V0.020503H40.7899ZM22.5996 8.77529L32.2729 9.37397C32.4662 9.37613 32.6508 9.45442 32.7867 9.59184C32.9226 9.72926 32.9988 9.91472 32.9988 10.108C32.9988 10.2038 32.9799 10.2987 32.9432 10.3873C32.9065 10.4759 32.8527 10.5563 32.785 10.6241C32.7172 10.6919 32.6367 10.7456 32.5482 10.7823C32.4596 10.819 32.3647 10.8379 32.2688 10.8379H18.4867V5.4497C18.8968 7.11454 20.3689 8.47594 22.5873 8.77529H22.5996ZM18.499 15H32.5887C33.5713 14.9976 34.5227 14.6547 35.2808 14.0296C36.039 13.4046 36.557 12.536 36.7467 11.5719C36.9135 12.5259 37.4093 13.3912 38.148 14.0175C38.8867 14.6438 39.8215 14.9915 40.7899 15H49.8112C50.7753 14.9963 51.7078 14.6563 52.4481 14.0388C53.1884 13.4212 53.6901 12.5648 53.8667 11.617V15H68.3049C69.4274 14.9968 70.5029 14.5494 71.2966 13.7557C72.0903 12.9621 72.5376 11.8865 72.5408 10.7641V10.1613C72.5376 9.03885 72.0903 7.96331 71.2966 7.16963C70.5029 6.37594 69.4274 5.92861 68.3049 5.92537L67.5135 5.88846C63.0028 5.69163 58.5414 5.4784 54.0553 5.23647C54.4039 6.99563 55.8883 8.45954 58.2174 8.77529L67.9974 9.37397C68.1913 9.37506 68.377 9.45287 68.5138 9.5904C68.6505 9.72794 68.7273 9.91402 68.7273 10.108C68.7273 10.3016 68.6504 10.4872 68.5135 10.6241C68.3766 10.761 68.191 10.8379 67.9974 10.8379H53.9118V5.22827L49.7292 5.01504V9.80864C49.7292 10.1349 49.5996 10.4478 49.3689 10.6785C49.1382 10.9092 48.8253 11.0388 48.499 11.0388H42.0816C41.7553 11.0388 41.4424 10.9092 41.2117 10.6785C40.981 10.4478 40.8514 10.1349 40.8514 9.80864V4.55577L36.6893 4.33844V9.09513C36.4426 8.1993 35.9068 7.41008 35.1652 6.8502C34.4236 6.29031 33.5178 5.99113 32.5887 5.99918L14.1606 4.7936V15H18.4867H18.499ZM36.0168 4.16211V0H22.5996C21.656 0.00609148 20.7411 0.325589 19.9989 0.90827C19.2566 1.49095 18.729 2.30377 18.499 3.21897V0.020503H10.4783L7.74725 4.16211H36.0168ZM12.3932 4.69109L5.77896 15H0.604004L7.57503 4.41225L12.385 4.69109H12.3932ZM72.5368 4.16211V0H58.2134C57.1032 0.00296199 56.0381 0.439992 55.2459 1.21771C54.4536 1.99543 53.9969 3.05216 53.9733 4.16211H72.5368ZM49.7456 4.16211V0.020503H53.9118V4.16211H49.7456Z" fill="#425A8B"/>
</g>
<defs>
<clipPath id="clip0_209_4675">
<rect width="76.7181" height="15" fill="white" transform="translate(0.604004)"/>
</clipPath>
</defs>
</svg>
