<svg width="84" height="15" viewBox="0 0 84 15" fill="none" xmlns="http://www.w3.org/2000/svg">
<g clip-path="url(#clip0_209_4680)">
<path fill-rule="evenodd" clip-rule="evenodd" d="M56.7847 14.6825C56.7847 14.7268 56.8019 14.7693 56.8329 14.8011C56.8638 14.8328 56.9059 14.8512 56.9501 14.8524H61.0781C61.1002 14.8524 61.1221 14.848 61.1424 14.8394C61.1628 14.8308 61.1812 14.8182 61.1967 14.8024C61.2121 14.7865 61.2242 14.7678 61.2322 14.7472C61.2403 14.7266 61.2441 14.7046 61.2435 14.6825V0.362254C61.2441 0.340356 61.2403 0.318562 61.2322 0.298207C61.2241 0.277852 61.2119 0.259363 61.1964 0.243873C61.1809 0.228382 61.1625 0.216216 61.1421 0.208119C61.1217 0.200021 61.0999 0.196163 61.0781 0.19678H56.9501C56.9063 0.19678 56.8642 0.214214 56.8331 0.245246C56.8021 0.276279 56.7847 0.318368 56.7847 0.362254V14.6735V14.6825Z" fill="#425A8B"/>
<path fill-rule="evenodd" clip-rule="evenodd" d="M37.5181 14.508L31.4403 0.447223C31.4187 0.403368 31.3857 0.366118 31.3448 0.339369C31.3039 0.312619 31.2565 0.297353 31.2077 0.295166H25.0941C25.0452 0.296873 24.9976 0.311946 24.9566 0.33875C24.9156 0.365554 24.8828 0.403067 24.8616 0.447223L18.7837 14.508C18.7729 14.524 18.767 14.5429 18.7669 14.5622C18.7667 14.5815 18.7721 14.6004 18.7826 14.6166C18.7931 14.6328 18.8081 14.6456 18.8258 14.6533C18.8435 14.6611 18.8631 14.6634 18.8821 14.6601H23.1845C23.233 14.6567 23.2797 14.6404 23.3198 14.6129C23.3599 14.5854 23.3919 14.5476 23.4125 14.5036L24.307 12.33C24.3278 12.2865 24.36 12.2495 24.4002 12.2227C24.4403 12.1959 24.4869 12.1805 24.5351 12.178H31.7936C31.8414 12.1798 31.8877 12.195 31.9272 12.2219C31.9668 12.2488 31.9979 12.2863 32.0172 12.33L32.8446 14.5036C32.8636 14.5479 32.8946 14.586 32.9341 14.6136C32.9736 14.6413 33.02 14.6574 33.0682 14.6601H37.4152C37.4341 14.6625 37.4533 14.6596 37.4706 14.6518C37.4879 14.6439 37.5027 14.6315 37.5134 14.6157C37.5241 14.5999 37.5301 14.5815 37.531 14.5625C37.5318 14.5435 37.5273 14.5247 37.5181 14.508ZM25.4966 9.14132L27.5047 3.90876C27.7417 3.38551 27.9519 3.31395 28.1845 3.31395C28.417 3.31395 28.6764 3.52862 28.8195 3.9356L30.7963 9.14132H25.4966Z" fill="#425A8B"/>
<path fill-rule="evenodd" clip-rule="evenodd" d="M74.9644 0.107361H70.2551C64.5574 0.192334 63.6853 2.00808 63.6853 7.31219C63.6853 8.20665 63.6853 9.1011 63.7256 9.99555C63.8821 13.5331 65.8141 14.6288 69.0431 14.8703C70.0538 14.9374 72.4107 14.9821 72.5091 14.9777C72.5091 14.9777 75.1612 14.9374 76.1719 14.8703C79.4009 14.6288 81.3329 13.5286 81.4894 9.99555C81.5341 9.1011 81.5341 8.20665 81.5341 7.31219C81.5341 2.00808 80.6397 0.192334 74.9644 0.107361ZM77.0261 7.92936C77.0261 10.3444 76.874 11.2925 74.2175 11.3551C73.5243 11.3954 71.6951 11.3954 71.0019 11.3551C68.3409 11.2925 68.1889 10.3444 68.1889 7.92936V7.33455C68.1778 6.76277 68.2002 6.19084 68.256 5.62167C68.5198 3.60021 70.0449 3.71201 71.5297 3.66729C72.0753 3.66729 73.1397 3.66729 73.6898 3.66729C75.1835 3.71201 76.6996 3.60021 76.9635 5.62167C77.0155 6.19107 77.0364 6.76288 77.0261 7.33455V7.92936Z" fill="#425A8B"/>
<path fill-rule="evenodd" clip-rule="evenodd" d="M13.6317 9.19055C13.5065 10.6843 12.9877 11.3059 10.8545 11.3551C10.1613 11.3954 8.3321 11.3954 7.6389 11.3551C4.98237 11.2925 4.82584 10.3444 4.82584 7.92936V7.33455C4.81479 6.76277 4.83719 6.19084 4.89293 5.62167C5.15679 3.60021 6.68184 3.71201 8.16663 3.66729C8.71672 3.66729 9.78112 3.66729 10.3267 3.66729C11.7534 3.70754 13.1979 3.61362 13.5557 5.35781H18.113C17.8491 1.5519 16.5343 0.178917 11.6013 0.107361H6.89203C1.21672 0.192334 0.322266 2.00808 0.322266 7.31219C0.322266 8.20665 0.322266 9.1011 0.366988 9.99555C0.519046 13.5555 2.45554 14.6512 5.68899 14.8927C6.69973 14.9598 9.05214 15.0045 9.15053 15C9.15053 15 11.8026 14.9598 12.8133 14.8927C16.0423 14.6512 17.9788 13.551 18.1309 10.0179C18.1309 9.74063 18.1309 9.46783 18.1622 9.19055H13.6317Z" fill="#425A8B"/>
<path fill-rule="evenodd" clip-rule="evenodd" d="M43.3634 9.11896C44.3518 9.11896 45.3178 9.15474 46.3106 9.16368L47.5271 9.21288C48.5378 9.26655 50.0673 8.89982 50.0673 10.5546C50.0673 11.6279 49.0342 11.6503 48.2427 11.6905C47.0978 11.7263 47.2677 11.7442 46.1273 11.7352C45.4251 11.7352 45.367 11.7352 44.6425 11.7039C43.6541 11.6503 42.9967 11.4043 42.9385 10.3041L38.5647 10.2862C38.5647 11.212 38.5065 11.932 38.9851 12.7952C40.0226 14.5394 42.1156 14.8614 43.9046 14.8971L46.0244 14.9553C47.7149 14.9553 50.1255 14.9553 51.6863 14.5572C53.9895 13.9669 54.4368 12.4732 54.4368 10.2862C54.4953 9.31606 54.2276 8.35419 53.6765 7.55367C53.0235 6.69946 51.9859 6.2746 50.7069 6.21199C48.2695 6.08229 47.7194 6.03757 45.282 6.01968H44.4859C43.5199 6.01968 42.4198 5.70662 42.4287 4.51699C42.4376 3.32737 43.426 3.20662 44.4189 3.17531C44.9063 3.17531 45.4877 3.17531 46.4761 3.17531C47.1783 3.17531 46.9725 3.21556 47.6747 3.20662C48.8688 3.20662 49.9824 3.2737 49.9734 4.61538L54.3652 4.64669V3.98479C54.392 0.675313 52.2006 0.259392 49.7811 0.0894454C48.7927 0 47.782 0 46.7936 0C44.884 0 44.9019 0.0268336 42.9922 0.125224C39.6067 0.362254 38.019 1.01968 37.9922 4.5975C37.9654 8.39893 39.96 9.06977 43.3589 9.0966L43.3634 9.11896Z" fill="#425A8B"/>
<path fill-rule="evenodd" clip-rule="evenodd" d="M83.8418 13.1395C83.7457 12.9683 83.6051 12.8261 83.4348 12.7281C83.2646 12.6309 83.0718 12.58 82.8758 12.5805C82.6812 12.5802 82.49 12.6311 82.3213 12.7281C82.1487 12.8246 82.0063 12.967 81.9098 13.1395C81.8122 13.3096 81.7613 13.5025 81.7622 13.6986C81.7618 13.8957 81.8138 14.0895 81.9128 14.26C82.0118 14.4305 82.1543 14.5717 82.3257 14.6691C82.4938 14.7631 82.6832 14.8124 82.8758 14.8124C83.0684 14.8124 83.2578 14.7631 83.4259 14.6691C83.597 14.5708 83.7394 14.4296 83.839 14.2594C83.9386 14.0891 83.992 13.8958 83.9939 13.6986C83.9954 13.5018 83.9428 13.3084 83.8418 13.1395ZM83.6942 14.1771C83.6079 14.3159 83.4872 14.43 83.3438 14.5083C83.2004 14.5867 83.0392 14.6266 82.8758 14.6243C82.7116 14.6247 82.5499 14.5831 82.4062 14.5036C82.261 14.4208 82.1402 14.3011 82.0562 14.1565C81.9722 14.012 81.9278 13.8479 81.9277 13.6807C81.9284 13.5146 81.9715 13.3514 82.0529 13.2066C82.1359 13.0616 82.2557 12.9412 82.4002 12.8574C82.5447 12.7736 82.7088 12.7294 82.8758 12.7294C83.0429 12.7294 83.2069 12.7736 83.3514 12.8574C83.4959 12.9412 83.6157 13.0616 83.6987 13.2066C83.7801 13.3514 83.8233 13.5146 83.8239 13.6807C83.8239 13.8489 83.7791 14.014 83.6942 14.1592V14.1771Z" fill="#425A8B"/>
<path fill-rule="evenodd" clip-rule="evenodd" d="M83.1891 13.9669C83.1528 13.8913 83.101 13.8243 83.037 13.7701C83.1201 13.7379 83.1906 13.6799 83.2383 13.6046C83.2825 13.5385 83.3059 13.4606 83.3054 13.381C83.3065 13.3156 83.2911 13.251 83.2606 13.1932C83.2294 13.1383 83.1848 13.0921 83.1309 13.059C83.0538 13.0245 82.9694 13.0091 82.885 13.0143H82.4377V14.3918H82.6569V13.8104H82.8179C82.8403 13.8104 82.876 13.8551 82.9297 13.9445L82.9744 14.0295L83.1622 14.3918H83.4082L83.1801 13.9669H83.1891ZM82.8179 13.6449H82.6658V13.1977H82.8313C82.8855 13.1917 82.9401 13.2026 82.9878 13.229C83.0171 13.2486 83.0416 13.2745 83.0594 13.305C83.0742 13.3388 83.0818 13.3754 83.0818 13.4123C83.0824 13.4753 83.0619 13.5367 83.0236 13.5867C82.9973 13.6142 82.9652 13.6353 82.9295 13.6485C82.8939 13.6616 82.8557 13.6665 82.8179 13.6628V13.6449Z" fill="#425A8B"/>
</g>
<defs>
<clipPath id="clip0_209_4680">
<rect width="83.6717" height="15" fill="white" transform="translate(0.322266)"/>
</clipPath>
</defs>
</svg>
