<svg width="50" height="15" viewBox="0 0 50 15" fill="none" xmlns="http://www.w3.org/2000/svg">
<g clip-path="url(#clip0_209_4690)">
<path fill-rule="evenodd" clip-rule="evenodd" d="M0.993896 0.801644H6.83922L7.47899 0.827338L8.09307 0.881295L8.68146 1.02775L9.24158 1.16136L9.75546 1.37461L10.2359 1.58787L10.6907 1.84481L11.1172 2.13772L11.4898 2.45889L11.8649 2.80576L12.1861 3.17831L12.479 3.57914L12.7179 4.00565L12.9595 4.43217L13.1393 4.88181L13.2986 5.33659L21.5977 0L24.6141 2.02724L18.1547 6.19219L19.1979 6.88592L25.7087 2.74923L28.5119 4.62487L22.0884 8.86948L23.183 9.53494L29.7221 5.37256V0.801644H34.5268V9.90236H38.7971V14.1727H29.7118V9.80473L21.626 15L13.3783 9.42189L13.219 9.90236L13.0699 10.3571L12.813 10.8094L12.5715 11.2641L12.2837 11.665L11.9625 12.0761L11.6157 12.4512L11.2174 12.7698L10.8166 13.0781L10.3361 13.335L9.85566 13.574L9.32123 13.7898L8.76111 13.9491L8.17272 14.0545L7.55864 14.1367L6.89318 14.1624H0.993896V0.801644ZM5.58537 4.99229H6.83922L7.39934 5.04368L7.85412 5.20555L8.25494 5.4445L8.60181 5.76567L8.84076 6.13823L9.02833 6.53905L9.13367 6.99383L9.16193 7.45118L9.13367 7.90596L9.02833 8.35817L8.84076 8.75899L8.58382 9.13412L8.26522 9.45272L7.8644 9.69424L7.38393 9.85355L6.8495 9.9075H5.58537V4.99229ZM39.9893 0.801644H44.8197V9.90236H49.0643V14.1727H39.9893V0.811922V0.801644Z" fill="#425A8B"/>
</g>
<defs>
<clipPath id="clip0_209_4690">
<rect width="48.0704" height="15" fill="white" transform="translate(0.993896)"/>
</clipPath>
</defs>
</svg>
