<svg width="128" height="22" viewBox="0 0 128 22" fill="none" xmlns="http://www.w3.org/2000/svg">
<g clip-path="url(#clip0_205_3270)">
<path fill-rule="evenodd" clip-rule="evenodd" d="M0.13916 20.5977L4.58469 0.578308H12.5242L12.8874 11.7648L18.2336 0.578308H26.1876L21.7203 20.5977H15.96L18.3426 9.83257L12.9818 20.5977H8.84136L8.6307 9.83257L5.95758 20.5977H0.13916Z" fill="#425A8B"/>
<path fill-rule="evenodd" clip-rule="evenodd" d="M26.8774 3.83982H32.2382L32.9646 0.578308H27.582L26.8774 3.83982Z" fill="#425A8B"/>
<path fill-rule="evenodd" clip-rule="evenodd" d="M28.5191 20.6195L23.1147 20.5977L26.4198 5.77203H31.8169L28.5191 20.6195Z" fill="#425A8B"/>
<path fill-rule="evenodd" clip-rule="evenodd" d="M48.9743 5.772H53.8049L53.3836 7.60252C54.029 6.81149 54.893 6.22792 55.8678 5.92455C56.6799 5.65094 57.5315 5.51349 58.3884 5.51777L57.1463 10.3483C56.8412 10.3483 53.1003 9.62189 51.938 15.3313L50.7322 20.6195H45.6475L48.9743 5.772Z" fill="#425A8B"/>
<path fill-rule="evenodd" clip-rule="evenodd" d="M46.1493 15.1062C46.1493 15.2224 44.4568 21.1789 36.9894 21.0263C27.016 20.8302 29.5875 4.79867 40.941 5.36526C47.3914 5.69213 47.0718 11.0529 47.0137 11.2854H41.4422C41.5149 11.0747 41.7037 8.85921 39.9313 8.9028C36.6262 8.99723 34.28 17.1837 37.9119 17.2854C39.5899 17.3435 40.3744 15.3968 40.527 15.1498L46.1493 15.1062Z" fill="#425A8B"/>
<path fill-rule="evenodd" clip-rule="evenodd" d="M94.0326 21.0917C83.173 20.634 86.4418 4.64612 97.5847 5.17639C108.059 5.69213 105.088 21.5348 94.0326 21.0917ZM97.2215 8.67034C93.5895 7.94395 90.9237 16.6098 94.3595 17.3144C98.1803 18.1207 100.737 9.37494 97.2215 8.67034Z" fill="#425A8B"/>
<path fill-rule="evenodd" clip-rule="evenodd" d="M114.379 3.57829C112.89 3.57829 112.606 4.14488 112.359 5.27079L112.258 5.772H115.41L116.195 2.18362H121.12L120.35 5.772H122.899L122.173 9.18606H119.638L118.243 15.7236C118.129 16.0755 118.109 16.4512 118.185 16.8132C118.396 17.4016 120.517 17.1546 120.517 17.1546L119.696 20.5541C119.696 20.5541 115.381 21.0481 113.928 20.0384C113.282 19.5953 112.577 18.68 113.013 16.7115L114.677 9.2369H111.72L109.221 20.6486H103.912L106.396 9.2369H103.665L104.427 5.82285H107.079C107.558 3.91244 107.979 2.61219 109.163 1.62429C110.783 0.302258 114.974 0.817997 114.974 0.817997L114.379 3.62914V3.57829Z" fill="#425A8B"/>
<path fill-rule="evenodd" clip-rule="evenodd" d="M66.7425 15.5203H76.8249C76.8249 15.5203 75.9605 17.7503 79.1275 17.7721C81.3067 17.7721 82.1857 15.266 79.2292 14.7503C77.8709 14.5033 72.6263 13.6244 73.2147 9.57836C73.7086 6.25874 77.1663 5.09651 80.9435 5.15462C88.6724 5.24905 87.2196 9.78901 87.3213 10.0941H82.1639C82.1639 10.0941 82.7159 8.19095 80.3915 8.19095C78.2704 8.19095 77.7547 10.0941 80.2026 10.6098C83.1736 11.2636 86.5949 11.4161 86.7837 15.2515C86.8418 16.3193 86.2099 21.3169 78.4229 21.1643C71.2897 21.0118 70.7885 17.6559 70.9847 16.0796C70.1478 17.6831 68.8638 19.0094 67.2883 19.8978C65.7127 20.7861 63.9133 21.1983 62.1081 21.0844C51.2122 20.7358 54.5464 4.65341 65.6747 5.20547C70.7595 5.45244 72.6626 9.2878 72.0525 13.0651C71.958 13.7333 71.8999 13.8278 71.7038 13.8859L66.7425 15.5275V15.5203ZM65.2897 8.64857C61.7086 7.94397 59.0355 16.559 62.4495 17.2854C66.2268 18.0626 68.7692 9.34591 65.2752 8.63405L65.2897 8.64857Z" fill="#425A8B"/>
<path fill-rule="evenodd" clip-rule="evenodd" d="M125.871 5.75024C126.379 5.75024 126.867 5.95228 127.227 6.31192C127.586 6.67155 127.788 7.15932 127.788 7.66792C127.788 8.17652 127.586 8.66429 127.227 9.02393C126.867 9.38356 126.379 9.5856 125.871 9.5856C125.362 9.5856 124.874 9.38356 124.515 9.02393C124.155 8.66429 123.953 8.17652 123.953 7.66792C123.953 7.15932 124.155 6.67155 124.515 6.31192C124.874 5.95228 125.362 5.75024 125.871 5.75024ZM125.871 6.09165C125.656 6.07703 125.441 6.10666 125.238 6.17871C125.036 6.25075 124.85 6.36368 124.693 6.51047C124.536 6.65726 124.411 6.83478 124.325 7.03202C124.239 7.22926 124.195 7.44199 124.195 7.65703C124.195 7.87206 124.239 8.0848 124.325 8.28204C124.411 8.47927 124.536 8.6568 124.693 8.80359C124.85 8.95038 125.036 9.0633 125.238 9.13535C125.441 9.2074 125.656 9.23703 125.871 9.22241C126.085 9.23703 126.301 9.2074 126.503 9.13535C126.706 9.0633 126.891 8.95038 127.049 8.80359C127.206 8.6568 127.331 8.47927 127.417 8.28204C127.502 8.0848 127.547 7.87206 127.547 7.65703C127.547 7.44199 127.502 7.22926 127.417 7.03202C127.331 6.83478 127.206 6.65726 127.049 6.51047C126.891 6.36368 126.706 6.25075 126.503 6.17871C126.301 6.10666 126.085 6.07703 125.871 6.09165ZM126.212 7.88584L126.597 8.61224H126.14L125.834 7.88584H125.566L125.449 8.70667H125.079L125.399 6.6655H126.336C126.475 6.70146 126.598 6.78343 126.685 6.89812C126.772 7.01282 126.818 7.15353 126.815 7.29746C126.817 7.37404 126.804 7.45022 126.776 7.52153C126.748 7.59284 126.706 7.65783 126.652 7.71266C126.599 7.7675 126.535 7.81107 126.464 7.84081C126.394 7.87056 126.318 7.88587 126.241 7.88584H126.212ZM126.118 6.93427H125.733L125.638 7.60255H126.023C126.073 7.61191 126.124 7.61065 126.173 7.59883C126.222 7.58702 126.268 7.56493 126.308 7.53403C126.347 7.50312 126.38 7.46411 126.404 7.41957C126.428 7.37503 126.441 7.32598 126.445 7.27567C126.447 7.23154 126.44 7.18747 126.424 7.14611C126.409 7.10476 126.385 7.06699 126.354 7.03508C126.324 7.00318 126.287 6.97779 126.246 6.96046C126.206 6.94313 126.162 6.93422 126.118 6.93427Z" fill="#425A8B"/>
</g>
<defs>
<clipPath id="clip0_205_3270">
<rect width="127.664" height="20.5787" fill="white" transform="translate(0.13916 0.578308)"/>
</clipPath>
</defs>
</svg>
