<svg width="92" height="15" viewBox="0 0 92 15" fill="none" xmlns="http://www.w3.org/2000/svg">
<g clip-path="url(#clip0_209_4667)">
<path fill-rule="evenodd" clip-rule="evenodd" d="M16.4346 11.1951L16.4545 0.209418L20.7331 0.194458L20.7531 14.8304H13.303L4.3618 3.78488L4.34185 14.7905L0.0433116 14.8304L0.00341797 0.209418L0.0632584 0.194458H7.51339L16.4346 11.1951Z" fill="#425A8B"/>
<path fill-rule="evenodd" clip-rule="evenodd" d="M68.7901 0.209461L68.82 14.8305H64.2522V0.229408L64.2921 0.189514C65.7881 0.189514 67.2841 0.189514 68.7801 0.189514L68.7901 0.209461Z" fill="#425A8B"/>
<path fill-rule="evenodd" clip-rule="evenodd" d="M48.3246 7.26061L48.3445 7.28056L48.898 6.82178L56.2185 0.209412H62.2923L53.9246 7.3005L53.9446 7.3753L63.3644 14.7905L56.7321 14.8304L48.3644 7.33541L48.3246 7.39525V14.8304H43.7617V0.209412H48.3246V7.26061Z" fill="#425A8B"/>
<path fill-rule="evenodd" clip-rule="evenodd" d="M36.6307 0.0398936C38.5256 0.114694 40.5702 0.249335 41.5825 2.11935C41.8144 2.655 41.9202 3.23679 41.8917 3.81981V11.7686C41.8365 12.2988 41.6503 12.807 41.35 13.2475C41.0497 13.6879 40.6447 14.0468 40.1712 14.2919C38.1766 15.1546 35.778 14.9402 33.4641 15C30.7314 14.9601 27.9239 15.1346 25.3807 14.6759C24.7841 14.576 24.225 14.3185 23.7612 13.9301C23.2974 13.5418 22.9458 13.0366 22.7427 12.4668L22.5881 11.5492L22.628 3.12168C22.6629 2.04953 23.6254 1.12699 24.498 0.628324C25.9691 0 27.7494 0.0748005 29.4498 0L36.6307 0.0398936ZM27.6546 3.65027C27.2756 3.72507 26.7969 3.87965 26.7371 4.31848C26.7371 6.49767 26.6822 8.71177 26.777 10.871C26.9116 11.235 27.3105 11.2001 27.5998 11.2899H35.8528C36.5609 11.235 37.3986 11.4046 37.7826 10.7015V4.52793L37.7228 4.02925C37.6081 3.74501 37.3238 3.70512 37.0745 3.63032H27.6347L27.6546 3.65027Z" fill="#425A8B"/>
<path fill-rule="evenodd" clip-rule="evenodd" d="M91.6041 14.7706V14.8304H86.5576C86.1038 13.9877 85.645 13.1848 85.2211 12.3371L85.1264 12.3022H76.1503L74.774 14.7955L69.6726 14.8354L77.7311 0.209412H83.6354L91.6141 14.7706H91.6041ZM80.6334 3.87962L77.8458 9.09571H83.4658C82.5283 7.35536 81.5908 5.60502 80.6533 3.87962H80.6334Z" fill="#425A8B"/>
</g>
<defs>
<clipPath id="clip0_209_4667">
<rect width="91.6007" height="15" fill="white" transform="translate(0.00341797)"/>
</clipPath>
</defs>
</svg>
