<svg width="102" height="15" viewBox="0 0 102 15" fill="none" xmlns="http://www.w3.org/2000/svg">
<g clip-path="url(#clip0_123_4694)">
<path fill-rule="evenodd" clip-rule="evenodd" d="M24.407 4.29813H28.1671L28.3349 5.53607C28.6241 4.54687 30.5215 3.84113 31.6785 3.84113C34.3684 3.84113 35.4386 5.49558 35.4386 8.38798V14.6298H31.2678V9.05324C31.2678 7.93677 31.0595 7.10954 29.943 7.10954C28.8266 7.10954 28.3754 8.22601 28.3754 9.00696V14.6298H24.407V4.29813Z" fill="#425A8B"/>
<path fill-rule="evenodd" clip-rule="evenodd" d="M0.0644531 14.6702V0.0404663H7.04671C11.2233 0.0404663 13.1265 2.06515 13.1265 4.99804C13.1265 8.13919 11.3911 10.2911 7.04671 10.2911H4.6923V14.6702H0.0644531ZM6.55501 6.73927C7.67147 6.73927 8.86893 6.49052 8.86893 5.2063C8.86893 3.92207 7.5847 3.59812 6.55501 3.59812H4.6923V6.73927H6.55501Z" fill="#425A8B"/>
<path fill-rule="evenodd" clip-rule="evenodd" d="M70.3613 4.29813H74.1677L74.2892 5.53607C74.6189 4.54687 76.5221 3.84113 77.6791 3.84113C80.3228 3.84113 81.4392 5.49558 81.4392 8.38798V14.6703H77.2626V9.05324C77.2626 7.93677 77.0196 7.10954 75.9032 7.10954C74.9082 7.10954 74.3702 8.22601 74.3702 9.00696V14.6703H70.3613V4.29813Z" fill="#425A8B"/>
<path fill-rule="evenodd" clip-rule="evenodd" d="M51.1847 10.9506C51.1886 11.4056 51.3501 11.8451 51.6417 12.1944C51.9618 12.4446 52.3522 12.5882 52.7581 12.6051C53.4986 12.6051 54.0829 12.3968 54.0829 11.6969C54.1234 9.96142 47.8006 11.4886 47.8006 7.35825C47.8006 4.46585 50.0277 3.8006 52.3416 3.8006C54.6556 3.8006 57.843 4.2576 57.7157 7.39875H54.2043C54.1903 7.12545 54.0889 6.86389 53.9151 6.65251C53.7797 6.5031 53.6132 6.38525 53.4273 6.30729C53.2414 6.22932 53.0406 6.19313 52.8391 6.20129C52.1392 6.15501 51.4739 6.28228 51.4739 6.82027C51.5202 8.42844 58.005 7.35825 58.005 11.1589C58.005 13.8025 56.148 15 52.5499 15C50.2765 14.9595 47.4246 13.8025 47.4246 10.9506H51.1847Z" fill="#425A8B"/>
<path fill-rule="evenodd" clip-rule="evenodd" d="M93.9635 8.30699C93.9863 7.94694 93.868 7.59216 93.6337 7.31779C93.5098 7.1299 93.3451 6.97246 93.1517 6.85726C92.9584 6.74206 92.7415 6.67207 92.5173 6.65254C90.9438 6.65254 90.5331 8.18552 90.5331 9.42346C90.5331 10.8697 91.1926 12.0671 92.4305 12.0671C92.8837 12.0359 93.3067 11.8281 93.6084 11.4885C93.9102 11.1489 94.0667 10.7045 94.0445 10.2507H97.6831C97.7641 12.3969 96.2774 14.9595 92.2685 14.9595C91.5268 14.9941 90.786 14.8735 90.0934 14.6056C89.4009 14.3377 88.7718 13.9282 88.2465 13.4034C87.7211 12.8786 87.311 12.25 87.0424 11.5577C86.7737 10.8655 86.6524 10.1248 86.6862 9.38297C86.6862 5.3741 89.6654 3.84113 92.228 3.84113C95.6989 3.84113 97.6831 5.95258 97.6426 8.30699H93.9635Z" fill="#425A8B"/>
<path fill-rule="evenodd" clip-rule="evenodd" d="M19.9874 14.6703L19.5709 13.8025C18.7649 14.5156 17.713 14.887 16.638 14.838C15.3538 14.7975 12.8374 14.6298 12.8374 11.8589C12.8374 7.31778 19.6114 9.38296 19.6114 7.15002C19.6114 6.40378 18.7842 6.44427 18.333 6.44427C17.5057 6.44427 16.9678 6.61203 16.8463 7.84998H13.3696C13.3696 5.70382 14.0349 3.88739 18.5759 3.88739C22.9955 3.88739 23.4525 6.20131 23.4525 8.47474V13.1836C23.4193 13.4305 23.4427 13.6816 23.5208 13.9182C23.599 14.1547 23.7299 14.3703 23.9037 14.5488V14.6298L19.9816 14.6703H19.9874ZM19.6519 9.92094C18.2462 10.5804 16.4703 10.5399 16.4298 11.5696C16.4298 12.2349 16.8 12.5646 17.6272 12.5646C18.9924 12.5646 19.7387 11.1589 19.6519 9.92094ZM43.2944 14.6703L42.8721 13.8025C42.0633 14.5109 41.0134 14.8815 39.9392 14.838C38.6203 14.7975 36.0981 14.6298 36.0981 11.8589C36.0981 7.31778 42.8721 9.38296 42.9184 7.15002C42.9184 6.40378 42.0507 6.44427 41.6342 6.44427C40.7664 6.44427 40.2689 6.61203 40.1475 7.84998H36.6766C36.6766 5.70382 37.2956 3.88739 41.8829 3.88739C46.262 3.88739 46.719 6.20131 46.719 8.47474V13.1836C46.6858 13.4305 46.7092 13.6816 46.7873 13.9182C46.8655 14.1547 46.9964 14.3703 47.1702 14.5488V14.6298L43.2886 14.6703H43.2944ZM42.9647 9.92094C41.559 10.5804 39.7367 10.5399 39.7367 11.5696C39.7367 12.2349 40.0723 12.5646 40.94 12.5646C42.2589 12.5646 43.0457 11.1589 42.9647 9.92094Z" fill="#425A8B"/>
<path fill-rule="evenodd" clip-rule="evenodd" d="M86.0267 14.6703V4.29811H82.2087V14.6703H86.0267ZM82.2087 2.97339H86.0499V0H82.2087V2.97339Z" fill="#425A8B"/>
<path fill-rule="evenodd" clip-rule="evenodd" d="M64.1658 3.92786C67.5962 3.92786 69.7019 6.32277 69.7019 9.46392C69.7019 12.6051 67.5962 15 64.1658 15C60.7354 15 58.5835 12.6456 58.5835 9.46392C58.5835 6.28227 60.7354 3.92786 64.1658 3.92786ZM62.3436 9.46392C62.3436 10.7481 62.7601 12.3158 64.1658 12.3563C65.5715 12.3968 65.9418 10.7481 65.9418 9.46392C65.9418 8.17969 65.5715 6.61201 64.1658 6.61201C62.7601 6.61201 62.3841 8.22597 62.3436 9.46392Z" fill="#425A8B"/>
<path fill-rule="evenodd" clip-rule="evenodd" d="M100.142 12.6456C100.39 12.6456 100.761 12.6861 100.761 12.3564C100.761 12.0266 100.512 12.0266 100.309 12.0266H99.8119V12.6456H100.142ZM100.969 13.6406H100.72L100.223 12.8134H99.8119V13.6406H99.5632V11.8589H100.309C100.639 11.8589 100.934 11.963 100.934 12.3564C100.934 12.7497 100.72 12.8134 100.39 12.8134L100.928 13.6406H100.969ZM101.547 12.7902C101.552 12.5137 101.474 12.2421 101.323 12.0103C101.172 11.7785 100.956 11.597 100.701 11.489C100.446 11.3811 100.165 11.3517 99.894 11.4045C99.6225 11.4573 99.373 11.59 99.1775 11.7856C98.9819 11.9811 98.8493 12.2306 98.7964 12.5021C98.7436 12.7735 98.773 13.0545 98.881 13.3092C98.9889 13.5638 99.1704 13.7803 99.4022 13.9311C99.6341 14.0819 99.9057 14.16 100.182 14.1554C100.542 14.1495 100.886 14.0037 101.141 13.749C101.396 13.4942 101.541 13.1504 101.547 12.7902ZM98.5913 12.7902C98.5868 12.4771 98.6757 12.1697 98.8468 11.9075C99.018 11.6452 99.2635 11.4399 99.5519 11.318C99.8403 11.196 100.159 11.1629 100.466 11.2229C100.773 11.2829 101.056 11.4332 101.277 11.6546C101.499 11.8761 101.649 12.1586 101.709 12.4659C101.769 12.7733 101.736 13.0916 101.614 13.38C101.492 13.6684 101.287 13.9139 101.024 14.085C100.762 14.2562 100.455 14.3451 100.142 14.3406C99.7259 14.3406 99.3271 14.1754 99.0331 13.8814C98.7391 13.5874 98.574 13.1886 98.574 12.7729L98.5913 12.7902Z" fill="#425A8B"/>
</g>
<defs>
<clipPath id="clip0_123_4694">
<rect width="101.668" height="15" fill="white" transform="translate(0.0644531)"/>
</clipPath>
</defs>
</svg>
