<svg width="139" height="22" viewBox="0 0 139 22" fill="none" xmlns="http://www.w3.org/2000/svg">
<g clip-path="url(#clip0_205_3345)">
<path fill-rule="evenodd" clip-rule="evenodd" d="M136.756 17.3397C136.412 17.3366 136.074 17.436 135.786 17.6252C135.499 17.8143 135.274 18.0848 135.14 18.4022C135.007 18.7195 134.971 19.0694 135.036 19.4074C135.102 19.7454 135.267 20.0561 135.51 20.3001C135.753 20.5441 136.063 20.7104 136.401 20.7778C136.738 20.8452 137.088 20.8106 137.406 20.6785C137.724 20.5464 137.996 20.3227 138.186 20.0358C138.377 19.749 138.478 19.412 138.476 19.0677C138.476 18.6108 138.295 18.1725 137.973 17.8486C137.65 17.5248 137.213 17.3418 136.756 17.3397ZM136.756 20.5915C136.454 20.593 136.159 20.505 135.907 20.3385C135.656 20.172 135.459 19.9346 135.343 19.6563C135.226 19.378 135.195 19.0714 135.253 18.7753C135.311 18.4792 135.455 18.2069 135.668 17.9931C135.881 17.7792 136.152 17.6333 136.448 17.5738C136.744 17.5144 137.05 17.5441 137.329 17.6592C137.608 17.7743 137.847 17.9696 138.014 18.2203C138.182 18.4711 138.272 18.766 138.272 19.0677C138.273 19.2675 138.234 19.4654 138.159 19.6502C138.083 19.8351 137.971 20.0031 137.831 20.1447C137.69 20.2863 137.522 20.3987 137.338 20.4753C137.153 20.552 136.956 20.5915 136.756 20.5915Z" fill="#425A8B"/>
<path fill-rule="evenodd" clip-rule="evenodd" d="M137.643 18.6436C137.647 18.5609 137.628 18.4786 137.59 18.4054C137.551 18.3322 137.494 18.2707 137.423 18.2273C137.278 18.1527 137.115 18.1201 136.952 18.133H136.111V20.0652H136.347V19.1384H136.779L137.337 20.0338H137.612L137.03 19.1384C137.376 19.1384 137.643 18.9892 137.643 18.6122V18.6436ZM136.7 18.9578H136.339V18.2744H136.889C137.132 18.2744 137.392 18.2744 137.392 18.6043C137.392 18.9342 136.975 18.9578 136.7 18.9578Z" fill="#425A8B"/>
<path fill-rule="evenodd" clip-rule="evenodd" d="M125.281 0.743241C121.446 0.785135 117.617 1.04738 113.813 1.52869V20.3952H119.837V13.5618C122.024 13.954 124.238 14.1798 126.459 14.2372C127.982 14.2372 138.861 13.7738 138.861 7.3253C138.861 0.405498 127.276 0.743241 125.281 0.743241ZM125.618 10.9541C123.662 11.0058 121.709 10.7405 119.837 10.1686V4.37201C121.864 4.19921 125.068 4.07354 125.995 4.07354C126.922 4.07354 131.737 4.28561 131.776 7.41169C131.815 10.6556 127.558 10.9462 125.618 10.9462V10.9541Z" fill="#425A8B"/>
<path fill-rule="evenodd" clip-rule="evenodd" d="M21.6956 9.09254C20.0618 8.73123 13.9353 7.74942 12.333 7.52164C10.2202 7.2703 9.00273 6.88543 9.00273 5.70725C9.00273 4.13636 12.1445 4.37985 14.6501 4.48195C17.7919 4.60763 23.6356 6.54768 25.3165 7.2703L27.3037 2.93462C24.0519 1.36373 17.8155 0.578278 13.8489 0.578278C10.9821 0.61755 1.39959 1.29304 1.28177 6.39845C1.19537 10.0037 4.37644 11.3389 8.40579 12.36C11.8696 13.0748 15.7026 13.4125 18.3181 13.9309C21.672 14.6299 21.6484 17.0099 18.9936 17.2612C14.4066 17.5989 6.63853 15.3211 3.09616 13.5539L0.818359 18.2037C5.75097 20.6072 13.3855 21.1884 16.0011 21.157C19.3706 21.1177 28.309 20.78 28.309 15.4232C28.309 11.8966 25.2694 9.92511 21.6877 9.09254H21.6956Z" fill="#425A8B"/>
<path fill-rule="evenodd" clip-rule="evenodd" d="M48.4403 8.84118H35.9595V1.5051H29.5503V20.3951H35.9595V12.6427H48.4403V20.3951H54.8574V1.5051H48.4403V8.84118Z" fill="#425A8B"/>
<path fill-rule="evenodd" clip-rule="evenodd" d="M74.6029 1.5051H66.7484L55.6265 20.3951H60.6062L63.1746 16.0987H75.6868L78.2709 20.3951H85.9919L74.6029 1.54437V1.5051ZM65.366 12.305L69.2933 5.51088L73.3697 12.305H65.366Z" fill="#425A8B"/>
<path fill-rule="evenodd" clip-rule="evenodd" d="M111.944 7.02679C111.896 0.114847 100.162 0.743205 98.1511 0.743205C94.3167 0.785564 90.4879 1.04781 86.6836 1.52865V20.3951H92.8022V4.37197C94.9936 4.19918 98.1119 4.0735 99.0387 4.0735C99.9655 4.0735 104.733 3.90856 104.772 7.32526C104.812 10.5692 100.35 10.6163 98.4103 10.6163C97.2965 10.5827 96.191 10.4112 95.1193 10.1057L93.9804 12.0458L103.406 20.3951H112.47L104.262 13.1454C107.757 12.4385 111.967 10.7891 111.944 7.00323V7.02679Z" fill="#425A8B"/>
</g>
<defs>
<clipPath id="clip0_205_3345">
<rect width="138.042" height="20.5787" fill="white" transform="translate(0.818359 0.578278)"/>
</clipPath>
</defs>
</svg>
