<svg width="119" height="22" viewBox="0 0 119 22" fill="none" xmlns="http://www.w3.org/2000/svg">
<g clip-path="url(#clip0_205_3282)">
<path fill-rule="evenodd" clip-rule="evenodd" d="M116.275 17.1964C115.92 17.1964 115.572 17.302 115.276 17.4998C114.98 17.6976 114.75 17.9787 114.614 18.3075C114.478 18.6363 114.443 18.998 114.513 19.3468C114.583 19.6957 114.755 20.0159 115.007 20.267C115.259 20.5182 115.58 20.6888 115.929 20.7575C116.278 20.8261 116.639 20.7896 116.968 20.6526C117.296 20.5156 117.576 20.2843 117.773 19.9878C117.97 19.6914 118.074 19.3433 118.073 18.9875C118.071 18.5119 117.881 18.0564 117.544 17.7207C117.207 17.3849 116.751 17.1964 116.275 17.1964ZM116.275 20.5768C115.962 20.5781 115.656 20.4865 115.395 20.3135C115.134 20.1406 114.93 19.8942 114.809 19.6055C114.688 19.3167 114.655 18.9985 114.715 18.6912C114.775 18.3839 114.925 18.1013 115.145 17.879C115.366 17.6567 115.647 17.5048 115.954 17.4425C116.261 17.3802 116.579 17.4103 116.869 17.529C117.159 17.6476 117.407 17.8495 117.582 18.1092C117.757 18.3688 117.851 18.6745 117.852 18.9875C117.853 19.1954 117.813 19.4014 117.734 19.5938C117.655 19.7862 117.539 19.9612 117.393 20.1087C117.247 20.2563 117.072 20.3736 116.881 20.4539C116.689 20.5342 116.483 20.576 116.275 20.5768Z" fill="#425A8B"/>
<path fill-rule="evenodd" clip-rule="evenodd" d="M117.203 18.5208C117.207 18.4348 117.187 18.3493 117.148 18.2729C117.108 18.1965 117.049 18.132 116.976 18.0857C116.824 18.0083 116.654 17.9735 116.484 17.9847H115.607V19.9966H115.853V19.0695H116.307L116.881 19.9966H117.171L116.541 19.0695C116.9 19.0695 117.171 18.9118 117.171 18.5208H117.203ZM116.232 18.874H115.853V18.1676H116.427C116.68 18.1676 116.951 18.2055 116.951 18.5145C116.951 18.9244 116.516 18.874 116.232 18.874Z" fill="#425A8B"/>
<path fill-rule="evenodd" clip-rule="evenodd" d="M105.737 8.77697L109.414 4.8479C109.579 4.67339 109.689 4.45396 109.729 4.21723C109.729 3.92712 109.483 3.8136 108.708 3.8136H107.774V1.32877H117.821V3.8073H116.496C114.976 3.8073 114.693 4.04064 112.567 6.72099L106.746 13.0277V16.8558C106.746 17.8397 107.244 18.1866 108.638 18.1866H110.833V20.5768H96.769V18.1613H98.9638C100.383 18.1613 100.856 17.8145 100.856 16.8306V13.0025L94.0508 5.42181C92.9219 4.0974 93.0796 3.8073 89.9263 3.8073V1.32877H102.647V3.8073H101.739C100.818 3.8073 100.427 3.98388 100.427 4.32444C100.427 4.66501 100.711 4.8479 100.887 5.07494L104.356 8.85896C104.437 8.96812 104.544 9.05592 104.666 9.11479C104.789 9.17366 104.924 9.20182 105.06 9.19685C105.196 9.19189 105.328 9.15394 105.446 9.08629C105.564 9.01863 105.664 8.9233 105.737 8.8085V8.77697Z" fill="#425A8B"/>
<path fill-rule="evenodd" clip-rule="evenodd" d="M20.3949 1.3288H23.4663V8.26616H20.6283C20.376 6.87869 19.512 6.34262 18.7363 5.61735C17.3109 4.31187 14.2333 3.22081 11.6412 3.22081C8.27976 3.20189 5.45436 4.24249 5.45436 5.76871C5.45436 10.0005 24.5952 6.63273 24.5952 14.6422C24.5952 18.8236 20.4958 21.157 13.1296 21.157C10.1296 21.0995 7.17436 20.4187 4.45159 19.1578C3.73894 18.7416 3.43622 19.5425 3.30377 20.5516H0.150428V13.4061H3.00105C3.62542 15.2161 4.49574 15.5945 5.29038 16.345C6.66524 17.6064 9.95103 18.5335 12.9656 18.5082C17.5064 18.4641 19.0705 17.4676 19.0705 16.0297C19.0705 14.5918 17.5254 14.2449 12.5494 13.4629L8.3239 12.7754C3.54974 12.0186 0.0810547 10.9528 0.0810547 7.14988C0.0810547 3.20189 4.49574 0.723358 11.4331 0.723358C14.3405 0.723358 16.7938 1.11437 19.1399 2.47031C19.7705 2.89286 20.4012 2.94331 20.4012 1.35403L20.3949 1.3288Z" fill="#425A8B"/>
<path fill-rule="evenodd" clip-rule="evenodd" d="M80.2705 12.9078L80.3335 5.21999C80.3335 4.21092 79.8101 3.86405 78.3091 3.86405H76.5495V1.47382H87.7439V3.86405H86.2934C84.7924 3.86405 84.2689 4.21092 84.2689 5.21999V20.6966L79.8542 20.6588L65.6705 7.21291V16.9757C65.6705 17.9595 66.1939 18.3316 67.6949 18.3316H69.6437V20.6966H58.0142V18.3316H59.944C61.4387 18.3316 61.9685 17.9595 61.9685 16.9757V5.21999C61.9685 4.21092 61.4387 3.86405 59.944 3.86405H58.0142V1.47382H68.1049L80.2957 12.9078H80.2705Z" fill="#425A8B"/>
<path fill-rule="evenodd" clip-rule="evenodd" d="M42.7334 0.578278C33.8031 0.578278 28.228 4.52627 28.228 10.8645C28.228 17.0892 33.7464 21.012 42.4812 21.012C51.7583 21.012 57.1568 17.146 57.1568 10.5492C57.1379 4.61456 51.3168 0.578278 42.7334 0.578278ZM42.5316 18.5019C37.5872 18.5019 34.7681 15.6513 34.7681 10.7194C34.7681 5.90743 37.7133 3.05681 42.7776 3.05681C47.64 3.05681 50.4843 5.9705 50.4843 10.9213C50.4843 15.7648 47.5959 18.4893 42.5316 18.4893V18.5019Z" fill="#425A8B"/>
</g>
<defs>
<clipPath id="clip0_205_3282">
<rect width="117.992" height="20.5787" fill="white" transform="translate(0.0810547 0.578278)"/>
</clipPath>
</defs>
</svg>
