<svg width="66" height="15" viewBox="0 0 66 15" fill="none" xmlns="http://www.w3.org/2000/svg">
<g clip-path="url(#clip0_209_4706)">
<path fill-rule="evenodd" clip-rule="evenodd" d="M50.3311 7.50689C50.3311 8.98479 50.7693 10.4295 51.5904 11.6583C52.4115 12.8872 53.5785 13.8449 54.9439 14.4105C56.3093 14.9761 57.8117 15.124 59.2612 14.8357C60.7108 14.5474 62.0422 13.8357 63.0872 12.7907C64.1323 11.7456 64.844 10.4142 65.1323 8.96468C65.4206 7.51518 65.2726 6.01272 64.7071 4.64732C64.1415 3.28192 63.1837 2.11489 61.9549 1.29381C60.7261 0.472734 59.2814 0.0344849 57.8035 0.0344849C55.8222 0.0363117 53.9226 0.824167 52.5217 2.22512C51.1207 3.62607 50.3329 5.52564 50.3311 7.50689ZM53.1116 7.50689C53.1116 6.57893 53.3868 5.67182 53.9024 4.90025C54.4179 4.12869 55.1507 3.52733 56.008 3.17222C56.8653 2.8171 57.8087 2.72419 58.7188 2.90523C59.6289 3.08626 60.4649 3.53311 61.1211 4.18927C61.7772 4.84544 62.2241 5.68144 62.4051 6.59156C62.5861 7.50168 62.4932 8.44505 62.1381 9.30236C61.783 10.1597 61.1816 10.8924 60.4101 11.408C59.6385 11.9235 58.7314 12.1987 57.8035 12.1987C56.5594 12.1978 55.3665 11.7032 54.4868 10.8235C53.6072 9.9438 53.1126 8.75095 53.1116 7.50689Z" fill="#425A8B"/>
<path fill-rule="evenodd" clip-rule="evenodd" d="M43.2795 3.65685V15H46.0394V3.50506C46.0394 3.40501 46.0567 2.65639 46.5638 2.32176L45.0527 0C43.5451 0.99011 43.2312 2.75989 43.2795 3.65685Z" fill="#425A8B"/>
<path fill-rule="evenodd" clip-rule="evenodd" d="M18.8718 6.76175C17.278 9.52164 15.7669 12.1573 13.6039 12.1573C11.4408 12.1573 9.9332 9.53544 8.32212 6.76175C6.52129 3.59823 4.46172 0.0172729 0.732422 0.0172729V2.77716C2.85064 2.77716 4.34443 5.37836 5.92791 8.1279C7.75634 11.3121 9.83316 14.9207 13.6039 14.9207C17.3746 14.9207 19.4514 11.3294 21.2832 8.14515C22.8633 5.38526 24.3571 2.79441 26.4787 2.79441C28.6004 2.79441 30.0907 5.39561 31.6742 8.14515C33.5061 11.3294 35.576 14.9379 39.3502 14.9379V12.1573C37.1837 12.1573 35.6795 9.53544 34.0822 6.76175C32.2642 3.59823 30.2046 0.0172729 26.4787 0.0172729C22.7529 0.0172729 20.6899 3.59823 18.889 6.76175H18.8718Z" fill="#425A8B"/>
<path fill-rule="evenodd" clip-rule="evenodd" d="M28.5314 10.1081C28.5314 10.5175 28.41 10.9177 28.1826 11.2581C27.9551 11.5985 27.6319 11.8638 27.2536 12.0205C26.8754 12.1771 26.4592 12.2181 26.0577 12.1383C25.6562 12.0584 25.2873 11.8613 24.9979 11.5718C24.7084 11.2823 24.5112 10.9135 24.4314 10.5119C24.3515 10.1104 24.3925 9.69423 24.5492 9.316C24.7058 8.93777 24.9711 8.6145 25.3115 8.38705C25.6519 8.15961 26.0521 8.03821 26.4615 8.03821C27.0105 8.03821 27.537 8.25629 27.9252 8.64447C28.3134 9.03266 28.5314 9.55915 28.5314 10.1081Z" fill="#425A8B"/>
</g>
<defs>
<clipPath id="clip0_209_4706">
<rect width="64.5435" height="15" fill="white" transform="translate(0.732422)"/>
</clipPath>
</defs>
</svg>
