<svg width="12" height="12" viewBox="0 0 12 12" fill="none" xmlns="http://www.w3.org/2000/svg">
<path d="M10 6.00008L11.3334 6.00008M10 6.00008C10 5.64646 9.85956 5.30732 9.60952 5.05727C9.35947 4.80722 9.02033 4.66675 8.66671 4.66675C8.31309 4.66675 7.97395 4.80722 7.7239 5.05727C7.47385 5.30732 7.33337 5.64646 7.33337 6.00008M10 6.00008C10 6.3537 9.85956 6.69284 9.60952 6.94289C9.35947 7.19294 9.02033 7.33341 8.66671 7.33341C8.31309 7.33341 7.97395 7.19294 7.7239 6.94289C7.47385 6.69284 7.33337 6.3537 7.33337 6.00008M2.00004 2.00008C2.00004 2.3537 2.14052 2.69284 2.39057 2.94289C2.64061 3.19294 2.97975 3.33341 3.33337 3.33341C3.687 3.33341 4.02613 3.19294 4.27618 2.94289C4.52623 2.69284 4.66671 2.3537 4.66671 2.00008M2.00004 2.00008C2.00004 1.64646 2.14052 1.30732 2.39057 1.05727C2.64061 0.807223 2.97975 0.666748 3.33337 0.666748C3.687 0.666748 4.02613 0.807223 4.27618 1.05727C4.52623 1.30732 4.66671 1.64646 4.66671 2.00008M2.00004 2.00008L0.666708 2.00008M4.66671 2.00008L11.3334 2.00008M7.33337 6.00008L0.666708 6.00008M2.00004 10.0001C2.00004 10.3537 2.14052 10.6928 2.39057 10.9429C2.64061 11.1929 2.97975 11.3334 3.33337 11.3334C3.687 11.3334 4.02613 11.1929 4.27618 10.9429C4.52623 10.6928 4.66671 10.3537 4.66671 10.0001M2.00004 10.0001C2.00004 9.64646 2.14052 9.30732 2.39057 9.05727C2.64061 8.80722 2.97975 8.66675 3.33337 8.66675C3.687 8.66675 4.02613 8.80722 4.27618 9.05727C4.52623 9.30732 4.66671 9.64646 4.66671 10.0001M2.00004 10.0001L0.666708 10.0001M4.66671 10.0001L11.3334 10.0001" stroke="#425A8B" stroke-width="1.33333" stroke-linecap="round" stroke-linejoin="round"/>
</svg>
