<svg width="34" height="34" viewBox="0 0 34 34" fill="none" xmlns="http://www.w3.org/2000/svg">
<rect width="34" height="34" rx="4" fill="#EBF0F3"/>
<path d="M12 13.25C12 12.9185 12.1317 12.6005 12.3661 12.3661C12.6005 12.1317 12.9185 12 13.25 12H14.5C14.8315 12 15.1495 12.1317 15.3839 12.3661C15.6183 12.6005 15.75 12.9185 15.75 13.25V14.5C15.75 14.8315 15.6183 15.1495 15.3839 15.3839C15.1495 15.6183 14.8315 15.75 14.5 15.75H13.25C12.9185 15.75 12.6005 15.6183 12.3661 15.3839C12.1317 15.1495 12 14.8315 12 14.5V13.25ZM18.25 13.25C18.25 12.9185 18.3817 12.6005 18.6161 12.3661C18.8505 12.1317 19.1685 12 19.5 12H20.75C21.0815 12 21.3995 12.1317 21.6339 12.3661C21.8683 12.6005 22 12.9185 22 13.25V14.5C22 14.8315 21.8683 15.1495 21.6339 15.3839C21.3995 15.6183 21.0815 15.75 20.75 15.75H19.5C19.1685 15.75 18.8505 15.6183 18.6161 15.3839C18.3817 15.1495 18.25 14.8315 18.25 14.5V13.25ZM12 19.5C12 19.1685 12.1317 18.8505 12.3661 18.6161C12.6005 18.3817 12.9185 18.25 13.25 18.25H14.5C14.8315 18.25 15.1495 18.3817 15.3839 18.6161C15.6183 18.8505 15.75 19.1685 15.75 19.5V20.75C15.75 21.0815 15.6183 21.3995 15.3839 21.6339C15.1495 21.8683 14.8315 22 14.5 22H13.25C12.9185 22 12.6005 21.8683 12.3661 21.6339C12.1317 21.3995 12 21.0815 12 20.75V19.5ZM18.25 19.5C18.25 19.1685 18.3817 18.8505 18.6161 18.6161C18.8505 18.3817 19.1685 18.25 19.5 18.25H20.75C21.0815 18.25 21.3995 18.3817 21.6339 18.6161C21.8683 18.8505 22 19.1685 22 19.5V20.75C22 21.0815 21.8683 21.3995 21.6339 21.6339C21.3995 21.8683 21.0815 22 20.75 22H19.5C19.1685 22 18.8505 21.8683 18.6161 21.6339C18.3817 21.3995 18.25 21.0815 18.25 20.75V19.5Z" stroke="#FD9636" stroke-width="1.33333" stroke-linecap="round" stroke-linejoin="round"/>
</svg>
